<svg width="56" height="56" viewBox="0 0 56 56" fill="none" xmlns="http://www.w3.org/2000/svg">
<g clip-path="url(#clip0_64_5568)">
<path d="M28.5511 56C28.3657 56 28.1803 56 27.9936 55.9991C23.6041 56.0098 19.5482 55.8983 15.6039 55.6582C11.9877 55.4381 8.68677 54.1884 6.05749 52.0445C3.52051 49.9758 1.78802 47.1786 0.908325 43.7316C0.1427 40.7306 0.102112 37.7848 0.0632324 34.9354C0.0350341 32.8911 0.00598144 30.4686 0 28.0051C0.00598144 25.5313 0.0350341 23.1088 0.0632324 21.0645C0.102112 18.2156 0.1427 15.2697 0.908325 12.2683C1.78802 8.82131 3.52051 6.02413 6.05749 3.95541C8.68677 1.81149 11.9877 0.561794 15.6043 0.341762C19.5486 0.102077 23.6053 -0.0098617 28.0043 0.000819458C32.3951 -0.00857995 36.4496 0.102077 40.394 0.341762C44.0102 0.561794 47.3111 1.81149 49.9404 3.95541C52.4778 6.02413 54.2098 8.82131 55.0895 12.2683C55.8552 15.2693 55.8957 18.2156 55.9346 21.0645C55.9628 23.1088 55.9923 25.5313 55.9979 27.9948V28.0051C55.9923 30.4686 55.9628 32.8911 55.9346 34.9354C55.8957 37.7843 55.8556 40.7302 55.0895 43.7316C54.2098 47.1786 52.4778 49.9758 49.9404 52.0445C47.3111 54.1884 44.0102 55.4381 40.394 55.6582C36.6167 55.888 32.7364 56 28.5511 56ZM27.9936 51.6241C32.3118 51.6344 36.2766 51.5254 40.1282 51.2913C42.8626 51.1251 45.2334 50.2377 47.1756 48.6539C48.9709 47.1897 50.2074 45.1697 50.8504 42.6498C51.4878 40.1517 51.5246 37.4694 51.56 34.8756C51.5878 32.8449 51.6169 30.4395 51.6229 28C51.6169 25.56 51.5878 23.155 51.56 21.1243C51.5246 18.5305 51.4878 15.8482 50.8504 13.3497C50.2074 10.8298 48.9709 8.80978 47.1756 7.34561C45.2334 5.76223 42.8626 4.87484 40.1282 4.70864C36.2766 4.47409 32.3118 4.36599 28.0038 4.37539C23.6865 4.36514 19.7212 4.47409 15.8696 4.70864C13.1353 4.87484 10.7645 5.76223 8.8222 7.34561C7.02692 8.80978 5.79047 10.8298 5.14746 13.3497C4.51001 15.8482 4.47327 18.5301 4.4378 21.1243C4.41003 23.1567 4.38098 25.5634 4.375 28.0051C4.38098 30.4361 4.41003 32.8432 4.4378 34.8756C4.47327 37.4694 4.51001 40.1517 5.14746 42.6498C5.79047 45.1697 7.02692 47.1897 8.8222 48.6539C10.7645 50.2373 13.1353 51.1247 15.8696 51.2909C19.7212 51.5254 23.6874 51.6348 27.9936 51.6241ZM27.8893 41.6718C20.351 41.6718 14.2175 35.5387 14.2175 28C14.2175 20.4612 20.351 14.3281 27.8893 14.3281C35.4281 14.3281 41.5612 20.4612 41.5612 28C41.5612 35.5387 35.4281 41.6718 27.8893 41.6718ZM27.8893 18.7031C22.7632 18.7031 18.5925 22.8739 18.5925 28C18.5925 33.1261 22.7632 37.2968 27.8893 37.2968C33.0159 37.2968 37.1862 33.1261 37.1862 28C37.1862 22.8739 33.0159 18.7031 27.8893 18.7031ZM43.0925 9.95309C41.2805 9.95309 39.8112 11.422 39.8112 13.2343C39.8112 15.0467 41.2805 16.5156 43.0925 16.5156C44.9048 16.5156 46.3737 15.0467 46.3737 13.2343C46.3737 11.422 44.9048 9.95309 43.0925 9.95309Z" fill="white"/>
</g>
<defs>
<clipPath id="clip0_64_5568">
<rect width="56" height="56" fill="white"/>
</clipPath>
</defs>
</svg>
