<svg width="56" height="56" viewBox="0 0 56 56" fill="none" xmlns="http://www.w3.org/2000/svg">
<path d="M50.4012 50.3999V33.9919C50.4012 25.9279 48.6652 19.7679 39.2572 19.7679C34.7212 19.7679 31.6972 22.2319 30.4652 24.5839H30.3532V20.4959H21.4492V50.3999H30.7452V35.5599C30.7452 31.6399 31.4732 27.8879 36.2892 27.8879C41.0492 27.8879 41.1052 32.3119 41.1052 35.7839V50.3439H50.4012V50.3999Z" fill="white"/>
<path d="M6.32812 20.496H15.6241V50.4H6.32812V20.496Z" fill="white"/>
<path d="M10.9776 5.59998C8.00956 5.59998 5.60156 8.00798 5.60156 10.976C5.60156 13.944 8.00956 16.408 10.9776 16.408C13.9456 16.408 16.3536 13.944 16.3536 10.976C16.3536 8.00798 13.9456 5.59998 10.9776 5.59998Z" fill="white"/>
</svg>
