<svg width="617" height="870" viewBox="0 0 617 870" fill="none" xmlns="http://www.w3.org/2000/svg">
<g clip-path="url(#clip0_46_5570)">
<mask id="mask0_46_5570" style="mask-type:alpha" maskUnits="userSpaceOnUse" x="-127" y="0" width="871" height="870">
<rect width="870" height="870" transform="translate(-126.875)" fill="url(#paint0_radial_46_5570)"/>
</mask>
<g mask="url(#mask0_46_5570)">
<g clip-path="url(#clip1_46_5570)">
<mask id="path-3-inside-1_46_5570" fill="white">
<path d="M-39.875 0H18.125V58H-39.875V0Z"/>
</mask>
<path d="M18.125 58V58.6042H18.7292V58H18.125ZM17.5208 0V58H18.7292V0H17.5208ZM18.125 57.3958H-39.875V58.6042H18.125V57.3958Z" fill="#D0D5DD" mask="url(#path-3-inside-1_46_5570)"/>
<mask id="path-5-inside-2_46_5570" fill="white">
<path d="M18.125 0H76.125V58H18.125V0Z"/>
</mask>
<path d="M76.125 58V58.6042H76.7292V58H76.125ZM75.5208 0V58H76.7292V0H75.5208ZM76.125 57.3958H18.125V58.6042H76.125V57.3958Z" fill="#D0D5DD" mask="url(#path-5-inside-2_46_5570)"/>
<mask id="path-7-inside-3_46_5570" fill="white">
<path d="M76.125 0H134.125V58H76.125V0Z"/>
</mask>
<path d="M134.125 58V58.6042H134.729V58H134.125ZM133.521 0V58H134.729V0H133.521ZM134.125 57.3958H76.125V58.6042H134.125V57.3958Z" fill="#D0D5DD" mask="url(#path-7-inside-3_46_5570)"/>
<mask id="path-9-inside-4_46_5570" fill="white">
<path d="M134.125 0H192.125V58H134.125V0Z"/>
</mask>
<path d="M192.125 58V58.6042H192.729V58H192.125ZM191.521 0V58H192.729V0H191.521ZM192.125 57.3958H134.125V58.6042H192.125V57.3958Z" fill="#D0D5DD" mask="url(#path-9-inside-4_46_5570)"/>
<mask id="path-11-inside-5_46_5570" fill="white">
<path d="M192.125 0H250.125V58H192.125V0Z"/>
</mask>
<path d="M250.125 58V58.6042H250.729V58H250.125ZM249.521 0V58H250.729V0H249.521ZM250.125 57.3958H192.125V58.6042H250.125V57.3958Z" fill="#D0D5DD" mask="url(#path-11-inside-5_46_5570)"/>
<mask id="path-13-inside-6_46_5570" fill="white">
<path d="M250.125 0H308.125V58H250.125V0Z"/>
</mask>
<path d="M308.125 58V58.6042H308.729V58H308.125ZM307.521 0V58H308.729V0H307.521ZM308.125 57.3958H250.125V58.6042H308.125V57.3958Z" fill="#D0D5DD" mask="url(#path-13-inside-6_46_5570)"/>
<mask id="path-15-inside-7_46_5570" fill="white">
<path d="M308.125 0H366.125V58H308.125V0Z"/>
</mask>
<path d="M366.125 58V58.6042H366.729V58H366.125ZM365.521 0V58H366.729V0H365.521ZM366.125 57.3958H308.125V58.6042H366.125V57.3958Z" fill="#D0D5DD" mask="url(#path-15-inside-7_46_5570)"/>
<mask id="path-17-inside-8_46_5570" fill="white">
<path d="M366.125 0H424.125V58H366.125V0Z"/>
</mask>
<path d="M424.125 58V58.6042H424.729V58H424.125ZM423.521 0V58H424.729V0H423.521ZM424.125 57.3958H366.125V58.6042H424.125V57.3958Z" fill="#D0D5DD" mask="url(#path-17-inside-8_46_5570)"/>
<mask id="path-19-inside-9_46_5570" fill="white">
<path d="M424.125 0H482.125V58H424.125V0Z"/>
</mask>
<path d="M482.125 58V58.6042H482.729V58H482.125ZM481.521 0V58H482.729V0H481.521ZM482.125 57.3958H424.125V58.6042H482.125V57.3958Z" fill="#D0D5DD" mask="url(#path-19-inside-9_46_5570)"/>
<mask id="path-21-inside-10_46_5570" fill="white">
<path d="M482.125 0H540.125V58H482.125V0Z"/>
</mask>
<path d="M540.125 58V58.6042H540.729V58H540.125ZM539.521 0V58H540.729V0H539.521ZM540.125 57.3958H482.125V58.6042H540.125V57.3958Z" fill="#D0D5DD" mask="url(#path-21-inside-10_46_5570)"/>
<mask id="path-23-inside-11_46_5570" fill="white">
<path d="M540.125 0H598.125V58H540.125V0Z"/>
</mask>
<path d="M598.125 58V58.6042H598.729V58H598.125ZM597.521 0V58H598.729V0H597.521ZM598.125 57.3958H540.125V58.6042H598.125V57.3958Z" fill="#D0D5DD" mask="url(#path-23-inside-11_46_5570)"/>
<mask id="path-25-inside-12_46_5570" fill="white">
<path d="M598.125 0H656.125V58H598.125V0Z"/>
</mask>
<path d="M656.125 58V58.6042H656.729V58H656.125ZM655.521 0V58H656.729V0H655.521ZM656.125 57.3958H598.125V58.6042H656.125V57.3958Z" fill="#D0D5DD" mask="url(#path-25-inside-12_46_5570)"/>
<mask id="path-27-inside-13_46_5570" fill="white">
<path d="M-39.875 58H18.125V116H-39.875V58Z"/>
</mask>
<path d="M18.125 116V116.604H18.7292V116H18.125ZM17.5208 58V116H18.7292V58H17.5208ZM18.125 115.396H-39.875V116.604H18.125V115.396Z" fill="#D0D5DD" mask="url(#path-27-inside-13_46_5570)"/>
<mask id="path-29-inside-14_46_5570" fill="white">
<path d="M18.125 58H76.125V116H18.125V58Z"/>
</mask>
<path d="M18.125 58H76.125V116H18.125V58Z" fill="#F2F4F7"/>
<path d="M76.125 116V116.604H76.7292V116H76.125ZM75.5208 58V116H76.7292V58H75.5208ZM76.125 115.396H18.125V116.604H76.125V115.396Z" fill="#D0D5DD" mask="url(#path-29-inside-14_46_5570)"/>
<mask id="path-31-inside-15_46_5570" fill="white">
<path d="M76.125 58H134.125V116H76.125V58Z"/>
</mask>
<path d="M134.125 116V116.604H134.729V116H134.125ZM133.521 58V116H134.729V58H133.521ZM134.125 115.396H76.125V116.604H134.125V115.396Z" fill="#D0D5DD" mask="url(#path-31-inside-15_46_5570)"/>
<mask id="path-33-inside-16_46_5570" fill="white">
<path d="M134.125 58H192.125V116H134.125V58Z"/>
</mask>
<path d="M192.125 116V116.604H192.729V116H192.125ZM191.521 58V116H192.729V58H191.521ZM192.125 115.396H134.125V116.604H192.125V115.396Z" fill="#D0D5DD" mask="url(#path-33-inside-16_46_5570)"/>
<mask id="path-35-inside-17_46_5570" fill="white">
<path d="M192.125 58H250.125V116H192.125V58Z"/>
</mask>
<path d="M250.125 116V116.604H250.729V116H250.125ZM249.521 58V116H250.729V58H249.521ZM250.125 115.396H192.125V116.604H250.125V115.396Z" fill="#D0D5DD" mask="url(#path-35-inside-17_46_5570)"/>
<mask id="path-37-inside-18_46_5570" fill="white">
<path d="M250.125 58H308.125V116H250.125V58Z"/>
</mask>
<path d="M308.125 116V116.604H308.729V116H308.125ZM307.521 58V116H308.729V58H307.521ZM308.125 115.396H250.125V116.604H308.125V115.396Z" fill="#D0D5DD" mask="url(#path-37-inside-18_46_5570)"/>
<mask id="path-39-inside-19_46_5570" fill="white">
<path d="M308.125 58H366.125V116H308.125V58Z"/>
</mask>
<path d="M366.125 116V116.604H366.729V116H366.125ZM365.521 58V116H366.729V58H365.521ZM366.125 115.396H308.125V116.604H366.125V115.396Z" fill="#D0D5DD" mask="url(#path-39-inside-19_46_5570)"/>
<mask id="path-41-inside-20_46_5570" fill="white">
<path d="M366.125 58H424.125V116H366.125V58Z"/>
</mask>
<path d="M424.125 116V116.604H424.729V116H424.125ZM423.521 58V116H424.729V58H423.521ZM424.125 115.396H366.125V116.604H424.125V115.396Z" fill="#D0D5DD" mask="url(#path-41-inside-20_46_5570)"/>
<mask id="path-43-inside-21_46_5570" fill="white">
<path d="M424.125 58H482.125V116H424.125V58Z"/>
</mask>
<path d="M482.125 116V116.604H482.729V116H482.125ZM481.521 58V116H482.729V58H481.521ZM482.125 115.396H424.125V116.604H482.125V115.396Z" fill="#D0D5DD" mask="url(#path-43-inside-21_46_5570)"/>
<mask id="path-45-inside-22_46_5570" fill="white">
<path d="M482.125 58H540.125V116H482.125V58Z"/>
</mask>
<path d="M540.125 116V116.604H540.729V116H540.125ZM539.521 58V116H540.729V58H539.521ZM540.125 115.396H482.125V116.604H540.125V115.396Z" fill="#D0D5DD" mask="url(#path-45-inside-22_46_5570)"/>
<mask id="path-47-inside-23_46_5570" fill="white">
<path d="M540.125 58H598.125V116H540.125V58Z"/>
</mask>
<path d="M540.125 58H598.125V116H540.125V58Z" fill="#F2F4F7"/>
<path d="M598.125 116V116.604H598.729V116H598.125ZM597.521 58V116H598.729V58H597.521ZM598.125 115.396H540.125V116.604H598.125V115.396Z" fill="#D0D5DD" mask="url(#path-47-inside-23_46_5570)"/>
<mask id="path-49-inside-24_46_5570" fill="white">
<path d="M598.125 58H656.125V116H598.125V58Z"/>
</mask>
<path d="M656.125 116V116.604H656.729V116H656.125ZM655.521 58V116H656.729V58H655.521ZM656.125 115.396H598.125V116.604H656.125V115.396Z" fill="#D0D5DD" mask="url(#path-49-inside-24_46_5570)"/>
<mask id="path-51-inside-25_46_5570" fill="white">
<path d="M-39.875 116H18.125V174H-39.875V116Z"/>
</mask>
<path d="M18.125 174V174.604H18.7292V174H18.125ZM17.5208 116V174H18.7292V116H17.5208ZM18.125 173.396H-39.875V174.604H18.125V173.396Z" fill="#D0D5DD" mask="url(#path-51-inside-25_46_5570)"/>
<mask id="path-53-inside-26_46_5570" fill="white">
<path d="M18.125 116H76.125V174H18.125V116Z"/>
</mask>
<path d="M76.125 174V174.604H76.7292V174H76.125ZM75.5208 116V174H76.7292V116H75.5208ZM76.125 173.396H18.125V174.604H76.125V173.396Z" fill="#D0D5DD" mask="url(#path-53-inside-26_46_5570)"/>
<mask id="path-55-inside-27_46_5570" fill="white">
<path d="M76.125 116H134.125V174H76.125V116Z"/>
</mask>
<path d="M134.125 174V174.604H134.729V174H134.125ZM133.521 116V174H134.729V116H133.521ZM134.125 173.396H76.125V174.604H134.125V173.396Z" fill="#D0D5DD" mask="url(#path-55-inside-27_46_5570)"/>
<mask id="path-57-inside-28_46_5570" fill="white">
<path d="M134.125 116H192.125V174H134.125V116Z"/>
</mask>
<path d="M134.125 116H192.125V174H134.125V116Z" fill="#F2F4F7"/>
<path d="M192.125 174V174.604H192.729V174H192.125ZM191.521 116V174H192.729V116H191.521ZM192.125 173.396H134.125V174.604H192.125V173.396Z" fill="#D0D5DD" mask="url(#path-57-inside-28_46_5570)"/>
<mask id="path-59-inside-29_46_5570" fill="white">
<path d="M192.125 116H250.125V174H192.125V116Z"/>
</mask>
<path d="M250.125 174V174.604H250.729V174H250.125ZM249.521 116V174H250.729V116H249.521ZM250.125 173.396H192.125V174.604H250.125V173.396Z" fill="#D0D5DD" mask="url(#path-59-inside-29_46_5570)"/>
<mask id="path-61-inside-30_46_5570" fill="white">
<path d="M250.125 116H308.125V174H250.125V116Z"/>
</mask>
<path d="M308.125 174V174.604H308.729V174H308.125ZM307.521 116V174H308.729V116H307.521ZM308.125 173.396H250.125V174.604H308.125V173.396Z" fill="#D0D5DD" mask="url(#path-61-inside-30_46_5570)"/>
<mask id="path-63-inside-31_46_5570" fill="white">
<path d="M308.125 116H366.125V174H308.125V116Z"/>
</mask>
<path d="M366.125 174V174.604H366.729V174H366.125ZM365.521 116V174H366.729V116H365.521ZM366.125 173.396H308.125V174.604H366.125V173.396Z" fill="#D0D5DD" mask="url(#path-63-inside-31_46_5570)"/>
<mask id="path-65-inside-32_46_5570" fill="white">
<path d="M366.125 116H424.125V174H366.125V116Z"/>
</mask>
<path d="M366.125 116H424.125V174H366.125V116Z" fill="#F2F4F7"/>
<path d="M424.125 174V174.604H424.729V174H424.125ZM423.521 116V174H424.729V116H423.521ZM424.125 173.396H366.125V174.604H424.125V173.396Z" fill="#D0D5DD" mask="url(#path-65-inside-32_46_5570)"/>
<mask id="path-67-inside-33_46_5570" fill="white">
<path d="M424.125 116H482.125V174H424.125V116Z"/>
</mask>
<path d="M482.125 174V174.604H482.729V174H482.125ZM481.521 116V174H482.729V116H481.521ZM482.125 173.396H424.125V174.604H482.125V173.396Z" fill="#D0D5DD" mask="url(#path-67-inside-33_46_5570)"/>
<mask id="path-69-inside-34_46_5570" fill="white">
<path d="M482.125 116H540.125V174H482.125V116Z"/>
</mask>
<path d="M540.125 174V174.604H540.729V174H540.125ZM539.521 116V174H540.729V116H539.521ZM540.125 173.396H482.125V174.604H540.125V173.396Z" fill="#D0D5DD" mask="url(#path-69-inside-34_46_5570)"/>
<mask id="path-71-inside-35_46_5570" fill="white">
<path d="M540.125 116H598.125V174H540.125V116Z"/>
</mask>
<path d="M598.125 174V174.604H598.729V174H598.125ZM597.521 116V174H598.729V116H597.521ZM598.125 173.396H540.125V174.604H598.125V173.396Z" fill="#D0D5DD" mask="url(#path-71-inside-35_46_5570)"/>
<mask id="path-73-inside-36_46_5570" fill="white">
<path d="M598.125 116H656.125V174H598.125V116Z"/>
</mask>
<path d="M656.125 174V174.604H656.729V174H656.125ZM655.521 116V174H656.729V116H655.521ZM656.125 173.396H598.125V174.604H656.125V173.396Z" fill="#D0D5DD" mask="url(#path-73-inside-36_46_5570)"/>
<mask id="path-75-inside-37_46_5570" fill="white">
<path d="M-39.875 174H18.125V232H-39.875V174Z"/>
</mask>
<path d="M18.125 232V232.604H18.7292V232H18.125ZM17.5208 174V232H18.7292V174H17.5208ZM18.125 231.396H-39.875V232.604H18.125V231.396Z" fill="#D0D5DD" mask="url(#path-75-inside-37_46_5570)"/>
<mask id="path-77-inside-38_46_5570" fill="white">
<path d="M18.125 174H76.125V232H18.125V174Z"/>
</mask>
<path d="M76.125 232V232.604H76.7292V232H76.125ZM75.5208 174V232H76.7292V174H75.5208ZM76.125 231.396H18.125V232.604H76.125V231.396Z" fill="#D0D5DD" mask="url(#path-77-inside-38_46_5570)"/>
<mask id="path-79-inside-39_46_5570" fill="white">
<path d="M76.125 174H134.125V232H76.125V174Z"/>
</mask>
<path d="M134.125 232V232.604H134.729V232H134.125ZM133.521 174V232H134.729V174H133.521ZM134.125 231.396H76.125V232.604H134.125V231.396Z" fill="#D0D5DD" mask="url(#path-79-inside-39_46_5570)"/>
<mask id="path-81-inside-40_46_5570" fill="white">
<path d="M134.125 174H192.125V232H134.125V174Z"/>
</mask>
<path d="M192.125 232V232.604H192.729V232H192.125ZM191.521 174V232H192.729V174H191.521ZM192.125 231.396H134.125V232.604H192.125V231.396Z" fill="#D0D5DD" mask="url(#path-81-inside-40_46_5570)"/>
<mask id="path-83-inside-41_46_5570" fill="white">
<path d="M192.125 174H250.125V232H192.125V174Z"/>
</mask>
<path d="M250.125 232V232.604H250.729V232H250.125ZM249.521 174V232H250.729V174H249.521ZM250.125 231.396H192.125V232.604H250.125V231.396Z" fill="#D0D5DD" mask="url(#path-83-inside-41_46_5570)"/>
<mask id="path-85-inside-42_46_5570" fill="white">
<path d="M250.125 174H308.125V232H250.125V174Z"/>
</mask>
<path d="M308.125 232V232.604H308.729V232H308.125ZM307.521 174V232H308.729V174H307.521ZM308.125 231.396H250.125V232.604H308.125V231.396Z" fill="#D0D5DD" mask="url(#path-85-inside-42_46_5570)"/>
<mask id="path-87-inside-43_46_5570" fill="white">
<path d="M308.125 174H366.125V232H308.125V174Z"/>
</mask>
<path d="M366.125 232V232.604H366.729V232H366.125ZM365.521 174V232H366.729V174H365.521ZM366.125 231.396H308.125V232.604H366.125V231.396Z" fill="#D0D5DD" mask="url(#path-87-inside-43_46_5570)"/>
<mask id="path-89-inside-44_46_5570" fill="white">
<path d="M366.125 174H424.125V232H366.125V174Z"/>
</mask>
<path d="M424.125 232V232.604H424.729V232H424.125ZM423.521 174V232H424.729V174H423.521ZM424.125 231.396H366.125V232.604H424.125V231.396Z" fill="#D0D5DD" mask="url(#path-89-inside-44_46_5570)"/>
<mask id="path-91-inside-45_46_5570" fill="white">
<path d="M424.125 174H482.125V232H424.125V174Z"/>
</mask>
<path d="M482.125 232V232.604H482.729V232H482.125ZM481.521 174V232H482.729V174H481.521ZM482.125 231.396H424.125V232.604H482.125V231.396Z" fill="#D0D5DD" mask="url(#path-91-inside-45_46_5570)"/>
<mask id="path-93-inside-46_46_5570" fill="white">
<path d="M482.125 174H540.125V232H482.125V174Z"/>
</mask>
<path d="M540.125 232V232.604H540.729V232H540.125ZM539.521 174V232H540.729V174H539.521ZM540.125 231.396H482.125V232.604H540.125V231.396Z" fill="#D0D5DD" mask="url(#path-93-inside-46_46_5570)"/>
<mask id="path-95-inside-47_46_5570" fill="white">
<path d="M540.125 174H598.125V232H540.125V174Z"/>
</mask>
<path d="M540.125 174H598.125V232H540.125V174Z" fill="#F2F4F7"/>
<path d="M598.125 232V232.604H598.729V232H598.125ZM597.521 174V232H598.729V174H597.521ZM598.125 231.396H540.125V232.604H598.125V231.396Z" fill="#D0D5DD" mask="url(#path-95-inside-47_46_5570)"/>
<mask id="path-97-inside-48_46_5570" fill="white">
<path d="M598.125 174H656.125V232H598.125V174Z"/>
</mask>
<path d="M656.125 232V232.604H656.729V232H656.125ZM655.521 174V232H656.729V174H655.521ZM656.125 231.396H598.125V232.604H656.125V231.396Z" fill="#D0D5DD" mask="url(#path-97-inside-48_46_5570)"/>
<mask id="path-99-inside-49_46_5570" fill="white">
<path d="M-39.875 232H18.125V290H-39.875V232Z"/>
</mask>
<path d="M18.125 290V290.604H18.7292V290H18.125ZM17.5208 232V290H18.7292V232H17.5208ZM18.125 289.396H-39.875V290.604H18.125V289.396Z" fill="#D0D5DD" mask="url(#path-99-inside-49_46_5570)"/>
<mask id="path-101-inside-50_46_5570" fill="white">
<path d="M18.125 232H76.125V290H18.125V232Z"/>
</mask>
<path d="M76.125 290V290.604H76.7292V290H76.125ZM75.5208 232V290H76.7292V232H75.5208ZM76.125 289.396H18.125V290.604H76.125V289.396Z" fill="#D0D5DD" mask="url(#path-101-inside-50_46_5570)"/>
<mask id="path-103-inside-51_46_5570" fill="white">
<path d="M76.125 232H134.125V290H76.125V232Z"/>
</mask>
<path d="M134.125 290V290.604H134.729V290H134.125ZM133.521 232V290H134.729V232H133.521ZM134.125 289.396H76.125V290.604H134.125V289.396Z" fill="#D0D5DD" mask="url(#path-103-inside-51_46_5570)"/>
<mask id="path-105-inside-52_46_5570" fill="white">
<path d="M134.125 232H192.125V290H134.125V232Z"/>
</mask>
<path d="M192.125 290V290.604H192.729V290H192.125ZM191.521 232V290H192.729V232H191.521ZM192.125 289.396H134.125V290.604H192.125V289.396Z" fill="#D0D5DD" mask="url(#path-105-inside-52_46_5570)"/>
<mask id="path-107-inside-53_46_5570" fill="white">
<path d="M192.125 232H250.125V290H192.125V232Z"/>
</mask>
<path d="M192.125 232H250.125V290H192.125V232Z" fill="#F2F4F7"/>
<path d="M250.125 290V290.604H250.729V290H250.125ZM249.521 232V290H250.729V232H249.521ZM250.125 289.396H192.125V290.604H250.125V289.396Z" fill="#D0D5DD" mask="url(#path-107-inside-53_46_5570)"/>
<mask id="path-109-inside-54_46_5570" fill="white">
<path d="M250.125 232H308.125V290H250.125V232Z"/>
</mask>
<path d="M308.125 290V290.604H308.729V290H308.125ZM307.521 232V290H308.729V232H307.521ZM308.125 289.396H250.125V290.604H308.125V289.396Z" fill="#D0D5DD" mask="url(#path-109-inside-54_46_5570)"/>
<mask id="path-111-inside-55_46_5570" fill="white">
<path d="M308.125 232H366.125V290H308.125V232Z"/>
</mask>
<path d="M366.125 290V290.604H366.729V290H366.125ZM365.521 232V290H366.729V232H365.521ZM366.125 289.396H308.125V290.604H366.125V289.396Z" fill="#D0D5DD" mask="url(#path-111-inside-55_46_5570)"/>
<mask id="path-113-inside-56_46_5570" fill="white">
<path d="M366.125 232H424.125V290H366.125V232Z"/>
</mask>
<path d="M424.125 290V290.604H424.729V290H424.125ZM423.521 232V290H424.729V232H423.521ZM424.125 289.396H366.125V290.604H424.125V289.396Z" fill="#D0D5DD" mask="url(#path-113-inside-56_46_5570)"/>
<mask id="path-115-inside-57_46_5570" fill="white">
<path d="M424.125 232H482.125V290H424.125V232Z"/>
</mask>
<path d="M482.125 290V290.604H482.729V290H482.125ZM481.521 232V290H482.729V232H481.521ZM482.125 289.396H424.125V290.604H482.125V289.396Z" fill="#D0D5DD" mask="url(#path-115-inside-57_46_5570)"/>
<mask id="path-117-inside-58_46_5570" fill="white">
<path d="M482.125 232H540.125V290H482.125V232Z"/>
</mask>
<path d="M540.125 290V290.604H540.729V290H540.125ZM539.521 232V290H540.729V232H539.521ZM540.125 289.396H482.125V290.604H540.125V289.396Z" fill="#D0D5DD" mask="url(#path-117-inside-58_46_5570)"/>
<mask id="path-119-inside-59_46_5570" fill="white">
<path d="M540.125 232H598.125V290H540.125V232Z"/>
</mask>
<path d="M598.125 290V290.604H598.729V290H598.125ZM597.521 232V290H598.729V232H597.521ZM598.125 289.396H540.125V290.604H598.125V289.396Z" fill="#D0D5DD" mask="url(#path-119-inside-59_46_5570)"/>
<mask id="path-121-inside-60_46_5570" fill="white">
<path d="M598.125 232H656.125V290H598.125V232Z"/>
</mask>
<path d="M656.125 290V290.604H656.729V290H656.125ZM655.521 232V290H656.729V232H655.521ZM656.125 289.396H598.125V290.604H656.125V289.396Z" fill="#D0D5DD" mask="url(#path-121-inside-60_46_5570)"/>
<mask id="path-123-inside-61_46_5570" fill="white">
<path d="M-39.875 290H18.125V348H-39.875V290Z"/>
</mask>
<path d="M18.125 348V348.604H18.7292V348H18.125ZM17.5208 290V348H18.7292V290H17.5208ZM18.125 347.396H-39.875V348.604H18.125V347.396Z" fill="#D0D5DD" mask="url(#path-123-inside-61_46_5570)"/>
<mask id="path-125-inside-62_46_5570" fill="white">
<path d="M18.125 290H76.125V348H18.125V290Z"/>
</mask>
<path d="M18.125 290H76.125V348H18.125V290Z" fill="#F2F4F7"/>
<path d="M76.125 348V348.604H76.7292V348H76.125ZM75.5208 290V348H76.7292V290H75.5208ZM76.125 347.396H18.125V348.604H76.125V347.396Z" fill="#D0D5DD" mask="url(#path-125-inside-62_46_5570)"/>
<mask id="path-127-inside-63_46_5570" fill="white">
<path d="M76.125 290H134.125V348H76.125V290Z"/>
</mask>
<path d="M134.125 348V348.604H134.729V348H134.125ZM133.521 290V348H134.729V290H133.521ZM134.125 347.396H76.125V348.604H134.125V347.396Z" fill="#D0D5DD" mask="url(#path-127-inside-63_46_5570)"/>
<mask id="path-129-inside-64_46_5570" fill="white">
<path d="M134.125 290H192.125V348H134.125V290Z"/>
</mask>
<path d="M192.125 348V348.604H192.729V348H192.125ZM191.521 290V348H192.729V290H191.521ZM192.125 347.396H134.125V348.604H192.125V347.396Z" fill="#D0D5DD" mask="url(#path-129-inside-64_46_5570)"/>
<mask id="path-131-inside-65_46_5570" fill="white">
<path d="M192.125 290H250.125V348H192.125V290Z"/>
</mask>
<path d="M250.125 348V348.604H250.729V348H250.125ZM249.521 290V348H250.729V290H249.521ZM250.125 347.396H192.125V348.604H250.125V347.396Z" fill="#D0D5DD" mask="url(#path-131-inside-65_46_5570)"/>
<mask id="path-133-inside-66_46_5570" fill="white">
<path d="M250.125 290H308.125V348H250.125V290Z"/>
</mask>
<path d="M308.125 348V348.604H308.729V348H308.125ZM307.521 290V348H308.729V290H307.521ZM308.125 347.396H250.125V348.604H308.125V347.396Z" fill="#D0D5DD" mask="url(#path-133-inside-66_46_5570)"/>
<mask id="path-135-inside-67_46_5570" fill="white">
<path d="M308.125 290H366.125V348H308.125V290Z"/>
</mask>
<path d="M366.125 348V348.604H366.729V348H366.125ZM365.521 290V348H366.729V290H365.521ZM366.125 347.396H308.125V348.604H366.125V347.396Z" fill="#D0D5DD" mask="url(#path-135-inside-67_46_5570)"/>
<mask id="path-137-inside-68_46_5570" fill="white">
<path d="M366.125 290H424.125V348H366.125V290Z"/>
</mask>
<path d="M366.125 290H424.125V348H366.125V290Z" fill="#F2F4F7"/>
<path d="M424.125 348V348.604H424.729V348H424.125ZM423.521 290V348H424.729V290H423.521ZM424.125 347.396H366.125V348.604H424.125V347.396Z" fill="#D0D5DD" mask="url(#path-137-inside-68_46_5570)"/>
<mask id="path-139-inside-69_46_5570" fill="white">
<path d="M424.125 290H482.125V348H424.125V290Z"/>
</mask>
<path d="M482.125 348V348.604H482.729V348H482.125ZM481.521 290V348H482.729V290H481.521ZM482.125 347.396H424.125V348.604H482.125V347.396Z" fill="#D0D5DD" mask="url(#path-139-inside-69_46_5570)"/>
<mask id="path-141-inside-70_46_5570" fill="white">
<path d="M482.125 290H540.125V348H482.125V290Z"/>
</mask>
<path d="M540.125 348V348.604H540.729V348H540.125ZM539.521 290V348H540.729V290H539.521ZM540.125 347.396H482.125V348.604H540.125V347.396Z" fill="#D0D5DD" mask="url(#path-141-inside-70_46_5570)"/>
<mask id="path-143-inside-71_46_5570" fill="white">
<path d="M540.125 290H598.125V348H540.125V290Z"/>
</mask>
<path d="M598.125 348V348.604H598.729V348H598.125ZM597.521 290V348H598.729V290H597.521ZM598.125 347.396H540.125V348.604H598.125V347.396Z" fill="#D0D5DD" mask="url(#path-143-inside-71_46_5570)"/>
<mask id="path-145-inside-72_46_5570" fill="white">
<path d="M598.125 290H656.125V348H598.125V290Z"/>
</mask>
<path d="M656.125 348V348.604H656.729V348H656.125ZM655.521 290V348H656.729V290H655.521ZM656.125 347.396H598.125V348.604H656.125V347.396Z" fill="#D0D5DD" mask="url(#path-145-inside-72_46_5570)"/>
<mask id="path-147-inside-73_46_5570" fill="white">
<path d="M-39.875 348H18.125V406H-39.875V348Z"/>
</mask>
<path d="M18.125 406V406.604H18.7292V406H18.125ZM17.5208 348V406H18.7292V348H17.5208ZM18.125 405.396H-39.875V406.604H18.125V405.396Z" fill="#D0D5DD" mask="url(#path-147-inside-73_46_5570)"/>
<mask id="path-149-inside-74_46_5570" fill="white">
<path d="M18.125 348H76.125V406H18.125V348Z"/>
</mask>
<path d="M76.125 406V406.604H76.7292V406H76.125ZM75.5208 348V406H76.7292V348H75.5208ZM76.125 405.396H18.125V406.604H76.125V405.396Z" fill="#D0D5DD" mask="url(#path-149-inside-74_46_5570)"/>
<mask id="path-151-inside-75_46_5570" fill="white">
<path d="M76.125 348H134.125V406H76.125V348Z"/>
</mask>
<path d="M134.125 406V406.604H134.729V406H134.125ZM133.521 348V406H134.729V348H133.521ZM134.125 405.396H76.125V406.604H134.125V405.396Z" fill="#D0D5DD" mask="url(#path-151-inside-75_46_5570)"/>
<mask id="path-153-inside-76_46_5570" fill="white">
<path d="M134.125 348H192.125V406H134.125V348Z"/>
</mask>
<path d="M192.125 406V406.604H192.729V406H192.125ZM191.521 348V406H192.729V348H191.521ZM192.125 405.396H134.125V406.604H192.125V405.396Z" fill="#D0D5DD" mask="url(#path-153-inside-76_46_5570)"/>
<mask id="path-155-inside-77_46_5570" fill="white">
<path d="M192.125 348H250.125V406H192.125V348Z"/>
</mask>
<path d="M250.125 406V406.604H250.729V406H250.125ZM249.521 348V406H250.729V348H249.521ZM250.125 405.396H192.125V406.604H250.125V405.396Z" fill="#D0D5DD" mask="url(#path-155-inside-77_46_5570)"/>
<mask id="path-157-inside-78_46_5570" fill="white">
<path d="M250.125 348H308.125V406H250.125V348Z"/>
</mask>
<path d="M308.125 406V406.604H308.729V406H308.125ZM307.521 348V406H308.729V348H307.521ZM308.125 405.396H250.125V406.604H308.125V405.396Z" fill="#D0D5DD" mask="url(#path-157-inside-78_46_5570)"/>
<mask id="path-159-inside-79_46_5570" fill="white">
<path d="M308.125 348H366.125V406H308.125V348Z"/>
</mask>
<path d="M366.125 406V406.604H366.729V406H366.125ZM365.521 348V406H366.729V348H365.521ZM366.125 405.396H308.125V406.604H366.125V405.396Z" fill="#D0D5DD" mask="url(#path-159-inside-79_46_5570)"/>
<mask id="path-161-inside-80_46_5570" fill="white">
<path d="M366.125 348H424.125V406H366.125V348Z"/>
</mask>
<path d="M424.125 406V406.604H424.729V406H424.125ZM423.521 348V406H424.729V348H423.521ZM424.125 405.396H366.125V406.604H424.125V405.396Z" fill="#D0D5DD" mask="url(#path-161-inside-80_46_5570)"/>
<mask id="path-163-inside-81_46_5570" fill="white">
<path d="M424.125 348H482.125V406H424.125V348Z"/>
</mask>
<path d="M482.125 406V406.604H482.729V406H482.125ZM481.521 348V406H482.729V348H481.521ZM482.125 405.396H424.125V406.604H482.125V405.396Z" fill="#D0D5DD" mask="url(#path-163-inside-81_46_5570)"/>
<mask id="path-165-inside-82_46_5570" fill="white">
<path d="M482.125 348H540.125V406H482.125V348Z"/>
</mask>
<path d="M540.125 406V406.604H540.729V406H540.125ZM539.521 348V406H540.729V348H539.521ZM540.125 405.396H482.125V406.604H540.125V405.396Z" fill="#D0D5DD" mask="url(#path-165-inside-82_46_5570)"/>
<mask id="path-167-inside-83_46_5570" fill="white">
<path d="M540.125 348H598.125V406H540.125V348Z"/>
</mask>
<path d="M598.125 406V406.604H598.729V406H598.125ZM597.521 348V406H598.729V348H597.521ZM598.125 405.396H540.125V406.604H598.125V405.396Z" fill="#D0D5DD" mask="url(#path-167-inside-83_46_5570)"/>
<mask id="path-169-inside-84_46_5570" fill="white">
<path d="M598.125 348H656.125V406H598.125V348Z"/>
</mask>
<path d="M656.125 406V406.604H656.729V406H656.125ZM655.521 348V406H656.729V348H655.521ZM656.125 405.396H598.125V406.604H656.125V405.396Z" fill="#D0D5DD" mask="url(#path-169-inside-84_46_5570)"/>
<mask id="path-171-inside-85_46_5570" fill="white">
<path d="M-39.875 406H18.125V464H-39.875V406Z"/>
</mask>
<path d="M18.125 464V464.604H18.7292V464H18.125ZM17.5208 406V464H18.7292V406H17.5208ZM18.125 463.396H-39.875V464.604H18.125V463.396Z" fill="#D0D5DD" mask="url(#path-171-inside-85_46_5570)"/>
<mask id="path-173-inside-86_46_5570" fill="white">
<path d="M18.125 406H76.125V464H18.125V406Z"/>
</mask>
<path d="M76.125 464V464.604H76.7292V464H76.125ZM75.5208 406V464H76.7292V406H75.5208ZM76.125 463.396H18.125V464.604H76.125V463.396Z" fill="#D0D5DD" mask="url(#path-173-inside-86_46_5570)"/>
<mask id="path-175-inside-87_46_5570" fill="white">
<path d="M76.125 406H134.125V464H76.125V406Z"/>
</mask>
<path d="M134.125 464V464.604H134.729V464H134.125ZM133.521 406V464H134.729V406H133.521ZM134.125 463.396H76.125V464.604H134.125V463.396Z" fill="#D0D5DD" mask="url(#path-175-inside-87_46_5570)"/>
<mask id="path-177-inside-88_46_5570" fill="white">
<path d="M134.125 406H192.125V464H134.125V406Z"/>
</mask>
<path d="M192.125 464V464.604H192.729V464H192.125ZM191.521 406V464H192.729V406H191.521ZM192.125 463.396H134.125V464.604H192.125V463.396Z" fill="#D0D5DD" mask="url(#path-177-inside-88_46_5570)"/>
<mask id="path-179-inside-89_46_5570" fill="white">
<path d="M192.125 406H250.125V464H192.125V406Z"/>
</mask>
<path d="M192.125 406H250.125V464H192.125V406Z" fill="#F2F4F7"/>
<path d="M250.125 464V464.604H250.729V464H250.125ZM249.521 406V464H250.729V406H249.521ZM250.125 463.396H192.125V464.604H250.125V463.396Z" fill="#D0D5DD" mask="url(#path-179-inside-89_46_5570)"/>
<mask id="path-181-inside-90_46_5570" fill="white">
<path d="M250.125 406H308.125V464H250.125V406Z"/>
</mask>
<path d="M308.125 464V464.604H308.729V464H308.125ZM307.521 406V464H308.729V406H307.521ZM308.125 463.396H250.125V464.604H308.125V463.396Z" fill="#D0D5DD" mask="url(#path-181-inside-90_46_5570)"/>
<mask id="path-183-inside-91_46_5570" fill="white">
<path d="M308.125 406H366.125V464H308.125V406Z"/>
</mask>
<path d="M366.125 464V464.604H366.729V464H366.125ZM365.521 406V464H366.729V406H365.521ZM366.125 463.396H308.125V464.604H366.125V463.396Z" fill="#D0D5DD" mask="url(#path-183-inside-91_46_5570)"/>
<mask id="path-185-inside-92_46_5570" fill="white">
<path d="M366.125 406H424.125V464H366.125V406Z"/>
</mask>
<path d="M424.125 464V464.604H424.729V464H424.125ZM423.521 406V464H424.729V406H423.521ZM424.125 463.396H366.125V464.604H424.125V463.396Z" fill="#D0D5DD" mask="url(#path-185-inside-92_46_5570)"/>
<mask id="path-187-inside-93_46_5570" fill="white">
<path d="M424.125 406H482.125V464H424.125V406Z"/>
</mask>
<path d="M482.125 464V464.604H482.729V464H482.125ZM481.521 406V464H482.729V406H481.521ZM482.125 463.396H424.125V464.604H482.125V463.396Z" fill="#D0D5DD" mask="url(#path-187-inside-93_46_5570)"/>
<mask id="path-189-inside-94_46_5570" fill="white">
<path d="M482.125 406H540.125V464H482.125V406Z"/>
</mask>
<path d="M540.125 464V464.604H540.729V464H540.125ZM539.521 406V464H540.729V406H539.521ZM540.125 463.396H482.125V464.604H540.125V463.396Z" fill="#D0D5DD" mask="url(#path-189-inside-94_46_5570)"/>
<mask id="path-191-inside-95_46_5570" fill="white">
<path d="M540.125 406H598.125V464H540.125V406Z"/>
</mask>
<path d="M540.125 406H598.125V464H540.125V406Z" fill="#F2F4F7"/>
<path d="M598.125 464V464.604H598.729V464H598.125ZM597.521 406V464H598.729V406H597.521ZM598.125 463.396H540.125V464.604H598.125V463.396Z" fill="#D0D5DD" mask="url(#path-191-inside-95_46_5570)"/>
<mask id="path-193-inside-96_46_5570" fill="white">
<path d="M598.125 406H656.125V464H598.125V406Z"/>
</mask>
<path d="M656.125 464V464.604H656.729V464H656.125ZM655.521 406V464H656.729V406H655.521ZM656.125 463.396H598.125V464.604H656.125V463.396Z" fill="#D0D5DD" mask="url(#path-193-inside-96_46_5570)"/>
<mask id="path-195-inside-97_46_5570" fill="white">
<path d="M-39.875 464H18.125V522H-39.875V464Z"/>
</mask>
<path d="M18.125 522V522.604H18.7292V522H18.125ZM17.5208 464V522H18.7292V464H17.5208ZM18.125 521.396H-39.875V522.604H18.125V521.396Z" fill="#D0D5DD" mask="url(#path-195-inside-97_46_5570)"/>
<mask id="path-197-inside-98_46_5570" fill="white">
<path d="M18.125 464H76.125V522H18.125V464Z"/>
</mask>
<path d="M18.125 464H76.125V522H18.125V464Z" fill="#F2F4F7"/>
<path d="M76.125 522V522.604H76.7292V522H76.125ZM75.5208 464V522H76.7292V464H75.5208ZM76.125 521.396H18.125V522.604H76.125V521.396Z" fill="#D0D5DD" mask="url(#path-197-inside-98_46_5570)"/>
<mask id="path-199-inside-99_46_5570" fill="white">
<path d="M76.125 464H134.125V522H76.125V464Z"/>
</mask>
<path d="M134.125 522V522.604H134.729V522H134.125ZM133.521 464V522H134.729V464H133.521ZM134.125 521.396H76.125V522.604H134.125V521.396Z" fill="#D0D5DD" mask="url(#path-199-inside-99_46_5570)"/>
<mask id="path-201-inside-100_46_5570" fill="white">
<path d="M134.125 464H192.125V522H134.125V464Z"/>
</mask>
<path d="M192.125 522V522.604H192.729V522H192.125ZM191.521 464V522H192.729V464H191.521ZM192.125 521.396H134.125V522.604H192.125V521.396Z" fill="#D0D5DD" mask="url(#path-201-inside-100_46_5570)"/>
<mask id="path-203-inside-101_46_5570" fill="white">
<path d="M192.125 464H250.125V522H192.125V464Z"/>
</mask>
<path d="M250.125 522V522.604H250.729V522H250.125ZM249.521 464V522H250.729V464H249.521ZM250.125 521.396H192.125V522.604H250.125V521.396Z" fill="#D0D5DD" mask="url(#path-203-inside-101_46_5570)"/>
<mask id="path-205-inside-102_46_5570" fill="white">
<path d="M250.125 464H308.125V522H250.125V464Z"/>
</mask>
<path d="M308.125 522V522.604H308.729V522H308.125ZM307.521 464V522H308.729V464H307.521ZM308.125 521.396H250.125V522.604H308.125V521.396Z" fill="#D0D5DD" mask="url(#path-205-inside-102_46_5570)"/>
<mask id="path-207-inside-103_46_5570" fill="white">
<path d="M308.125 464H366.125V522H308.125V464Z"/>
</mask>
<path d="M366.125 522V522.604H366.729V522H366.125ZM365.521 464V522H366.729V464H365.521ZM366.125 521.396H308.125V522.604H366.125V521.396Z" fill="#D0D5DD" mask="url(#path-207-inside-103_46_5570)"/>
<mask id="path-209-inside-104_46_5570" fill="white">
<path d="M366.125 464H424.125V522H366.125V464Z"/>
</mask>
<path d="M366.125 464H424.125V522H366.125V464Z" fill="#F2F4F7"/>
<path d="M424.125 522V522.604H424.729V522H424.125ZM423.521 464V522H424.729V464H423.521ZM424.125 521.396H366.125V522.604H424.125V521.396Z" fill="#D0D5DD" mask="url(#path-209-inside-104_46_5570)"/>
<mask id="path-211-inside-105_46_5570" fill="white">
<path d="M424.125 464H482.125V522H424.125V464Z"/>
</mask>
<path d="M482.125 522V522.604H482.729V522H482.125ZM481.521 464V522H482.729V464H481.521ZM482.125 521.396H424.125V522.604H482.125V521.396Z" fill="#D0D5DD" mask="url(#path-211-inside-105_46_5570)"/>
<mask id="path-213-inside-106_46_5570" fill="white">
<path d="M482.125 464H540.125V522H482.125V464Z"/>
</mask>
<path d="M540.125 522V522.604H540.729V522H540.125ZM539.521 464V522H540.729V464H539.521ZM540.125 521.396H482.125V522.604H540.125V521.396Z" fill="#D0D5DD" mask="url(#path-213-inside-106_46_5570)"/>
<mask id="path-215-inside-107_46_5570" fill="white">
<path d="M540.125 464H598.125V522H540.125V464Z"/>
</mask>
<path d="M598.125 522V522.604H598.729V522H598.125ZM597.521 464V522H598.729V464H597.521ZM598.125 521.396H540.125V522.604H598.125V521.396Z" fill="#D0D5DD" mask="url(#path-215-inside-107_46_5570)"/>
<mask id="path-217-inside-108_46_5570" fill="white">
<path d="M598.125 464H656.125V522H598.125V464Z"/>
</mask>
<path d="M656.125 522V522.604H656.729V522H656.125ZM655.521 464V522H656.729V464H655.521ZM656.125 521.396H598.125V522.604H656.125V521.396Z" fill="#D0D5DD" mask="url(#path-217-inside-108_46_5570)"/>
<mask id="path-219-inside-109_46_5570" fill="white">
<path d="M-39.875 522H18.125V580H-39.875V522Z"/>
</mask>
<path d="M18.125 580V580.604H18.7292V580H18.125ZM17.5208 522V580H18.7292V522H17.5208ZM18.125 579.396H-39.875V580.604H18.125V579.396Z" fill="#D0D5DD" mask="url(#path-219-inside-109_46_5570)"/>
<mask id="path-221-inside-110_46_5570" fill="white">
<path d="M18.125 522H76.125V580H18.125V522Z"/>
</mask>
<path d="M76.125 580V580.604H76.7292V580H76.125ZM75.5208 522V580H76.7292V522H75.5208ZM76.125 579.396H18.125V580.604H76.125V579.396Z" fill="#D0D5DD" mask="url(#path-221-inside-110_46_5570)"/>
<mask id="path-223-inside-111_46_5570" fill="white">
<path d="M76.125 522H134.125V580H76.125V522Z"/>
</mask>
<path d="M134.125 580V580.604H134.729V580H134.125ZM133.521 522V580H134.729V522H133.521ZM134.125 579.396H76.125V580.604H134.125V579.396Z" fill="#D0D5DD" mask="url(#path-223-inside-111_46_5570)"/>
<mask id="path-225-inside-112_46_5570" fill="white">
<path d="M134.125 522H192.125V580H134.125V522Z"/>
</mask>
<path d="M192.125 580V580.604H192.729V580H192.125ZM191.521 522V580H192.729V522H191.521ZM192.125 579.396H134.125V580.604H192.125V579.396Z" fill="#D0D5DD" mask="url(#path-225-inside-112_46_5570)"/>
<mask id="path-227-inside-113_46_5570" fill="white">
<path d="M192.125 522H250.125V580H192.125V522Z"/>
</mask>
<path d="M250.125 580V580.604H250.729V580H250.125ZM249.521 522V580H250.729V522H249.521ZM250.125 579.396H192.125V580.604H250.125V579.396Z" fill="#D0D5DD" mask="url(#path-227-inside-113_46_5570)"/>
<mask id="path-229-inside-114_46_5570" fill="white">
<path d="M250.125 522H308.125V580H250.125V522Z"/>
</mask>
<path d="M308.125 580V580.604H308.729V580H308.125ZM307.521 522V580H308.729V522H307.521ZM308.125 579.396H250.125V580.604H308.125V579.396Z" fill="#D0D5DD" mask="url(#path-229-inside-114_46_5570)"/>
<mask id="path-231-inside-115_46_5570" fill="white">
<path d="M308.125 522H366.125V580H308.125V522Z"/>
</mask>
<path d="M366.125 580V580.604H366.729V580H366.125ZM365.521 522V580H366.729V522H365.521ZM366.125 579.396H308.125V580.604H366.125V579.396Z" fill="#D0D5DD" mask="url(#path-231-inside-115_46_5570)"/>
<mask id="path-233-inside-116_46_5570" fill="white">
<path d="M366.125 522H424.125V580H366.125V522Z"/>
</mask>
<path d="M424.125 580V580.604H424.729V580H424.125ZM423.521 522V580H424.729V522H423.521ZM424.125 579.396H366.125V580.604H424.125V579.396Z" fill="#D0D5DD" mask="url(#path-233-inside-116_46_5570)"/>
<mask id="path-235-inside-117_46_5570" fill="white">
<path d="M424.125 522H482.125V580H424.125V522Z"/>
</mask>
<path d="M482.125 580V580.604H482.729V580H482.125ZM481.521 522V580H482.729V522H481.521ZM482.125 579.396H424.125V580.604H482.125V579.396Z" fill="#D0D5DD" mask="url(#path-235-inside-117_46_5570)"/>
<mask id="path-237-inside-118_46_5570" fill="white">
<path d="M482.125 522H540.125V580H482.125V522Z"/>
</mask>
<path d="M540.125 580V580.604H540.729V580H540.125ZM539.521 522V580H540.729V522H539.521ZM540.125 579.396H482.125V580.604H540.125V579.396Z" fill="#D0D5DD" mask="url(#path-237-inside-118_46_5570)"/>
<mask id="path-239-inside-119_46_5570" fill="white">
<path d="M540.125 522H598.125V580H540.125V522Z"/>
</mask>
<path d="M598.125 580V580.604H598.729V580H598.125ZM597.521 522V580H598.729V522H597.521ZM598.125 579.396H540.125V580.604H598.125V579.396Z" fill="#D0D5DD" mask="url(#path-239-inside-119_46_5570)"/>
<mask id="path-241-inside-120_46_5570" fill="white">
<path d="M598.125 522H656.125V580H598.125V522Z"/>
</mask>
<path d="M656.125 580V580.604H656.729V580H656.125ZM655.521 522V580H656.729V522H655.521ZM656.125 579.396H598.125V580.604H656.125V579.396Z" fill="#D0D5DD" mask="url(#path-241-inside-120_46_5570)"/>
<mask id="path-243-inside-121_46_5570" fill="white">
<path d="M-39.875 580H18.125V638H-39.875V580Z"/>
</mask>
<path d="M18.125 638V638.604H18.7292V638H18.125ZM17.5208 580V638H18.7292V580H17.5208ZM18.125 637.396H-39.875V638.604H18.125V637.396Z" fill="#D0D5DD" mask="url(#path-243-inside-121_46_5570)"/>
<mask id="path-245-inside-122_46_5570" fill="white">
<path d="M18.125 580H76.125V638H18.125V580Z"/>
</mask>
<path d="M76.125 638V638.604H76.7292V638H76.125ZM75.5208 580V638H76.7292V580H75.5208ZM76.125 637.396H18.125V638.604H76.125V637.396Z" fill="#D0D5DD" mask="url(#path-245-inside-122_46_5570)"/>
<mask id="path-247-inside-123_46_5570" fill="white">
<path d="M76.125 580H134.125V638H76.125V580Z"/>
</mask>
<path d="M76.125 580H134.125V638H76.125V580Z" fill="#F2F4F7"/>
<path d="M134.125 638V638.604H134.729V638H134.125ZM133.521 580V638H134.729V580H133.521ZM134.125 637.396H76.125V638.604H134.125V637.396Z" fill="#D0D5DD" mask="url(#path-247-inside-123_46_5570)"/>
<mask id="path-249-inside-124_46_5570" fill="white">
<path d="M134.125 580H192.125V638H134.125V580Z"/>
</mask>
<path d="M192.125 638V638.604H192.729V638H192.125ZM191.521 580V638H192.729V580H191.521ZM192.125 637.396H134.125V638.604H192.125V637.396Z" fill="#D0D5DD" mask="url(#path-249-inside-124_46_5570)"/>
<mask id="path-251-inside-125_46_5570" fill="white">
<path d="M192.125 580H250.125V638H192.125V580Z"/>
</mask>
<path d="M250.125 638V638.604H250.729V638H250.125ZM249.521 580V638H250.729V580H249.521ZM250.125 637.396H192.125V638.604H250.125V637.396Z" fill="#D0D5DD" mask="url(#path-251-inside-125_46_5570)"/>
<mask id="path-253-inside-126_46_5570" fill="white">
<path d="M250.125 580H308.125V638H250.125V580Z"/>
</mask>
<path d="M308.125 638V638.604H308.729V638H308.125ZM307.521 580V638H308.729V580H307.521ZM308.125 637.396H250.125V638.604H308.125V637.396Z" fill="#D0D5DD" mask="url(#path-253-inside-126_46_5570)"/>
<mask id="path-255-inside-127_46_5570" fill="white">
<path d="M308.125 580H366.125V638H308.125V580Z"/>
</mask>
<path d="M308.125 580H366.125V638H308.125V580Z" fill="#F2F4F7"/>
<path d="M366.125 638V638.604H366.729V638H366.125ZM365.521 580V638H366.729V580H365.521ZM366.125 637.396H308.125V638.604H366.125V637.396Z" fill="#D0D5DD" mask="url(#path-255-inside-127_46_5570)"/>
<mask id="path-257-inside-128_46_5570" fill="white">
<path d="M366.125 580H424.125V638H366.125V580Z"/>
</mask>
<path d="M424.125 638V638.604H424.729V638H424.125ZM423.521 580V638H424.729V580H423.521ZM424.125 637.396H366.125V638.604H424.125V637.396Z" fill="#D0D5DD" mask="url(#path-257-inside-128_46_5570)"/>
<mask id="path-259-inside-129_46_5570" fill="white">
<path d="M424.125 580H482.125V638H424.125V580Z"/>
</mask>
<path d="M482.125 638V638.604H482.729V638H482.125ZM481.521 580V638H482.729V580H481.521ZM482.125 637.396H424.125V638.604H482.125V637.396Z" fill="#D0D5DD" mask="url(#path-259-inside-129_46_5570)"/>
<mask id="path-261-inside-130_46_5570" fill="white">
<path d="M482.125 580H540.125V638H482.125V580Z"/>
</mask>
<path d="M540.125 638V638.604H540.729V638H540.125ZM539.521 580V638H540.729V580H539.521ZM540.125 637.396H482.125V638.604H540.125V637.396Z" fill="#D0D5DD" mask="url(#path-261-inside-130_46_5570)"/>
<mask id="path-263-inside-131_46_5570" fill="white">
<path d="M540.125 580H598.125V638H540.125V580Z"/>
</mask>
<path d="M598.125 638V638.604H598.729V638H598.125ZM597.521 580V638H598.729V580H597.521ZM598.125 637.396H540.125V638.604H598.125V637.396Z" fill="#D0D5DD" mask="url(#path-263-inside-131_46_5570)"/>
<mask id="path-265-inside-132_46_5570" fill="white">
<path d="M598.125 580H656.125V638H598.125V580Z"/>
</mask>
<path d="M656.125 638V638.604H656.729V638H656.125ZM655.521 580V638H656.729V580H655.521ZM656.125 637.396H598.125V638.604H656.125V637.396Z" fill="#D0D5DD" mask="url(#path-265-inside-132_46_5570)"/>
<mask id="path-267-inside-133_46_5570" fill="white">
<path d="M-39.875 638H18.125V696H-39.875V638Z"/>
</mask>
<path d="M18.125 696V696.604H18.7292V696H18.125ZM17.5208 638V696H18.7292V638H17.5208ZM18.125 695.396H-39.875V696.604H18.125V695.396Z" fill="#D0D5DD" mask="url(#path-267-inside-133_46_5570)"/>
<mask id="path-269-inside-134_46_5570" fill="white">
<path d="M18.125 638H76.125V696H18.125V638Z"/>
</mask>
<path d="M76.125 696V696.604H76.7292V696H76.125ZM75.5208 638V696H76.7292V638H75.5208ZM76.125 695.396H18.125V696.604H76.125V695.396Z" fill="#D0D5DD" mask="url(#path-269-inside-134_46_5570)"/>
<mask id="path-271-inside-135_46_5570" fill="white">
<path d="M76.125 638H134.125V696H76.125V638Z"/>
</mask>
<path d="M134.125 696V696.604H134.729V696H134.125ZM133.521 638V696H134.729V638H133.521ZM134.125 695.396H76.125V696.604H134.125V695.396Z" fill="#D0D5DD" mask="url(#path-271-inside-135_46_5570)"/>
<mask id="path-273-inside-136_46_5570" fill="white">
<path d="M134.125 638H192.125V696H134.125V638Z"/>
</mask>
<path d="M192.125 696V696.604H192.729V696H192.125ZM191.521 638V696H192.729V638H191.521ZM192.125 695.396H134.125V696.604H192.125V695.396Z" fill="#D0D5DD" mask="url(#path-273-inside-136_46_5570)"/>
<mask id="path-275-inside-137_46_5570" fill="white">
<path d="M192.125 638H250.125V696H192.125V638Z"/>
</mask>
<path d="M250.125 696V696.604H250.729V696H250.125ZM249.521 638V696H250.729V638H249.521ZM250.125 695.396H192.125V696.604H250.125V695.396Z" fill="#D0D5DD" mask="url(#path-275-inside-137_46_5570)"/>
<mask id="path-277-inside-138_46_5570" fill="white">
<path d="M250.125 638H308.125V696H250.125V638Z"/>
</mask>
<path d="M308.125 696V696.604H308.729V696H308.125ZM307.521 638V696H308.729V638H307.521ZM308.125 695.396H250.125V696.604H308.125V695.396Z" fill="#D0D5DD" mask="url(#path-277-inside-138_46_5570)"/>
<mask id="path-279-inside-139_46_5570" fill="white">
<path d="M308.125 638H366.125V696H308.125V638Z"/>
</mask>
<path d="M366.125 696V696.604H366.729V696H366.125ZM365.521 638V696H366.729V638H365.521ZM366.125 695.396H308.125V696.604H366.125V695.396Z" fill="#D0D5DD" mask="url(#path-279-inside-139_46_5570)"/>
<mask id="path-281-inside-140_46_5570" fill="white">
<path d="M366.125 638H424.125V696H366.125V638Z"/>
</mask>
<path d="M424.125 696V696.604H424.729V696H424.125ZM423.521 638V696H424.729V638H423.521ZM424.125 695.396H366.125V696.604H424.125V695.396Z" fill="#D0D5DD" mask="url(#path-281-inside-140_46_5570)"/>
<mask id="path-283-inside-141_46_5570" fill="white">
<path d="M424.125 638H482.125V696H424.125V638Z"/>
</mask>
<path d="M482.125 696V696.604H482.729V696H482.125ZM481.521 638V696H482.729V638H481.521ZM482.125 695.396H424.125V696.604H482.125V695.396Z" fill="#D0D5DD" mask="url(#path-283-inside-141_46_5570)"/>
<mask id="path-285-inside-142_46_5570" fill="white">
<path d="M482.125 638H540.125V696H482.125V638Z"/>
</mask>
<path d="M540.125 696V696.604H540.729V696H540.125ZM539.521 638V696H540.729V638H539.521ZM540.125 695.396H482.125V696.604H540.125V695.396Z" fill="#D0D5DD" mask="url(#path-285-inside-142_46_5570)"/>
<mask id="path-287-inside-143_46_5570" fill="white">
<path d="M540.125 638H598.125V696H540.125V638Z"/>
</mask>
<path d="M540.125 638H598.125V696H540.125V638Z" fill="#F2F4F7"/>
<path d="M598.125 696V696.604H598.729V696H598.125ZM597.521 638V696H598.729V638H597.521ZM598.125 695.396H540.125V696.604H598.125V695.396Z" fill="#D0D5DD" mask="url(#path-287-inside-143_46_5570)"/>
<mask id="path-289-inside-144_46_5570" fill="white">
<path d="M598.125 638H656.125V696H598.125V638Z"/>
</mask>
<path d="M656.125 696V696.604H656.729V696H656.125ZM655.521 638V696H656.729V638H655.521ZM656.125 695.396H598.125V696.604H656.125V695.396Z" fill="#D0D5DD" mask="url(#path-289-inside-144_46_5570)"/>
<mask id="path-291-inside-145_46_5570" fill="white">
<path d="M-39.875 696H18.125V754H-39.875V696Z"/>
</mask>
<path d="M18.125 754V754.604H18.7292V754H18.125ZM17.5208 696V754H18.7292V696H17.5208ZM18.125 753.396H-39.875V754.604H18.125V753.396Z" fill="#D0D5DD" mask="url(#path-291-inside-145_46_5570)"/>
<mask id="path-293-inside-146_46_5570" fill="white">
<path d="M18.125 696H76.125V754H18.125V696Z"/>
</mask>
<path d="M76.125 754V754.604H76.7292V754H76.125ZM75.5208 696V754H76.7292V696H75.5208ZM76.125 753.396H18.125V754.604H76.125V753.396Z" fill="#D0D5DD" mask="url(#path-293-inside-146_46_5570)"/>
<mask id="path-295-inside-147_46_5570" fill="white">
<path d="M76.125 696H134.125V754H76.125V696Z"/>
</mask>
<path d="M134.125 754V754.604H134.729V754H134.125ZM133.521 696V754H134.729V696H133.521ZM134.125 753.396H76.125V754.604H134.125V753.396Z" fill="#D0D5DD" mask="url(#path-295-inside-147_46_5570)"/>
<mask id="path-297-inside-148_46_5570" fill="white">
<path d="M134.125 696H192.125V754H134.125V696Z"/>
</mask>
<path d="M192.125 754V754.604H192.729V754H192.125ZM191.521 696V754H192.729V696H191.521ZM192.125 753.396H134.125V754.604H192.125V753.396Z" fill="#D0D5DD" mask="url(#path-297-inside-148_46_5570)"/>
<mask id="path-299-inside-149_46_5570" fill="white">
<path d="M192.125 696H250.125V754H192.125V696Z"/>
</mask>
<path d="M192.125 696H250.125V754H192.125V696Z" fill="#F2F4F7"/>
<path d="M250.125 754V754.604H250.729V754H250.125ZM249.521 696V754H250.729V696H249.521ZM250.125 753.396H192.125V754.604H250.125V753.396Z" fill="#D0D5DD" mask="url(#path-299-inside-149_46_5570)"/>
<mask id="path-301-inside-150_46_5570" fill="white">
<path d="M250.125 696H308.125V754H250.125V696Z"/>
</mask>
<path d="M308.125 754V754.604H308.729V754H308.125ZM307.521 696V754H308.729V696H307.521ZM308.125 753.396H250.125V754.604H308.125V753.396Z" fill="#D0D5DD" mask="url(#path-301-inside-150_46_5570)"/>
<mask id="path-303-inside-151_46_5570" fill="white">
<path d="M308.125 696H366.125V754H308.125V696Z"/>
</mask>
<path d="M366.125 754V754.604H366.729V754H366.125ZM365.521 696V754H366.729V696H365.521ZM366.125 753.396H308.125V754.604H366.125V753.396Z" fill="#D0D5DD" mask="url(#path-303-inside-151_46_5570)"/>
<mask id="path-305-inside-152_46_5570" fill="white">
<path d="M366.125 696H424.125V754H366.125V696Z"/>
</mask>
<path d="M424.125 754V754.604H424.729V754H424.125ZM423.521 696V754H424.729V696H423.521ZM424.125 753.396H366.125V754.604H424.125V753.396Z" fill="#D0D5DD" mask="url(#path-305-inside-152_46_5570)"/>
<mask id="path-307-inside-153_46_5570" fill="white">
<path d="M424.125 696H482.125V754H424.125V696Z"/>
</mask>
<path d="M482.125 754V754.604H482.729V754H482.125ZM481.521 696V754H482.729V696H481.521ZM482.125 753.396H424.125V754.604H482.125V753.396Z" fill="#D0D5DD" mask="url(#path-307-inside-153_46_5570)"/>
<mask id="path-309-inside-154_46_5570" fill="white">
<path d="M482.125 696H540.125V754H482.125V696Z"/>
</mask>
<path d="M540.125 754V754.604H540.729V754H540.125ZM539.521 696V754H540.729V696H539.521ZM540.125 753.396H482.125V754.604H540.125V753.396Z" fill="#D0D5DD" mask="url(#path-309-inside-154_46_5570)"/>
<mask id="path-311-inside-155_46_5570" fill="white">
<path d="M540.125 696H598.125V754H540.125V696Z"/>
</mask>
<path d="M598.125 754V754.604H598.729V754H598.125ZM597.521 696V754H598.729V696H597.521ZM598.125 753.396H540.125V754.604H598.125V753.396Z" fill="#D0D5DD" mask="url(#path-311-inside-155_46_5570)"/>
<mask id="path-313-inside-156_46_5570" fill="white">
<path d="M598.125 696H656.125V754H598.125V696Z"/>
</mask>
<path d="M656.125 754V754.604H656.729V754H656.125ZM655.521 696V754H656.729V696H655.521ZM656.125 753.396H598.125V754.604H656.125V753.396Z" fill="#D0D5DD" mask="url(#path-313-inside-156_46_5570)"/>
<mask id="path-315-inside-157_46_5570" fill="white">
<path d="M-39.875 754H18.125V812H-39.875V754Z"/>
</mask>
<path d="M18.125 812V812.604H18.7292V812H18.125ZM17.5208 754V812H18.7292V754H17.5208ZM18.125 811.396H-39.875V812.604H18.125V811.396Z" fill="#D0D5DD" mask="url(#path-315-inside-157_46_5570)"/>
<mask id="path-317-inside-158_46_5570" fill="white">
<path d="M18.125 754H76.125V812H18.125V754Z"/>
</mask>
<path d="M18.125 754H76.125V812H18.125V754Z" fill="#F2F4F7"/>
<path d="M76.125 812V812.604H76.7292V812H76.125ZM75.5208 754V812H76.7292V754H75.5208ZM76.125 811.396H18.125V812.604H76.125V811.396Z" fill="#D0D5DD" mask="url(#path-317-inside-158_46_5570)"/>
<mask id="path-319-inside-159_46_5570" fill="white">
<path d="M76.125 754H134.125V812H76.125V754Z"/>
</mask>
<path d="M134.125 812V812.604H134.729V812H134.125ZM133.521 754V812H134.729V754H133.521ZM134.125 811.396H76.125V812.604H134.125V811.396Z" fill="#D0D5DD" mask="url(#path-319-inside-159_46_5570)"/>
<mask id="path-321-inside-160_46_5570" fill="white">
<path d="M134.125 754H192.125V812H134.125V754Z"/>
</mask>
<path d="M192.125 812V812.604H192.729V812H192.125ZM191.521 754V812H192.729V754H191.521ZM192.125 811.396H134.125V812.604H192.125V811.396Z" fill="#D0D5DD" mask="url(#path-321-inside-160_46_5570)"/>
<mask id="path-323-inside-161_46_5570" fill="white">
<path d="M192.125 754H250.125V812H192.125V754Z"/>
</mask>
<path d="M250.125 812V812.604H250.729V812H250.125ZM249.521 754V812H250.729V754H249.521ZM250.125 811.396H192.125V812.604H250.125V811.396Z" fill="#D0D5DD" mask="url(#path-323-inside-161_46_5570)"/>
<mask id="path-325-inside-162_46_5570" fill="white">
<path d="M250.125 754H308.125V812H250.125V754Z"/>
</mask>
<path d="M308.125 812V812.604H308.729V812H308.125ZM307.521 754V812H308.729V754H307.521ZM308.125 811.396H250.125V812.604H308.125V811.396Z" fill="#D0D5DD" mask="url(#path-325-inside-162_46_5570)"/>
<mask id="path-327-inside-163_46_5570" fill="white">
<path d="M308.125 754H366.125V812H308.125V754Z"/>
</mask>
<path d="M366.125 812V812.604H366.729V812H366.125ZM365.521 754V812H366.729V754H365.521ZM366.125 811.396H308.125V812.604H366.125V811.396Z" fill="#D0D5DD" mask="url(#path-327-inside-163_46_5570)"/>
<mask id="path-329-inside-164_46_5570" fill="white">
<path d="M366.125 754H424.125V812H366.125V754Z"/>
</mask>
<path d="M366.125 754H424.125V812H366.125V754Z" fill="#F2F4F7"/>
<path d="M424.125 812V812.604H424.729V812H424.125ZM423.521 754V812H424.729V754H423.521ZM424.125 811.396H366.125V812.604H424.125V811.396Z" fill="#D0D5DD" mask="url(#path-329-inside-164_46_5570)"/>
<mask id="path-331-inside-165_46_5570" fill="white">
<path d="M424.125 754H482.125V812H424.125V754Z"/>
</mask>
<path d="M482.125 812V812.604H482.729V812H482.125ZM481.521 754V812H482.729V754H481.521ZM482.125 811.396H424.125V812.604H482.125V811.396Z" fill="#D0D5DD" mask="url(#path-331-inside-165_46_5570)"/>
<mask id="path-333-inside-166_46_5570" fill="white">
<path d="M482.125 754H540.125V812H482.125V754Z"/>
</mask>
<path d="M540.125 812V812.604H540.729V812H540.125ZM539.521 754V812H540.729V754H539.521ZM540.125 811.396H482.125V812.604H540.125V811.396Z" fill="#D0D5DD" mask="url(#path-333-inside-166_46_5570)"/>
<mask id="path-335-inside-167_46_5570" fill="white">
<path d="M540.125 754H598.125V812H540.125V754Z"/>
</mask>
<path d="M598.125 812V812.604H598.729V812H598.125ZM597.521 754V812H598.729V754H597.521ZM598.125 811.396H540.125V812.604H598.125V811.396Z" fill="#D0D5DD" mask="url(#path-335-inside-167_46_5570)"/>
<mask id="path-337-inside-168_46_5570" fill="white">
<path d="M598.125 754H656.125V812H598.125V754Z"/>
</mask>
<path d="M656.125 812V812.604H656.729V812H656.125ZM655.521 754V812H656.729V754H655.521ZM656.125 811.396H598.125V812.604H656.125V811.396Z" fill="#D0D5DD" mask="url(#path-337-inside-168_46_5570)"/>
<mask id="path-339-inside-169_46_5570" fill="white">
<path d="M-39.875 812H18.125V870H-39.875V812Z"/>
</mask>
<path d="M18.125 870V870.604H18.7292V870H18.125ZM17.5208 812V870H18.7292V812H17.5208ZM18.125 869.396H-39.875V870.604H18.125V869.396Z" fill="#D0D5DD" mask="url(#path-339-inside-169_46_5570)"/>
<mask id="path-341-inside-170_46_5570" fill="white">
<path d="M18.125 812H76.125V870H18.125V812Z"/>
</mask>
<path d="M76.125 870V870.604H76.7292V870H76.125ZM75.5208 812V870H76.7292V812H75.5208ZM76.125 869.396H18.125V870.604H76.125V869.396Z" fill="#D0D5DD" mask="url(#path-341-inside-170_46_5570)"/>
<mask id="path-343-inside-171_46_5570" fill="white">
<path d="M76.125 812H134.125V870H76.125V812Z"/>
</mask>
<path d="M134.125 870V870.604H134.729V870H134.125ZM133.521 812V870H134.729V812H133.521ZM134.125 869.396H76.125V870.604H134.125V869.396Z" fill="#D0D5DD" mask="url(#path-343-inside-171_46_5570)"/>
<mask id="path-345-inside-172_46_5570" fill="white">
<path d="M134.125 812H192.125V870H134.125V812Z"/>
</mask>
<path d="M192.125 870V870.604H192.729V870H192.125ZM191.521 812V870H192.729V812H191.521ZM192.125 869.396H134.125V870.604H192.125V869.396Z" fill="#D0D5DD" mask="url(#path-345-inside-172_46_5570)"/>
<mask id="path-347-inside-173_46_5570" fill="white">
<path d="M192.125 812H250.125V870H192.125V812Z"/>
</mask>
<path d="M250.125 870V870.604H250.729V870H250.125ZM249.521 812V870H250.729V812H249.521ZM250.125 869.396H192.125V870.604H250.125V869.396Z" fill="#D0D5DD" mask="url(#path-347-inside-173_46_5570)"/>
<mask id="path-349-inside-174_46_5570" fill="white">
<path d="M250.125 812H308.125V870H250.125V812Z"/>
</mask>
<path d="M308.125 870V870.604H308.729V870H308.125ZM307.521 812V870H308.729V812H307.521ZM308.125 869.396H250.125V870.604H308.125V869.396Z" fill="#D0D5DD" mask="url(#path-349-inside-174_46_5570)"/>
<mask id="path-351-inside-175_46_5570" fill="white">
<path d="M308.125 812H366.125V870H308.125V812Z"/>
</mask>
<path d="M366.125 870V870.604H366.729V870H366.125ZM365.521 812V870H366.729V812H365.521ZM366.125 869.396H308.125V870.604H366.125V869.396Z" fill="#D0D5DD" mask="url(#path-351-inside-175_46_5570)"/>
<mask id="path-353-inside-176_46_5570" fill="white">
<path d="M366.125 812H424.125V870H366.125V812Z"/>
</mask>
<path d="M424.125 870V870.604H424.729V870H424.125ZM423.521 812V870H424.729V812H423.521ZM424.125 869.396H366.125V870.604H424.125V869.396Z" fill="#D0D5DD" mask="url(#path-353-inside-176_46_5570)"/>
<mask id="path-355-inside-177_46_5570" fill="white">
<path d="M424.125 812H482.125V870H424.125V812Z"/>
</mask>
<path d="M482.125 870V870.604H482.729V870H482.125ZM481.521 812V870H482.729V812H481.521ZM482.125 869.396H424.125V870.604H482.125V869.396Z" fill="#D0D5DD" mask="url(#path-355-inside-177_46_5570)"/>
<mask id="path-357-inside-178_46_5570" fill="white">
<path d="M482.125 812H540.125V870H482.125V812Z"/>
</mask>
<path d="M540.125 870V870.604H540.729V870H540.125ZM539.521 812V870H540.729V812H539.521ZM540.125 869.396H482.125V870.604H540.125V869.396Z" fill="#D0D5DD" mask="url(#path-357-inside-178_46_5570)"/>
<mask id="path-359-inside-179_46_5570" fill="white">
<path d="M540.125 812H598.125V870H540.125V812Z"/>
</mask>
<path d="M598.125 870V870.604H598.729V870H598.125ZM597.521 812V870H598.729V812H597.521ZM598.125 869.396H540.125V870.604H598.125V869.396Z" fill="#D0D5DD" mask="url(#path-359-inside-179_46_5570)"/>
<mask id="path-361-inside-180_46_5570" fill="white">
<path d="M598.125 812H656.125V870H598.125V812Z"/>
</mask>
<path d="M656.125 870V870.604H656.729V870H656.125ZM655.521 812V870H656.729V812H655.521ZM656.125 869.396H598.125V870.604H656.125V869.396Z" fill="#D0D5DD" mask="url(#path-361-inside-180_46_5570)"/>
</g>
<rect x="-271.573" y="0.302083" width="1159.4" height="869.396" stroke="#D0D5DD" stroke-width="0.604167"/>
</g>
</g>
<defs>
<radialGradient id="paint0_radial_46_5570" cx="0" cy="0" r="1" gradientUnits="userSpaceOnUse" gradientTransform="translate(435 -0.000103712) rotate(90) scale(870 454.084)">
<stop/>
<stop offset="0.953125" stop-opacity="0"/>
</radialGradient>
<clipPath id="clip0_46_5570">
<rect width="616.25" height="870" fill="white"/>
</clipPath>
<clipPath id="clip1_46_5570">
<rect x="-271.875" width="1160" height="870" fill="white"/>
</clipPath>
</defs>
</svg>
