<svg width="512" height="512" viewBox="0 0 512 512" fill="none" xmlns="http://www.w3.org/2000/svg">
<path d="M192 64H48C21.5312 64 0 85.5312 0 112V256C0 282.469 21.5312 304 48 304H112.586L88.2968 428.945C87.3827 433.641 88.6171 438.492 91.6562 442.18C94.6952 445.867 99.2187 448 104 448H155.836C169.75 448 182.117 438.898 186.328 425.719L232.906 315.234C233.172 314.602 233.398 313.953 233.578 313.297C237.844 297.969 240 282.117 240 266.188V112C240 85.5312 218.469 64 192 64Z" fill="#F4F4F5"/>
<path d="M464 64H320C293.531 64 272 85.5312 272 112V256C272 282.469 293.531 304 320 304H384.594L360.297 428.945C359.375 433.641 360.609 438.492 363.656 442.18C366.688 445.867 371.219 448 376 448H427.844C441.766 448 454.125 438.898 458.328 425.711L504.906 315.234C505.172 314.601 505.39 313.953 505.578 313.297C509.844 297.953 512 282.102 512 266.188V112C512 85.5312 490.469 64 464 64Z" fill="#F4F4F5"/>
</svg>
