<svg width="32" height="32" viewBox="0 0 32 32" fill="none" xmlns="http://www.w3.org/2000/svg">
<path d="M11.1817 24.4228C11.1664 24.575 11.1796 24.7339 11.235 24.8914C11.3705 25.2712 11.6884 25.5805 12.0649 25.6971C12.4148 25.8077 12.7629 25.7341 12.8685 25.6193L13.5984 24.836C13.8096 24.6102 13.8629 24.2493 13.7389 23.8991C13.4334 23.3138 13.0242 23.1026 12.5001 23.0081L11.1817 24.4228Z" fill="white"/>
<path d="M10.2055 20.5063L8.92976 21.8744C8.67056 22.1564 8.59625 22.5898 8.74096 23.0051C8.89456 23.4439 9.26114 23.8008 9.69989 23.9342C10.1152 24.0586 10.5319 23.9619 10.7929 23.6842L11.974 22.4174C12.235 22.1361 12.3075 21.7048 12.1628 21.2895C12.0092 20.8487 11.6405 20.4931 11.2039 20.3605C10.8554 20.2492 10.4466 20.2449 10.2055 20.5063Z" fill="white"/>
<path d="M7.67552 18.255L6.49757 19.5197C6.23801 19.7995 6.16548 20.2344 6.30877 20.6511C6.46237 21.0884 6.82895 21.4454 7.2677 21.5787C7.68228 21.7049 8.10326 21.6064 8.23446 21.4674L9.54219 20.064C9.80317 19.7821 9.8757 19.3487 9.73099 18.9341C9.57668 18.4939 9.2101 18.1384 8.77135 18.0064C8.36779 17.8749 7.92121 17.9919 7.67552 18.255Z" fill="white"/>
<path d="M5.37248 15.7617L4.06688 17.1658C3.80591 17.4471 3.73337 17.8784 3.87808 18.2915C4.03026 18.7338 4.39897 19.0894 4.83773 19.2227C5.25231 19.3465 5.67257 19.2505 5.80235 19.1097L7.11151 17.7063V17.7049C7.37248 17.4272 7.44502 16.9952 7.30031 16.5806C7.14884 16.1383 6.78013 15.7827 6.34137 15.6508C6.00608 15.5353 5.6004 15.5153 5.37248 15.7617Z" fill="white"/>
<path d="M22.3223 7.38806C21.4778 7.86024 20.3041 7.94486 19.161 8.027C18.2963 8.08602 17.4042 8.1486 16.7632 8.3854L13.1987 9.7006C13.1745 9.7102 13.15 9.71588 13.1244 9.71944C12.9523 9.74646 12.793 9.76957 12.6501 9.78948C11.7822 9.9118 11.6819 9.94913 11.582 10.2062C11.491 10.4437 11.5909 10.7861 11.8376 11.077C12.0389 11.3159 12.8264 12.0618 14.4467 11.6782L16.4766 11.4101C17.6133 11.2636 18.5246 12.0046 19.2524 12.6026L24.7112 16.9696L24.7155 16.9674C25.7946 16.5159 26.9189 15.9285 27.8746 14.7772L22.3223 7.38806Z" fill="white"/>
<path d="M14.8115 7.1228C14.4879 7.15267 14.1171 7.19356 13.7281 7.23409C11.5767 7.46378 10.3838 7.55409 9.77683 7.44174L4.19141 14.7118C4.39692 14.9063 4.56723 15.1082 4.70447 15.3269C5.17132 14.849 5.87674 14.6784 6.56367 14.886C7.23781 15.0894 7.80065 15.6359 8.03603 16.3139C8.13594 16.6008 8.16723 16.8952 8.14163 17.1772C8.41718 17.1384 8.70838 17.1544 8.99496 17.2419C9.66732 17.4439 10.2323 17.9918 10.4659 18.6698C10.5672 18.9553 10.5992 19.249 10.5751 19.531C10.8506 19.4922 11.1418 19.5086 11.4284 19.5978C12.0993 19.8012 12.6618 20.3477 12.8972 21.0222C13.0451 21.4499 13.0508 21.8901 12.9306 22.2848C12.9992 22.2979 13.0696 22.3146 13.1397 22.3367C13.7416 22.5233 14.2529 23.0179 14.473 23.6277C14.6828 24.2179 14.5918 24.838 14.2472 25.2832L15.2382 26.0757C15.4807 26.268 15.8341 26.289 16.164 26.129C16.5217 25.9555 16.7919 25.6032 16.8716 25.2088C16.905 25.0442 16.894 24.8846 16.8563 24.7367L15.5994 23.7312C15.4305 23.5957 15.4007 23.3457 15.5326 23.1722C15.6659 23.0001 15.9105 22.9681 16.0805 23.1036L17.5916 24.3146C17.7416 24.4348 18.1715 24.4668 18.5658 24.2812C18.9804 24.0832 19.2936 23.675 19.3804 23.2195C19.4636 22.7889 19.3303 22.3715 19.0337 22.1326L17.667 21.0389C17.4967 20.9034 17.4668 20.6528 17.6001 20.4814C17.732 20.3072 17.9781 20.2752 18.1466 20.4128L20.1335 22.0017C20.4321 22.2392 20.8613 22.272 21.2577 22.0871C21.6687 21.8904 21.982 21.483 22.0709 21.0225C22.1541 20.592 22.0207 20.176 21.721 19.9349L19.7335 18.348C19.5631 18.2112 19.5333 17.9612 19.6666 17.7863C19.7999 17.6149 20.0446 17.585 20.2152 17.7201C20.2152 17.7201 23.2332 20.1333 23.2353 20.1333C23.3854 20.2513 23.8131 20.2848 24.2056 20.097C24.6209 19.9032 24.932 19.4958 25.0223 19.0368C25.1041 18.6055 24.9708 18.1866 24.6725 17.9498L18.7656 13.2227C18.0879 12.667 17.3879 12.0913 16.5747 12.2005L14.5857 12.46C13.2449 12.7822 11.9802 12.4636 11.2488 11.5989C10.8079 11.078 10.6579 10.4337 10.8559 9.91569C11.1336 9.19711 11.6655 9.1228 12.5434 8.99907C12.6746 8.98236 12.8158 8.96174 12.9711 8.9372L16.499 7.63587C16.7283 7.55054 16.9822 7.49151 17.2449 7.43925C16.3379 7.08831 15.6805 7.06734 14.8115 7.1228Z" fill="white"/>
<path d="M7.14358 5.74503C6.50109 5.69632 5.91443 6.18059 5.06998 7.28032L2.91034 10.0935C2.12918 11.1082 1.83656 11.7393 1.90127 12.2741C1.95318 12.7136 2.25896 13.1449 2.56225 13.3881L3.58661 14.2062L9.14927 6.96601L8.42927 6.38965C7.93434 5.99499 7.52901 5.7749 7.14358 5.74503Z" fill="white"/>
<path d="M24.9819 5.73761C24.5965 5.76179 24.1876 5.97726 23.6888 6.36623L22.9609 6.93086L28.4464 14.2301L29.1554 13.6786C29.7688 13.2029 30.0816 12.7773 30.1389 12.3381C30.2096 11.8048 29.9263 11.1687 29.1576 10.1408L27.0331 7.30063C26.2054 6.18952 25.6262 5.69637 24.9819 5.73761Z" fill="white"/>
</svg>
