<svg width="32" height="32" viewBox="0 0 32 32" fill="none" xmlns="http://www.w3.org/2000/svg">
<g clip-path="url(#clip0_38_3096)">
<path fill-rule="evenodd" clip-rule="evenodd" d="M18.1764 6.87503C19.1421 7.10484 20.0645 7.48778 20.9098 8.00822L22.6859 7.21934L24.7793 9.31265L23.9906 11.0883C24.5113 11.9337 24.8941 12.8564 25.124 13.8223L26.9361 14.5198V17.4802L25.1236 18.1779C24.8938 19.1436 24.5108 20.066 23.9904 20.9112L24.7792 22.6873L22.6859 24.7807L20.9103 23.9921C20.0649 24.5127 19.1422 24.8956 18.1763 25.1255L17.4789 26.9375H14.5184L13.8208 25.125C12.8551 24.8952 11.9328 24.5123 11.0874 23.9918L9.31132 24.7807L7.21794 22.6874L8.00657 20.9118C7.48594 20.0664 7.10307 19.1437 6.87325 18.1778L5.06113 17.4803V14.5198L6.87344 13.8223C7.10325 12.8565 7.48613 11.934 8.00669 11.0887L7.21794 9.31278L9.31125 7.2194L11.0874 8.00828C11.9327 7.48784 12.855 7.1049 13.8207 6.87509L14.5184 5.06259H17.4788L18.1764 6.87503ZM15.9986 9.88565C12.6219 9.88565 9.88432 12.6233 9.88432 16C9.88432 19.3768 12.6219 22.1144 15.9986 22.1144C19.3754 22.1144 22.113 19.3768 22.113 16C22.113 12.6233 19.3754 9.88565 15.9986 9.88565ZM15.9986 10.8857C13.174 10.8857 10.8843 13.1753 10.8843 16C10.8843 18.8247 13.1739 21.1144 15.9986 21.1144C18.8233 21.1144 21.113 18.8247 21.113 16C21.113 13.1754 18.8233 10.8857 15.9986 10.8857ZM15.2612 16.4953L14.0067 15.2408C13.6816 14.9157 13.1541 14.9157 12.829 15.2408C12.5039 15.5659 12.5039 16.0933 12.829 16.4184L14.6741 18.2635C14.9993 18.5887 15.5267 18.5887 15.8518 18.2635C16.9639 17.1513 18.0635 16.0267 19.1705 14.9094C19.4933 14.5837 19.4923 14.0579 19.1669 13.7343C18.8415 13.4107 18.3143 13.4116 17.9912 13.738L15.2612 16.4953ZM16.0401 30.5007C8.92625 30.5262 2.79732 25.351 1.67632 18.2658C0.635941 11.6905 4.25332 5.2114 10.3538 2.64347L9.66975 3.93315C9.54138 4.1769 9.63494 4.47865 9.87875 4.60697C10.1225 4.73534 10.4243 4.64178 10.5526 4.39797L11.8378 1.97484C12.0056 1.6904 11.854 1.31797 11.5288 1.23665L8.84488 0.563779C8.57738 0.496904 8.30625 0.659529 8.23944 0.927029C8.17257 1.19453 8.33519 1.46565 8.60269 1.53247L9.7435 1.81853C3.34532 4.63615 -0.406809 11.478 0.691941 18.4221C1.89038 25.997 8.43488 31.524 16.0401 31.4968C16.3151 31.4968 16.5381 31.2738 16.5381 30.9987C16.5381 30.7237 16.3151 30.5007 16.0401 30.5007ZM23.3945 30.4675L22.2526 30.1812C28.679 27.3559 32.406 20.5348 31.3053 13.5779C30.1066 6.00178 23.5639 0.475404 15.9571 0.503279C15.6821 0.503279 15.4591 0.726279 15.4591 1.00134C15.4591 1.2764 15.6821 1.4994 15.9571 1.4994C23.0738 1.47334 29.1994 6.64622 30.3209 13.7343C31.3635 20.3237 27.7706 26.7764 21.6425 29.3582L22.3274 28.0669C22.4558 27.8232 22.3623 27.5214 22.1184 27.3931C21.8747 27.2647 21.5729 27.3583 21.4446 27.6021L20.1593 30.0252C19.9916 30.3097 20.1431 30.6821 20.4683 30.7634L23.1523 31.4364C23.4198 31.5033 23.6909 31.3407 23.7578 31.0732C23.8246 30.8055 23.662 30.5343 23.3945 30.4675Z" fill="white"/>
</g>
<defs>
<clipPath id="clip0_38_3096">
<rect width="32" height="32" fill="white"/>
</clipPath>
</defs>
</svg>
