<svg width="32" height="32" viewBox="0 0 32 32" fill="none" xmlns="http://www.w3.org/2000/svg">
<g clip-path="url(#clip0_38_3203)">
<path fill-rule="evenodd" clip-rule="evenodd" d="M2.71639 22.201L7.08345 29.9175C7.16697 30.0664 7.11501 30.2567 6.96681 30.3404L6.96618 30.3407L5.48188 31.182C5.33299 31.2655 5.14275 31.2135 5.05911 31.0654L5.05886 31.065L0.690855 23.3468L0.69073 23.3465C0.606526 23.198 0.658479 23.0083 0.806243 22.9248L0.806683 22.9245L2.29336 22.0829C2.44151 21.9993 2.63112 22.0526 2.71595 22.2003L2.71639 22.201ZM2.11009 23.0407C1.77296 23.0889 1.54017 23.4019 1.58836 23.739C1.63849 24.0761 1.95153 24.3109 2.28866 24.2607C2.62579 24.2126 2.85857 23.8975 2.81038 23.5604C2.76019 23.2233 2.44715 22.9905 2.11009 23.0407ZM6.98883 27.8421L4.36809 23.2114L8.31476 20.9264C9.23002 20.3971 10.1516 19.9846 11.1569 20.3111L11.1571 20.3111C12.4305 20.7241 14.5075 21.605 16.629 21.9937C17.1572 22.1788 17.4961 22.7065 17.3502 23.2492L17.3501 23.2494C17.2065 23.7844 16.7512 24.0467 16.1261 23.9764C14.9577 23.7352 13.8729 23.3806 12.6695 23.0572C12.419 22.9898 12.161 23.1385 12.0937 23.389C12.0264 23.6395 12.1751 23.8975 12.4256 23.9648C13.6545 24.2951 14.7619 24.6559 15.9561 24.9011L16.633 25.0116C16.6336 25.0117 16.6341 25.0118 16.6346 25.0119C17.5913 25.1641 18.4692 25.0296 19.3068 24.5415L24.6029 21.457C25.6949 20.8209 26.4982 20.6355 27.0681 20.7549C27.702 20.8878 27.9444 21.4522 27.9022 21.9647C27.8747 22.2983 27.735 22.6227 27.4718 22.7848L17.8612 28.702L17.8608 28.7022C17.0915 29.1769 16.2484 29.2846 15.3755 29.0518L8.40467 27.1835C8.28427 27.1513 8.15595 27.1682 8.04803 27.2305L6.98883 27.8421ZM5.58529 10.7308C5.58529 10.6422 5.60869 10.5537 5.65544 10.4748L9.18579 4.51988C9.20863 4.47954 9.23667 4.44314 9.2688 4.41133C9.33192 4.34871 9.41079 4.30379 9.49688 4.28151C9.57838 4.2603 9.66623 4.25943 9.75313 4.28283C9.75426 4.28314 9.75533 4.28346 9.75645 4.28377C11.758 4.838 12.4224 4.45952 13.2713 4.15012C13.714 3.98874 14.2003 3.83809 14.8917 3.80973C15.1759 2.09077 16.6707 0.778076 18.4696 0.778076C20.2686 0.778076 21.7634 2.09083 22.0475 3.80986C22.7373 3.83859 23.2229 3.98906 23.665 4.15006C24.5142 4.45952 25.1786 4.83806 27.1802 4.28377C27.1813 4.28346 27.1824 4.28314 27.1835 4.28283C27.2704 4.25943 27.3583 4.26037 27.4397 4.28151C27.5259 4.30379 27.6047 4.34865 27.6679 4.41133C27.7 4.44321 27.7281 4.4796 27.751 4.52001L31.2787 10.475C31.3254 10.5538 31.3488 10.6423 31.3488 10.7308C31.3488 10.8005 31.3343 10.8703 31.3053 10.9354C30.8997 12.5226 29.0134 13.7048 27.3142 13.7048C25.6197 13.7048 23.7415 12.5292 23.3267 10.9487C23.2541 10.798 23.261 10.62 23.3471 10.4748L26.2927 5.50623C25.1473 5.68248 24.4805 5.51452 23.868 5.29685C23.3427 5.11019 22.8635 4.87652 22.0716 4.82877C21.8805 6.4663 20.5967 7.77215 18.9697 7.99696C18.9703 8.50376 18.9711 10.0441 18.9715 14.611C18.8057 14.5993 18.6383 14.5934 18.4696 14.5934C18.3008 14.5934 18.1334 14.5993 17.9675 14.6111C17.9672 10.0415 17.9663 8.50219 17.9658 7.99646C16.3404 7.77014 15.0585 6.46492 14.8676 4.82859C14.0741 4.8759 13.5944 5.10987 13.0685 5.29685C12.456 5.51452 11.7891 5.68248 10.6435 5.50617L13.587 10.475C13.6337 10.5538 13.6571 10.6423 13.6571 10.7308C13.6571 10.8011 13.6424 10.8714 13.6129 10.9369C13.2045 12.5233 11.3212 13.7048 9.62249 13.7048C7.9238 13.7048 6.03818 12.5233 5.62958 10.9369C5.60003 10.8714 5.58529 10.8011 5.58529 10.7308ZM19.9348 2.22962C19.5163 1.94708 19.012 1.782 18.4696 1.782C17.0221 1.782 15.847 2.95721 15.847 4.40468C15.847 4.94711 16.012 5.45133 16.2946 5.86978L19.9348 2.22962ZM9.6223 5.75207L6.96838 10.2289H12.2744L9.6223 5.75207ZM17.0045 6.57968C17.4229 6.86228 17.9271 7.0273 18.4696 7.0273C19.9171 7.0273 21.0922 5.85215 21.0922 4.40468C21.0922 3.86219 20.9272 3.35797 20.6446 2.93952L17.0045 6.57968ZM27.314 5.75207L24.66 10.2289H29.966L27.314 5.75207ZM18.4696 15.5973C20.8436 15.5973 22.8931 16.9774 23.8613 18.978H13.0805C14.0486 16.9774 16.0982 15.5973 18.4696 15.5973Z" fill="white"/>
</g>
<defs>
<clipPath id="clip0_38_3203">
<rect width="32" height="32" fill="white"/>
</clipPath>
</defs>
</svg>
