<svg width="40" height="40" viewBox="0 0 40 40" fill="none" xmlns="http://www.w3.org/2000/svg">
<g clip-path="url(#clip0_1_1274)">
<path d="M1.66667 1.66663C0.746192 1.66663 0 2.41282 0 3.33329C0 4.25377 0.746192 4.99996 1.66667 4.99996H4.63216C4.87482 4.99996 5.11133 5.07631 5.30818 5.21821C5.50504 5.3601 5.65225 5.56033 5.72897 5.79054L11.224 22.2786C11.468 23.0107 11.499 23.7989 11.3118 24.5475L10.8594 26.3606C10.1955 29.0163 12.2626 31.6666 15 31.6666H35C35.9205 31.6666 36.6667 30.9204 36.6667 30C36.6667 29.0795 35.9205 28.3333 35 28.3333H15C14.351 28.3333 13.9344 27.8008 14.0918 27.1712L14.433 25.8083C14.4908 25.5774 14.6242 25.3724 14.8118 25.226C14.9995 25.0795 15.2307 25 15.4687 25H33.3333C34.0509 25.0003 34.6883 24.5414 34.9154 23.8606L39.3587 10.5273C39.7187 9.44766 38.9148 8.33277 37.7767 8.33329H10.9245C10.6818 8.33329 10.4453 8.25694 10.2484 8.11505C10.0516 7.97317 9.90436 7.77294 9.82762 7.54272L8.2487 2.80595C8.02159 2.12522 7.38428 1.66625 6.66667 1.66663H1.66667ZM13.3333 33.3333C11.4924 33.3333 10 34.8257 10 36.6666C10 38.5076 11.4924 40 13.3333 40C15.1743 40 16.6667 38.5076 16.6667 36.6666C16.6667 34.8257 15.1743 33.3333 13.3333 33.3333ZM33.3333 33.3333C31.4924 33.3333 30 34.8257 30 36.6666C30 38.5076 31.4924 40 33.3333 40C35.1743 40 36.6667 38.5076 36.6667 36.6666C36.6667 34.8257 35.1743 33.3333 33.3333 33.3333Z" fill="white"/>
</g>
<defs>
<clipPath id="clip0_1_1274">
<rect width="40" height="40" fill="white"/>
</clipPath>
</defs>
</svg>
