<svg width="56" height="56" viewBox="0 0 56 56" fill="none" xmlns="http://www.w3.org/2000/svg">
<g clip-path="url(#clip0_57_5984)">
<path d="M2.33333 2.33331C1.04467 2.33331 0 3.37798 0 4.66665C0 5.95531 1.04467 6.99998 2.33333 6.99998H6.48503C6.82475 6.99998 7.15586 7.10688 7.43146 7.30552C7.70705 7.50417 7.91315 7.7845 8.02056 8.1068L15.7135 31.1901C16.0552 32.215 16.0986 33.3185 15.8366 34.3665L15.2031 36.9049C14.2737 40.6228 17.1677 44.3333 21 44.3333H49C50.2887 44.3333 51.3333 43.2886 51.3333 42C51.3333 40.7113 50.2887 39.6666 49 39.6666H21C20.0914 39.6666 19.5082 38.9211 19.7285 38.0397L20.2062 36.1317C20.2872 35.8084 20.4738 35.5215 20.7366 35.3164C20.9993 35.1114 21.323 35 21.6563 35H46.6667C47.6713 35.0005 48.5636 34.358 48.8815 33.4049L55.1022 14.7383C55.6061 13.2268 54.4807 11.6659 52.8874 11.6666H15.2943C14.9545 11.6666 14.6234 11.5598 14.3478 11.3611C14.0722 11.1625 13.8661 10.8821 13.7587 10.5599L11.5482 3.92837C11.2302 2.97534 10.338 2.33279 9.33333 2.33331H2.33333ZM18.6667 46.6666C16.0893 46.6666 14 48.756 14 51.3333C14 53.9106 16.0893 56 18.6667 56C21.244 56 23.3333 53.9106 23.3333 51.3333C23.3333 48.756 21.244 46.6666 18.6667 46.6666ZM46.6667 46.6666C44.0893 46.6666 42 48.756 42 51.3333C42 53.9106 44.0893 56 46.6667 56C49.244 56 51.3333 53.9106 51.3333 51.3333C51.3333 48.756 49.244 46.6666 46.6667 46.6666Z" fill="#007DC5"/>
</g>
<defs>
<clipPath id="clip0_57_5984">
<rect width="56" height="56" fill="white"/>
</clipPath>
</defs>
</svg>
