<svg width="40" height="40" viewBox="0 0 40 40" fill="none" xmlns="http://www.w3.org/2000/svg">
<path d="M19.9886 5.27274C11.2698 -2.35308 0.184037 4.34719 0.00225421 13.4305C-0.0440704 15.7454 0.62416 18.0003 1.95429 20.0791H10.5758L12.1093 17.5232C12.5546 16.7812 13.6322 16.7573 14.1027 17.497L17.3381 22.5813L22.0544 12.6249C22.4657 11.7562 23.6915 11.7286 24.1451 12.571L28.1879 20.0791H38.0229C45.3085 8.69248 30.9098 -4.27927 19.9886 5.27274Z" fill="white"/>
<path d="M26.4562 21.8064L23.1802 15.7224L18.5477 25.5021C18.1536 26.3342 16.9944 26.4064 16.5001 25.6296L13.1433 20.3548L12.2439 21.8537C12.0322 22.2067 11.6508 22.4226 11.2392 22.4226H3.80786C4.04081 22.6664 2.79927 21.4274 19.162 37.7053C19.619 38.1601 20.3578 38.1602 20.8148 37.7053C36.9258 21.6778 35.9365 22.6659 36.169 22.4226H27.4879C27.0568 22.4227 26.6606 22.186 26.4562 21.8064Z" fill="white"/>
</svg>
