<svg width="56" height="56" viewBox="0 0 56 56" fill="none" xmlns="http://www.w3.org/2000/svg">
<path d="M27.9841 7.38192C15.7778 -3.29423 0.257652 6.08614 0.0031559 18.8028C-0.0616985 22.0436 0.873824 25.2005 2.73601 28.1108H14.8062L16.953 24.5326C17.5764 23.4937 19.085 23.4602 19.7437 24.4959L24.2734 31.6139L30.8762 17.675C31.452 16.4587 33.1681 16.4201 33.8031 17.5995L39.4631 28.1108H53.2321C63.4319 12.1696 43.2738 -5.99089 27.9841 7.38192Z" fill="#007DC5"/>
<path d="M37.0397 30.5291L32.4533 22.0115L25.9678 35.7031C25.416 36.868 23.7931 36.9691 23.1012 35.8816L18.4017 28.4968L17.1425 30.5953C16.846 31.0895 16.3121 31.3917 15.7359 31.3917H5.33203C5.65816 31.7331 3.92 29.9984 26.8278 52.7876C27.4676 53.4242 28.5019 53.4243 29.1418 52.7876C51.6972 30.349 50.3121 31.7324 50.6376 31.3917H38.4841C37.8805 31.3919 37.3258 31.0605 37.0397 30.5291Z" fill="#007DC5"/>
</svg>
