<svg width="56" height="56" viewBox="0 0 56 56" fill="none" xmlns="http://www.w3.org/2000/svg">
<g clip-path="url(#clip0_57_5987)">
<path d="M43.9688 46.5938C42.1364 46.5938 40.5646 47.7264 39.9141 49.3281H36.0938V52.6094H39.9141C40.5646 54.2111 42.1364 55.3438 43.9688 55.3438C46.3811 55.3438 48.3438 53.3811 48.3438 50.9688C48.3438 48.5564 46.3811 46.5938 43.9688 46.5938Z" fill="#007DC5"/>
<path d="M51.625 37.2969C50.9059 37.2969 50.2274 37.4723 49.6282 37.7811L45.566 34.3958C45.2711 34.1502 44.8994 34.0156 44.5156 34.0156H36.0938V37.2969H43.9216L47.4834 40.2651C47.3329 40.7069 47.25 41.1797 47.25 41.6719C47.25 44.0842 49.2126 46.0469 51.625 46.0469C54.0374 46.0469 56 44.0842 56 41.6719C56 39.2595 54.0374 37.2969 51.625 37.2969Z" fill="#007DC5"/>
<path d="M51.625 23.625C49.7926 23.625 48.2208 24.7577 47.5704 26.3594H36.0938V29.6406H47.5704C48.2208 31.2423 49.7926 32.375 51.625 32.375C54.0374 32.375 56 30.4124 56 28C56 25.5876 54.0374 23.625 51.625 23.625Z" fill="#007DC5"/>
<path d="M45.566 21.6041L49.6282 18.2188C50.2274 18.5277 50.9059 18.7031 51.625 18.7031C54.0374 18.7031 56 16.7405 56 14.3281C56 11.9158 54.0374 9.95312 51.625 9.95312C49.2126 9.95312 47.25 11.9158 47.25 14.3281C47.25 14.8203 47.3329 15.2931 47.4834 15.7349L43.9216 18.7031H36.0938V21.9844H44.5156C44.8994 21.9844 45.2711 21.8498 45.566 21.6041Z" fill="#007DC5"/>
<path d="M43.9688 9.40625C46.3811 9.40625 48.3438 7.44362 48.3438 5.03125C48.3438 2.61888 46.3811 0.65625 43.9688 0.65625C42.1364 0.65625 40.5646 1.78894 39.9141 3.39062H36.0938V6.67188H39.9141C40.5646 8.27356 42.1364 9.40625 43.9688 9.40625Z" fill="#007DC5"/>
<path d="M16.4062 28C16.4062 34.3325 21.5581 39.4844 27.8906 39.4844C29.651 39.4844 31.3199 39.0857 32.8125 38.3748V17.6252C31.3199 16.9143 29.651 16.5156 27.8906 16.5156C21.5581 16.5156 16.4062 21.6675 16.4062 28Z" fill="#007DC5"/>
<path d="M31.1719 0.109375H24.6094C23.7033 0.109375 22.9688 0.843937 22.9688 1.75V3.88555C19.8902 4.5127 16.944 5.73322 14.3198 7.46856L12.8093 5.9582C12.1686 5.31748 11.1299 5.31748 10.4892 5.9582L5.84883 10.5985C5.20811 11.2392 5.20811 12.278 5.84883 12.9187L7.35919 14.4292C5.62384 17.0534 4.40333 19.9995 3.77617 23.0781H1.64062C0.734562 23.0781 0 23.8127 0 24.7188V31.2812C0 32.1873 0.734562 32.9219 1.64062 32.9219H3.77617C4.40333 36.0005 5.62384 38.9466 7.35919 41.5709L5.84872 43.0814C5.54105 43.3891 5.36823 43.8063 5.36823 44.2414C5.36823 44.6765 5.54105 45.0937 5.84872 45.4013L10.4892 50.0418C11.1299 50.6825 12.1686 50.6825 12.8093 50.0418L14.3198 48.5314C16.944 50.2668 19.8902 51.4872 22.9688 52.1145V54.25C22.9688 55.1561 23.7033 55.8906 24.6094 55.8906H31.1719C32.0779 55.8906 32.8125 55.1561 32.8125 54.25V41.921C31.2723 42.4673 29.6158 42.7656 27.8906 42.7656C19.7489 42.7656 13.125 36.1418 13.125 28C13.125 19.8582 19.7489 13.2344 27.8906 13.2344C29.6158 13.2344 31.2723 13.5328 32.8125 14.079V1.75C32.8125 0.843937 32.0779 0.109375 31.1719 0.109375Z" fill="#007DC5"/>
</g>
<defs>
<clipPath id="clip0_57_5987">
<rect width="56" height="56" fill="white"/>
</clipPath>
</defs>
</svg>
