<svg width="140" height="39" viewBox="0 0 140 39" fill="none" xmlns="http://www.w3.org/2000/svg">
<g clip-path="url(#clip0_20_2420)">
<path d="M3.58002 27.2287H-0.00842285L-0.00842285 6.48624H3.58002L3.58002 27.2287Z" fill="white"/>
<path d="M3.59429 0.750534H-0.00183105V4.56922H3.59429V0.750534Z" fill="white"/>
<path d="M6.36734 6.32206L6.36734 27.2285L9.90052 27.2285L9.90052 9.87615L23.0716 9.87615C23.7615 9.87615 24.4096 10.0016 25.0368 10.2943C25.6431 10.5661 26.1866 10.9424 26.6466 11.4232C27.1065 11.8832 27.4828 12.4267 27.7546 13.0539C28.0055 13.6602 28.1518 14.3292 28.1518 15.04L28.1518 27.2285L31.7059 27.2285L31.7059 15.04C31.7059 13.8066 31.476 12.6776 31.016 11.6323C30.577 10.587 29.9498 9.66708 29.1553 8.87264C28.3609 8.07819 27.441 7.451 26.3957 7.01197C25.3295 6.55203 24.2214 6.32206 23.0298 6.32206L6.36734 6.32206Z" fill="white"/>
<path d="M34.9116 6.39585L34.9116 27.2285L54.2859 27.2285C55.4942 27.2285 56.64 26.9993 57.7233 26.5202C58.7858 26.041 59.7233 25.416 60.5357 24.6244C61.3482 23.8119 61.994 22.8745 62.4732 21.812C62.9315 20.7287 63.1606 19.5829 63.1606 18.3746L63.1606 15.2705C63.1606 14.0623 62.9315 12.9165 62.4732 11.854C61.994 10.7707 61.3482 9.83323 60.5566 9.02076C59.7649 8.20829 58.8275 7.58331 57.7442 7.10416C56.6817 6.62501 55.5151 6.39585 54.2859 6.39585L34.9116 6.39585ZM38.5365 10.0207L54.2859 10.0207C55.0151 10.0207 55.6817 10.1666 56.3275 10.4374C56.9525 10.7082 57.515 11.0832 57.9941 11.5623C58.4733 12.0623 58.8483 12.604 59.1399 13.2289C59.4108 13.8539 59.5358 14.5206 59.5358 15.208L59.5358 18.3746C59.5358 19.1037 59.4108 19.7704 59.1399 20.3954C58.8483 21.0412 58.4733 21.6037 58.015 22.062C57.5358 22.5411 56.9942 22.9161 56.3484 23.1869C55.7234 23.4578 55.0567 23.6036 54.3484 23.6036L38.5365 23.6036L38.5365 10.0207Z" fill="white"/>
<path d="M69.2459 27.2287L65.6575 27.2287L65.6575 6.48624L69.2459 6.48624L69.2459 27.2287Z" fill="white"/>
<path d="M69.2589 0.750534H65.6635V4.56922H69.2589V0.750534Z" fill="white"/>
<path d="M93.8167 6.32206L93.8167 23.6744L80.6247 23.6744C79.9557 23.6744 79.3076 23.5489 78.6804 23.2563C78.0741 22.9845 77.5306 22.6082 77.0706 22.1273C76.6107 21.6674 76.2344 21.1238 75.9626 20.4966C75.7117 19.8694 75.5653 19.2213 75.5653 18.5105L75.5653 6.32206L72.0113 6.32206L72.0113 18.5105C72.0113 19.744 72.2412 20.8729 72.7012 21.9182C73.1402 22.9636 73.7674 23.8834 74.5618 24.6779C75.3563 25.4723 76.2762 26.0995 77.3215 26.5386C78.3877 26.9985 79.4958 27.2285 80.6874 27.2285L97.3499 27.2285L97.3499 6.32206L93.8167 6.32206Z" fill="white"/>
<path d="M101.077 6.48602L101.077 27.2285L104.603 27.2285L104.603 9.9915L117.879 9.9915L117.879 27.2285L121.384 27.2285L121.384 9.9915L131.403 9.9915C132.087 9.9915 132.751 10.1367 133.352 10.4063C133.975 10.676 134.514 11.0494 134.97 11.5264C135.427 12.0035 135.8 12.5428 136.07 13.1651C136.339 13.7666 136.464 14.4304 136.464 15.1149L136.464 27.2285L139.99 27.2285L139.99 15.1149C139.99 13.9326 139.762 12.8125 139.305 11.7753C138.849 10.7175 138.227 9.80481 137.459 9.0166C136.671 8.22839 135.759 7.60611 134.721 7.17052C133.664 6.71419 132.564 6.48602 131.361 6.48602L101.077 6.48602Z" fill="white"/>
<path d="M69.259 36.0432H-0.00183105V36.3271H69.259V36.0432Z" fill="white"/>
<path d="M79.2266 34.7988H76.4684V37.5837H79.2266V36.6383L80.251 36.8508V37.3712C80.251 37.7734 80.1751 38.0478 80.0246 38.1932C79.8735 38.3387 79.5852 38.4114 79.1609 38.4114H76.5341C76.106 38.4114 75.8177 38.3387 75.6678 38.1932C75.5186 38.0478 75.444 37.7734 75.444 37.3712V35.0524C75.444 34.6534 75.5186 34.3796 75.6678 34.2323C75.8177 34.0856 76.106 34.0116 76.5341 34.0116H79.1609C79.5852 34.0116 79.8735 34.0856 80.0246 34.2323C80.1751 34.3796 80.251 34.6534 80.251 35.0524V35.4685L79.2266 35.6316V34.7988Z" fill="white"/>
<path d="M87.6032 36.6548H89.5305L88.582 34.8652L87.6032 36.6548ZM85.6334 38.4114L88.1223 34.0116H89.1088L91.6318 38.4114H90.4835L89.9555 37.4502H87.1656L86.6534 38.4114H85.6334Z" fill="white"/>
<path d="M100.619 34.7735H98.3157V35.9396H100.619C100.796 35.9396 100.918 35.913 100.982 35.8618C101.048 35.8106 101.08 35.7202 101.08 35.5899V35.1188C101.08 34.9917 101.048 34.9025 100.982 34.8513C100.918 34.7995 100.796 34.7735 100.619 34.7735ZM97.3109 38.4114V34.0116H101.072C101.422 34.0116 101.675 34.0799 101.832 34.2133C101.988 34.3486 102.067 34.5655 102.067 34.8659V35.8479C102.067 36.1445 101.988 36.3607 101.832 36.4954C101.675 36.6295 101.422 36.6971 101.072 36.6971H98.3157V38.4114H97.3109Z" fill="white"/>
<path d="M108.933 34.0116H107.908V38.4114H108.933V34.0116Z" fill="white"/>
<path d="M117.489 34.7988V38.4114H116.466V34.7988H114.447V34.0116H119.517V34.7988H117.489Z" fill="white"/>
<path d="M125.582 36.6548H127.509L126.561 34.8652L125.582 36.6548ZM123.612 38.4114L126.101 34.0116H127.089L129.611 38.4114H128.462L127.934 37.4502H125.144L124.632 38.4114H123.612Z" fill="white"/>
<path d="M135.289 38.4114V34.0116H136.312V37.5831H139.613V38.4114H135.289Z" fill="white"/>
</g>
<defs>
<clipPath id="clip0_20_2420">
<rect width="140" height="37.744" fill="white" transform="translate(0 0.744003)"/>
</clipPath>
</defs>
</svg>
