<svg width="140" height="38" viewBox="0 0 140 38" fill="none" xmlns="http://www.w3.org/2000/svg">
<g clip-path="url(#clip0_20_2332)">
<path d="M3.58002 26.4847H-0.00842285L-0.00842285 5.74223H3.58002L3.58002 26.4847Z" fill="url(#paint0_linear_20_2332)"/>
<path d="M3.59429 0.00653076H-0.00183105V3.82522H3.59429V0.00653076Z" fill="#908F8E"/>
<path d="M6.36734 5.57805L6.36734 26.4845L9.90052 26.4845L9.90052 9.13214L23.0716 9.13214C23.7615 9.13214 24.4096 9.25758 25.0368 9.55027C25.6431 9.82205 26.1866 10.1984 26.6466 10.6792C27.1065 11.1392 27.4828 11.6827 27.7546 12.3099C28.0055 12.9162 28.1518 13.5852 28.1518 14.296L28.1518 26.4845L31.7059 26.4845L31.7059 14.296C31.7059 13.0625 31.476 11.9336 31.016 10.8883C30.577 9.84296 29.9498 8.92308 29.1553 8.12864C28.3609 7.33419 27.441 6.707 26.3957 6.26796C25.3295 5.80802 24.2214 5.57805 23.0298 5.57805L6.36734 5.57805Z" fill="url(#paint1_linear_20_2332)"/>
<path d="M34.9116 5.65185L34.9116 26.4845L54.2859 26.4845C55.4942 26.4845 56.64 26.2553 57.7233 25.7762C58.7858 25.297 59.7233 24.672 60.5357 23.8804C61.3482 23.0679 61.994 22.1304 62.4732 21.068C62.9315 19.9847 63.1606 18.8389 63.1606 17.6306L63.1606 14.5265C63.1606 13.3183 62.9315 12.1725 62.4732 11.11C61.994 10.0267 61.3482 9.08923 60.5566 8.27676C59.7649 7.46428 58.8275 6.8393 57.7442 6.36016C56.6817 5.881 55.5151 5.65185 54.2859 5.65185L34.9116 5.65185ZM38.5365 9.27672L54.2859 9.27672C55.0151 9.27672 55.6817 9.42255 56.3275 9.69337C56.9525 9.9642 57.515 10.3392 57.9941 10.8183C58.4733 11.3183 58.8483 11.86 59.1399 12.4849C59.4108 13.1099 59.5358 13.7766 59.5358 14.464L59.5358 17.6306C59.5358 18.3597 59.4108 19.0264 59.1399 19.6514C58.8483 20.2972 58.4733 20.8597 58.015 21.318C57.5358 21.7971 56.9942 22.1721 56.3484 22.4429C55.7234 22.7138 55.0567 22.8596 54.3484 22.8596L38.5365 22.8596L38.5365 9.27672Z" fill="url(#paint2_linear_20_2332)"/>
<path d="M69.2459 26.4847L65.6575 26.4847L65.6575 5.74223L69.2459 5.74223L69.2459 26.4847Z" fill="url(#paint3_linear_20_2332)"/>
<path d="M69.2589 0.00653076H65.6635V3.82522H69.2589V0.00653076Z" fill="#908F8E"/>
<path d="M93.8167 5.57805L93.8167 22.9304L80.6247 22.9304C79.9557 22.9304 79.3076 22.8049 78.6804 22.5122C78.0741 22.2405 77.5306 21.8641 77.0706 21.3833C76.6107 20.9234 76.2344 20.3798 75.9626 19.7526C75.7117 19.1254 75.5653 18.4773 75.5653 17.7665L75.5653 5.57805L72.0113 5.57805L72.0113 17.7665C72.0113 19 72.2412 20.1289 72.7012 21.1742C73.1402 22.2196 73.7674 23.1394 74.5618 23.9339C75.3563 24.7283 76.2762 25.3555 77.3215 25.7946C78.3877 26.2545 79.4958 26.4845 80.6874 26.4845L97.3499 26.4845L97.3499 5.57805L93.8167 5.57805Z" fill="url(#paint4_linear_20_2332)"/>
<path d="M101.077 5.74202L101.077 26.4845L104.603 26.4845L104.603 9.24749L117.879 9.24749L117.879 26.4845L121.384 26.4845L121.384 9.24749L131.403 9.24749C132.087 9.24749 132.751 9.39269 133.352 9.66234C133.975 9.93199 134.514 10.3054 134.97 10.7824C135.427 11.2595 135.8 11.7988 136.07 12.4211C136.339 13.0226 136.464 13.6864 136.464 14.3709L136.464 26.4845L139.99 26.4845L139.99 14.3709C139.99 13.1886 139.762 12.0685 139.305 11.0313C138.849 9.97348 138.227 9.06081 137.459 8.2726C136.671 7.48438 135.759 6.86211 134.721 6.42652C133.664 5.97018 132.564 5.74202 131.361 5.74202L101.077 5.74202Z" fill="url(#paint5_linear_20_2332)"/>
<path d="M69.259 35.2992H-0.00183105V35.5831H69.259V35.2992Z" fill="#6E6C6C"/>
<path d="M79.2266 34.0548H76.4684V36.8397H79.2266V35.8943L80.251 36.1068V36.6272C80.251 37.0294 80.1751 37.3038 80.0246 37.4492C79.8735 37.5947 79.5852 37.6674 79.1609 37.6674H76.5341C76.106 37.6674 75.8177 37.5947 75.6678 37.4492C75.5186 37.3038 75.444 37.0294 75.444 36.6272V34.3084C75.444 33.9094 75.5186 33.6356 75.6678 33.4883C75.8177 33.3416 76.106 33.2676 76.5341 33.2676H79.1609C79.5852 33.2676 79.8735 33.3416 80.0246 33.4883C80.1751 33.6356 80.251 33.9094 80.251 34.3084V34.7245L79.2266 34.8876V34.0548Z" fill="#6E6C6C"/>
<path d="M87.6032 35.9108H89.5305L88.582 34.1212L87.6032 35.9108ZM85.6334 37.6674L88.1223 33.2676H89.1088L91.6318 37.6674H90.4835L89.9555 36.7062H87.1656L86.6534 37.6674H85.6334Z" fill="#6E6C6C"/>
<path d="M100.619 34.0295H98.3157V35.1956H100.619C100.796 35.1956 100.918 35.169 100.982 35.1178C101.048 35.0666 101.08 34.9762 101.08 34.8459V34.3748C101.08 34.2477 101.048 34.1585 100.982 34.1073C100.918 34.0555 100.796 34.0295 100.619 34.0295ZM97.3109 37.6674V33.2676H101.072C101.422 33.2676 101.675 33.3359 101.832 33.4693C101.988 33.6046 102.067 33.8215 102.067 34.1219V35.1039C102.067 35.4005 101.988 35.6167 101.832 35.7514C101.675 35.8855 101.422 35.9531 101.072 35.9531H98.3157V37.6674H97.3109Z" fill="#6E6C6C"/>
<path d="M108.933 33.2676H107.908V37.6674H108.933V33.2676Z" fill="#6E6C6C"/>
<path d="M117.489 34.0548V37.6674H116.466V34.0548H114.447V33.2676H119.517V34.0548H117.489Z" fill="#6E6C6C"/>
<path d="M125.582 35.9108H127.509L126.561 34.1212L125.582 35.9108ZM123.612 37.6674L126.101 33.2676H127.089L129.611 37.6674H128.462L127.934 36.7062H125.144L124.632 37.6674H123.612Z" fill="#6E6C6C"/>
<path d="M135.289 37.6674V33.2676H136.312V36.8391H139.613V37.6674H135.289Z" fill="#6E6C6C"/>
</g>
<defs>
<linearGradient id="paint0_linear_20_2332" x1="1.79611" y1="26.4846" x2="1.79611" y2="5.74217" gradientUnits="userSpaceOnUse">
<stop stop-color="#8B8989"/>
<stop offset="0.51" stop-color="#C9C9C9"/>
<stop offset="1" stop-color="#898989"/>
</linearGradient>
<linearGradient id="paint1_linear_20_2332" x1="19.0373" y1="26.4845" x2="19.0373" y2="5.57805" gradientUnits="userSpaceOnUse">
<stop stop-color="#1D3564"/>
<stop offset="0.5" stop-color="#60B5D7"/>
<stop offset="1" stop-color="#1E3263"/>
</linearGradient>
<linearGradient id="paint2_linear_20_2332" x1="1.79602" y1="26.4845" x2="1.79602" y2="5.74201" gradientUnits="userSpaceOnUse">
<stop stop-color="#8B8989"/>
<stop offset="0.51" stop-color="#C9C9C9"/>
<stop offset="1" stop-color="#898989"/>
</linearGradient>
<linearGradient id="paint3_linear_20_2332" x1="1.79638" y1="26.4841" x2="1.79638" y2="5.74167" gradientUnits="userSpaceOnUse">
<stop stop-color="#8B8989"/>
<stop offset="0.51" stop-color="#C9C9C9"/>
<stop offset="1" stop-color="#898989"/>
</linearGradient>
<linearGradient id="paint4_linear_20_2332" x1="84.6795" y1="26.4845" x2="84.6795" y2="5.57805" gradientUnits="userSpaceOnUse">
<stop stop-color="#1D3564"/>
<stop offset="0.5" stop-color="#60B5D7"/>
<stop offset="1" stop-color="#1E3263"/>
</linearGradient>
<linearGradient id="paint5_linear_20_2332" x1="1.79639" y1="26.4845" x2="1.79639" y2="5.74202" gradientUnits="userSpaceOnUse">
<stop stop-color="#8B8989"/>
<stop offset="0.51" stop-color="#C9C9C9"/>
<stop offset="1" stop-color="#898989"/>
</linearGradient>
<clipPath id="clip0_20_2332">
<rect width="140" height="37.744" fill="white"/>
</clipPath>
</defs>
</svg>
