<svg width="48" height="48" viewBox="0 0 48 48" fill="none" xmlns="http://www.w3.org/2000/svg">
<path d="M34.2877 34.289C31.5394 37.0372 27.8853 38.5508 23.9988 38.5508C20.1122 38.5508 16.4581 37.0372 13.7098 34.289C13.2264 33.8056 12.7852 33.2959 12.3842 32.7652H7.05859C7.89531 33.6315 9.06531 34.8321 9.06531 34.8321L12.004 40.4783L18.2815 41.5318L23.9773 44.3736L29.6755 41.5374L35.9511 40.4841L38.9 34.8449C38.9 34.8449 40.0777 33.6356 40.9174 32.7652H35.6131C35.2123 33.2959 34.7711 33.8056 34.2877 34.289Z" fill="white"/>
<path d="M13.7114 13.711C16.4597 10.9627 20.1138 9.44916 24.0004 9.44916C27.887 9.44916 31.5411 10.9627 34.2893 13.711C34.7727 14.1944 35.2139 14.7041 35.6149 15.2347H40.9136C40.0769 14.3685 38.9069 13.1678 38.9069 13.1678L35.9682 7.52166L29.6907 6.46819L23.9949 3.62634L18.2966 6.46256L12.021 7.51584L9.07209 13.1551C9.07209 13.1551 7.89441 14.3644 7.05469 15.2347H12.386C12.7868 14.7041 13.228 14.1944 13.7114 13.711Z" fill="white"/>
<path d="M23.9983 12.1679C20.8379 12.1679 17.8666 13.3987 15.6318 15.6335C11.0186 20.2468 11.0186 27.7532 15.6318 32.3665C17.8666 34.6013 20.8378 35.8321 23.9983 35.8321C27.1588 35.8321 30.1301 34.6013 32.3649 32.3665C36.9781 27.7532 36.9781 20.2468 32.3649 15.6335C30.1301 13.3987 27.1588 12.1679 23.9983 12.1679ZM22.1498 29.7588L17.3125 24.9214L19.3012 22.9327L22.1498 25.7813L28.6955 19.2356L30.6842 21.2243L22.1498 29.7588Z" fill="white"/>
<path d="M37.3359 17.9535C39.0681 21.7853 39.0681 26.2147 37.3359 30.0465H47.9983L46.1547 24L47.9983 17.9535H37.3359Z" fill="white"/>
<path d="M10.6624 17.9535H0L1.75303 24L0 30.0465H10.6624C8.93034 26.2147 8.93025 21.7852 10.6624 17.9535Z" fill="white"/>
</svg>
