<svg width="48" height="48" viewBox="0 0 48 48" fill="none" xmlns="http://www.w3.org/2000/svg">
<g clip-path="url(#clip0_39_5306)">
<path d="M19.875 22.875C22.1014 22.875 23.9062 21.0701 23.9062 18.8438C23.9062 16.6174 22.1014 14.8125 19.875 14.8125C17.6486 14.8125 15.8438 16.6174 15.8438 18.8438C15.8438 21.0701 17.6486 22.875 19.875 22.875Z" fill="white"/>
<path d="M29.25 24.5625C31.3728 24.5625 33.0938 22.8416 33.0938 20.7188C33.0938 18.5959 31.3728 16.875 29.25 16.875C27.1272 16.875 25.4062 18.5959 25.4062 20.7188C25.4062 22.8416 27.1272 24.5625 29.25 24.5625Z" fill="white"/>
<path d="M46.3125 21.375H37.3125C36.3805 21.375 35.625 22.1305 35.625 23.0625V24.9375C35.625 25.8695 36.3805 26.625 37.3125 26.625H46.3125C47.2445 26.625 48 25.8695 48 24.9375V23.0625C48 22.1305 47.2445 21.375 46.3125 21.375Z" fill="white"/>
<path d="M10.6875 21.375H1.6875C0.755519 21.375 0 22.1305 0 23.0625V24.9375C0 25.8695 0.755519 26.625 1.6875 26.625H10.6875C11.6195 26.625 12.375 25.8695 12.375 24.9375V23.0625C12.375 22.1305 11.6195 21.375 10.6875 21.375Z" fill="white"/>
<path d="M24.9375 0H23.0625C22.1305 0 21.375 0.755519 21.375 1.6875V10.6875C21.375 11.6195 22.1305 12.375 23.0625 12.375H24.9375C25.8695 12.375 26.625 11.6195 26.625 10.6875V1.6875C26.625 0.755519 25.8695 0 24.9375 0Z" fill="white"/>
<path d="M19.5736 45.8704C19.6552 45.8864 19.7394 45.8841 19.8201 45.8639C19.9008 45.8437 19.9761 45.8059 20.0405 45.7532C20.1049 45.7006 20.157 45.6344 20.193 45.5594C20.2289 45.4844 20.2479 45.4023 20.2486 45.3191V41.0891C20.2485 40.9639 20.2067 40.8423 20.1298 40.7435C20.0528 40.6448 19.9451 40.5745 19.8237 40.5439C16.8369 39.7919 14.1097 38.2448 11.932 36.0669C9.75418 33.889 8.20719 31.1617 7.45543 28.1749C7.4248 28.0535 7.35454 27.9458 7.25577 27.8688C7.15701 27.7918 7.03539 27.75 6.91018 27.75H2.68318C2.59997 27.7507 2.51792 27.7697 2.44288 27.8056C2.36783 27.8416 2.30163 27.8936 2.24897 27.9581C2.19631 28.0225 2.15849 28.0977 2.1382 28.1784C2.11791 28.2591 2.11564 28.3433 2.13156 28.425C2.99463 32.7287 5.11099 36.6812 8.21447 39.7853C11.318 42.8893 15.27 45.0065 19.5736 45.8704Z" fill="white"/>
<path d="M2.68318 20.25H6.91018C7.03539 20.25 7.15701 20.2081 7.25577 20.1312C7.35454 20.0542 7.4248 19.9465 7.45543 19.8251C8.20719 16.8383 9.75418 14.111 11.932 11.9331C14.1097 9.75521 16.8369 8.20805 19.8237 7.45611C19.9451 7.42548 20.0528 7.35522 20.1298 7.25645C20.2067 7.15769 20.2485 7.03607 20.2486 6.91086V2.68086C20.248 2.59764 20.229 2.51557 20.1931 2.4405C20.1571 2.36543 20.1051 2.29922 20.0406 2.24657C19.9762 2.19393 19.9009 2.15615 19.8202 2.13594C19.7394 2.11572 19.6552 2.11356 19.5736 2.12961C15.27 2.99352 11.318 5.11064 8.21447 8.21473C5.11099 11.3188 2.99463 15.2713 2.13156 19.575C2.11564 19.6567 2.11791 19.7408 2.1382 19.8216C2.15849 19.9023 2.19631 19.9775 2.24897 20.0419C2.30163 20.1064 2.36783 20.1584 2.44288 20.1944C2.51792 20.2303 2.59997 20.2493 2.68318 20.25Z" fill="white"/>
<path d="M28.1749 7.45689C31.1617 8.20865 33.889 9.75563 36.0669 11.9334C38.2448 14.1112 39.7919 16.8384 40.5439 19.8251C40.5745 19.9465 40.6448 20.0543 40.7435 20.1312C40.8423 20.2082 40.9639 20.25 41.0891 20.25H45.3191C45.4023 20.2494 45.4844 20.2304 45.5594 20.1944C45.6344 20.1585 45.7006 20.1064 45.7532 20.042C45.8059 19.9775 45.8437 19.9023 45.8639 19.8215C45.8841 19.7408 45.8864 19.6567 45.8704 19.575C45.0065 15.2715 42.8893 11.3195 39.7852 8.21609C36.6811 5.11267 32.7287 2.99638 28.425 2.13339C28.3433 2.11726 28.2591 2.11937 28.1783 2.13956C28.0976 2.15975 28.0223 2.19753 27.9578 2.25018C27.8933 2.30284 27.8413 2.36908 27.8053 2.44418C27.7694 2.51928 27.7505 2.60139 27.75 2.68464V6.91164C27.75 7.03684 27.7918 7.15846 27.8688 7.25722C27.9458 7.35599 28.0535 7.42625 28.1749 7.45689Z" fill="white"/>
<path d="M27.75 41.0891V45.3191C27.7507 45.4023 27.7696 45.4844 27.8056 45.5594C27.8416 45.6344 27.8936 45.7006 27.9581 45.7532C28.0225 45.8059 28.0978 45.8437 28.1785 45.8639C28.2592 45.8841 28.3433 45.8864 28.425 45.8704C32.7285 45.0063 36.6805 42.8892 39.7839 39.7851C42.8874 36.681 45.0038 32.7287 45.867 28.425C45.883 28.3433 45.8808 28.2591 45.8605 28.1784C45.8402 28.0976 45.8024 28.0224 45.7498 27.9579C45.6971 27.8935 45.6308 27.8414 45.5558 27.8055C45.4807 27.7695 45.3986 27.7506 45.3154 27.75H41.0884C40.9632 27.75 40.8415 27.7918 40.7428 27.8688C40.644 27.9458 40.5738 28.0535 40.5431 28.1749C39.7914 31.1617 38.2444 33.889 36.0666 36.0669C33.8888 38.2448 31.1616 39.7919 28.1749 40.5439C28.0535 40.5745 27.9458 40.6448 27.8688 40.7435C27.7918 40.8423 27.75 40.9639 27.75 41.0891Z" fill="white"/>
<path d="M24.9375 35.625H23.0625C22.1305 35.625 21.375 36.3805 21.375 37.3125V46.3125C21.375 47.2445 22.1305 48 23.0625 48H24.9375C25.8695 48 26.625 47.2445 26.625 46.3125V37.3125C26.625 36.3805 25.8695 35.625 24.9375 35.625Z" fill="white"/>
<path d="M29.2523 25.203C28.597 25.2041 27.946 25.3086 27.3233 25.5128C27.2412 25.5403 27.1666 25.5864 27.1051 25.6473C27.0436 25.7082 26.9969 25.7825 26.9685 25.8642C26.9402 25.946 26.9309 26.0332 26.9415 26.1192C26.9521 26.2051 26.9823 26.2874 27.0296 26.3599C27.5507 27.139 27.9409 27.9981 28.1846 28.9031C28.3717 29.6108 28.3554 30.3568 28.1375 31.0556C27.9196 31.7544 27.5089 32.3775 26.9528 32.8534C26.8754 32.922 26.8182 33.0104 26.7874 33.1091C26.7566 33.2079 26.7534 33.3131 26.7782 33.4135C26.803 33.514 26.8547 33.6057 26.9278 33.6788C27.001 33.7519 27.0927 33.8036 27.1931 33.8284C28.4301 34.0995 29.7091 34.1172 30.9531 33.8802C32.197 33.6433 33.38 33.1567 34.4306 32.4499C34.8267 32.168 35.1273 31.7721 35.2923 31.3149C35.4574 30.8577 35.479 30.3611 35.3543 29.8913C34.9924 28.5486 34.199 27.3622 33.0963 26.515C31.9936 25.6678 30.6428 25.2068 29.2523 25.203Z" fill="white"/>
<path d="M27.1006 29.1956C26.6773 27.6037 25.7398 26.1962 24.4339 25.1921C23.128 24.188 21.5269 23.6437 19.8796 23.6437C18.2323 23.6437 16.6312 24.188 15.3253 25.1921C14.0194 26.1962 13.0819 27.6037 12.6586 29.1956C12.5147 29.7378 12.5397 30.311 12.7304 30.8385C12.921 31.366 13.2682 31.8228 13.7255 32.1476C15.5333 33.401 17.6807 34.0727 19.8805 34.0727C22.0804 34.0727 24.2278 33.401 26.0356 32.1476C26.4924 31.8224 26.8392 31.3656 27.0295 30.8381C27.2198 30.3106 27.2446 29.7376 27.1006 29.1956Z" fill="white"/>
</g>
<defs>
<clipPath id="clip0_39_5306">
<rect width="48" height="48" fill="white"/>
</clipPath>
</defs>
</svg>
