<svg width="48" height="48" viewBox="0 0 48 48" fill="none" xmlns="http://www.w3.org/2000/svg">
<path d="M15.6157 19.5975C15.1826 19.1616 14.9116 18.5606 14.9116 17.8969C14.9116 17.235 15.1826 16.635 15.6157 16.1991C16.0516 15.7631 16.6526 15.495 17.3135 15.495C17.9782 15.495 18.5782 15.7631 19.0141 16.1991C19.4473 16.635 19.7182 17.2359 19.7182 17.8969C19.7182 18.5616 19.4473 19.1616 19.0141 19.5975C18.581 20.0306 17.9801 20.2988 17.3191 20.2988H17.3107C16.6498 20.2988 16.0488 20.0306 15.6157 19.5975ZM20.0482 29.2575C20.0482 28.1653 20.4898 27.1763 21.2041 26.4619C21.2604 26.4084 21.3157 26.3559 21.372 26.3053V24.2672C21.372 23.6241 21.0607 23.0316 20.561 22.5956C20.0295 22.1363 19.2879 21.8484 18.4638 21.8484H16.1651C15.7348 21.8484 15.3279 21.9281 14.9613 22.0688C14.757 22.1456 14.5657 22.2441 14.3904 22.3556C14.5151 22.7409 14.5816 23.1506 14.5816 23.5753C14.5816 24.6281 14.172 25.5816 13.5026 26.2884C14.021 26.4853 14.4888 26.7638 14.8873 27.1069C15.7188 27.8297 16.2373 28.8347 16.2373 29.9447V37.6275L18.3926 39.7828V35.6241C18.3926 34.5131 18.911 33.5091 19.7426 32.7863C20.141 32.4431 20.6088 32.1647 21.1273 31.9678C20.4579 31.2609 20.0482 30.3066 20.0482 29.2575ZM27.2454 33.9553C26.7138 33.4931 25.9723 33.2063 25.151 33.2063H22.8495C22.0254 33.2063 21.2866 33.4931 20.7523 33.9553C20.2526 34.3884 19.9413 34.9809 19.9413 35.6241V41.3325L20.8263 42.2175C22.572 43.9631 25.4238 43.9631 27.1695 42.2175L28.0573 41.3325V35.6241C28.0582 34.9809 27.7441 34.3884 27.2454 33.9553ZM12.3307 25.2759C12.7638 24.84 13.032 24.2391 13.032 23.5753C13.032 22.9134 12.7638 22.3134 12.3307 21.8775C11.8948 21.4444 11.2938 21.1734 10.6301 21.1734C9.9682 21.1734 9.3682 21.4444 8.93227 21.8775C8.49633 22.3134 8.2282 22.9134 8.2282 23.5753C8.2282 24.24 8.49633 24.84 8.93227 25.2759C9.3682 25.7091 9.96914 25.98 10.6301 25.98C11.2948 25.9809 11.8957 25.7091 12.3307 25.2759ZM13.8776 28.2741C13.3432 27.8147 12.6045 27.5269 11.7804 27.5269H9.47883C9.0082 27.5269 8.56477 27.6197 8.17664 27.7847C7.7782 27.9525 7.42945 28.1991 7.15852 28.4972L7.13414 28.5263L14.6866 36.0788V29.9456C14.6885 29.3025 14.3773 28.71 13.8776 28.2741ZM33.416 23.5753C33.416 23.1497 33.4854 22.7409 33.6101 22.3556C33.4348 22.2441 33.2435 22.1456 33.0363 22.0688C32.6698 21.9281 32.2629 21.8484 31.8354 21.8484H29.5338C28.7126 21.8484 27.971 22.1353 27.4395 22.5956C26.937 23.0316 26.6266 23.6241 26.6266 24.2672V26.3053C26.6848 26.3559 26.741 26.4094 26.7945 26.4619C27.5098 27.1772 27.9504 28.1653 27.9504 29.2575C27.9504 30.3075 27.5407 31.2609 26.8713 31.9678C27.3898 32.1647 27.8595 32.4431 28.256 32.7863C29.0904 33.5091 29.606 34.5141 29.606 35.6241V39.7828L31.7641 37.6275V29.9447C31.7641 28.8338 32.2798 27.8297 33.1141 27.1069C33.5098 26.7638 33.9776 26.4853 34.496 26.2884C33.8276 25.5816 33.416 24.6281 33.416 23.5753ZM39.0654 25.2759C39.5013 24.84 39.7695 24.2391 39.7695 23.5753C39.7695 22.9134 39.5013 22.3134 39.0654 21.8775C38.6323 21.4444 38.0313 21.1734 37.3676 21.1734C36.7038 21.1734 36.1029 21.4444 35.6698 21.8775C35.2338 22.3134 34.9657 22.9134 34.9657 23.5753C34.9657 24.24 35.2338 24.84 35.6698 25.2759C36.1029 25.7091 36.7038 25.98 37.3676 25.98C38.0313 25.98 38.6323 25.7091 39.0654 25.2759ZM44.5104 7.96313C39.8576 3.31032 32.246 3.31032 27.5932 7.96313L24.0007 11.5584L20.4054 7.96313C15.7526 3.31032 8.14102 3.31032 3.4882 7.96313C-1.16273 12.6141 -1.16273 20.2275 3.4882 24.8784L6.04195 27.4322C6.45352 26.9859 6.98039 26.6194 7.57758 26.3634C7.63852 26.3391 7.69945 26.3156 7.76133 26.2913C7.09195 25.5816 6.68227 24.6281 6.68227 23.5753C6.68227 22.4859 7.12383 21.4969 7.8382 20.7825C8.55352 20.0672 9.54164 19.6266 10.631 19.6266C11.7232 19.6266 12.7123 20.0681 13.4266 20.7825C13.4988 20.8547 13.5673 20.9316 13.6338 21.0084C13.8785 20.8566 14.1391 20.7272 14.4129 20.6231L14.4448 20.61C13.7754 19.9031 13.3657 18.9488 13.3657 17.8969C13.3657 16.8075 13.8073 15.8184 14.5216 15.1041C15.237 14.3888 16.2251 13.9481 17.3145 13.9481C18.4066 13.9481 19.3957 14.3897 20.1101 15.1041C20.8254 15.8194 21.266 16.8075 21.266 17.8969C21.266 18.9497 20.8563 19.9031 20.187 20.61C20.7054 20.8069 21.1751 21.0853 21.5716 21.4284C22.4032 22.1513 22.9216 23.1563 22.9216 24.2663V25.4541C23.2648 25.3556 23.6257 25.305 24.0007 25.305C24.3729 25.305 24.7338 25.3556 25.077 25.4541V24.2663C25.077 23.1553 25.5954 22.1513 26.4298 21.4284C26.8254 21.0853 27.2932 20.8069 27.8116 20.61C27.1423 19.9031 26.7326 18.9488 26.7326 17.8969C26.7326 16.8075 27.1741 15.8184 27.8913 15.1041C28.6066 14.3888 29.592 13.9481 30.6841 13.9481C31.7735 13.9481 32.7626 14.3897 33.477 15.1041C34.1923 15.8194 34.6357 16.8075 34.6357 17.8969C34.6357 18.9497 34.2241 19.9031 33.5566 20.61L33.5857 20.6231C33.8595 20.7272 34.1229 20.8566 34.3648 21.0084C34.4313 20.9316 34.5026 20.8547 34.5748 20.7825C35.2901 20.0672 36.2754 19.6266 37.3676 19.6266C38.4598 19.6266 39.446 20.0681 40.1604 20.7825C40.8757 21.4978 41.3191 22.4859 41.3191 23.5753C41.3191 24.6281 40.9076 25.5816 40.2373 26.2913C40.2982 26.3156 40.3591 26.3391 40.421 26.3634C41.0191 26.6184 41.5451 26.985 41.9566 27.4322L44.5104 24.8784C49.1613 20.2275 49.1613 12.6131 44.5104 7.96313ZM25.6985 30.9553C26.1345 30.5194 26.4026 29.9194 26.4026 29.2575C26.4026 28.5928 26.1345 27.9928 25.6985 27.5569C25.6085 27.4688 25.5129 27.3872 25.4116 27.3122C25.4041 27.3066 25.3957 27.3019 25.3873 27.2963C24.9963 27.0169 24.5154 26.8528 23.9998 26.8528C23.4813 26.8528 23.0032 27.0178 22.6095 27.2963C22.602 27.3019 22.5935 27.3066 22.5851 27.3122C22.4838 27.3863 22.3882 27.4688 22.2982 27.5569C21.8651 27.9928 21.597 28.5928 21.597 29.2575C21.597 29.9194 21.8651 30.5194 22.2982 30.9553C22.7341 31.3884 23.3351 31.6594 23.9988 31.6594C24.6616 31.6594 25.2626 31.3884 25.6985 30.9553ZM30.6888 20.2988C31.3507 20.2988 31.9488 20.0306 32.382 19.5975C32.8179 19.1616 33.086 18.5606 33.086 17.8969C33.086 17.235 32.8179 16.635 32.382 16.1991C31.9488 15.7631 31.3479 15.495 30.6841 15.495C30.0195 15.495 29.4195 15.7631 28.9835 16.1991C28.5504 16.635 28.2823 17.2359 28.2823 17.8969C28.2823 18.5616 28.5504 19.1616 28.9835 19.5975C29.4195 20.0306 30.0176 20.2988 30.6785 20.2988H30.6888ZM39.8229 27.7847C39.432 27.6197 38.9913 27.5269 38.5179 27.5269H36.2163C35.3951 27.5269 34.6535 27.8138 34.122 28.2741C33.6195 28.71 33.3091 29.3025 33.3091 29.9456V36.0788L40.8645 28.5263L40.8401 28.4972C40.5673 28.1991 40.2185 27.9525 39.8229 27.7847Z" fill="white"/>
</svg>
