<svg width="48" height="48" viewBox="0 0 48 48" fill="none" xmlns="http://www.w3.org/2000/svg">
<g clip-path="url(#clip0_39_5321)">
<path d="M23.9844 8.53125C26.3109 8.53125 28.2031 6.63867 28.2031 4.3125C28.2031 1.98633 26.3109 0 23.9844 0C21.6582 0 19.7656 1.98633 19.7656 4.3125C19.7656 6.63867 21.6582 8.53125 23.9844 8.53125Z" fill="white"/>
<path d="M19.7656 43.6875C19.7656 46.0137 21.6582 48 23.9844 48C26.3109 48 28.2031 46.0137 28.2031 43.6875C28.2031 41.3613 26.3109 39.4688 23.9844 39.4688C21.6582 39.4688 19.7656 41.3613 19.7656 43.6875Z" fill="white"/>
<path d="M9.04717 10.5018C9.04571 10.5018 9.04571 10.5018 9.04425 10.5018C7.03118 9.33876 4.44647 10.0338 3.28192 12.0484C2.12029 14.0629 2.8139 16.6476 4.82696 17.8107C6.83123 18.9675 9.41046 18.2966 10.5849 16.2719C9.89752 17.4606 9.36871 18.7387 9.01934 20.0739C8.79632 20.926 8.86407 21.794 9.15301 22.5938H17.0969C17.4059 21.0766 18.223 19.756 19.3392 18.7639L15.35 11.8546C14.525 12.0026 13.7493 12.3703 13.1341 12.9767C12.1402 13.9556 11.288 15.0575 10.5962 16.2499C11.7472 14.239 11.0551 11.6635 9.04717 10.5018Z" fill="white"/>
<path d="M43.1443 30.1893C41.1243 29.024 38.5535 29.7166 37.3867 31.7281C38.0741 30.5394 38.6025 29.2614 38.9519 27.9265C39.1749 27.0743 39.1072 26.2064 38.8182 25.4062H30.8748C30.5653 26.9235 29.749 28.2437 28.6328 29.2357L32.6326 36.1633C33.4558 36.015 34.223 35.6283 34.8375 35.0237C35.8311 34.0448 36.6832 32.9425 37.375 31.7501C36.224 33.761 36.9161 36.3365 38.927 37.4982C40.9379 38.658 43.524 37.9695 44.6893 35.9517C45.8513 33.9371 45.1577 31.3528 43.1443 30.1893Z" fill="white"/>
<path d="M3.28192 35.9531C4.45562 37.9827 7.04547 38.6503 9.04717 37.4982C11.0566 36.3354 11.7487 33.7573 10.594 31.7468C11.2866 32.9407 12.1391 34.0437 13.1341 35.0233C13.7486 35.6283 14.5158 36.015 15.3394 36.1633L19.3392 29.2361C18.223 28.244 17.4059 26.9235 17.0969 25.4062H9.15338C8.86444 26.2061 8.79669 27.074 9.01971 27.9247C9.36944 29.2625 9.89898 30.5424 10.5875 31.7329C9.41192 29.6986 6.82501 29.0354 4.82696 30.1893C2.8139 31.3528 2.12029 33.9371 3.28192 35.9531Z" fill="white"/>
<path d="M44.6893 12.0469C43.5233 10.0323 40.9415 9.33618 38.927 10.5018C38.9259 10.5018 38.9259 10.5018 38.9244 10.5018C36.9147 11.6645 36.2225 14.2427 37.3772 16.2532C36.6851 15.0593 35.8322 13.9563 34.8375 12.9767C34.2223 12.3706 33.447 12.0029 32.6219 11.855L28.6328 18.7646C29.749 19.7563 30.5657 21.0765 30.8748 22.5937H38.8182C39.1072 21.7939 39.1749 20.926 38.9519 20.0753C38.6022 18.7375 38.0726 17.4576 37.3842 16.2671C38.5571 18.2974 41.1396 18.9679 43.1447 17.8107C45.1577 16.6472 45.8513 14.0629 44.6893 12.0469Z" fill="white"/>
<path d="M30.1902 37.556L26.1978 30.6409C25.4987 30.8741 24.7644 31.0312 23.9873 31.0312C23.2109 31.0312 22.4767 30.8745 21.778 30.6412L17.7852 37.5568C18.3253 38.1973 19.0314 38.6832 19.8649 38.9125C21.2008 39.282 22.588 39.4688 23.9873 39.4688C25.387 39.4688 26.7738 39.282 28.1086 38.9125C28.9432 38.6832 29.6497 38.1973 30.1902 37.556Z" fill="white"/>
<path d="M21.778 17.3591C22.4767 17.1255 23.2109 16.9688 23.9873 16.9688C24.7644 16.9688 25.4987 17.1259 26.1978 17.3591L30.1902 10.444C29.65 9.8031 28.944 9.31714 28.1101 9.08752C25.4375 8.34851 22.536 8.34851 19.8663 9.08752C19.0317 9.31677 18.3257 9.80273 17.7852 10.4436L21.778 17.3591Z" fill="white"/>
</g>
<defs>
<clipPath id="clip0_39_5321">
<rect width="48" height="48" fill="white"/>
</clipPath>
</defs>
</svg>
