<svg width="7000" height="3000" viewBox="0 0 7000 3000" fill="none" xmlns="http://www.w3.org/2000/svg">
<g clip-path="url(#clip0_44_5496)">
<mask id="mask0_44_5496" style="mask-type:luminance" maskUnits="userSpaceOnUse" x="0" y="0" width="7000" height="3000">
<path d="M7000 0H0V3000H7000V0Z" fill="white"/>
</mask>
<g mask="url(#mask0_44_5496)">
<path d="M16.5 -692H11.5V3692H16.5V-692Z" fill="#71717A"/>
<path d="M100.5 -692H95.5V3692H100.5V-692Z" fill="#71717A"/>
<path d="M184.5 -692H179.5V3692H184.5V-692Z" fill="#71717A"/>
<path d="M268.5 -692H263.5V3692H268.5V-692Z" fill="#71717A"/>
<path d="M352.5 -692H347.5V3692H352.5V-692Z" fill="#71717A"/>
<path d="M436.5 -692H431.5V3692H436.5V-692Z" fill="#71717A"/>
<path d="M520.5 -692H515.5V3692H520.5V-692Z" fill="#71717A"/>
<path d="M604.5 -692H599.5V3692H604.5V-692Z" fill="#71717A"/>
<path d="M688.5 -692H683.5V3692H688.5V-692Z" fill="#71717A"/>
<path d="M772.5 -692H767.5V3692H772.5V-692Z" fill="#71717A"/>
<path d="M856.5 -692H851.5V3692H856.5V-692Z" fill="#71717A"/>
<path d="M940.5 -692H935.5V3692H940.5V-692Z" fill="#71717A"/>
<path d="M1024.5 -692H1019.5V3692H1024.5V-692Z" fill="#71717A"/>
<path d="M1108.5 -692H1103.5V3692H1108.5V-692Z" fill="#71717A"/>
<path d="M1192.5 -692H1187.5V3692H1192.5V-692Z" fill="#71717A"/>
<path d="M1276.5 -692H1271.5V3692H1276.5V-692Z" fill="#71717A"/>
<path d="M1360.5 -692H1355.5V3692H1360.5V-692Z" fill="#71717A"/>
<path d="M1444.5 -692H1439.5V3692H1444.5V-692Z" fill="#71717A"/>
<path d="M1528.5 -692H1523.5V3692H1528.5V-692Z" fill="#71717A"/>
<path d="M1612.5 -692H1607.5V3692H1612.5V-692Z" fill="#71717A"/>
<path d="M1696.5 -692H1691.5V3692H1696.5V-692Z" fill="#71717A"/>
<path d="M1780.5 -692H1775.5V3692H1780.5V-692Z" fill="#71717A"/>
<path d="M1864.5 -692H1859.5V3692H1864.5V-692Z" fill="#71717A"/>
<path d="M1948.5 -692H1943.5V3692H1948.5V-692Z" fill="#71717A"/>
<path d="M2032.5 -692H2027.5V3692H2032.5V-692Z" fill="#71717A"/>
<path d="M2116.5 -692H2111.5V3692H2116.5V-692Z" fill="#71717A"/>
<path d="M2200.5 -692H2195.5V3692H2200.5V-692Z" fill="#71717A"/>
<path d="M2284.5 -692H2279.5V3692H2284.5V-692Z" fill="#71717A"/>
<path d="M2368.5 -692H2363.5V3692H2368.5V-692Z" fill="#71717A"/>
<path d="M2452.5 -692H2447.5V3692H2452.5V-692Z" fill="#71717A"/>
<path d="M2536.5 -692H2531.5V3692H2536.5V-692Z" fill="#71717A"/>
<path d="M2620.5 -692H2615.5V3692H2620.5V-692Z" fill="#71717A"/>
<path d="M2704.5 -692H2699.5V3692H2704.5V-692Z" fill="#71717A"/>
<path d="M2788.5 -692H2783.5V3692H2788.5V-692Z" fill="#71717A"/>
<path d="M2872.5 -692H2867.5V3692H2872.5V-692Z" fill="#71717A"/>
<path d="M2956.5 -692H2951.5V3692H2956.5V-692Z" fill="#71717A"/>
<path d="M3040.5 -692H3035.5V3692H3040.5V-692Z" fill="#71717A"/>
<path d="M3124.5 -692H3119.5V3692H3124.5V-692Z" fill="#71717A"/>
<path d="M3208.5 -692H3203.5V3692H3208.5V-692Z" fill="#71717A"/>
<path d="M3292.5 -692H3287.5V3692H3292.5V-692Z" fill="#71717A"/>
<path d="M3376.5 -692H3371.5V3692H3376.5V-692Z" fill="#71717A"/>
<path d="M3460.5 -692H3455.5V3692H3460.5V-692Z" fill="#71717A"/>
<path d="M3544.5 -692H3539.5V3692H3544.5V-692Z" fill="#71717A"/>
<path d="M3628.5 -692H3623.5V3692H3628.5V-692Z" fill="#71717A"/>
<path d="M3712.5 -692H3707.5V3692H3712.5V-692Z" fill="#71717A"/>
<path d="M3796.5 -692H3791.5V3692H3796.5V-692Z" fill="#71717A"/>
<path d="M3880.5 -692H3875.5V3692H3880.5V-692Z" fill="#71717A"/>
<path d="M3964.5 -692H3959.5V3692H3964.5V-692Z" fill="#71717A"/>
<path d="M4048.5 -692H4043.5V3692H4048.5V-692Z" fill="#71717A"/>
<path d="M4132.5 -692H4127.5V3692H4132.5V-692Z" fill="#71717A"/>
<path d="M4216.5 -692H4211.5V3692H4216.5V-692Z" fill="#71717A"/>
<path d="M4300.5 -692H4295.5V3692H4300.5V-692Z" fill="#71717A"/>
<path d="M4384.5 -692H4379.5V3692H4384.5V-692Z" fill="#71717A"/>
<path d="M4468.5 -692H4463.5V3692H4468.5V-692Z" fill="#71717A"/>
<path d="M4552.5 -692H4547.5V3692H4552.5V-692Z" fill="#71717A"/>
<path d="M4636.5 -692H4631.5V3692H4636.5V-692Z" fill="#71717A"/>
<path d="M4720.5 -692H4715.5V3692H4720.5V-692Z" fill="#71717A"/>
<path d="M4804.5 -692H4799.5V3692H4804.5V-692Z" fill="#71717A"/>
<path d="M4888.5 -692H4883.5V3692H4888.5V-692Z" fill="#71717A"/>
<path d="M4972.5 -692H4967.5V3692H4972.5V-692Z" fill="#71717A"/>
<path d="M5056.5 -692H5051.5V3692H5056.5V-692Z" fill="#71717A"/>
<path d="M5140.5 -692H5135.5V3692H5140.5V-692Z" fill="#71717A"/>
<path d="M5224.5 -692H5219.5V3692H5224.5V-692Z" fill="#71717A"/>
<path d="M5308.5 -692H5303.5V3692H5308.5V-692Z" fill="#71717A"/>
<path d="M5392.5 -692H5387.5V3692H5392.5V-692Z" fill="#71717A"/>
<path d="M5476.5 -692H5471.5V3692H5476.5V-692Z" fill="#71717A"/>
<path d="M5560.5 -692H5555.5V3692H5560.5V-692Z" fill="#71717A"/>
<path d="M5644.5 -692H5639.5V3692H5644.5V-692Z" fill="#71717A"/>
<path d="M5728.5 -692H5723.5V3692H5728.5V-692Z" fill="#71717A"/>
<path d="M5812.5 -692H5807.5V3692H5812.5V-692Z" fill="#71717A"/>
<path d="M5896.5 -692H5891.5V3692H5896.5V-692Z" fill="#71717A"/>
<path d="M5980.5 -692H5975.5V3692H5980.5V-692Z" fill="#71717A"/>
<path d="M6064.5 -692H6059.5V3692H6064.5V-692Z" fill="#71717A"/>
<path d="M6148.5 -692H6143.5V3692H6148.5V-692Z" fill="#71717A"/>
<path d="M6232.5 -692H6227.5V3692H6232.5V-692Z" fill="#71717A"/>
<path d="M6316.5 -692H6311.5V3692H6316.5V-692Z" fill="#71717A"/>
<path d="M6400.5 -692H6395.5V3692H6400.5V-692Z" fill="#71717A"/>
<path d="M6484.5 -692H6479.5V3692H6484.5V-692Z" fill="#71717A"/>
<path d="M6568.5 -692H6563.5V3692H6568.5V-692Z" fill="#71717A"/>
<path d="M6652.5 -692H6647.5V3692H6652.5V-692Z" fill="#71717A"/>
<path d="M6736.5 -692H6731.5V3692H6736.5V-692Z" fill="#71717A"/>
<path d="M6820.5 -692H6815.5V3692H6820.5V-692Z" fill="#71717A"/>
<path d="M6904.5 -692H6899.5V3692H6904.5V-692Z" fill="#71717A"/>
<path d="M6988.5 -692H6983.5V3692H6988.5V-692Z" fill="#71717A"/>
</g>
</g>
<defs>
<clipPath id="clip0_44_5496">
<rect width="7000" height="3000" fill="white"/>
</clipPath>
</defs>
</svg>
