<svg width="48" height="48" viewBox="0 0 48 48" fill="none" xmlns="http://www.w3.org/2000/svg">
<g clip-path="url(#clip0_64_5492)">
<path d="M28.0115 29.4087C26.8173 30.2048 25.4302 30.6257 24 30.6257C22.5699 30.6257 21.1828 30.2048 19.9886 29.4087L0.319594 16.2956C0.210469 16.2229 0.104156 16.147 0 16.069V37.5563C0 40.0198 1.99922 41.975 4.41872 41.975H43.5812C46.0447 41.975 47.9999 39.9758 47.9999 37.5563V16.0689C47.8956 16.1471 47.7891 16.2232 47.6797 16.296L28.0115 29.4087Z" fill="#007DC5"/>
<path d="M1.87969 13.9554L21.5487 27.0686C22.2933 27.565 23.1466 27.8132 23.9999 27.8132C24.8533 27.8132 25.7067 27.5649 26.4513 27.0686L46.1203 13.9554C47.2973 13.1712 48 11.8587 48 10.4422C48 8.00643 46.0184 6.02493 43.5828 6.02493H4.41722C1.98159 6.02503 0 8.00653 0 10.4445C0 11.8587 0.70275 13.1712 1.87969 13.9554Z" fill="#007DC5"/>
</g>
<defs>
<clipPath id="clip0_64_5492">
<rect width="48" height="48" fill="white"/>
</clipPath>
</defs>
</svg>
