<svg width="48" height="48" viewBox="0 0 48 48" fill="none" xmlns="http://www.w3.org/2000/svg">
<g clip-path="url(#clip0_64_5480)">
<path d="M36.4923 31.7529C34.9241 30.2048 32.9664 30.2048 31.4082 31.7529C30.2196 32.9316 29.031 34.1102 27.8623 35.3088C27.5427 35.6384 27.273 35.7083 26.8835 35.4886C26.1144 35.0691 25.2953 34.7295 24.5562 34.27C21.1102 32.1025 18.2236 29.3158 15.6665 26.1795C14.398 24.6213 13.2693 22.9532 12.4803 21.0754C12.3205 20.6959 12.3504 20.4461 12.6601 20.1365C13.8487 18.9878 15.0073 17.8092 16.176 16.6306C17.8041 14.9925 17.8041 13.0747 16.166 11.4267C15.2371 10.4878 14.3081 9.56883 13.3792 8.62993C12.4203 7.67105 11.4714 6.70218 10.5026 5.75329C8.9344 4.22507 6.97669 4.22507 5.41851 5.76327C4.2199 6.9419 3.07124 8.15049 1.85267 9.30914C0.723982 10.3779 0.154646 11.6864 0.0347857 13.2146C-0.154993 15.7017 0.454296 18.0489 1.31329 20.3363C3.07124 25.0707 5.74812 29.2758 8.99433 33.1313C13.3792 38.3453 18.6131 42.4704 24.736 45.447C27.4928 46.7854 30.3494 47.8142 33.4558 47.984C35.5933 48.1039 37.4511 47.5645 38.9394 45.8964C39.9582 44.7578 41.1069 43.719 42.1856 42.6303C43.7837 41.0121 43.7937 39.0544 42.2056 37.4563C40.3078 35.5485 38.4 33.6507 36.4923 31.7529Z" fill="#007DC5"/>
<path d="M34.5852 23.7922L38.2709 23.163C37.6916 19.7769 36.0934 16.7105 33.6663 14.2733C31.0992 11.7063 27.853 10.0882 24.2772 9.58881L23.7578 13.2945C26.5246 13.684 29.0416 14.9326 31.0293 16.9203C32.9071 18.7981 34.1357 21.1753 34.5852 23.7922Z" fill="#007DC5"/>
<path d="M40.3473 7.77093C36.0923 3.5159 30.7086 0.829033 24.7655 0L24.2461 3.70568C29.3801 4.42484 34.0347 6.75212 37.7104 10.4178C41.1963 13.9038 43.4837 18.3086 44.3127 23.153L47.9984 22.5237C47.0295 16.9103 44.3826 11.8162 40.3473 7.77093Z" fill="#007DC5"/>
</g>
<defs>
<clipPath id="clip0_64_5480">
<rect width="48" height="48" fill="white"/>
</clipPath>
</defs>
</svg>
