<svg width="1542" height="2029" viewBox="0 0 1542 2029" fill="none" xmlns="http://www.w3.org/2000/svg">
<mask id="mask0_46_5258" style="mask-type:luminance" maskUnits="userSpaceOnUse" x="0" y="0" width="1542" height="2029">
<path d="M445.563 899.036C445.609 900.931 445.64 902.893 445.685 904.794C445.993 900.622 446.376 896.18 446.67 892.061C446.691 890.374 446.684 888.803 446.701 887.127C446.314 891.124 445.949 895.042 445.563 899.036ZM443.191 966.439C443.286 968.346 443.398 970.184 443.49 972.101C443.767 967.381 444.01 962.796 444.289 958.073C444.274 956.437 444.274 954.744 444.257 953.113C443.912 957.521 443.57 961.908 443.191 966.439ZM441.71 938.482C441.91 941.912 442.074 945.505 442.265 948.971C442.841 941.858 443.345 935.001 443.887 928.007C443.835 924.823 443.745 921.79 443.687 918.631C443.057 925.143 442.396 931.773 441.71 938.482ZM886.145 1679.42L882.853 1683.78C880.937 1687.47 879.012 1691.18 877.104 1694.83L879.862 1690.93C881.956 1687.09 884.039 1683.3 886.145 1679.42ZM444.066 1056.68L444.129 1057.53C444.142 1056.63 444.144 1055.75 444.148 1054.87L444.066 1056.68ZM442.087 1029.75C442.296 1032.4 442.478 1035.17 442.681 1037.84C442.882 1033.06 443.11 1028.17 443.287 1023.48C443.205 1021.02 443.102 1018.66 443.016 1016.22C442.698 1020.76 442.394 1025.25 442.087 1029.75ZM439.886 1003.75C440.205 1007.35 440.545 1010.86 440.852 1014.51C441.282 1007.97 441.804 1001.09 442.206 994.649C442.043 990.707 441.927 986.562 441.754 982.669C441.124 989.728 440.512 996.721 439.886 1003.75ZM437.547 977.672C437.961 981.925 438.321 986.435 438.721 990.753C439.422 982.673 440.205 974.295 440.884 966.298C440.654 961.817 440.413 957.379 440.174 952.936C439.298 961.182 438.432 969.396 437.547 977.672ZM910.183 1634.63C908.294 1637.03 906.416 1639.38 904.537 1641.74C901.614 1647.46 898.716 1653.09 895.814 1658.73C897.627 1656.28 899.433 1653.86 901.256 1651.38C904.219 1645.85 907.198 1640.25 910.183 1634.63ZM927.434 1612.39L923.87 1617.05L917.886 1628.4L921.04 1624L927.434 1612.39ZM943.797 1590.72L943.642 1590.93L942.99 1592.13L943.797 1590.72ZM445.576 1143.92C445.294 1141.03 445 1138.19 444.713 1135.32C444.569 1140.06 444.397 1144.92 444.253 1149.66M445.207 1116.84L445.325 1118.03L445.28 1113.26C445.255 1114.46 445.237 1115.63 445.207 1116.84ZM442.447 1091.86C442.735 1094.39 443.039 1096.85 443.323 1099.41C443.433 1094.33 443.521 1089.34 443.628 1084.28C443.463 1081.67 443.33 1078.9 443.162 1076.31C442.927 1081.48 442.716 1086.56 442.447 1091.86ZM439.545 1066.81C439.99 1070.45 440.4 1074.28 440.837 1077.96C441.179 1070.94 441.473 1064.09 441.793 1057.15C441.526 1053.41 441.249 1049.7 440.972 1046C440.511 1052.89 440.069 1059.7 439.545 1066.81ZM436.429 1042.75C436.976 1046.87 437.535 1050.92 438.068 1055.1C438.682 1046.58 439.227 1038.3 439.792 1029.96C439.443 1025.58 439.084 1021.25 438.72 1016.94C437.979 1025.46 437.261 1033.91 436.429 1042.75ZM433.189 1018.36C433.832 1022.88 434.416 1027.71 435.043 1032.31C435.937 1022.66 436.737 1013.33 437.553 1003.95C437.127 999.188 436.71 994.385 436.271 989.684C435.273 999.141 434.283 1008.57 433.189 1018.36ZM951.864 1567.43C949.832 1569.98 947.805 1572.5 945.783 1575C942.815 1580.74 939.86 1586.44 936.914 1592.11C938.856 1589.53 940.793 1586.96 942.745 1584.34C945.771 1578.76 948.816 1573.1 951.864 1567.43ZM969.637 1544.85L965.61 1550.02C963.544 1553.9 961.466 1557.83 959.409 1561.67L962.914 1556.85C965.154 1552.86 967.384 1548.89 969.637 1544.85ZM986.456 1522.93L985.929 1523.62L983.608 1527.84L983.645 1527.79L986.456 1522.93ZM926.573 1598.41L926.336 1598.69C922.757 1605.81 919.184 1612.92 915.634 1619.92C918.054 1616.82 920.478 1613.7 922.915 1610.53C926.54 1603.64 930.187 1596.66 933.845 1589.64C931.415 1592.59 928.989 1595.52 926.573 1598.41ZM447.824 1173.42L448.324 1176.76C448.234 1174.44 448.115 1172.26 448.022 1169.96C447.959 1169.26 447.903 1168.53 447.839 1167.83C447.839 1169.68 447.825 1171.57 447.824 1173.42ZM444.253 1149.66C444.726 1152.69 445.177 1155.86 445.646 1158.93ZM440.515 1126.7C441.138 1130.46 441.775 1134.15 442.39 1137.96C442.582 1131.21 442.796 1124.38 442.952 1117.77C442.537 1113.84 442.125 1109.89 441.699 1106.02C441.316 1112.86 440.899 1119.84 440.515 1126.7ZM436.662 1103.57C437.404 1107.81 438.105 1112.3 438.836 1116.62C439.271 1108.67 439.758 1100.53 440.157 1092.73C439.639 1088.21 439.124 1083.69 438.593 1079.24C437.959 1087.31 437.297 1095.49 436.662 1103.57ZM432.61 1081.44C433.432 1085.88 434.259 1090.28 435.067 1094.79C435.77 1085.73 436.554 1076.37 437.223 1067.43C436.63 1062.63 436 1058.02 435.387 1053.31C434.468 1062.66 433.531 1072.08 432.61 1081.44ZM428.453 1059.19C429.347 1063.77 430.215 1068.52 431.094 1073.2C432.062 1063.28 433.109 1053.08 434.05 1043.26C433.38 1038.25 432.732 1033.12 432.048 1028.19C430.864 1038.47 429.651 1048.86 428.453 1059.19ZM957.431 1543.98C954.431 1547.46 951.421 1550.98 948.441 1554.37C944.311 1562.72 940.202 1570.98 936.112 1579.17C939.014 1575.63 941.923 1572.07 944.846 1568.45C949.021 1560.37 953.215 1552.22 957.431 1543.98ZM976.02 1522.1C973.359 1525.28 970.705 1528.44 968.059 1531.56C964.356 1538.84 960.67 1546.06 956.998 1553.23C959.565 1549.98 962.14 1546.71 964.723 1543.4C968.473 1536.36 972.237 1529.27 976.02 1522.1ZM994.553 1499.64C992.371 1502.33 990.207 1504.94 988.035 1507.58C984.904 1513.56 981.799 1519.45 978.691 1525.34C980.804 1522.58 982.92 1519.8 985.043 1517C988.202 1511.26 991.372 1505.47 994.553 1499.64ZM1012.8 1476.92L1008.37 1482.46L1001.6 1494.95L1005.72 1489.4C1008.07 1485.26 1010.43 1481.1 1012.8 1476.92ZM1030.3 1454.63L1029.11 1456.17L1026.19 1461.38L1026.82 1460.51L1030.3 1454.63ZM452.181 1226.68C452.425 1227.89 452.661 1229.16 452.904 1230.37C452.747 1228.23 452.6 1226.04 452.439 1223.91L451.991 1220.59C452.051 1222.64 452.124 1224.62 452.181 1226.68ZM447.734 1205.16C448.334 1208.02 448.944 1210.82 449.54 1213.71C449.389 1208.8 449.233 1203.92 449.079 1199.02C448.641 1195.91 448.22 1192.7 447.777 1189.61C447.764 1194.79 447.769 1199.89 447.734 1205.16ZM443.168 1183.54C443.97 1187.22 444.749 1191.06 445.544 1194.79C445.576 1188.18 445.579 1181.68 445.6 1175.12C445.01 1171.15 444.417 1167.18 443.818 1163.26C443.609 1169.99 443.416 1176.66 443.168 1183.54ZM438.455 1162.66C439.374 1166.7 440.302 1170.66 441.212 1174.76C441.49 1166.74 441.725 1158.89 441.972 1150.99C441.282 1146.6 440.568 1142.36 439.866 1138.04C439.41 1146.19 438.969 1154.28 438.455 1162.66ZM433.642 1141.64C434.657 1145.92 435.647 1150.4 436.652 1154.75C437.2 1145.68 437.69 1136.83 438.187 1127.95C437.406 1123.27 436.638 1118.5 435.844 1113.89C435.13 1123.07 434.431 1132.19 433.642 1141.64ZM428.666 1121.39C429.75 1125.77 430.836 1130.14 431.911 1134.6C432.751 1124.44 433.513 1114.58 434.283 1104.68C433.441 1099.9 432.559 1095.34 431.701 1090.65C430.712 1100.82 429.748 1110.89 428.666 1121.39ZM423.587 1101.16C424.734 1105.59 425.869 1110.1 427.003 1114.63C428.127 1103.66 429.148 1093.06 430.185 1082.41C429.275 1077.53 428.394 1072.46 427.47 1067.66C426.199 1078.74 424.967 1089.7 423.587 1101.16ZM980.847 1497.86C977.471 1501.6 974.111 1505.27 970.755 1508.92C966.231 1518.2 961.725 1527.4 957.245 1536.51C960.539 1532.69 963.83 1528.87 967.143 1524.96C971.687 1516.02 976.257 1506.98 980.847 1497.86ZM999.964 1476.37C996.784 1480 993.604 1483.62 990.441 1487.18C986.223 1495.6 982.024 1503.95 977.844 1512.23C980.937 1508.51 984.05 1504.72 987.16 1500.93C991.409 1492.82 995.675 1484.63 999.964 1476.37ZM1019.09 1454.28C1016.24 1457.62 1013.4 1460.91 1010.57 1464.18C1006.78 1471.55 1002.99 1478.88 999.22 1486.13C1001.97 1482.72 1004.74 1479.27 1007.5 1475.8C1011.35 1468.69 1015.21 1461.51 1019.09 1454.28ZM1038.26 1431.55C1035.86 1434.43 1033.47 1437.27 1031.08 1440.11C1027.86 1446.18 1024.64 1452.21 1021.43 1458.2C1023.69 1455.32 1025.93 1452.49 1028.2 1449.58C1031.54 1443.61 1034.89 1437.61 1038.26 1431.55ZM1057.2 1408.62L1052 1414.98C1049.55 1419.42 1047.1 1423.84 1044.66 1428.24C1046.27 1426.15 1047.89 1423.99 1049.5 1421.88C1052.06 1417.48 1054.62 1413.07 1057.2 1408.62ZM1075.24 1386.39L1073.33 1388.76L1069.66 1395.14L1071.15 1393.15L1075.24 1386.39ZM458.48 1277.05C458.819 1278.31 459.162 1279.53 459.499 1280.8C459.234 1278.5 458.949 1276.32 458.682 1274.03C458.462 1272.84 458.249 1271.6 458.028 1270.41L458.48 1277.05ZM453.073 1257.1C453.865 1259.96 454.647 1262.93 455.437 1265.82C455.36 1264.67 455.279 1263.55 455.205 1262.4C454.965 1258.74 454.69 1255.26 454.434 1251.67C453.848 1248.64 453.257 1245.64 452.668 1242.63C452.798 1247.48 452.933 1252.3 453.073 1257.1ZM447.569 1237.67C448.574 1241.19 449.588 1244.62 450.589 1248.19C450.506 1245.14 450.412 1242.15 450.334 1239.07C450.248 1235.66 450.128 1232.41 450.021 1229.1C449.25 1225.27 448.472 1221.49 447.692 1217.72C447.638 1224.43 447.601 1231.06 447.569 1237.67ZM441.978 1218.19C443.125 1222.08 444.255 1226.15 445.396 1230.1C445.426 1225.34 445.442 1220.65 445.484 1215.83C445.509 1212.95 445.503 1210.19 445.508 1207.39C444.61 1203.12 443.714 1198.83 442.81 1194.61C442.513 1202.55 442.243 1210.38 441.978 1218.19ZM436.263 1199.33C437.499 1203.4 438.742 1207.41 439.973 1211.53C440.19 1205.25 440.399 1199 440.64 1192.63C440.732 1190.17 440.798 1187.81 440.87 1185.43C439.893 1180.97 438.888 1176.7 437.895 1172.35C437.329 1181.43 436.791 1190.41 436.263 1199.33ZM430.466 1180.43C431.776 1184.6 433.075 1188.89 434.378 1193.13C434.845 1185.29 435.308 1177.46 435.807 1169.49C435.915 1167.77 436.002 1166.13 436.095 1164.45C435.038 1159.84 433.99 1155.16 432.928 1150.56C432.084 1160.61 431.266 1170.56 430.466 1180.43ZM424.54 1162.01C425.907 1166.23 427.275 1170.46 428.638 1174.75C429.402 1165.36 430.169 1155.95 430.975 1146.39C431.063 1145.35 431.135 1144.36 431.216 1143.36C430.1 1138.69 428.968 1134.16 427.837 1129.61C426.714 1140.5 425.615 1151.3 424.54 1162.01ZM418.527 1143.75C419.941 1147.96 421.353 1152.19 422.761 1156.48C423.863 1145.53 424.989 1134.48 426.144 1123.33L426.187 1122.9C425.016 1118.21 423.858 1113.42 422.676 1108.81C421.266 1120.56 419.882 1132.2 418.527 1143.75ZM1004.2 1451.12C1000.5 1455.03 996.819 1458.88 993.145 1462.69C988.286 1472.79 983.454 1482.79 978.645 1492.71C982.251 1488.73 985.877 1484.67 989.509 1480.59C994.379 1470.87 999.276 1461.04 1004.2 1451.12ZM1023.75 1430.14C1020.19 1434 1016.65 1437.82 1013.11 1441.62C1008.47 1451.01 1003.86 1460.31 999.266 1469.53C1002.72 1465.59 1006.18 1461.62 1009.66 1457.6C1014.33 1448.53 1019.03 1439.38 1023.75 1430.14ZM1043.43 1408.52C1040.07 1412.25 1036.73 1415.94 1033.39 1419.6C1029.02 1428.2 1024.67 1436.72 1020.34 1445.18C1023.6 1441.34 1026.89 1437.43 1030.17 1433.53C1034.57 1425.27 1038.99 1416.93 1043.43 1408.52ZM1063.27 1386.19C1060.21 1389.67 1057.14 1393.14 1054.09 1396.58C1050.12 1404.15 1046.17 1411.64 1042.23 1419.1C1045.16 1415.57 1048.1 1412.03 1051.05 1408.45C1055.11 1401.09 1059.18 1393.68 1063.27 1386.19ZM1083.04 1363.56C1080.42 1366.59 1077.81 1369.58 1075.2 1372.58C1071.73 1378.97 1068.28 1385.28 1064.83 1391.59C1067.35 1388.49 1069.88 1385.34 1072.4 1382.21C1075.93 1376.04 1079.48 1369.82 1083.04 1363.56ZM1102.53 1340.9L1096.57 1347.87C1093.88 1352.64 1091.2 1357.37 1088.52 1362.09C1090.35 1359.79 1092.17 1357.52 1094.01 1355.2C1096.84 1350.47 1099.68 1345.68 1102.53 1340.9ZM1121.21 1318.93L1118.31 1322.35L1113.63 1330.27L1116.04 1327.2L1121.21 1318.93ZM467.14 1324.14L468.37 1327.62C468.081 1326.04 467.796 1324.43 467.507 1322.86C467.156 1321.47 466.803 1320.12 466.452 1318.73L467.14 1324.14ZM460.592 1306.07C461.529 1308.63 462.467 1311.12 463.403 1313.7C462.885 1309.5 462.391 1305.16 461.886 1300.89C461.102 1297.88 460.322 1294.82 459.535 1291.84C459.881 1296.62 460.23 1301.38 460.592 1306.07ZM454.073 1288.38C455.291 1291.64 456.507 1295 457.725 1298.29C457.284 1292.38 456.852 1286.42 456.432 1280.4C455.43 1276.68 454.428 1272.97 453.424 1269.3C453.624 1275.74 453.848 1282.06 454.073 1288.38ZM447.489 1271.08C448.863 1274.67 450.237 1278.18 451.61 1281.81C451.365 1274.64 451.135 1267.39 450.922 1260.07C449.789 1255.99 448.645 1252.04 447.507 1248.02C447.479 1255.81 447.483 1263.45 447.489 1271.08ZM440.845 1253.79C442.322 1257.56 443.796 1261.49 445.272 1265.31C445.273 1257.11 445.292 1248.83 445.333 1240.45C444.104 1236.16 442.88 1231.82 441.645 1227.6C441.353 1236.44 441.097 1245.13 440.845 1253.79ZM434.116 1236.98C435.666 1240.84 437.218 1244.67 438.767 1248.59C439.039 1239.39 439.329 1230.12 439.647 1220.73C438.354 1216.36 437.046 1212.18 435.747 1207.89C435.175 1217.7 434.641 1227.36 434.116 1236.98ZM427.324 1220.17C428.929 1224.08 430.532 1228.06 432.137 1232.03C432.688 1222.01 433.258 1211.92 433.86 1201.68C432.51 1197.27 431.171 1192.72 429.815 1188.38C428.955 1199.09 428.131 1209.66 427.324 1220.17ZM420.438 1203.69C422.09 1207.62 423.744 1211.57 425.396 1215.56C426.234 1204.7 427.09 1193.77 427.984 1182.69C426.587 1178.27 425.183 1173.95 423.778 1169.62C422.636 1181.08 421.522 1192.44 420.438 1203.69ZM413.485 1187.38C415.173 1191.29 416.86 1195.18 418.548 1199.16C419.666 1187.59 420.819 1175.89 421.999 1164.09C420.563 1159.68 419.124 1155.3 417.681 1150.98C416.251 1163.22 414.85 1175.36 413.485 1187.38ZM1027.62 1403.59C1023.61 1407.64 1019.61 1411.67 1015.61 1415.64C1010.52 1426.36 1005.46 1436.98 1000.42 1447.5C1004.33 1443.39 1008.25 1439.24 1012.17 1435.03C1017.29 1424.66 1022.44 1414.17 1027.62 1403.59ZM1047.58 1383.15C1043.66 1387.2 1039.75 1391.22 1035.85 1395.21C1030.89 1405.39 1025.96 1415.48 1021.05 1425.47C1024.85 1421.36 1028.66 1417.2 1032.48 1412.99C1037.49 1403.14 1042.52 1393.19 1047.58 1383.15ZM1067.77 1362.02C1063.99 1366.02 1060.21 1369.99 1056.44 1373.93C1051.65 1383.48 1046.88 1392.95 1042.14 1402.34C1045.81 1398.26 1049.5 1394.12 1053.19 1389.97C1058.03 1380.74 1062.89 1371.42 1067.77 1362.02ZM1088.12 1340.37C1084.53 1344.22 1080.95 1348.05 1077.37 1351.86C1072.84 1360.61 1068.33 1369.3 1063.85 1377.91C1067.31 1373.96 1070.79 1370 1074.27 1366C1078.87 1357.54 1083.48 1348.99 1088.12 1340.37ZM1108.54 1318.37C1105.23 1321.95 1101.93 1325.52 1098.63 1329.07C1094.46 1336.88 1090.29 1344.63 1086.15 1352.32C1089.31 1348.66 1092.48 1344.98 1095.67 1341.28C1099.94 1333.7 1104.23 1326.06 1108.54 1318.37ZM1128.91 1296.18L1120.19 1305.7C1116.5 1312.34 1112.81 1318.95 1109.14 1325.5L1117.43 1315.74C1121.24 1309.27 1125.07 1302.74 1128.91 1296.18ZM1148.99 1274.18L1142.04 1281.8C1139.05 1286.95 1136.05 1292.11 1133.07 1297.21L1139.47 1289.58C1142.64 1284.47 1145.8 1279.35 1148.99 1274.18ZM1168.15 1253.12L1164.17 1257.5L1158.3 1267.07L1161.83 1262.85L1168.29 1252.97L1168.15 1253.12ZM478.7 1367.91L479.887 1370.35C479.586 1369.26 479.28 1368.2 478.98 1367.09L477.985 1364.3C478.224 1365.49 478.458 1366.73 478.7 1367.91ZM470.777 1351.57C471.926 1353.93 473.078 1356.32 474.228 1358.69C473.491 1354.95 472.737 1351.32 472.011 1347.49C471.034 1344.7 470.057 1341.96 469.079 1339.19C469.636 1343.38 470.209 1347.46 470.777 1351.57ZM463.016 1335.81C464.471 1338.74 465.919 1341.59 467.376 1344.56C466.665 1339.27 465.975 1333.85 465.281 1328.45C464.037 1324.98 462.794 1321.51 461.549 1318.08C462.029 1324.03 462.514 1329.97 463.016 1335.81ZM455.314 1320.36C456.947 1323.6 458.588 1326.93 460.225 1330.21C459.672 1323.57 459.129 1316.89 458.605 1310.08C457.219 1306.3 455.83 1302.52 454.443 1298.78C454.715 1306.07 455.008 1313.24 455.314 1320.36ZM447.608 1305.23C449.362 1308.66 451.11 1312.01 452.869 1315.49C452.55 1307.75 452.243 1299.95 451.958 1292.04C450.471 1288.07 448.978 1284.24 447.489 1280.33C447.505 1288.73 447.551 1297.01 447.608 1305.23ZM439.882 1290.15C441.704 1293.66 443.537 1297.29 445.363 1300.85C445.311 1292.17 445.274 1283.42 445.265 1274.54C443.707 1270.48 442.149 1266.36 440.589 1262.37C440.326 1271.74 440.097 1280.98 439.882 1290.15ZM432.109 1275.41C433.987 1278.97 435.865 1282.5 437.749 1286.11C437.979 1276.52 438.228 1266.85 438.508 1257.05C436.898 1252.95 435.286 1249 433.674 1244.97C433.123 1255.24 432.607 1265.36 432.109 1275.41ZM424.297 1260.7C426.213 1264.27 428.134 1267.89 430.055 1271.51C430.574 1261.11 431.113 1250.64 431.689 1240.02C430.039 1235.92 428.39 1231.76 426.738 1227.73C425.893 1238.84 425.082 1249.82 424.297 1260.7ZM416.429 1246.19C418.379 1249.77 420.331 1253.36 422.287 1256.99C423.099 1245.8 423.931 1234.54 424.805 1223.11C423.117 1219.01 421.429 1214.99 419.74 1210.97C418.605 1222.83 417.499 1234.58 416.429 1246.19ZM408.522 1231.84C410.498 1235.39 412.47 1238.92 414.451 1242.55C415.55 1230.64 416.685 1218.6 417.85 1206.45C416.132 1202.38 414.411 1198.38 412.692 1194.39C411.269 1206.99 409.876 1219.48 408.522 1231.84ZM1154.93 1251.42L1144.19 1262.3C1139.74 1270.39 1135.31 1278.43 1130.9 1286.41L1141.19 1275.14C1145.75 1267.29 1150.33 1259.39 1154.93 1251.42ZM1175.8 1230.35L1166.17 1240.06C1162.16 1247.04 1158.16 1253.98 1154.17 1260.88L1163.31 1250.84C1167.46 1244.05 1171.62 1237.22 1175.8 1230.35ZM1196.35 1209.75L1188.35 1217.74C1184.96 1223.34 1181.59 1228.9 1178.22 1234.44L1185.66 1226.28C1189.21 1220.79 1192.78 1215.29 1196.35 1209.75ZM1216.1 1190.17L1210.63 1195.57L1203.36 1206.87L1208.14 1201.64L1216.1 1190.17ZM1234.2 1172.49L1232.96 1173.69L1230.35 1177.47L1230.87 1176.9L1234.2 1172.49ZM1051 1355.44C1046.73 1359.59 1042.46 1363.72 1038.18 1367.81C1032.91 1379.06 1027.66 1390.2 1022.44 1401.24C1026.6 1397.06 1030.76 1392.85 1034.93 1388.6C1040.26 1377.65 1045.61 1366.6 1051 1355.44ZM1071.45 1335.4C1067.22 1339.58 1062.99 1343.74 1058.77 1347.87C1053.56 1358.71 1048.37 1369.45 1043.22 1380.08C1047.32 1375.85 1051.43 1371.59 1055.54 1367.29C1060.82 1356.76 1066.12 1346.14 1071.45 1335.4ZM1092.11 1314.86C1087.96 1319.01 1083.81 1323.15 1079.66 1327.27C1074.55 1337.61 1069.46 1347.86 1064.39 1358.02C1068.41 1353.79 1072.44 1349.52 1076.47 1345.23C1081.66 1335.2 1086.87 1325.08 1092.11 1314.86ZM1112.95 1293.91L1100.89 1306.05C1095.93 1315.78 1090.98 1325.44 1086.06 1335C1089.94 1330.84 1093.83 1326.66 1097.73 1322.46C1102.78 1313.02 1107.85 1303.51 1112.95 1293.91ZM1133.93 1272.69L1122.42 1284.34C1117.67 1293.34 1112.93 1302.27 1108.22 1311.12L1119.32 1299.05C1124.17 1290.34 1129.04 1281.55 1133.93 1272.69ZM493.331 1406.48C493.691 1406.99 494.052 1407.54 494.412 1408.05L493.982 1407L492.823 1404.78L493.331 1406.48ZM483.935 1392.71L485.854 1395.57C486.519 1396.57 487.186 1397.51 487.851 1398.49C487.003 1395.61 486.143 1392.84 485.301 1389.9C484.123 1387.53 482.95 1385.13 481.775 1382.73C482.496 1386.06 483.213 1389.4 483.935 1392.71ZM474.702 1378.96L479.914 1386.73C478.965 1382.23 478.018 1377.73 477.085 1373.12C475.529 1369.89 473.976 1366.71 472.423 1363.5C473.169 1368.74 473.937 1373.84 474.702 1378.96ZM465.713 1365.66C467.652 1368.52 469.584 1371.36 471.532 1374.24C470.678 1368.39 469.84 1362.45 469.009 1356.47C467.308 1352.99 465.608 1349.52 463.911 1346.08C464.498 1352.68 465.099 1359.21 465.713 1365.66ZM456.814 1352.6C458.869 1355.6 460.939 1358.65 463.005 1361.69C462.354 1354.7 461.724 1347.6 461.104 1340.44C459.31 1336.83 457.515 1333.22 455.725 1329.66C456.072 1337.39 456.429 1345.06 456.814 1352.6ZM447.961 1339.73C450.102 1342.83 452.223 1345.88 454.377 1349.02C453.98 1340.99 453.595 1332.91 453.24 1324.67C451.381 1320.98 449.532 1317.4 447.677 1313.77C447.751 1322.52 447.84 1331.2 447.961 1339.73ZM439.127 1326.95C441.301 1330.08 443.503 1333.28 445.69 1336.45C445.573 1327.51 445.471 1318.5 445.404 1309.33C443.503 1305.63 441.595 1301.87 439.7 1298.21C439.484 1307.9 439.289 1317.49 439.127 1326.95ZM430.283 1314.33C432.503 1317.49 434.713 1320.63 436.946 1323.84C437.119 1314.02 437.314 1304.13 437.546 1294.07C435.603 1290.34 433.673 1286.72 431.736 1283.05C431.224 1293.59 430.734 1304.03 430.283 1314.33ZM421.434 1301.75C423.669 1304.91 425.916 1308.11 428.166 1311.31C428.636 1300.7 429.131 1289.99 429.667 1279.12C427.701 1275.41 425.734 1271.68 423.774 1268.02C422.962 1279.39 422.177 1290.65 421.434 1301.75ZM412.559 1289.27C414.817 1292.44 417.078 1295.62 419.35 1298.82C420.116 1287.45 420.917 1275.95 421.753 1264.3C419.759 1260.59 417.77 1256.94 415.781 1253.29C414.673 1265.41 413.596 1277.41 412.559 1289.27ZM403.676 1276.89C405.951 1280.05 408.216 1283.18 410.506 1286.39C411.566 1274.28 412.668 1262.02 413.801 1249.64C411.785 1245.95 409.777 1242.34 407.767 1238.71C406.364 1251.58 405.002 1264.3 403.676 1276.89ZM1137.87 1246.63L1124.71 1259.12C1119.38 1269.7 1114.08 1280.16 1108.8 1290.54L1121.53 1277.68C1126.95 1267.43 1132.4 1257.08 1137.87 1246.63ZM1159.36 1226.34C1155.09 1230.35 1150.81 1234.39 1146.54 1238.43C1141.33 1248.41 1136.14 1258.32 1130.98 1268.13L1140.22 1258.77L1143.33 1255.62C1148.64 1245.94 1153.99 1236.18 1159.36 1226.34ZM1180.86 1206.24C1176.76 1210.05 1172.65 1213.88 1168.54 1217.72C1163.51 1226.99 1158.49 1236.19 1153.5 1245.32L1165.33 1233.36C1170.49 1224.39 1175.66 1215.36 1180.86 1206.24ZM1202.27 1186.57C1198.4 1190.08 1194.54 1193.61 1190.67 1197.17C1185.9 1205.56 1181.15 1213.9 1176.42 1222.18L1187.51 1211.04C1192.41 1202.94 1197.33 1194.78 1202.27 1186.57ZM1223.47 1167.54C1219.95 1170.65 1216.43 1173.79 1212.91 1176.95C1208.53 1184.26 1204.16 1191.53 1199.81 1198.76L1209.82 1188.83C1214.36 1181.77 1218.91 1174.67 1223.47 1167.54ZM1244.22 1149.47C1241.19 1152.07 1238.15 1154.68 1235.11 1157.33L1223.7 1175.19C1226.53 1172.42 1229.36 1169.66 1232.19 1166.91L1244.22 1149.47ZM1264.2 1132.69C1261.88 1134.6 1259.56 1136.53 1257.24 1138.46L1248.37 1151.35L1254.62 1145.4L1264.2 1132.69ZM1282.57 1117.89L1279.22 1120.55L1274.49 1126.82L1276.99 1124.52L1282.57 1117.89ZM1074.37 1306.73C1069.82 1311 1065.26 1315.25 1060.7 1319.49C1055.29 1331.15 1049.91 1342.71 1044.56 1354.16C1048.99 1349.89 1053.42 1345.58 1057.85 1341.25C1063.33 1329.86 1068.84 1318.34 1074.37 1306.73ZM1095.33 1286.98L1081.74 1299.81C1076.33 1311.19 1070.95 1322.47 1065.59 1333.66C1069.98 1329.33 1074.38 1324.98 1078.77 1320.61C1084.26 1309.52 1089.79 1298.3 1095.33 1286.98ZM1116.52 1266.9L1103.09 1279.64C1097.69 1290.67 1092.33 1301.59 1087 1312.43C1091.33 1308.1 1095.67 1303.75 1100.02 1299.38C1105.49 1288.66 1110.99 1277.83 1116.52 1266.9ZM510.967 1438.37L511.139 1438.52L510.902 1438.22L510.967 1438.37ZM500.111 1427.95C501.537 1429.35 502.964 1430.7 504.389 1432.08C503.546 1430.13 502.697 1428.23 501.857 1426.24C500.482 1424.38 499.108 1422.48 497.735 1420.57C498.525 1423.04 499.315 1425.51 500.111 1427.95ZM489.397 1417.04L490.578 1418.28C492.164 1419.93 493.748 1421.49 495.331 1423.1C494.224 1419.59 493.118 1416.07 492.02 1412.47C490.163 1409.81 488.307 1407.09 486.453 1404.35C487.423 1408.66 488.414 1412.82 489.397 1417.04ZM478.91 1406.08L485.654 1413.13C484.566 1408.35 483.509 1403.36 482.445 1398.42C480.362 1395.31 478.298 1392.25 476.227 1389.16C477.106 1394.9 478.006 1400.5 478.91 1406.08ZM468.676 1395.38L475.895 1402.93C474.927 1396.83 473.971 1390.67 473.03 1384.4C470.878 1381.21 468.728 1378.02 466.589 1374.86C467.266 1381.8 467.963 1388.64 468.676 1395.38ZM458.607 1384.85L466.034 1392.62C465.293 1385.47 464.571 1378.22 463.869 1370.87C461.666 1367.62 459.467 1364.39 457.277 1361.19C457.703 1369.16 458.142 1377.07 458.607 1384.85ZM448.589 1374.36L456.163 1382.3C455.688 1374.17 455.239 1365.92 454.81 1357.57C452.56 1354.28 450.334 1351.07 448.097 1347.82C448.24 1356.76 448.398 1365.64 448.589 1374.36ZM438.627 1363.93L446.287 1371.95C446.099 1362.93 445.942 1353.77 445.805 1344.51C443.54 1341.23 441.265 1337.92 439.014 1334.68C438.861 1344.53 438.727 1354.31 438.627 1363.93ZM428.69 1353.52L436.4 1361.6C436.508 1351.7 436.652 1341.67 436.819 1331.53C434.524 1328.23 432.256 1325.01 429.974 1321.76C429.519 1332.46 429.085 1343.07 428.69 1353.52ZM418.779 1343.12L426.519 1351.24C426.926 1340.54 427.374 1329.68 427.847 1318.73C425.549 1315.46 423.25 1312.18 420.966 1308.95C420.206 1320.45 419.47 1331.87 418.779 1343.12ZM408.867 1332.71L416.636 1340.87C417.346 1329.39 418.098 1317.75 418.878 1306.01C416.56 1302.74 414.255 1299.5 411.952 1296.27C410.887 1308.56 409.856 1320.71 408.867 1332.71ZM398.989 1322.34L406.755 1330.5C407.763 1318.27 408.813 1305.89 409.899 1293.39C407.571 1290.13 405.266 1286.94 402.956 1283.72C401.591 1296.74 400.271 1309.61 398.989 1322.34ZM1141.01 1218.21C1136.21 1222.54 1131.4 1226.89 1126.58 1231.27C1120.99 1242.85 1115.42 1254.33 1109.88 1265.7L1119.81 1256.28L1123.81 1252.47C1129.51 1241.17 1135.25 1229.73 1141.01 1218.21ZM1162.89 1198.58C1158.16 1202.79 1153.41 1207.04 1148.65 1211.32C1143.04 1222.57 1137.46 1233.73 1131.9 1244.79L1145.64 1231.78C1151.36 1220.82 1157.12 1209.74 1162.89 1198.58ZM1184.86 1179.27C1180.22 1183.3 1175.56 1187.38 1170.89 1191.5C1165.3 1202.33 1159.75 1213.04 1154.21 1223.69C1158.7 1219.45 1163.19 1215.24 1167.67 1211.04C1173.37 1200.54 1179.1 1189.95 1184.86 1179.27ZM1206.81 1160.5C1202.28 1164.3 1197.74 1168.16 1193.2 1172.07C1187.7 1182.31 1182.22 1192.48 1176.77 1202.55C1181.13 1198.5 1185.48 1194.47 1189.84 1190.47C1195.47 1180.55 1201.12 1170.57 1206.81 1160.5ZM1228.6 1142.56C1224.25 1146.07 1219.88 1149.64 1215.5 1153.25C1210.15 1162.77 1204.81 1172.24 1199.5 1181.61C1203.7 1177.79 1207.89 1173.99 1212.08 1170.23C1217.56 1161.08 1223.07 1151.84 1228.6 1142.56ZM1250.17 1125.65C1246.05 1128.79 1241.92 1132 1237.78 1135.26C1232.65 1143.89 1227.54 1152.46 1222.45 1160.98C1226.41 1157.48 1230.37 1154 1234.32 1150.56C1239.58 1142.31 1244.87 1134 1250.17 1125.65ZM1271.35 1110.03C1267.53 1112.75 1263.7 1115.54 1259.87 1118.38C1255.1 1125.9 1250.35 1133.39 1245.61 1140.84C1249.24 1137.75 1252.86 1134.68 1256.49 1131.66L1271.35 1110.03ZM1291.93 1095.96C1288.54 1098.18 1285.14 1100.47 1281.74 1102.8L1269.01 1121.33C1272.2 1118.74 1275.38 1116.19 1278.56 1113.67L1291.93 1095.96ZM1311.59 1083.69C1308.82 1085.33 1306.05 1087.02 1303.28 1088.74L1292.82 1102.55C1295.35 1100.61 1297.88 1098.7 1300.4 1096.81L1311.59 1083.69ZM1329.77 1073.45C1328 1074.39 1326.23 1075.36 1324.46 1076.33L1317.65 1084.27C1319.11 1083.23 1320.57 1082.22 1322.03 1081.21L1329.77 1073.45ZM1097.65 1257.61L1083.15 1270.8C1077.67 1282.75 1072.22 1294.58 1066.8 1306.32C1071.48 1301.96 1076.15 1297.58 1080.81 1293.19C1086.4 1281.44 1092.01 1269.58 1097.65 1257.61ZM1105.61 1250.36L1104.75 1251.15C1099.21 1262.94 1093.68 1274.65 1088.2 1286.23L1102.19 1273C1107.85 1261.42 1113.53 1249.74 1119.25 1237.94L1105.61 1250.36ZM519.211 1456.1C520.676 1456.95 522.142 1457.79 523.605 1458.61C522.892 1457.49 522.181 1456.36 521.469 1455.22C519.955 1453.91 518.44 1452.53 516.925 1451.19C517.689 1452.8 518.445 1454.5 519.211 1456.1ZM507.111 1448.77C509.287 1450.14 511.459 1451.48 513.631 1452.79C512.412 1450.16 511.185 1447.62 509.972 1444.92C507.877 1442.98 505.78 1440.93 503.683 1438.91C504.817 1442.28 505.969 1445.49 507.111 1448.77ZM495.114 1440.9L495.314 1441.04C497.805 1442.74 500.289 1444.35 502.774 1445.97C501.484 1442.15 500.205 1438.22 498.929 1434.29C496.541 1431.94 494.15 1429.49 491.759 1427.02C492.868 1431.71 493.982 1436.38 495.114 1440.9ZM483.401 1432.82C486.147 1434.71 488.885 1436.61 491.657 1438.51C490.432 1433.52 489.236 1428.31 488.03 1423.17L480.403 1415.21C481.388 1421.16 482.386 1427.04 483.401 1432.82ZM471.967 1424.87C474.793 1426.85 477.642 1428.83 480.496 1430.81C479.428 1424.61 478.367 1418.38 477.33 1412L469.604 1403.92C470.376 1410.99 471.162 1417.99 471.967 1424.87ZM460.678 1416.9L469.349 1423.02C468.521 1415.82 467.712 1408.52 466.924 1401.11L459.102 1392.93C459.605 1401.03 460.131 1409.02 460.678 1416.9ZM449.488 1408.89C452.405 1410.99 455.305 1413.09 458.253 1415.18C457.698 1407.04 457.171 1398.75 456.659 1390.38L448.77 1382.12C448.985 1391.16 449.221 1400.09 449.488 1408.89ZM438.386 1400.88C441.29 1403 444.244 1405.11 447.178 1407.23C446.912 1398.18 446.681 1388.99 446.468 1379.71L438.562 1371.43C438.475 1381.37 438.413 1391.2 438.386 1400.88ZM427.342 1392.76C430.271 1394.92 433.171 1397.08 436.136 1399.24C436.169 1389.33 436.24 1379.26 436.335 1369.09L428.426 1360.8C428.033 1371.58 427.669 1382.25 427.342 1392.76ZM416.354 1384.61C419.259 1386.78 422.196 1388.96 425.132 1391.13C425.471 1380.4 425.85 1369.52 426.255 1358.52L418.351 1350.24C417.651 1361.83 416.982 1373.3 416.354 1384.61ZM405.39 1376.35C408.303 1378.55 411.22 1380.76 414.165 1382.96C414.807 1371.46 415.493 1359.78 416.209 1347.99L408.297 1339.68C407.288 1352.05 406.32 1364.27 405.39 1376.35ZM394.5 1368.04C397.403 1370.27 400.291 1372.49 403.231 1374.72C404.174 1362.45 405.159 1350.03 406.185 1337.47L398.302 1329.18C396.991 1342.29 395.724 1355.24 394.5 1368.04ZM1120.83 1208.18C1115.71 1212.74 1110.57 1217.34 1105.41 1221.98C1099.92 1234.08 1094.45 1246.09 1089 1258L1103.83 1244.49C1109.47 1232.5 1115.13 1220.38 1120.83 1208.18ZM1143.11 1188.39C1138 1192.9 1132.86 1197.46 1127.7 1202.05C1122.06 1214.16 1116.46 1226.16 1110.88 1238.08L1125.7 1224.59C1131.47 1212.63 1137.28 1200.57 1143.11 1188.39ZM1165.55 1168.81C1160.46 1173.21 1155.33 1177.67 1150.18 1182.18C1144.43 1194.22 1138.71 1206.13 1133.01 1217.95C1137.95 1213.48 1142.87 1209.04 1147.78 1204.62C1153.68 1192.79 1159.6 1180.86 1165.55 1168.81ZM1188.05 1149.71C1183 1153.93 1177.91 1158.23 1172.81 1162.59C1166.97 1174.42 1161.16 1186.17 1155.39 1197.8C1160.28 1193.42 1165.16 1189.09 1170.03 1184.79C1176.01 1173.2 1182.02 1161.5 1188.05 1149.71ZM1210.53 1131.35C1205.55 1135.32 1200.54 1139.39 1195.51 1143.53C1189.62 1155.07 1183.75 1166.51 1177.92 1177.85C1182.74 1173.63 1187.56 1169.45 1192.36 1165.33C1198.39 1154.11 1204.45 1142.76 1210.53 1131.35ZM1232.88 1114.05C1228.01 1117.71 1223.11 1121.46 1218.19 1125.3C1212.28 1136.41 1206.41 1147.4 1200.56 1158.33C1205.29 1154.31 1210 1150.36 1214.7 1146.47C1220.74 1135.75 1226.79 1124.95 1232.88 1114.05ZM1254.97 1098.09C1250.23 1101.38 1245.48 1104.76 1240.7 1108.26C1234.86 1118.72 1229.05 1129.14 1223.26 1139.45C1227.85 1135.72 1232.43 1132.04 1237 1128.45C1242.96 1118.41 1248.96 1108.27 1254.97 1098.09ZM1276.71 1083.74C1272.17 1086.58 1267.6 1089.55 1263 1092.62C1257.29 1102.31 1251.61 1111.92 1245.95 1121.48C1250.35 1118.09 1254.75 1114.77 1259.14 1111.51C1264.98 1102.31 1270.83 1093.05 1276.71 1083.74ZM1297.95 1071.25C1293.64 1073.61 1289.31 1076.1 1284.96 1078.7C1279.47 1087.39 1274.01 1096.04 1268.57 1104.64C1272.74 1101.65 1276.9 1098.73 1281.06 1095.88L1297.95 1071.25ZM1318.59 1060.78C1314.57 1062.64 1310.53 1064.62 1306.48 1066.71L1291.1 1089.15C1294.97 1086.6 1298.84 1084.13 1302.69 1081.74C1307.98 1074.77 1313.28 1067.78 1318.59 1060.78ZM1338.43 1052.52C1334.79 1053.86 1331.14 1055.32 1327.47 1056.87L1313.55 1075.18C1317.02 1073.15 1320.48 1071.19 1323.94 1069.29C1328.76 1063.69 1333.59 1058.1 1338.43 1052.52ZM1357.2 1046.58C1354.11 1047.41 1351.01 1048.3 1347.9 1049.29C1343.96 1053.8 1340.02 1058.33 1336.08 1062.87C1338.98 1061.4 1341.87 1060 1344.76 1058.64C1348.91 1054.59 1353.05 1050.57 1357.2 1046.58ZM1374.57 1042.83C1372.29 1043.19 1370 1043.6 1367.71 1044.08C1364.81 1046.82 1361.91 1049.58 1359.02 1052.35C1361.06 1051.51 1363.09 1050.69 1365.13 1049.91C1368.27 1047.51 1371.42 1045.16 1374.57 1042.83ZM1389.08 1041.15C1388.31 1041.2 1387.53 1041.29 1386.76 1041.36L1383.65 1043.58L1384.99 1043.18C1386.36 1042.49 1387.72 1041.81 1389.08 1041.15ZM541.503 1477.18C542.815 1477.51 544.125 1477.83 545.436 1478.14L543.738 1476.41C542.304 1475.73 540.87 1475.03 539.434 1474.32C540.122 1475.29 540.813 1476.22 541.503 1477.18ZM527.765 1473.33C530.051 1474.02 532.337 1474.69 534.618 1475.32C533.416 1473.57 532.219 1471.77 531.02 1469.98C528.765 1468.78 526.51 1467.56 524.251 1466.3C525.421 1468.65 526.589 1471.04 527.765 1473.33ZM514.392 1469.04C517.182 1469.99 519.971 1470.94 522.752 1471.81C521.281 1468.86 519.806 1465.96 518.342 1462.92C515.685 1461.37 513.02 1459.74 510.355 1458.1C511.69 1461.84 513.043 1465.42 514.392 1469.04ZM501.168 1464.26C504.235 1465.44 507.296 1466.59 510.347 1467.66C508.91 1463.7 507.494 1459.56 506.072 1455.47C503.192 1453.65 500.304 1451.72 497.416 1449.78C498.662 1454.64 499.9 1459.56 501.168 1464.26ZM488.225 1459.1C491.446 1460.4 494.642 1461.71 497.901 1462.98C496.548 1457.86 495.205 1452.68 493.873 1447.41C490.858 1445.35 487.905 1443.29 484.921 1441.23C486.011 1447.26 487.106 1453.26 488.225 1459.1ZM475.532 1453.95C478.78 1455.3 482.077 1456.63 485.363 1457.96C484.204 1451.79 483.054 1445.55 481.929 1439.16C478.916 1437.08 475.89 1434.99 472.907 1432.9C473.76 1440.04 474.635 1447.05 475.532 1453.95ZM463.038 1448.63C466.329 1450.05 469.631 1451.46 472.962 1452.86C472.049 1445.71 471.159 1438.43 470.288 1431.05L461.213 1424.65C461.795 1432.77 462.405 1440.76 463.038 1448.63ZM450.671 1443.2C453.977 1444.68 457.28 1446.15 460.628 1447.61C459.99 1439.51 459.377 1431.28 458.788 1422.94C455.74 1420.77 452.73 1418.6 449.715 1416.44C450.003 1425.49 450.324 1434.41 450.671 1443.2ZM438.42 1437.67C441.7 1439.18 445.036 1440.67 448.358 1442.16C448.011 1433.17 447.694 1424.03 447.405 1414.77C444.385 1412.6 441.353 1410.42 438.366 1408.24C438.35 1418.2 438.369 1428 438.42 1437.67ZM426.258 1431.92C429.556 1433.49 432.807 1435.09 436.152 1436.65C436.106 1426.78 436.095 1416.77 436.115 1406.61C433.081 1404.4 430.118 1402.19 427.119 1399.98C426.796 1410.77 426.509 1421.42 426.258 1431.92ZM414.183 1426.1C417.43 1427.7 420.732 1429.27 424.021 1430.85C424.281 1420.17 424.579 1409.32 424.911 1398.35C421.919 1396.13 418.923 1393.92 415.964 1391.72C415.333 1403.33 414.737 1414.79 414.183 1426.1ZM402.155 1420.04C405.407 1421.69 408.661 1423.35 411.958 1424.98C412.523 1413.5 413.131 1401.85 413.776 1390.07C410.78 1387.82 407.815 1385.58 404.853 1383.34C403.91 1395.73 403.012 1407.96 402.155 1420.04ZM390.241 1413.86C393.47 1415.55 396.685 1417.26 399.961 1418.93C400.83 1406.69 401.739 1394.28 402.695 1381.71C399.714 1379.45 396.787 1377.19 393.843 1374.93C392.595 1388.07 391.396 1401.05 390.241 1413.86ZM1143.8 1158.64C1138.38 1163.44 1132.93 1168.3 1127.43 1173.22C1121.97 1185.37 1116.53 1197.43 1111.11 1209.4C1116.36 1204.7 1121.57 1200.03 1126.77 1195.41C1132.42 1183.26 1138.1 1171 1143.8 1158.64ZM1166.94 1138.42C1161.51 1143.1 1156.05 1147.87 1150.54 1152.71C1144.88 1165.01 1139.23 1177.22 1133.62 1189.32C1138.87 1184.67 1144.1 1180.06 1149.3 1175.49C1155.15 1163.24 1161.03 1150.89 1166.94 1138.42ZM1190.14 1118.8C1184.72 1123.3 1179.26 1127.89 1173.76 1132.58C1167.9 1144.96 1162.07 1157.23 1156.27 1169.4C1161.52 1164.83 1166.74 1160.32 1171.94 1155.88C1177.97 1143.64 1184.04 1131.27 1190.14 1118.8ZM1213.34 1100.06C1207.96 1104.28 1202.54 1108.62 1197.09 1113.08C1191.06 1125.42 1185.07 1137.64 1179.11 1149.78C1184.31 1145.38 1189.49 1141.05 1194.65 1136.8C1200.85 1124.66 1207.07 1112.42 1213.34 1100.06ZM1236.36 1082.65C1231.06 1086.5 1225.73 1090.51 1220.35 1094.63C1214.22 1106.77 1208.1 1118.84 1202.02 1130.77C1207.16 1126.6 1212.27 1122.52 1217.36 1118.54C1223.66 1106.69 1230 1094.7 1236.36 1082.65ZM1259.12 1066.88C1253.93 1070.29 1248.7 1073.87 1243.43 1077.59C1237.21 1089.41 1231.02 1101.11 1224.85 1112.73C1229.9 1108.87 1234.92 1105.1 1239.91 1101.44C1246.28 1090.01 1252.69 1078.5 1259.12 1066.88ZM1281.44 1053.12C1276.4 1056.01 1271.32 1059.08 1266.2 1062.32C1259.96 1073.6 1253.75 1084.8 1247.57 1095.91C1252.49 1092.41 1257.39 1089.02 1262.26 1085.76C1268.62 1074.96 1275.02 1064.07 1281.44 1053.12ZM1303.23 1041.65C1298.38 1043.96 1293.48 1046.46 1288.55 1049.15C1282.36 1059.71 1276.21 1070.18 1270.08 1080.6C1274.83 1077.53 1279.56 1074.59 1284.27 1071.77C1290.57 1061.78 1296.89 1051.74 1303.23 1041.65ZM1324.36 1032.72C1319.72 1034.41 1315.04 1036.31 1310.33 1038.4L1292.27 1067.09C1296.82 1064.5 1301.35 1062.04 1305.86 1059.71L1310.2 1053.38L1324.36 1032.72ZM1344.65 1026.61C1340.28 1027.65 1335.88 1028.87 1331.45 1030.29L1314.09 1055.61C1318.4 1053.54 1322.69 1051.59 1326.96 1049.78C1332.84 1042.06 1338.74 1034.33 1344.65 1026.61ZM1364.04 1023.3C1359.97 1023.71 1355.87 1024.3 1351.75 1025.09C1346.31 1032.18 1340.88 1039.27 1335.47 1046.36C1339.49 1044.83 1343.49 1043.41 1347.48 1042.14C1352.99 1035.84 1358.51 1029.56 1364.04 1023.3ZM1382.5 1022.75C1378.78 1022.57 1375.04 1022.6 1371.27 1022.78C1366.33 1028.33 1361.4 1033.91 1356.48 1039.51C1360.12 1038.53 1363.75 1037.64 1367.37 1036.89C1372.41 1032.13 1377.45 1027.41 1382.5 1022.75ZM1399.71 1024.97C1396.48 1024.3 1393.24 1023.76 1389.98 1023.37C1385.7 1027.27 1381.43 1031.21 1377.17 1035.19C1380.31 1034.74 1383.44 1034.38 1386.56 1034.12C1390.94 1031 1395.32 1027.95 1399.71 1024.97ZM1415.54 1029.47C1412.96 1028.52 1410.36 1027.68 1407.76 1026.94C1404.46 1029.12 1401.16 1031.34 1397.86 1033.6C1400.29 1033.58 1402.72 1033.64 1405.14 1033.76C1408.61 1032.26 1412.07 1030.82 1415.54 1029.47ZM1428.92 1035.38C1427.53 1034.66 1426.13 1033.97 1424.72 1033.31C1422.97 1033.93 1421.22 1034.57 1419.47 1035.23C1420.65 1035.41 1421.84 1035.6 1423.01 1035.83C1424.99 1035.65 1426.95 1035.49 1428.92 1035.38ZM566.73 1490.81L570.081 1490.77L569.323 1490.3C567.992 1490.07 566.662 1489.86 565.329 1489.61C565.795 1490.03 566.263 1490.4 566.73 1490.81ZM551.577 1490.67C553.877 1490.73 556.179 1490.81 558.472 1490.83C557.294 1489.73 556.115 1488.68 554.937 1487.56C552.602 1487.06 550.26 1486.51 547.917 1485.96C549.135 1487.58 550.357 1489.1 551.577 1490.67ZM536.642 1490.01C539.573 1490.2 542.496 1490.34 545.414 1490.46C543.92 1488.46 542.431 1486.35 540.94 1484.27C538.064 1483.53 535.183 1482.76 532.297 1481.94C533.743 1484.65 535.188 1487.38 536.642 1490.01ZM521.989 1488.77C525.316 1489.1 528.638 1489.4 531.949 1489.65C530.3 1486.58 528.65 1483.53 527.013 1480.35C523.855 1479.4 520.688 1478.39 517.516 1477.35C518.998 1481.22 520.49 1485.03 521.989 1488.77ZM507.588 1487.06C511.108 1487.54 514.624 1487.99 518.124 1488.37C516.56 1484.36 515.02 1480.14 513.473 1475.98C510.127 1474.84 506.77 1473.6 503.409 1472.35C504.793 1477.32 506.183 1482.24 507.588 1487.06ZM493.382 1484.87C497.056 1485.45 500.675 1486.09 504.399 1486.63C502.928 1481.48 501.446 1476.4 499.998 1471.08L499.807 1471.01C496.418 1469.7 493.12 1468.33 489.773 1466.99C490.963 1473.03 492.161 1479.01 493.382 1484.87ZM479.466 1482.59C483.114 1483.24 486.845 1483.81 490.543 1484.41C489.298 1478.34 488.078 1472.12 486.869 1465.83C483.43 1464.44 479.962 1463.07 476.565 1461.66C477.515 1468.74 478.478 1475.73 479.466 1482.59ZM465.741 1479.97C469.443 1480.7 473.143 1481.43 476.898 1482.1C475.897 1475.03 474.914 1467.86 473.955 1460.55C470.492 1459.1 467.075 1457.63 463.656 1456.17C464.326 1464.22 465.02 1472.16 465.741 1479.97ZM452.177 1477.2C455.864 1477.99 459.57 1478.76 463.311 1479.51C462.585 1471.51 461.88 1463.4 461.211 1455.12C457.768 1453.63 454.36 1452.12 450.962 1450.61C451.334 1459.62 451.741 1468.47 452.177 1477.2ZM438.758 1474.2C442.415 1475.06 446.127 1475.86 449.837 1476.67C449.403 1467.78 449 1458.75 448.633 1449.56C445.225 1448.03 441.811 1446.51 438.447 1444.96C438.512 1454.87 438.621 1464.6 438.758 1474.2ZM425.464 1470.89C429.128 1471.83 432.747 1472.8 436.468 1473.69C436.336 1463.93 436.238 1454.01 436.179 1443.94C432.765 1442.35 429.445 1440.72 426.079 1439.12C425.833 1449.88 425.629 1460.46 425.464 1470.89ZM412.291 1467.46C415.885 1468.45 419.557 1469.37 423.203 1470.31C423.375 1459.72 423.589 1448.96 423.842 1438.05C420.494 1436.44 417.135 1434.84 413.83 1433.21C413.273 1444.8 412.76 1456.21 412.291 1467.46ZM399.198 1463.65C402.793 1464.72 406.382 1465.8 410.035 1466.81C410.515 1455.41 411.039 1443.83 411.605 1432.09C408.26 1430.43 404.959 1428.75 401.659 1427.07C400.794 1439.43 399.973 1451.63 399.198 1463.65ZM386.247 1459.67C389.806 1460.8 393.361 1461.92 396.977 1463.01C397.76 1450.83 398.591 1438.48 399.466 1425.96C396.145 1424.26 392.889 1422.53 389.616 1420.81C388.443 1433.94 387.323 1446.89 386.247 1459.67ZM1166.52 1109.2C1160.77 1114.3 1154.96 1119.51 1149.1 1124.82C1143.73 1136.88 1138.37 1148.85 1133.05 1160.73C1138.61 1155.78 1144.13 1150.88 1149.61 1146.06C1155.22 1133.88 1160.86 1121.58 1166.52 1109.2ZM1190.62 1088.24C1184.85 1093.15 1179.03 1098.19 1173.15 1103.35C1167.5 1115.74 1161.87 1128.03 1156.27 1140.22C1161.84 1135.36 1167.38 1130.57 1172.87 1125.88C1178.76 1113.44 1184.67 1100.9 1190.62 1088.24ZM1214.74 1068.26C1208.99 1072.88 1203.18 1077.66 1197.31 1082.59C1191.39 1095.21 1185.51 1107.71 1179.65 1120.13C1185.22 1115.43 1190.74 1110.82 1196.23 1106.34C1202.37 1093.75 1208.54 1081.07 1214.74 1068.26ZM1238.71 1049.73C1233.01 1053.95 1227.26 1058.34 1221.43 1062.93C1215.28 1075.66 1209.16 1088.3 1203.06 1100.81C1208.58 1096.38 1214.06 1092.05 1219.5 1087.87C1225.87 1075.27 1232.28 1062.55 1238.71 1049.73ZM1262.38 1033.13C1256.78 1036.83 1251.12 1040.74 1245.4 1044.85C1239.04 1057.56 1232.72 1070.12 1226.42 1082.62C1231.86 1078.52 1237.27 1074.56 1242.63 1070.77C1249.18 1058.32 1255.77 1045.78 1262.38 1033.13ZM1285.55 1018.96C1280.08 1022.03 1274.55 1025.35 1268.96 1028.89C1262.47 1041.33 1256 1053.69 1249.57 1065.93C1254.91 1062.26 1260.2 1058.75 1265.46 1055.42C1272.12 1043.36 1278.82 1031.2 1285.55 1018.96ZM1308.07 1007.58C1302.78 1009.93 1297.43 1012.56 1292.02 1015.43C1285.44 1027.41 1278.9 1039.3 1272.39 1051.11C1277.59 1047.95 1282.74 1044.96 1287.86 1042.17C1294.56 1030.73 1301.3 1019.19 1308.07 1007.58ZM1329.79 999.346C1324.72 1000.91 1319.59 1002.76 1314.4 1004.87C1307.83 1016.15 1301.29 1027.36 1294.78 1038.49C1299.8 1035.9 1304.78 1033.51 1309.73 1031.32C1316.39 1020.72 1323.08 1010.06 1329.79 999.346ZM1350.6 994.479C1345.77 995.209 1340.89 996.238 1335.95 997.556L1316.61 1028.39C1321.41 1026.44 1326.18 1024.71 1330.91 1023.17L1350.6 994.479ZM1370.32 993.208C1365.77 993.096 1361.17 993.277 1356.53 993.743L1337.75 1021.1C1342.32 1019.81 1346.85 1018.73 1351.35 1017.86C1357.65 1009.64 1363.98 1001.42 1370.32 993.208ZM1388.95 995.447C1384.7 994.512 1380.4 993.881 1376.06 993.526C1370.08 1001.25 1364.12 1008.98 1358.18 1016.71C1362.48 1016.09 1366.75 1015.68 1370.99 1015.48C1376.96 1008.76 1382.95 1002.08 1388.95 995.447ZM1406.51 1001.06C1402.57 999.362 1398.6 997.965 1394.58 996.841C1389.01 1002.97 1383.45 1009.14 1377.91 1015.34C1381.92 1015.36 1385.9 1015.57 1389.85 1016.01C1395.39 1010.96 1400.95 1005.97 1406.51 1001.06ZM1422.8 1009.99C1419.24 1007.64 1415.64 1005.54 1412.01 1003.68C1406.99 1008.08 1401.97 1012.53 1396.96 1017.05C1400.59 1017.71 1404.18 1018.57 1407.76 1019.58C1412.77 1016.28 1417.79 1013.08 1422.8 1009.99ZM1437.92 1021.74C1434.77 1018.9 1431.6 1016.29 1428.39 1013.9C1424.04 1016.53 1419.69 1019.24 1415.33 1022.02C1418.55 1023.18 1421.76 1024.49 1424.94 1025.98C1429.27 1024.45 1433.6 1023.04 1437.92 1021.74ZM1451.66 1035.74C1449.05 1032.73 1446.41 1029.95 1443.75 1027.3C1440.3 1028.25 1436.84 1029.28 1433.38 1030.38C1435.98 1031.86 1438.57 1033.45 1441.15 1035.15C1444.66 1035.22 1448.16 1035.44 1451.66 1035.74ZM1463.26 1050.42C1461.59 1048.12 1459.91 1045.85 1458.23 1043.69C1456.12 1043.41 1454.02 1043.18 1451.9 1043C1453.55 1044.31 1455.19 1045.66 1456.82 1047.08C1458.97 1048.13 1461.12 1049.24 1463.26 1050.42ZM595.156 1496.91L596.371 1496.62L594.787 1496.74L595.156 1496.91ZM578.414 1500.52C580.63 1500.08 582.85 1499.64 585.058 1499.17C584.018 1498.62 582.978 1498.12 581.937 1497.57C579.622 1497.68 577.299 1497.76 574.976 1497.83C576.121 1498.76 577.268 1499.62 578.414 1500.52ZM562.005 1503.55C565.02 1503.05 568.029 1502.5 571.03 1501.95C569.49 1500.66 567.95 1499.36 566.411 1498.01C563.393 1498.04 560.371 1498.04 557.339 1498.01C558.89 1499.92 560.449 1501.71 562.005 1503.55ZM545.805 1505.99C549.31 1505.51 552.804 1505.01 556.287 1504.46C554.558 1502.33 552.837 1500.07 551.113 1497.86C547.695 1497.76 544.268 1497.61 540.833 1497.43C542.487 1500.32 544.142 1503.2 545.805 1505.99ZM529.921 1507.88C533.749 1507.49 537.567 1507.06 541.371 1506.58C539.572 1503.48 537.772 1500.39 535.985 1497.16C532.354 1496.93 528.711 1496.63 525.06 1496.29C526.673 1500.21 528.29 1504.11 529.921 1507.88ZM514.318 1509.22C518.29 1508.93 522.254 1508.61 526.203 1508.23C524.513 1504.23 522.847 1500.04 521.175 1495.89C517.375 1495.5 513.559 1495.03 509.739 1494.54C511.246 1499.57 512.786 1504.36 514.318 1509.22ZM498.862 1510.03C502.456 1509.86 505.976 1509.78 509.618 1509.56L511.168 1509.45C509.609 1504.41 508.055 1499.36 506.524 1494.12L504.738 1493.89C501.429 1493.41 498.223 1492.84 494.954 1492.33C496.239 1498.33 497.543 1504.23 498.862 1510.03ZM483.713 1510.69C487.768 1510.58 491.953 1510.33 496.069 1510.15C494.731 1504.17 493.416 1498.06 492.112 1491.87C488.251 1491.25 484.335 1490.68 480.527 1490.01C481.564 1497.04 482.63 1503.91 483.713 1510.69ZM468.791 1510.82C472.898 1510.8 476.979 1510.81 481.153 1510.71C480.064 1503.78 479 1496.71 477.959 1489.52C474.075 1488.82 470.265 1488.06 466.436 1487.31C467.196 1495.27 467.98 1503.11 468.791 1510.82ZM454.048 1510.76C458.118 1510.83 462.237 1510.84 466.372 1510.84C465.556 1502.98 464.771 1494.96 464.006 1486.85C460.164 1486.09 456.347 1485.3 452.562 1484.49C453.03 1493.37 453.522 1502.15 454.048 1510.76ZM439.469 1510.34C443.51 1510.5 447.597 1510.61 451.705 1510.69C451.179 1501.93 450.687 1493 450.22 1483.97C446.421 1483.14 442.628 1482.3 438.884 1481.43C439.048 1491.2 439.239 1500.85 439.469 1510.34ZM425.033 1509.56C429.06 1509.81 433.06 1510.1 437.156 1510.27C436.93 1500.64 436.74 1490.84 436.583 1480.91C432.791 1480.01 429.1 1479.02 425.369 1478.07C425.22 1488.72 425.106 1499.22 425.033 1509.56ZM410.741 1508.58C414.683 1508.92 418.733 1509.14 422.738 1509.41C422.817 1498.92 422.933 1488.29 423.091 1477.49C419.384 1476.53 415.653 1475.59 412 1474.59C411.535 1486.09 411.119 1497.41 410.741 1508.58ZM396.554 1507.07C400.5 1507.51 404.429 1507.97 408.448 1508.34C408.834 1497.03 409.257 1485.58 409.732 1473.92C406.03 1472.89 402.393 1471.8 398.748 1470.72C397.97 1483 397.238 1495.13 396.554 1507.07ZM382.548 1505.34C386.445 1505.86 390.354 1506.38 394.317 1506.83C395.007 1494.76 395.744 1482.5 396.53 1470.07C392.865 1468.97 389.266 1467.82 385.659 1466.67C384.572 1479.74 383.535 1492.63 382.548 1505.34ZM1188.85 1060.13C1182.72 1065.63 1176.53 1071.3 1170.26 1077.09C1165.04 1088.92 1159.83 1100.65 1154.65 1112.31C1160.56 1106.99 1166.42 1101.79 1172.23 1096.69C1177.74 1084.59 1183.28 1072.41 1188.85 1060.13ZM1214.14 1037.95C1208 1043.17 1201.79 1048.58 1195.49 1054.19C1189.91 1066.53 1184.35 1078.77 1178.82 1090.93C1184.75 1085.77 1190.62 1080.74 1196.44 1075.86C1202.31 1063.32 1208.21 1050.69 1214.14 1037.95ZM1239.3 1017.31C1233.19 1022.11 1226.99 1027.16 1220.72 1032.4C1214.8 1045.14 1208.91 1057.79 1203.04 1070.33C1208.96 1065.43 1214.81 1060.7 1220.6 1056.13C1226.81 1043.3 1233.04 1030.35 1239.3 1017.31ZM1264.18 998.748C1258.15 1002.98 1252.03 1007.5 1245.83 1012.24C1239.59 1025.28 1233.38 1038.18 1227.19 1051.01C1233.05 1046.5 1238.85 1042.16 1244.59 1038.02C1251.08 1025.05 1257.62 1011.93 1264.18 998.748ZM1288.57 982.864C1282.67 986.381 1276.67 990.204 1270.59 994.32C1264.08 1007.45 1257.59 1020.47 1251.13 1033.38C1256.89 1029.36 1262.58 1025.54 1268.22 1021.96C1274.97 1009.03 1281.75 996.014 1288.57 982.864ZM1312.21 970.266C1306.49 972.923 1300.69 975.903 1294.79 979.23C1288.06 992.219 1281.36 1005.14 1274.69 1017.92C1280.31 1014.5 1285.86 1011.31 1291.36 1008.38C1298.28 995.776 1305.23 983.066 1312.21 970.266ZM1334.91 961.428C1329.42 963.107 1323.85 965.154 1318.19 967.572C1311.32 980.177 1304.49 992.671 1297.68 1005.09C1303.12 1002.37 1308.5 999.903 1313.82 997.718C1320.81 985.706 1327.84 973.598 1334.91 961.428ZM1356.45 956.773C1351.24 957.401 1345.94 958.444 1340.56 959.846C1333.67 971.728 1326.81 983.546 1319.98 995.28C1325.2 993.323 1330.37 991.655 1335.47 990.283L1356.45 956.773ZM1376.73 956.471C1371.82 956.008 1366.84 955.969 1361.77 956.303L1341.4 988.851C1346.37 987.742 1351.29 986.912 1356.15 986.395C1362.98 976.444 1369.84 966.468 1376.73 956.471ZM1395.71 960.496C1391.13 958.947 1386.47 957.817 1381.74 957.088C1375.1 966.724 1368.48 976.348 1361.89 985.94C1366.59 985.684 1371.24 985.716 1375.84 986.066C1382.44 977.534 1389.07 969.011 1395.71 960.496ZM1413.38 968.743C1409.13 966.149 1404.82 963.947 1400.43 962.182C1394.07 970.321 1387.72 978.469 1381.4 986.63C1385.82 987.211 1390.2 988.092 1394.52 989.301C1400.79 982.401 1407.08 975.545 1413.38 968.743ZM1429.64 981.112C1425.73 977.556 1421.76 974.418 1417.73 971.634C1411.78 978.039 1405.84 984.489 1399.91 990.983C1404.02 992.406 1408.08 994.136 1412.1 996.151C1417.93 991.053 1423.78 986.038 1429.64 981.112ZM1444.67 997.13C1441.11 992.718 1437.49 988.685 1433.82 985.04C1428.33 989.616 1422.86 994.277 1417.39 999.007C1421.2 1001.18 1424.96 1003.63 1428.69 1006.39C1434.02 1003.19 1439.35 1000.09 1444.67 997.13ZM1458.42 1016.51C1455.2 1011.41 1451.94 1006.69 1448.63 1002.27C1443.76 1004.92 1438.9 1007.68 1434.04 1010.54C1437.48 1013.39 1440.87 1016.55 1444.25 1019.93C1448.98 1018.64 1453.7 1017.5 1458.42 1016.51ZM1470.9 1038.63C1468.08 1033.11 1465.23 1027.85 1462.34 1022.93C1458.15 1023.73 1453.96 1024.67 1449.76 1025.72C1452.85 1029.09 1455.91 1032.68 1458.95 1036.54C1462.94 1037.08 1466.92 1037.77 1470.9 1038.63ZM1482.08 1062.62C1479.73 1057.13 1477.37 1051.82 1474.97 1046.8C1471.68 1045.98 1468.37 1045.32 1465.07 1044.74C1467.61 1048.32 1470.14 1052.1 1472.64 1056.03C1475.8 1058.07 1478.94 1060.28 1482.08 1062.62ZM1491.51 1086.34C1489.89 1081.95 1488.26 1077.7 1486.61 1073.57C1484.51 1071.89 1482.41 1070.27 1480.3 1068.73C1482.06 1071.82 1483.82 1074.98 1485.56 1078.25C1487.55 1080.86 1489.53 1083.55 1491.51 1086.34ZM608.403 1502.74L614.444 1500.33L612.133 1499.86C609.956 1500.44 607.782 1501.03 605.596 1501.58L608.403 1502.74ZM590.44 1509.56C593.459 1508.45 596.47 1507.34 599.474 1506.2C598.003 1505.54 596.532 1504.85 595.06 1504.15C591.975 1504.87 588.88 1505.56 585.779 1506.22C587.332 1507.37 588.885 1508.45 590.44 1509.56ZM572.744 1515.72C576.362 1514.51 579.971 1513.27 583.568 1512C581.772 1510.65 579.978 1509.21 578.183 1507.78C574.585 1508.49 570.978 1509.18 567.357 1509.82C569.149 1511.85 570.947 1513.78 572.744 1515.72ZM555.32 1521.3C559.356 1520.07 563.382 1518.81 567.39 1517.5C565.463 1515.34 563.544 1513.07 561.623 1510.82C557.714 1511.47 553.789 1512.07 549.855 1512.62C551.671 1515.57 553.492 1518.49 555.32 1521.3ZM538.192 1526.3C542.487 1525.1 546.767 1523.87 551.031 1522.59C549.099 1519.53 547.167 1516.47 545.249 1513.26C541.171 1513.81 537.079 1514.3 532.973 1514.75C534.705 1518.66 536.44 1522.56 538.192 1526.3ZM521.384 1530.71C525.799 1529.61 530.203 1528.48 534.584 1527.29C532.779 1523.35 530.991 1519.25 529.205 1515.15C524.991 1515.58 520.757 1515.93 516.514 1516.25C518.117 1521.21 519.752 1525.95 521.384 1530.71ZM504.681 1534.55C507.939 1533.82 511.11 1533.21 514.407 1532.43C515.691 1532.12 516.968 1531.8 518.248 1531.48C516.602 1526.58 514.973 1521.59 513.358 1516.48C512.124 1516.58 510.892 1516.68 509.653 1516.75C506.546 1516.94 503.548 1517 500.475 1517.16C501.854 1523.09 503.261 1528.86 504.681 1534.55ZM488.331 1538.12C492.794 1537.22 497.38 1536.16 501.917 1535.16C500.486 1529.31 499.072 1523.36 497.679 1517.28C493.407 1517.47 489.086 1517.72 484.88 1517.84C486.009 1524.72 487.156 1531.49 488.331 1538.12ZM472.175 1541.09C476.708 1540.28 481.181 1539.56 485.794 1538.64C484.609 1531.85 483.45 1524.93 482.31 1517.9C477.993 1518.01 473.79 1517.98 469.543 1518C470.389 1525.85 471.267 1533.54 472.175 1541.09ZM456.257 1543.81C460.702 1543.12 465.239 1542.31 469.76 1541.52C468.851 1533.84 467.971 1526 467.121 1518.02C462.887 1518.03 458.657 1518.03 454.49 1517.96C455.044 1526.73 455.632 1535.35 456.257 1543.81ZM440.518 1546C444.946 1545.42 449.402 1544.82 453.909 1544.13C453.287 1535.54 452.7 1526.79 452.144 1517.89C447.947 1517.81 443.779 1517.69 439.65 1517.53C439.902 1527.17 440.189 1536.68 440.518 1546ZM424.948 1547.8C429.337 1547.35 433.723 1546.89 438.194 1546.33C437.869 1536.87 437.585 1527.23 437.336 1517.46C433.166 1517.28 429.091 1516.99 424.993 1516.73C424.939 1527.25 424.921 1537.61 424.948 1547.8ZM409.545 1549.31C413.843 1548.97 418.262 1548.47 422.636 1548.03C422.614 1537.72 422.638 1527.22 422.699 1516.58C418.63 1516.3 414.514 1516.08 410.512 1515.73C410.147 1527.1 409.823 1538.3 409.545 1549.31ZM394.249 1550.18C398.557 1549.97 402.83 1549.8 407.228 1549.47C407.512 1538.32 407.845 1526.98 408.219 1515.48C404.141 1515.11 400.154 1514.64 396.15 1514.19C395.467 1526.37 394.834 1538.36 394.249 1550.18ZM379.183 1550.75C383.419 1550.65 387.69 1550.5 392.002 1550.3C392.59 1538.36 393.227 1526.25 393.915 1513.94C389.904 1513.48 385.949 1512.95 382.005 1512.41C381.011 1525.38 380.069 1538.16 379.183 1550.75ZM1237.37 987.795C1230.83 993.435 1224.16 999.383 1217.4 1005.54C1211.95 1017.69 1206.52 1029.76 1201.11 1041.74C1207.43 1036.2 1213.68 1030.83 1219.84 1025.67C1225.66 1013.14 1231.5 1000.51 1237.37 987.795ZM1263.81 966.031C1257.3 971.115 1250.68 976.517 1243.94 982.203C1238.05 994.993 1232.18 1007.68 1226.34 1020.28C1232.65 1015.1 1238.87 1010.13 1245.01 1005.42C1251.25 992.403 1257.52 979.25 1263.81 966.031ZM1289.79 947.065C1283.38 951.379 1276.87 956.04 1270.23 961.07C1263.94 974.324 1257.67 987.483 1251.43 1000.53C1257.65 995.873 1263.78 991.494 1269.83 987.381C1276.45 974.036 1283.1 960.623 1289.79 947.065ZM1315.01 931.691C1308.79 935.027 1302.45 938.821 1295.98 942.988C1289.34 956.474 1282.71 969.894 1276.13 983.171C1282.22 979.188 1288.21 975.502 1294.12 972.152C1301.05 958.767 1308.01 945.284 1315.01 931.691ZM1339.13 920.757C1333.17 922.935 1327.1 925.559 1320.9 928.646C1313.95 942.153 1307.04 955.553 1300.16 968.855C1306.06 965.706 1311.87 962.861 1317.59 960.395C1324.74 947.284 1331.92 934.058 1339.13 920.757ZM1361.98 914.656C1356.32 915.536 1350.54 916.97 1344.65 918.866C1337.52 932.022 1330.43 945.064 1323.37 958.037C1329.03 955.823 1334.6 953.965 1340.08 952.503C1347.34 939.969 1354.65 927.347 1361.98 914.656ZM1383.25 913.933C1377.96 913.442 1372.57 913.482 1367.06 914.03C1359.87 926.476 1352.71 938.861 1345.59 951.159C1350.96 949.971 1356.25 949.177 1361.45 948.791L1383.25 913.933ZM1402.93 918.507C1398.04 916.626 1393.04 915.283 1387.92 914.488L1366.65 948.505C1371.71 948.389 1376.69 948.7 1381.59 949.418C1388.68 939.136 1395.79 928.831 1402.93 918.507ZM1420.99 928.314C1416.48 925.072 1411.86 922.433 1407.15 920.294C1400.23 930.3 1393.33 940.287 1386.45 950.259C1391.19 951.238 1395.85 952.635 1400.43 954.459C1407.26 945.729 1414.11 937.009 1420.99 928.314ZM1437.39 943.143C1433.28 938.618 1429.07 934.694 1424.77 931.249C1418.14 939.629 1411.52 948.031 1404.93 956.444C1409.32 958.507 1413.66 960.951 1417.92 963.842C1424.4 956.882 1430.89 949.986 1437.39 943.143ZM1452.27 962.554C1448.54 956.864 1444.72 951.743 1440.83 947.108C1434.6 953.632 1428.39 960.212 1422.19 966.848C1426.27 969.898 1430.28 973.357 1434.23 977.261C1440.24 972.26 1446.25 967.352 1452.27 962.554ZM1465.71 986.117C1462.34 979.394 1458.89 973.227 1455.38 967.504C1449.64 972.05 1443.91 976.686 1438.19 981.416C1441.92 985.45 1445.61 989.833 1449.23 994.639C1454.72 991.663 1460.21 988.815 1465.71 986.117ZM1477.79 1013.33C1474.77 1005.76 1471.69 998.679 1468.55 992.024C1463.39 994.515 1458.24 997.126 1453.09 999.863C1456.5 1004.7 1459.85 1009.96 1463.16 1015.56C1468.04 1014.65 1472.92 1013.91 1477.79 1013.33ZM1488.65 1043.58C1485.98 1035.37 1483.26 1027.6 1480.48 1020.25C1475.95 1020.72 1471.43 1021.35 1466.9 1022.13C1469.99 1027.68 1473.04 1033.54 1476.04 1039.81C1480.26 1040.88 1484.46 1042.14 1488.65 1043.58ZM1498.32 1076.18C1496.01 1067.71 1493.67 1059.56 1491.27 1051.81C1487.47 1050.42 1483.67 1049.19 1479.87 1048.12C1482.59 1054.18 1485.28 1060.51 1487.93 1067.18C1491.4 1070 1494.87 1072.97 1498.32 1076.18ZM1506.81 1109.95C1504.91 1101.77 1502.98 1093.91 1501.01 1086.32C1498.09 1083.49 1495.16 1080.78 1492.22 1078.24C1494.48 1084.32 1496.7 1090.7 1498.91 1097.26C1501.56 1101.33 1504.19 1105.53 1506.81 1109.95ZM1513.79 1142.13C1512.5 1135.77 1511.18 1129.58 1509.86 1123.51C1508.03 1120.28 1506.19 1117.13 1504.35 1114.07C1505.94 1119.2 1507.53 1124.47 1509.1 1129.88C1510.67 1133.87 1512.24 1137.95 1513.79 1142.13ZM1210.75 1011.61C1204.21 1017.64 1197.57 1023.88 1190.83 1030.32C1185.82 1041.77 1180.82 1053.15 1175.84 1064.45C1182.16 1058.65 1188.4 1053 1194.56 1047.52C1199.94 1035.64 1205.33 1023.66 1210.75 1011.61ZM641.535 1497.15C643.261 1496.18 644.99 1495.23 646.709 1494.25L645.346 1494.34C643.403 1495.23 641.457 1496.11 639.507 1496.97C640.184 1497.04 640.859 1497.09 641.535 1497.15ZM621.966 1507.86C624.907 1506.29 627.843 1504.71 630.768 1503.11C629.424 1502.92 628.079 1502.72 626.733 1502.51C623.711 1503.79 620.682 1505.05 617.643 1506.3C619.085 1506.83 620.526 1507.37 621.966 1507.86ZM602.775 1517.85C606.468 1515.98 610.152 1514.09 613.819 1512.17C612.01 1511.48 610.198 1510.75 608.388 1510.01C604.695 1511.46 600.988 1512.88 597.271 1514.27C599.105 1515.5 600.94 1516.69 602.775 1517.85ZM583.86 1527.19C588.048 1525.18 592.217 1523.14 596.373 1521.07C594.347 1519.72 592.325 1518.29 590.301 1516.87C586.192 1518.36 582.063 1519.81 577.923 1521.23C579.898 1523.27 581.878 1525.26 583.86 1527.19ZM565.198 1535.9C569.726 1533.85 574.233 1531.75 578.723 1529.63C576.631 1527.49 574.543 1525.31 572.457 1523.07C568.093 1524.52 563.716 1525.95 559.319 1527.32C561.273 1530.24 563.231 1533.13 565.198 1535.9ZM546.838 1543.99C551.581 1541.96 556.311 1539.9 561.015 1537.79C558.959 1534.8 556.9 1531.82 554.858 1528.68C550.348 1530.06 545.817 1531.38 541.273 1532.66C543.121 1536.49 544.968 1540.33 546.838 1543.99ZM528.819 1551.49C533.662 1549.53 538.487 1547.55 543.288 1545.51C541.375 1541.67 539.476 1537.72 537.585 1533.7C532.968 1534.98 528.327 1536.2 523.673 1537.37C525.371 1542.2 527.091 1546.87 528.819 1551.49ZM510.899 1558.37C513.689 1557.31 516.387 1556.4 519.204 1555.3C521.369 1554.46 523.522 1553.6 525.678 1552.74C523.943 1548 522.233 1543.1 520.53 1538.15C518.544 1538.65 516.558 1539.14 514.563 1539.62C511.801 1540.27 509.15 1540.78 506.415 1541.39C507.891 1547.16 509.384 1552.84 510.899 1558.37ZM493.335 1564.86C498.194 1563.13 503.16 1561.25 508.104 1559.4C506.578 1553.72 505.065 1547.96 503.58 1542.02C498.896 1543.06 494.183 1544.14 489.577 1545.07C490.803 1551.8 492.059 1558.38 493.335 1564.86ZM476.001 1570.72C480.918 1569.1 485.774 1567.56 490.783 1565.8C489.502 1559.2 488.238 1552.51 487.009 1545.63C482.281 1546.57 477.705 1547.32 473.06 1548.15C474.015 1555.79 474.991 1563.33 476.001 1570.72ZM458.886 1576.27C463.699 1574.8 468.654 1573.12 473.555 1571.52C472.544 1564.01 471.561 1556.37 470.609 1548.58C465.987 1549.39 461.342 1550.24 456.799 1550.95C457.461 1559.54 458.156 1567.97 458.886 1576.27ZM441.959 1581.11C446.776 1579.76 451.594 1578.43 456.506 1576.95C455.78 1568.53 455.078 1560 454.422 1551.27C449.82 1551.97 445.283 1552.58 440.764 1553.17C441.119 1562.66 441.525 1571.95 441.959 1581.11ZM425.228 1585.56C429.979 1584.36 434.761 1583.12 439.605 1581.78C439.175 1572.52 438.78 1563.11 438.432 1553.49C433.886 1554.06 429.421 1554.53 424.959 1555C425.002 1565.37 425.095 1575.55 425.228 1585.56ZM408.705 1589.56C413.366 1588.51 418.141 1587.3 422.893 1586.12C422.764 1576.01 422.684 1565.7 422.647 1555.22C418.206 1555.66 413.724 1556.17 409.363 1556.5C409.096 1567.71 408.873 1578.74 408.705 1589.56ZM392.316 1592.88C396.983 1591.99 401.594 1591.17 406.37 1590.12C406.545 1579.17 406.772 1568.01 407.045 1556.67C402.589 1557 398.263 1557.16 393.898 1557.36C393.319 1569.39 392.791 1581.23 392.316 1592.88ZM376.18 1595.84C380.756 1595.07 385.407 1594.2 390.066 1593.32C390.542 1581.57 391.071 1569.62 391.652 1557.48C387.29 1557.68 382.968 1557.83 378.682 1557.93C377.792 1570.76 376.958 1583.4 376.18 1595.84ZM842.589 1749.99C840.725 1753.6 838.847 1757.28 836.993 1760.86L839.456 1757.35C841.499 1753.57 843.54 1749.81 845.595 1745.99L842.589 1749.99ZM863.99 1708.09C861.121 1713.77 858.273 1719.36 855.423 1724.95C857.139 1722.61 858.845 1720.31 860.57 1717.94C863.472 1712.46 866.404 1706.87 869.33 1701.31C867.544 1703.6 865.767 1705.85 863.99 1708.09ZM885.559 1665.08C882.009 1672.22 878.474 1679.3 874.955 1686.31C877.264 1683.32 879.574 1680.32 881.897 1677.27C885.478 1670.39 889.072 1663.44 892.686 1656.44C890.301 1659.35 887.928 1662.23 885.559 1665.08ZM907.368 1620.92C903.309 1629.21 899.262 1637.44 895.242 1645.58C898.015 1642.16 900.798 1638.71 903.593 1635.2C907.657 1627.25 911.739 1619.22 915.844 1611.11C913.008 1614.42 910.184 1617.68 907.368 1620.92ZM929.332 1575.7C924.854 1584.98 920.402 1594.17 915.969 1603.28C919.103 1599.61 922.251 1595.88 925.413 1592.1C929.9 1583.17 934.412 1574.15 938.946 1565.04C935.73 1568.63 932.523 1572.2 929.332 1575.7ZM951.427 1529.57C946.667 1539.58 941.931 1549.5 937.22 1559.32C940.655 1555.48 944.091 1551.65 947.553 1547.71C952.335 1538.05 957.141 1528.28 961.974 1518.42C958.446 1522.19 954.931 1525.91 951.427 1529.57ZM973.61 1482.62C968.598 1493.3 963.615 1503.86 958.654 1514.34C962.366 1510.39 966.093 1506.38 969.829 1502.32C974.853 1492.02 979.905 1481.61 984.984 1471.09C981.185 1474.97 977.392 1478.83 973.61 1482.62ZM995.784 1435.06C990.596 1446.25 985.435 1457.34 980.3 1468.32C984.262 1464.3 988.233 1460.23 992.217 1456.09C997.435 1445.24 1002.68 1434.27 1007.96 1423.2C1003.89 1427.19 999.835 1431.15 995.784 1435.06ZM1017.96 1386.96C1012.65 1398.55 1007.37 1410.03 1002.11 1421.4C1006.3 1417.32 1010.49 1413.19 1014.7 1409.01C1020.06 1397.71 1025.44 1386.31 1030.86 1374.8C1026.56 1378.88 1022.26 1382.94 1017.96 1386.96ZM1039.99 1338.56C1034.61 1350.43 1029.26 1362.19 1023.94 1373.85C1028.38 1369.66 1032.82 1365.43 1037.26 1361.18C1042.71 1349.56 1048.18 1337.82 1053.68 1325.99C1049.12 1330.2 1044.55 1334.39 1039.99 1338.56ZM1061.83 1290.09C1056.45 1302.09 1051.09 1314 1045.76 1325.81C1050.43 1321.52 1055.1 1317.21 1059.77 1312.87C1065.26 1301.02 1070.78 1289.06 1076.33 1276.99C1071.51 1281.36 1066.68 1285.73 1061.83 1290.09ZM1083.42 1241.7C1078.07 1253.75 1072.76 1265.68 1067.46 1277.53C1072.4 1273.07 1077.32 1268.61 1082.23 1264.15C1087.72 1252.18 1093.23 1240.11 1098.77 1227.93L1095.61 1230.77L1083.42 1241.7ZM1104.58 1193.8C1099.33 1205.73 1094.1 1217.57 1088.9 1229.32L1095.02 1223.83L1104.48 1215.34C1109.91 1203.36 1115.37 1191.29 1120.86 1179.12C1115.46 1183.97 1110.04 1188.86 1104.58 1193.8ZM1125.23 1146.64C1120.13 1158.31 1115.06 1169.91 1110.01 1181.42C1115.54 1176.43 1121.04 1171.48 1126.5 1166.59C1131.82 1154.75 1137.17 1142.8 1142.54 1130.77C1136.81 1135.98 1131.05 1141.27 1125.23 1146.64ZM1145.24 1100.56C1140.37 1111.81 1135.52 1123.01 1130.68 1134.11C1136.57 1128.71 1142.4 1123.38 1148.18 1118.15C1153.33 1106.58 1158.51 1094.9 1163.71 1083.16C1157.63 1088.83 1151.46 1094.65 1145.24 1100.56ZM1164.46 1055.96C1159.88 1066.63 1155.3 1077.28 1150.75 1087.82C1157.02 1081.9 1163.2 1076.11 1169.32 1070.45C1174.26 1059.27 1179.21 1048.03 1184.19 1036.7C1177.71 1042.96 1171.13 1049.38 1164.46 1055.96ZM1144.28 1093.95C1148.78 1083.54 1153.3 1073.05 1157.84 1062.51C1137.28 1082.9 1115.87 1104.68 1093.56 1127.35C1012.03 1210.22 918.621 1305.17 811.938 1389.26C915.782 1315.06 1007.53 1226.14 1088.48 1147.68C1107.68 1129.07 1126.27 1111.05 1144.28 1093.95ZM1124.27 1140.01C1129.08 1128.99 1133.9 1117.91 1138.74 1106.75C1122.66 1122.08 1106.14 1138.09 1089.11 1154.59C994.291 1246.5 884.655 1352.76 758.111 1432.93C882.398 1365.02 991.428 1263.55 1087.15 1174.45C1099.76 1162.71 1112.12 1151.21 1124.27 1140.01ZM1103.62 1187.19C1108.66 1175.72 1113.72 1164.19 1118.8 1152.56C1108.61 1161.98 1098.27 1171.61 1087.76 1181.39C979.401 1282.25 854.006 1398.95 708.693 1464.96C852.042 1414.91 978.012 1300.89 1089.21 1200.22L1103.62 1187.19ZM1082.48 1235.07C1087.69 1223.34 1092.92 1211.5 1098.17 1199.59L1089.81 1207.16C971.565 1314.2 836.644 1436.34 681.854 1480.75L677.077 1483.69C826.758 1460.7 961.075 1343.9 1082.48 1235.07ZM1060.9 1283.44C1066.22 1271.56 1071.57 1259.58 1076.94 1247.5C952.821 1358.61 815.267 1476.21 661.638 1492.93C658.731 1494.64 655.814 1496.33 652.888 1498.02C798.495 1506.25 933.992 1397.55 1060.9 1283.44ZM1039.05 1331.94C1044.43 1320.05 1049.84 1308.06 1055.28 1295.96C926.754 1411.06 789.436 1518.82 641.683 1504.39C637.971 1506.47 634.246 1508.53 630.507 1510.57C770.332 1552.48 906.413 1452.89 1039.05 1331.94ZM1017.04 1380.31C1022.43 1368.53 1027.85 1356.64 1033.3 1344.64C899.838 1465.54 762.87 1563 622.017 1515.15C617.803 1517.4 613.571 1519.61 609.324 1521.8C741.978 1599.63 878.29 1509.88 1017.04 1380.31ZM994.862 1428.42C1000.22 1416.87 1005.6 1405.19 1011.02 1393.41C872.106 1521.92 735.622 1608.56 602.698 1525.19C598.131 1527.5 593.542 1529.78 588.935 1532.02C713.215 1647.92 849.536 1568.55 994.862 1428.42ZM972.686 1475.99C977.955 1464.76 983.253 1453.42 988.579 1441.96C843.661 1580.04 707.71 1655.52 583.649 1534.59C578.853 1536.89 574.031 1539.13 569.193 1541.36C684.03 1697.31 820.246 1628.74 972.686 1475.99ZM950.491 1522.99C955.631 1512.18 960.798 1501.26 965.993 1490.23C814.5 1639.85 679.114 1703.85 564.823 1543.36C559.899 1545.59 554.948 1547.77 549.981 1549.92C654.381 1747.83 790.398 1690.45 950.491 1522.99ZM928.442 1569.02C933.395 1558.75 938.376 1548.38 943.385 1537.89C784.774 1701.06 649.982 1753.23 546.322 1551.49C541.306 1553.63 536.269 1555.74 531.208 1557.8C624.271 1799.46 760.102 1753.4 928.442 1569.02ZM906.44 1614.33C911.159 1604.69 915.907 1594.94 920.679 1585.09C754.425 1763.78 620.251 1803.78 528.064 1559.05C525.204 1560.2 522.34 1561.35 519.465 1562.47C517.184 1563.35 515.006 1564.09 512.745 1564.95C593.602 1852.41 729.268 1817.86 906.44 1614.33ZM884.615 1658.53C889.034 1649.65 893.472 1640.69 897.938 1631.63C723.451 1827.84 589.834 1855.48 509.925 1565.99C504.809 1567.92 499.699 1569.83 494.673 1571.62C544.819 1819.15 631.951 1871.17 749.348 1790.57C790.77 1762.13 835.965 1717.17 884.615 1658.53ZM863.036 1701.58C867.057 1693.63 871.106 1685.57 875.168 1677.47C830.294 1730.29 788.42 1771.11 749.808 1797.62C630.797 1879.33 542.612 1825.78 492.12 1572.57C486.987 1574.37 481.989 1575.98 476.953 1577.65C523.344 1906.86 629.706 1945.39 783.21 1792.5C808.553 1767.26 835.188 1736.78 863.036 1701.58ZM841.625 1743.49C845.169 1736.61 848.718 1729.71 852.295 1722.71C828.559 1751.93 805.733 1777.6 783.862 1799.39C628.535 1954.08 521.067 1914.17 474.506 1578.45C469.501 1580.09 464.433 1581.82 459.519 1583.32C492.93 1949.66 594.761 2007.22 750.416 1850.82C779.033 1822.07 809.473 1786.07 841.625 1743.49ZM820.564 1784C823.419 1778.57 826.296 1773.04 829.174 1767.52C801.832 1802.69 775.776 1832.88 751.069 1857.71C593.504 2016.02 490.579 1956.97 457.139 1584C452.129 1585.51 447.229 1586.86 442.317 1588.23C462.557 1992.22 559.791 2069.07 717.618 1909.13C749.51 1876.82 783.878 1834.84 820.564 1784ZM363.644 1558.04C362.448 1571.63 361.313 1585.01 360.235 1598.19C364.733 1597.6 369.299 1596.91 373.899 1596.17C374.681 1583.63 375.516 1570.89 376.409 1557.94C372.116 1558.02 367.841 1558.08 363.644 1558.04ZM368.002 1510.33C366.704 1524.05 365.466 1537.56 364.278 1550.89C368.432 1550.92 372.662 1550.86 376.909 1550.78C377.801 1538.07 378.749 1525.16 379.748 1512.07C375.802 1511.52 371.862 1510.97 368.002 1510.33ZM372.686 1462.42C371.295 1476.23 369.957 1489.85 368.673 1503.29C372.492 1503.92 376.387 1504.47 380.289 1505C381.282 1492.17 382.326 1479.15 383.423 1465.94C379.82 1464.79 376.214 1463.63 372.686 1462.42ZM377.656 1414.45C376.182 1428.3 374.762 1441.97 373.39 1455.48C376.882 1456.67 380.447 1457.8 384.01 1458.94C385.096 1446.01 386.227 1432.92 387.411 1419.64C384.141 1417.92 380.866 1416.2 377.656 1414.45ZM382.883 1366.49C381.336 1380.36 379.843 1394.04 378.393 1407.56C381.566 1409.29 384.803 1410.99 388.037 1412.69C389.205 1399.71 390.418 1386.57 391.679 1373.27C388.733 1371.01 385.782 1368.74 382.883 1366.49ZM388.329 1318.71C386.723 1332.53 385.164 1346.18 383.648 1359.68C386.512 1361.91 389.427 1364.14 392.336 1366.38C393.576 1353.4 394.861 1340.26 396.19 1326.97L388.329 1318.71ZM393.957 1271.26C392.302 1284.97 390.688 1298.55 389.118 1311.97L396.877 1320.12C398.179 1307.19 399.522 1294.11 400.907 1280.89C398.584 1277.66 396.259 1274.42 393.957 1271.26ZM399.722 1224.3C398.029 1237.85 396.375 1251.28 394.766 1264.55C397.037 1267.67 399.333 1270.87 401.626 1274.05C402.978 1261.23 404.365 1248.28 405.795 1235.18C403.768 1231.54 401.739 1227.87 399.722 1224.3ZM405.579 1178.06C403.87 1191.36 402.198 1204.53 400.563 1217.58C402.552 1221.1 404.551 1224.71 406.55 1228.31C407.935 1215.69 409.357 1202.94 410.814 1190.08C409.069 1186.05 407.324 1182.01 405.579 1178.06ZM411.478 1132.77C409.77 1145.71 408.095 1158.54 406.456 1171.25C408.174 1175.12 409.89 1179.11 411.608 1183.07C413.008 1170.76 414.445 1158.33 415.911 1145.78C414.435 1141.42 412.961 1137.05 411.478 1132.77ZM417.361 1088.74C415.68 1101.18 414.026 1113.53 412.405 1125.78C413.86 1129.97 415.309 1134.27 416.758 1138.56C418.154 1126.68 419.578 1114.69 421.034 1102.61C419.811 1097.97 418.591 1093.33 417.361 1088.74ZM423.044 1045.73C421.557 1057.14 420.117 1068.39 418.515 1080.2L418.353 1081.39C419.554 1085.85 420.743 1090.39 421.935 1094.92C423.359 1083.05 424.649 1071.65 425.967 1060.15C424.996 1055.32 424.02 1050.52 423.044 1045.73ZM428.518 1004.05C427.069 1015.18 425.579 1026.45 424.098 1037.69C425.052 1042.34 425.995 1047.04 426.942 1051.73C428.2 1040.82 429.519 1029.69 430.754 1018.86C430.024 1013.84 429.259 1009 428.518 1004.05ZM433.657 963.258C432.368 973.769 431.07 984.318 429.687 995.154C430.403 999.864 431.111 1004.61 431.825 1009.32C433.023 998.494 434.094 988.114 435.189 977.65C434.704 972.728 434.159 968.093 433.657 963.258ZM438.48 923.732C437.309 933.376 436.136 943.027 434.937 952.765C435.421 957.289 435.911 961.784 436.391 966.324C437.374 956.978 438.412 947.433 439.387 938.117C439.106 933.232 438.788 928.505 438.48 923.732ZM442.964 885.948C442.007 894.328 440.99 902.917 439.971 911.514C440.252 915.659 440.562 919.682 440.835 923.858C441.701 915.207 442.462 906.925 443.257 898.519C443.162 894.32 443.085 890.038 442.964 885.948ZM446.932 850.512C446.186 857.148 445.468 863.691 444.708 870.371C444.815 873.516 444.957 876.516 445.057 879.694C445.636 873.469 446.297 866.951 446.867 860.759C446.882 857.372 446.93 853.855 446.932 850.512ZM450.243 820.942C449.918 823.984 449.523 827.271 449.189 830.347C449.195 831.571 449.219 832.723 449.222 833.954C449.568 830.014 449.88 826.181 450.2 822.324L450.243 820.942ZM0 397.496C167.604 111.846 568.284 -469.536 461.105 710.881C459.474 735.747 457.587 761.531 455.425 788.282C454.269 809.527 453.019 831.116 451.55 853.498C450.697 877.151 449.651 901.527 448.348 926.855C447.947 946.703 447.42 967.044 446.742 987.962C446.786 1009.06 446.683 1030.76 446.403 1053.16C446.886 1072.04 447.246 1091.45 447.487 1111.35C448.506 1129.89 449.415 1148.94 450.208 1168.5C451.749 1185.74 453.194 1203.46 454.555 1221.59C456.671 1237.64 458.719 1254.07 460.694 1270.91C462.806 1282.32 464.91 1293.79 466.961 1305.62C467.739 1310.11 468.552 1314.35 469.341 1318.75C470.131 1321.82 470.924 1324.85 471.705 1327.99C474.604 1339.65 477.552 1350.89 480.527 1361.89C485.386 1375.48 490.287 1388.6 495.247 1401.04C501.157 1412.33 507.098 1423.12 513.073 1433.27C519.899 1441.98 526.737 1450.19 533.584 1457.84C541.569 1464.22 549.542 1470.07 557.504 1475.4C566.48 1479.2 575.416 1482.47 584.318 1485.3C594.254 1486.51 604.125 1487.26 613.933 1487.57C625.141 1486.16 636.252 1484.31 647.264 1482.04C659.459 1477.93 671.52 1473.42 683.451 1468.57C696.769 1461.69 709.912 1454.47 722.884 1446.95C867.179 1349.9 989.595 1225.48 1092.9 1120.47C1117.49 1095.47 1141.01 1071.57 1163.48 1049.39C1279.78 778.537 1406.4 465.942 1542 115.019V124.234C1408.95 468.447 1284.54 775.767 1170.06 1042.92C1176.76 1036.35 1183.36 1029.95 1189.88 1023.73C1298.69 775.439 1416.44 491.751 1542 176.011V185.113C1418.97 494.398 1303.45 772.902 1196.48 1017.45C1201.52 1012.68 1206.51 1008.01 1211.44 1003.47C1213.12 1001.93 1214.78 1000.43 1216.45 998.914C1317.66 773.262 1426.49 518.195 1542 236.937V245.949C1428.98 521.051 1322.37 771.064 1223.03 992.97C1229.81 986.894 1236.48 981.066 1243.04 975.513C1336.56 772.467 1436.46 545.553 1542 297.823V306.698C1438.9 548.658 1341.16 770.746 1249.51 970.101C1256.25 964.518 1262.89 959.214 1269.39 954.274C1355.2 773.605 1446.27 574.128 1542 358.637V367.386C1448.61 577.564 1359.65 772.508 1275.69 949.584C1282.31 944.728 1288.81 940.218 1295.19 936.091C1373.36 777.338 1455.79 604.247 1542 419.364V428.005C1458.02 608.067 1377.64 776.926 1301.27 932.235C1307.7 928.27 1314.01 924.721 1320.2 921.604C1390.89 784.108 1464.94 636.151 1542 480.019V488.508C1467.02 640.407 1394.89 784.548 1325.93 918.839C1332.11 915.969 1338.17 913.531 1344.1 911.6C1407.55 794.437 1473.61 670.083 1542 540.566V548.895C1475.53 674.755 1411.28 795.712 1349.47 909.942C1355.32 908.309 1361.03 907.212 1366.63 906.591C1408.74 833.659 1451.92 758.251 1496.12 681.074C1511.29 654.574 1526.59 627.864 1542 600.975V609.16C1526.94 635.427 1512 661.526 1497.17 687.421C1454.34 762.212 1412.46 835.35 1371.59 906.179C1377.08 905.858 1382.45 906.032 1387.71 906.797L1389.86 903.352C1439.21 824.412 1489.96 743.246 1542 661.244V669.252C1490.83 749.889 1440.85 829.828 1392.21 907.628C1397.29 908.693 1402.26 910.293 1407.12 912.452C1451.09 848.943 1496.07 784.815 1542 721.328V729.149C1497.55 790.621 1453.94 852.756 1411.25 914.377C1415.92 916.792 1420.48 919.792 1424.95 923.308C1463.33 874.869 1502.36 827.128 1542 781.173V788.813C1503.63 833.324 1465.84 879.498 1428.66 926.345C1432.94 930.054 1437.12 934.325 1441.21 939.131C1474.43 904.364 1508.03 871.258 1542 840.716V848.19C1509.17 877.739 1476.68 909.679 1444.56 943.197C1448.46 948.129 1452.27 953.602 1456 959.603C1484.48 937.108 1513.15 916.947 1542 899.879V907.192C1514.18 923.678 1486.52 943.048 1459.03 964.615C1462.57 970.667 1466.02 977.244 1469.41 984.329C1493.57 972.743 1517.77 963.928 1542 958.52V965.734C1518.71 970.944 1495.44 979.306 1472.2 990.264C1475.4 997.306 1478.51 1004.88 1481.57 1012.91C1501.79 1010.9 1521.93 1011.91 1542 1016.44V1023.67C1522.79 1019.31 1503.51 1018.2 1484.15 1019.89C1487.02 1027.81 1489.83 1036.18 1492.57 1045.02C1509.2 1051.26 1525.68 1060.57 1542 1073.38V1080.81C1526.49 1068.55 1510.85 1059.48 1495.05 1053.23C1497.6 1061.82 1500.1 1070.81 1502.54 1080.25C1515.89 1093.34 1529.04 1109.44 1542 1128.87V1136.82C1529.89 1118.5 1517.6 1103.13 1505.13 1090.41C1507.33 1099.31 1509.47 1108.64 1511.58 1118.27C1521.94 1136.72 1532.07 1157.92 1542 1182.13V1191.2C1533.01 1168.99 1523.83 1149.29 1514.48 1131.89C1516.29 1140.62 1518.08 1149.6 1519.83 1158.94C1527.42 1180.85 1534.81 1205.11 1542 1231.88V1242.97C1536.03 1220.33 1529.92 1199.48 1523.67 1180.27C1524.85 1187.1 1526.02 1194.06 1527.17 1201.17C1532.28 1224.14 1537.23 1248.9 1542 1275.53V1290.13C1539.47 1275.65 1536.9 1261.71 1534.28 1248.3C1536.94 1267.26 1539.52 1287.12 1542 1307.92V1328.32C1536.81 1282.88 1531.21 1241.79 1525.17 1204.74C1519.45 1179.18 1513.5 1155.93 1507.34 1134.77C1499.85 1115.92 1492.17 1099.2 1484.28 1084.46C1475.08 1072.49 1465.71 1062.38 1456.16 1054.09C1445.22 1048.8 1434.14 1045.16 1422.92 1043.07C1410.43 1044.2 1397.84 1046.68 1385.17 1050.38C1371.43 1057.32 1357.65 1065.25 1343.83 1074.04C1329.17 1085.88 1314.51 1098.36 1299.87 1111.33C1284.62 1127.06 1269.44 1143.06 1254.33 1159.23C1238.79 1177.84 1223.35 1196.44 1208.03 1214.9C1192.56 1235.36 1177.24 1255.54 1162.06 1275.37C1146.66 1297.19 1131.44 1318.52 1116.4 1339.33C1101.06 1362.17 1085.93 1384.38 1071 1405.89C1056.13 1428.86 1041.48 1451.09 1027.05 1472.56C1012.46 1495.73 998.098 1518.09 983.975 1539.59C969.511 1563.07 955.296 1585.65 941.334 1607.29C927.146 1630.73 913.204 1653.25 899.537 1674.74C885.646 1698 872.012 1720.3 858.655 1741.55C845.101 1764.5 831.816 1786.45 818.8 1807.36C805.359 1830.34 792.198 1852.27 779.318 1873.12C766.02 1896.04 753.011 1917.87 740.291 1938.59C721.702 1970.86 703.701 2000.88 686.301 2028.62H676.684C687.501 2013.02 698.575 1996.45 709.904 1978.91C697.346 1996.74 685.119 2013.33 673.232 2028.62H667.178C692.531 1996.55 719.465 1958.5 747.909 1914.74C715.32 1960.81 684.828 1998.94 656.548 2028.62H649.206C650.147 2027.67 651.078 2026.75 652.024 2025.78C690.355 1986.3 732.821 1931.08 779.151 1861.21L781.448 1857.04C747.235 1904.65 715.197 1943.97 685.485 1974.33C662.5 1997.81 640.896 2015.99 620.715 2028.62H607.704C631.315 2016.36 657.052 1995.82 684.823 1967.45C719.935 1931.57 758.282 1883.23 799.666 1823.36C801.689 1819.59 803.71 1815.82 805.743 1812C774.841 1853.42 745.648 1888.28 718.279 1916.01C558.446 2077.98 460.113 1999.59 439.962 1588.9C435.042 1590.26 430.177 1591.53 425.352 1592.74C429.335 1847.09 461.707 1986.91 518.975 2028.62H508.618C456.206 1978.46 426.665 1838.08 423.008 1593.31C418.183 1594.5 413.339 1595.72 408.608 1596.78C405.686 1810.58 421.507 1952.09 454.262 2028.62H449.516C418.261 1949.54 403.279 1808.04 406.257 1597.35C401.422 1598.41 396.752 1599.23 392.027 1600.13C387.855 1706.34 387.993 1796.55 392.261 1871.38C395.873 1934.71 402.457 1986.98 411.892 2028.62H409.114C400.017 1986.87 393.634 1935.02 390.079 1872.68C385.789 1797.49 385.631 1706.99 389.78 1600.57C385.065 1601.46 380.36 1602.32 375.73 1603.09C367.755 1733.28 365.872 1841.63 369.787 1929.04C371.44 1965.97 374.137 1999.13 377.848 2028.62H375.429C371.838 1999.29 369.217 1966.46 367.587 1930.05C363.656 1842.31 365.513 1733.71 373.453 1603.42C368.804 1604.16 364.191 1604.85 359.648 1605.44C347.204 1759.82 342.841 1886.15 346.126 1985.53C346.622 2000.51 347.295 2014.87 348.138 2028.62H345.866C345.053 2015.09 344.403 2000.98 343.917 1986.29C340.621 1886.59 344.95 1760.11 357.333 1605.78C156.588 1630.95 52.8858 1519.4 0 1382.39V1373.42C52.0382 1511.09 155.409 1624.32 357.915 1598.54C358.997 1585.26 360.14 1571.76 361.341 1558.06C155.499 1555.08 51.9082 1423.47 0 1282.63V1273.76C51.0239 1414.96 154.212 1548.34 361.971 1550.92C363.165 1537.46 364.41 1523.82 365.717 1509.97C156.424 1474.2 52.0538 1326.72 0 1188.36V1179.74C51.1574 1318.08 155.096 1467.25 366.387 1502.94C367.682 1489.36 369.029 1475.6 370.432 1461.65C160.005 1388.54 53.5038 1231.63 0 1102.45V1094.09C52.6685 1222.95 158.837 1381.3 371.136 1454.71C372.519 1441.06 373.952 1427.24 375.44 1413.23C166.758 1298.77 56.2708 1140.55 0 1026.57V1018.35C55.5692 1131.91 165.859 1291.2 376.176 1406.35C377.641 1392.66 379.151 1378.81 380.713 1364.79C176.7 1205.59 60.1637 1054.68 0 960.481V952.527C59.7061 1046.37 176.27 1197.93 381.477 1357.99C383.011 1344.31 384.587 1330.48 386.215 1316.48C189.672 1109.81 64.9708 974.403 0 902.949V895.349C64.7669 966.594 189.683 1102.26 387.002 1309.74C388.593 1296.13 390.231 1282.36 391.911 1268.45C205.352 1012.19 70.4704 899.559 0 852.469V845.121C70.4783 892.132 205.675 1004.83 392.72 1261.74C394.357 1248.24 396.04 1234.6 397.76 1220.82C223.303 913.138 76.459 829.491 0 807.498V800.295C76.6174 822.288 223.8 905.993 398.599 1214.1C400.269 1200.79 401.972 1187.36 403.718 1173.79C243.164 813.022 82.7816 763.503 0 766.763V759.599C83.0521 756.372 243.732 806.075 404.595 1167.01C406.273 1154.01 407.987 1140.89 409.736 1127.65C264.63 712.054 89.3347 700.931 0 729.284V722.074C89.68 693.734 265.186 705.227 410.661 1120.66C412.326 1108.11 414.025 1095.44 415.753 1082.67C287.476 610.278 96.0414 641.146 0 694.287V686.997C96.4492 633.844 287.966 603.591 416.741 1075.3C418.448 1062.71 419.99 1050.67 421.576 1038.49C311.404 507.721 102.836 583.66 0 661.198V653.801C103.284 576.204 311.758 501.207 422.632 1030.46C424.161 1018.8 425.722 1007.05 427.225 995.491C336.323 404.319 109.687 528.096 0 629.645V622.149C110.153 520.482 336.502 397.939 428.394 986.589C429.862 975.025 431.183 963.958 432.532 952.798C361.902 300.257 116.528 474.138 0 599.262V591.658C116.987 466.394 361.766 294.176 433.813 942.294C435.078 931.932 436.351 921.555 437.605 911.233C388.246 195.483 123.401 421.523 0 569.831V562.155C123.843 413.678 387.798 189.699 439.097 898.996C440.264 889.048 441.302 879.538 442.361 869.956C415.071 90.0745 130.23 370.087 0 541.184V533.414C130.591 362.234 413.958 85.08 444.108 854.347C445.021 846.164 445.951 837.929 446.859 829.764C442.531 -16.0577 137.076 319.614 0 513.173V505.331C137.304 311.837 440.6 -20.0683 449.005 810.088C449.747 803.064 450.386 796.399 451.075 789.564C470.303 -122.553 143.885 270.018 0 485.671V477.752C143.798 262.626 466.67 -124.333 453.85 762.054C454.227 758.246 454.651 754.271 455.016 750.5C498.635 -229.955 150.667 221.187 0 458.656V450.629C149.7 215.088 490.607 -225.742 459.162 703.732C525.273 -334.828 157.011 173.728 0 431.995V423.922C154.337 170.436 509.094 -318.814 465.955 622.957C543.812 -427.364 161.577 129.971 0 405.669V397.496Z" fill="white"/>
</mask>
<g mask="url(#mask0_46_5258)">
<path d="M1542 -469.536H0V2077.98H1542V-469.536Z" fill="white" fill-opacity="0.5"/>
</g>
</svg>
