<svg width="9000" height="3652" viewBox="0 0 9000 3652" fill="none" xmlns="http://www.w3.org/2000/svg">
<mask id="mask0_42_6362" style="mask-type:luminance" maskUnits="userSpaceOnUse" x="0" y="0" width="9000" height="3652">
<path d="M2600.56 1618.26C2600.83 1621.68 2601.01 1625.21 2601.27 1628.63C2603.07 1621.12 2605.31 1613.12 2607.02 1605.71C2607.15 1602.67 2607.1 1599.85 2607.21 1596.83C2604.95 1604.02 2602.81 1611.08 2600.56 1618.26ZM2586.72 1739.59C2587.28 1743.02 2587.92 1746.33 2588.46 1749.78C2590.08 1741.29 2591.5 1733.03 2593.12 1724.53C2593.04 1721.59 2593.04 1718.54 2592.94 1715.6C2590.93 1723.54 2588.93 1731.43 2586.72 1739.59ZM2578.07 1689.27C2579.24 1695.44 2580.2 1701.91 2581.31 1708.15C2584.68 1695.34 2587.62 1683 2590.78 1670.41C2590.48 1664.68 2589.95 1659.22 2589.61 1653.54C2585.94 1665.26 2582.07 1677.19 2578.07 1689.27ZM5172.05 3022.96L5152.84 3030.81C5141.66 3037.44 5130.42 3044.12 5119.29 3050.69L5135.38 3043.67C5147.6 3036.77 5159.76 3029.95 5172.05 3022.96ZM2591.82 1902.02L2592.19 1903.56C2592.27 1901.93 2592.28 1900.35 2592.3 1898.77L2591.82 1902.02ZM2580.27 1853.55C2581.5 1858.32 2582.56 1863.31 2583.74 1868.11C2584.92 1859.51 2586.25 1850.71 2587.28 1842.26C2586.8 1837.84 2586.2 1833.58 2585.7 1829.19C2583.84 1837.36 2582.07 1845.45 2580.27 1853.55ZM2567.43 1806.76C2569.29 1813.23 2571.27 1819.56 2573.07 1826.12C2575.57 1814.34 2578.62 1801.96 2580.97 1790.37C2580.02 1783.27 2579.34 1775.81 2578.33 1768.81C2574.65 1781.51 2571.08 1794.1 2567.43 1806.76ZM2553.78 1759.81C2556.2 1767.47 2558.29 1775.58 2560.63 1783.36C2564.72 1768.81 2569.29 1753.73 2573.25 1739.34C2571.91 1731.27 2570.51 1723.28 2569.11 1715.28C2563.99 1730.13 2558.94 1744.91 2553.78 1759.81ZM5312.35 2942.34C5301.33 2946.65 5290.36 2950.88 5279.4 2955.13C5262.34 2965.42 5245.42 2975.55 5228.48 2985.71C5239.07 2981.31 5249.61 2976.95 5260.25 2972.49C5277.54 2962.53 5294.93 2952.45 5312.35 2942.34ZM5413.04 2902.3L5392.24 2910.7L5357.31 2931.13L5375.72 2923.2L5413.04 2902.3ZM5508.54 2863.3L5507.64 2863.68L5503.83 2865.84L5508.54 2863.3ZM2600.64 2059.06C2598.99 2053.86 2597.28 2048.74 2595.6 2043.58C2594.76 2052.12 2593.76 2060.85 2592.92 2069.39M2598.49 2010.32L2599.18 2012.45L2598.91 2003.86C2598.76 2006.02 2598.66 2008.13 2598.49 2010.32ZM2582.37 1965.34C2584.06 1969.9 2585.83 1974.33 2587.49 1978.93C2588.13 1969.8 2588.65 1960.81 2589.27 1951.7C2588.31 1947 2587.53 1942.03 2586.55 1937.37C2585.17 1946.66 2583.95 1955.8 2582.37 1965.34ZM2565.44 1920.27C2568.04 1926.81 2570.43 1933.7 2572.98 1940.33C2574.97 1927.69 2576.69 1915.37 2578.56 1902.88C2577 1896.13 2575.38 1889.47 2573.77 1882.8C2571.07 1895.2 2568.5 1907.46 2565.44 1920.27ZM2547.25 1876.96C2550.44 1884.37 2553.71 1891.65 2556.82 1899.18C2560.4 1883.84 2563.58 1868.94 2566.88 1853.93C2564.84 1846.04 2562.75 1838.25 2560.62 1830.49C2556.3 1845.83 2552.11 1861.03 2547.25 1876.96ZM2528.34 1833.04C2532.09 1841.18 2535.5 1849.87 2539.16 1858.17C2544.38 1840.78 2549.05 1824 2553.81 1807.11C2551.33 1798.54 2548.89 1789.89 2546.33 1781.43C2540.51 1798.45 2534.72 1815.42 2528.34 1833.04ZM5555.63 2821.38C5543.77 2825.96 5531.94 2830.49 5520.14 2835C5502.81 2845.34 5485.57 2855.6 5468.37 2865.8C5479.7 2861.15 5491.01 2856.52 5502.41 2851.81C5520.06 2841.76 5537.84 2831.57 5555.63 2821.38ZM5659.36 2780.72L5635.86 2790.04C5623.8 2797.02 5611.67 2804.09 5599.67 2811L5620.12 2802.34C5633.2 2795.14 5646.21 2788 5659.36 2780.72ZM5757.52 2741.27L5754.45 2742.51L5740.91 2750.12L5741.12 2750.03L5757.52 2741.27ZM5408.01 2877.14L5406.63 2877.65C5385.74 2890.46 5364.89 2903.25 5344.17 2915.86C5358.29 2910.27 5372.44 2904.66 5386.66 2898.96C5407.82 2886.55 5429.11 2873.99 5450.46 2861.36C5436.28 2866.67 5422.12 2871.93 5408.01 2877.14ZM2613.76 2112.16L2616.68 2118.16C2616.15 2114 2615.46 2110.07 2614.92 2105.94C2614.55 2104.67 2614.22 2103.35 2613.85 2102.09C2613.84 2105.42 2613.77 2108.83 2613.76 2112.16ZM2592.92 2069.39C2595.68 2074.85 2598.31 2080.56 2601.05 2086.07L2592.92 2069.39ZM2571.1 2028.06C2574.74 2034.84 2578.46 2041.46 2582.04 2048.33C2583.17 2036.18 2584.41 2023.88 2585.32 2011.98C2582.9 2004.91 2580.49 1997.81 2578.01 1990.83C2575.78 2003.16 2573.34 2015.72 2571.1 2028.06ZM2548.61 1986.42C2552.94 1994.07 2557.03 2002.14 2561.3 2009.91C2563.84 1995.61 2566.68 1980.96 2569.01 1966.91C2565.99 1958.79 2562.98 1950.64 2559.88 1942.63C2556.18 1957.16 2552.32 1971.88 2548.61 1986.42ZM2524.96 1946.59C2529.76 1954.58 2534.58 1962.51 2539.3 1970.63C2543.41 1954.32 2547.98 1937.47 2551.89 1921.38C2548.42 1912.73 2544.74 1904.43 2541.17 1895.97C2535.81 1912.79 2530.33 1929.74 2524.96 1946.59ZM2500.7 1906.54C2505.92 1914.79 2510.98 1923.34 2516.11 1931.75C2521.76 1913.9 2527.87 1895.54 2533.36 1877.86C2529.46 1868.85 2525.68 1859.62 2521.68 1850.75C2514.77 1869.25 2507.69 1887.94 2500.7 1906.54ZM5588.12 2779.16C5570.61 2785.42 5553.04 2791.76 5535.65 2797.88C5511.54 2812.9 5487.56 2827.76 5463.69 2842.51C5480.63 2836.14 5497.6 2829.72 5514.66 2823.2C5539.04 2808.66 5563.51 2793.99 5588.12 2779.16ZM5696.62 2739.79C5681.08 2745.51 5665.59 2751.19 5650.15 2756.81C5628.54 2769.92 5607.02 2782.92 5585.59 2795.81C5600.58 2789.97 5615.6 2784.08 5630.68 2778.12C5652.57 2765.44 5674.54 2752.69 5696.62 2739.79ZM5804.79 2699.36C5792.05 2704.19 5779.42 2708.89 5766.74 2713.65C5748.47 2724.4 5730.34 2735 5712.21 2745.61C5724.54 2740.64 5736.89 2735.65 5749.28 2730.61C5767.72 2720.27 5786.22 2709.85 5804.79 2699.36ZM5911.29 2658.45L5885.42 2668.44L5845.9 2690.91L5869.93 2680.92C5883.68 2673.48 5897.48 2665.98 5911.29 2658.45ZM6013.41 2618.34L6006.48 2621.1L5989.45 2630.48L5993.09 2628.92L6013.41 2618.34ZM2639.19 2208.02C2640.61 2210.21 2641.99 2212.48 2643.41 2214.67C2642.49 2210.82 2641.64 2206.88 2640.7 2203.05L2638.08 2197.07C2638.43 2200.74 2638.86 2204.32 2639.19 2208.02ZM2613.23 2169.29C2616.73 2174.44 2620.3 2179.47 2623.77 2184.68C2622.9 2175.84 2621.98 2167.06 2621.08 2158.24C2618.53 2152.63 2616.07 2146.86 2613.49 2141.3C2613.41 2150.62 2613.44 2159.81 2613.23 2169.29ZM2586.58 2130.37C2591.26 2136.99 2595.81 2143.92 2600.45 2150.62C2600.64 2138.72 2600.66 2127.03 2600.78 2115.21C2597.34 2108.07 2593.87 2100.93 2590.38 2093.87C2589.16 2105.98 2588.03 2117.99 2586.58 2130.37ZM2559.07 2092.79C2564.44 2100.05 2569.86 2107.2 2575.17 2114.57C2576.79 2100.13 2578.16 2086 2579.61 2071.78C2575.57 2063.88 2571.41 2056.24 2567.31 2048.46C2564.65 2063.14 2562.08 2077.71 2559.07 2092.79ZM2530.99 2054.96C2536.91 2062.66 2542.68 2070.72 2548.55 2078.55C2551.75 2062.22 2554.61 2046.3 2557.51 2030.32C2552.95 2021.88 2548.47 2013.3 2543.83 2005.01C2539.67 2021.52 2535.59 2037.94 2530.99 2054.96ZM2501.94 2018.5C2508.27 2026.39 2514.61 2034.26 2520.88 2042.28C2525.78 2023.99 2530.23 2006.25 2534.73 1988.42C2529.81 1979.81 2524.67 1971.6 2519.66 1963.17C2513.89 1981.47 2508.26 1999.61 2501.94 2018.5ZM2472.3 1982.08C2478.99 1990.06 2485.61 1998.19 2492.24 2006.33C2498.79 1986.59 2504.75 1967.52 2510.8 1948.34C2505.49 1939.55 2500.35 1930.43 2494.96 1921.8C2487.54 1941.74 2480.35 1961.46 2472.3 1982.08ZM5724.79 2696.16C5705.08 2702.88 5685.47 2709.48 5665.88 2716.05C5639.48 2732.75 5613.18 2749.33 5587.04 2765.72C5606.26 2758.83 5625.47 2751.96 5644.8 2744.92C5671.33 2728.83 5698 2712.57 5724.79 2696.16ZM5836.37 2657.46C5817.8 2663.99 5799.25 2670.51 5780.79 2676.92C5756.17 2692.08 5731.66 2707.11 5707.26 2722.01C5725.31 2715.31 5743.48 2708.49 5761.63 2701.68C5786.43 2687.07 5811.33 2672.34 5836.37 2657.46ZM5947.97 2617.71C5931.35 2623.72 5914.81 2629.64 5898.28 2635.53C5876.12 2648.78 5854.01 2661.99 5832.02 2675.03C5848.09 2668.9 5864.21 2662.69 5880.37 2656.45C5902.79 2643.65 5925.35 2630.72 5947.97 2617.71ZM6059.89 2576.79C6045.9 2581.97 6031.94 2587.09 6018 2592.2C5999.16 2603.12 5980.37 2613.98 5961.66 2624.75C5974.82 2619.58 5987.93 2614.49 6001.16 2609.25C6020.67 2598.51 6040.24 2587.69 6059.89 2576.79ZM6170.42 2535.51L6140.07 2546.96C6125.76 2554.96 6111.5 2562.92 6097.26 2570.84C6106.63 2567.06 6116.08 2563.19 6125.46 2559.39C6140.42 2551.47 6155.38 2543.52 6170.42 2535.51ZM6275.72 2495.5L6264.54 2499.77L6243.15 2511.26L6251.87 2507.67L6275.72 2495.5ZM2675.96 2298.68C2677.93 2300.95 2679.93 2303.16 2681.9 2305.44C2680.35 2301.31 2678.69 2297.38 2677.13 2293.26C2675.85 2291.11 2674.6 2288.88 2673.32 2286.74L2675.96 2298.68ZM2644.4 2262.77C2649.02 2267.93 2653.58 2273.27 2658.19 2278.48C2657.75 2276.41 2657.27 2274.4 2656.84 2272.33C2655.44 2265.73 2653.83 2259.46 2652.34 2253.01C2648.92 2247.55 2645.47 2242.15 2642.03 2236.74C2642.79 2245.46 2643.58 2254.14 2644.4 2262.77ZM2612.27 2227.8C2618.14 2234.14 2624.05 2240.32 2629.9 2246.74C2629.41 2241.25 2628.86 2235.87 2628.41 2230.32C2627.91 2224.2 2627.21 2218.33 2626.58 2212.37C2622.08 2205.48 2617.54 2198.69 2612.99 2191.91C2612.67 2203.98 2612.46 2215.91 2612.27 2227.8ZM2579.64 2192.74C2586.33 2199.75 2592.93 2207.07 2599.59 2214.18C2599.76 2205.62 2599.86 2197.16 2600.1 2188.49C2600.25 2183.3 2600.21 2178.34 2600.24 2173.3C2595 2165.62 2589.77 2157.9 2584.49 2150.31C2582.76 2164.6 2581.19 2178.69 2579.64 2192.74ZM2546.28 2158.8C2553.5 2166.11 2560.75 2173.33 2567.93 2180.76C2569.2 2169.45 2570.42 2158.21 2571.83 2146.73C2572.37 2142.3 2572.75 2138.06 2573.17 2133.77C2567.47 2125.75 2561.6 2118.05 2555.81 2110.23C2552.5 2126.58 2549.36 2142.74 2546.28 2158.8ZM2512.45 2124.78C2520.09 2132.28 2527.68 2140.01 2535.28 2147.64C2538 2133.52 2540.71 2119.43 2543.62 2105.09C2544.25 2101.99 2544.76 2099.03 2545.3 2096.02C2539.13 2087.71 2533.01 2079.28 2526.82 2071.01C2521.89 2089.1 2517.12 2107 2512.45 2124.78ZM2477.86 2091.62C2485.84 2099.22 2493.82 2106.82 2501.78 2114.55C2506.24 2097.64 2510.71 2080.71 2515.42 2063.5C2515.93 2061.64 2516.35 2059.85 2516.82 2058.04C2510.31 2049.65 2503.7 2041.49 2497.1 2033.3C2490.55 2052.91 2484.13 2072.34 2477.86 2091.62ZM2442.76 2058.75C2451.02 2066.33 2459.26 2073.93 2467.48 2081.67C2473.91 2061.95 2480.48 2042.07 2487.22 2022L2487.47 2021.21C2480.64 2012.78 2473.88 2004.15 2466.98 1995.86C2458.75 2017 2450.67 2037.97 2442.76 2058.75ZM5861.08 2612.02C5839.51 2619.05 5818.01 2625.98 5796.57 2632.84C5768.21 2651.03 5740 2669.03 5711.93 2686.88C5732.98 2679.72 5754.15 2672.42 5775.35 2665.07C5803.77 2647.56 5832.35 2629.88 5861.08 2612.02ZM5975.19 2574.25C5954.44 2581.19 5933.74 2588.08 5913.08 2594.91C5886.01 2611.82 5859.09 2628.55 5832.29 2645.15C5852.46 2638.05 5872.65 2630.92 5892.93 2623.69C5920.21 2607.36 5947.63 2590.88 5975.19 2574.25ZM6090.04 2535.33C6070.46 2542.04 6050.95 2548.68 6031.46 2555.28C6005.95 2570.77 5980.58 2586.09 5955.29 2601.32C5974.34 2594.42 5993.52 2587.38 6012.66 2580.36C6038.33 2565.49 6064.12 2550.48 6090.04 2535.33ZM6205.85 2495.14C6187.97 2501.4 6170.1 2507.65 6152.28 2513.84C6129.1 2527.47 6106.05 2540.95 6083.06 2554.38C6100.18 2548.02 6117.31 2541.66 6134.52 2535.21C6158.21 2521.96 6181.97 2508.62 6205.85 2495.14ZM6321.25 2454.41C6305.96 2459.86 6290.7 2465.25 6275.46 2470.64C6255.22 2482.15 6235.09 2493.51 6214.98 2504.86C6229.66 2499.28 6244.42 2493.61 6259.14 2487.98C6279.77 2476.88 6300.48 2465.68 6321.25 2454.41ZM6435 2413.61L6400.2 2426.17C6384.5 2434.75 6368.86 2443.26 6353.23 2451.76C6363.91 2447.62 6374.55 2443.53 6385.27 2439.37C6401.79 2430.85 6418.39 2422.22 6435 2413.61ZM6544.02 2374.08L6527.12 2380.23L6499.81 2394.48L6513.83 2388.95L6544.02 2374.08ZM2726.5 2383.45L2733.68 2389.71C2731.99 2386.87 2730.33 2383.98 2728.64 2381.15C2726.59 2378.65 2724.53 2376.21 2722.48 2373.72L2726.5 2383.45ZM2688.28 2350.93C2693.75 2355.54 2699.22 2360.02 2704.69 2364.67C2701.67 2357.11 2698.78 2349.29 2695.83 2341.6C2691.25 2336.19 2686.71 2330.68 2682.11 2325.31C2684.13 2333.91 2686.17 2342.49 2688.28 2350.93ZM2650.23 2319.09C2657.34 2324.95 2664.44 2331 2671.55 2336.93C2668.98 2326.28 2666.45 2315.55 2664 2304.71C2658.15 2298.02 2652.31 2291.35 2646.44 2284.74C2647.61 2296.33 2648.92 2307.71 2650.23 2319.09ZM2611.8 2287.95C2619.82 2294.41 2627.84 2300.72 2635.86 2307.27C2634.43 2294.36 2633.09 2281.31 2631.84 2268.12C2625.23 2260.78 2618.55 2253.67 2611.91 2246.44C2611.74 2260.46 2611.77 2274.21 2611.8 2287.95ZM2573.03 2256.82C2581.65 2263.6 2590.25 2270.68 2598.86 2277.57C2598.87 2262.8 2598.98 2247.89 2599.22 2232.81C2592.04 2225.09 2584.9 2217.27 2577.69 2209.68C2575.99 2225.59 2574.5 2241.23 2573.03 2256.82ZM2533.75 2226.56C2542.8 2233.51 2551.85 2240.4 2560.9 2247.46C2562.49 2230.91 2564.18 2214.22 2566.03 2197.31C2558.49 2189.45 2550.85 2181.92 2543.27 2174.2C2539.93 2191.86 2536.81 2209.25 2533.75 2226.56ZM2494.11 2196.31C2503.47 2203.34 2512.83 2210.51 2522.2 2217.66C2525.42 2199.63 2528.74 2181.45 2532.26 2163.03C2524.38 2155.08 2516.56 2146.89 2508.65 2139.08C2503.63 2158.37 2498.82 2177.4 2494.11 2196.31ZM2453.92 2166.64C2463.56 2173.72 2473.21 2180.82 2482.86 2188.01C2487.75 2168.46 2492.74 2148.78 2497.96 2128.84C2489.81 2120.88 2481.61 2113.12 2473.41 2105.31C2466.75 2125.95 2460.25 2146.39 2453.92 2166.64ZM2413.34 2137.28C2423.19 2144.32 2433.04 2151.32 2442.89 2158.49C2449.41 2137.66 2456.14 2116.6 2463.03 2095.36C2454.65 2087.43 2446.25 2079.54 2437.83 2071.76C2429.48 2093.8 2421.3 2115.65 2413.34 2137.28ZM5997.78 2526.46C5974.39 2533.76 5951.02 2541 5927.71 2548.15C5898 2567.45 5868.45 2586.57 5839.04 2605.51C5861.84 2598.11 5884.7 2590.62 5907.62 2583.06C5937.51 2564.38 5967.58 2545.5 5997.78 2526.46ZM6114.27 2489.67C6091.42 2496.96 6068.6 2504.19 6045.83 2511.37C6016.88 2529.7 5988.07 2547.87 5959.41 2565.85C5981.62 2558.44 6003.86 2550.95 6026.17 2543.39C6055.38 2525.66 6084.76 2507.75 6114.27 2489.67ZM6232.13 2451.65C6210.04 2458.83 6187.98 2465.98 6165.96 2473.07C6138.02 2490.27 6110.2 2507.32 6082.51 2524.22C6103.96 2516.86 6125.48 2509.42 6147.02 2501.94C6175.25 2485.34 6203.62 2468.56 6232.13 2451.65ZM6350.91 2412.68C6329.96 2419.6 6309.03 2426.49 6288.13 2433.34C6261.71 2449.1 6235.41 2464.74 6209.22 2480.23C6229.46 2473.13 6249.74 2466 6270.07 2458.81C6296.9 2443.57 6323.84 2428.18 6350.91 2412.68ZM6470.08 2373.06C6450.78 2379.52 6431.51 2385.93 6412.26 2392.33C6387.87 2406.38 6363.57 2420.34 6339.38 2434.18C6357.87 2427.59 6376.37 2420.96 6394.93 2414.3C6419.87 2400.66 6444.93 2386.91 6470.08 2373.06ZM6588.96 2333.13L6538.09 2350.26C6516.53 2362.21 6495.01 2374.11 6473.6 2385.9L6521.94 2368.33C6544.2 2356.68 6566.55 2344.94 6588.96 2333.13ZM6706.15 2293.53L6665.63 2307.24C6648.14 2316.51 6630.65 2325.79 6613.26 2334.97L6650.61 2321.25C6669.09 2312.05 6687.57 2302.83 6706.15 2293.53ZM6818.01 2255.62L6794.77 2263.5L6760.54 2280.73L6781.11 2273.13L6818.81 2255.35L6818.01 2255.62ZM2793.97 2462.24L2800.9 2466.64C2799.14 2464.66 2797.35 2462.75 2795.6 2460.76L2789.79 2455.73C2791.19 2457.88 2792.56 2460.11 2793.97 2462.24ZM2747.73 2432.83C2754.43 2437.07 2761.15 2441.37 2767.87 2445.64C2763.56 2438.91 2759.16 2432.37 2754.93 2425.48C2749.23 2420.46 2743.52 2415.52 2737.81 2410.55C2741.06 2418.08 2744.41 2425.43 2747.73 2432.83ZM2702.43 2404.46C2710.92 2409.73 2719.37 2414.87 2727.88 2420.21C2723.72 2410.68 2719.7 2400.93 2715.65 2391.22C2708.39 2384.96 2701.13 2378.72 2693.87 2372.54C2696.67 2383.26 2699.5 2393.94 2702.43 2404.46ZM2657.47 2376.65C2667.01 2382.49 2676.59 2388.47 2686.14 2394.38C2682.91 2382.43 2679.74 2370.39 2676.69 2358.15C2668.59 2351.34 2660.49 2344.53 2652.39 2337.81C2653.98 2350.92 2655.69 2363.83 2657.47 2376.65ZM2612.5 2349.41C2622.73 2355.58 2632.94 2361.62 2643.21 2367.88C2641.34 2353.96 2639.55 2339.92 2637.89 2325.67C2629.21 2318.53 2620.5 2311.63 2611.8 2304.6C2611.9 2319.72 2612.17 2334.61 2612.5 2349.41ZM2567.41 2322.28C2578.04 2328.59 2588.74 2335.13 2599.4 2341.52C2599.09 2325.9 2598.87 2310.15 2598.82 2294.17C2589.73 2286.86 2580.64 2279.45 2571.53 2272.26C2570 2289.14 2568.66 2305.77 2567.41 2322.28ZM2522.03 2295.74C2533 2302.15 2543.96 2308.5 2554.95 2315C2556.3 2297.74 2557.75 2280.33 2559.39 2262.68C2549.99 2255.31 2540.58 2248.2 2531.17 2240.95C2527.96 2259.43 2524.94 2277.66 2522.03 2295.74ZM2476.44 2269.25C2487.62 2275.68 2498.83 2282.2 2510.05 2288.72C2513.08 2270.01 2516.22 2251.16 2519.59 2232.03C2509.95 2224.66 2500.33 2217.17 2490.69 2209.92C2485.76 2229.91 2481.03 2249.67 2476.44 2269.25ZM2430.52 2243.15C2441.9 2249.59 2453.29 2256.04 2464.71 2262.58C2469.45 2242.44 2474.31 2222.17 2479.41 2201.59C2469.55 2194.23 2459.7 2186.99 2449.84 2179.75C2443.22 2201.1 2436.77 2222.24 2430.52 2243.15ZM2384.37 2217.31C2395.9 2223.71 2407.41 2230.06 2418.98 2236.58C2425.39 2215.16 2432.02 2193.48 2438.81 2171.61C2428.78 2164.29 2418.74 2157.08 2408.71 2149.9C2400.4 2172.58 2392.27 2195.06 2384.37 2217.31ZM6740.84 2252.56L6678.15 2272.14C6652.19 2286.71 6626.32 2301.18 6600.56 2315.54L6660.63 2295.24C6687.26 2281.12 6713.99 2266.9 6740.84 2252.56ZM6862.66 2214.63L6806.44 2232.11C6783.02 2244.68 6759.68 2257.17 6736.42 2269.58L6789.74 2251.51C6813.97 2239.3 6838.26 2227 6862.66 2214.63ZM6982.57 2177.56L6935.9 2191.94C6916.13 2202.02 6896.43 2212.03 6876.79 2222L6920.19 2207.3C6940.92 2197.43 6961.72 2187.52 6982.57 2177.56ZM7097.88 2142.31L7065.93 2152.03L7023.52 2172.36L7051.39 2162.95L7097.88 2142.31ZM7203.48 2110.49L7196.29 2112.64L7181.04 2119.44L7184.07 2118.43L7203.48 2110.49ZM6134.25 2439.8C6109.3 2447.27 6084.37 2454.7 6059.44 2462.06C6028.66 2482.31 5998.04 2502.36 5967.57 2522.24C5991.83 2514.71 6016.09 2507.13 6040.43 2499.47C6071.54 2479.77 6102.81 2459.89 6134.25 2439.8ZM6253.6 2403.73C6228.93 2411.25 6204.25 2418.73 6179.59 2426.18C6149.18 2445.67 6118.91 2465.01 6088.81 2484.15C6112.76 2476.53 6136.74 2468.86 6160.76 2461.12C6191.56 2442.16 6222.49 2423.05 6253.6 2403.73ZM6374.17 2366.75C6349.94 2374.22 6325.74 2381.67 6301.54 2389.09C6271.68 2407.7 6241.97 2426.14 6212.39 2444.43C6235.86 2436.81 6259.36 2429.14 6282.91 2421.41C6313.19 2403.36 6343.59 2385.15 6374.17 2366.75ZM6495.82 2329.03L6425.46 2350.88C6396.46 2368.4 6367.59 2385.79 6338.86 2403C6361.53 2395.52 6384.24 2387.99 6406.98 2380.43C6436.46 2363.44 6466.06 2346.32 6495.82 2329.03ZM6618.27 2290.84L6551.1 2311.81C6523.35 2328.01 6495.71 2344.08 6468.2 2360.02L6532.97 2338.29C6561.28 2322.6 6589.71 2306.8 6618.27 2290.84ZM2879.37 2531.66C2881.47 2532.59 2883.57 2533.57 2885.67 2534.5L2883.16 2532.59L2876.4 2528.6L2879.37 2531.66ZM2824.52 2506.88L2835.72 2512.03C2839.6 2513.82 2843.5 2515.51 2847.38 2517.27C2842.43 2512.09 2837.41 2507.12 2832.5 2501.82C2825.62 2497.56 2818.77 2493.23 2811.92 2488.92C2816.12 2494.9 2820.31 2500.92 2824.52 2506.88ZM2770.63 2482.13L2801.06 2496.11C2795.51 2488.02 2789.99 2479.91 2784.54 2471.62C2775.46 2465.79 2766.4 2460.07 2757.33 2454.31C2761.69 2463.74 2766.17 2472.92 2770.63 2482.13ZM2718.17 2458.2C2729.49 2463.34 2740.76 2468.44 2752.13 2473.63C2747.15 2463.11 2742.26 2452.42 2737.41 2441.64C2727.48 2435.38 2717.56 2429.13 2707.65 2422.94C2711.08 2434.83 2714.58 2446.58 2718.17 2458.2ZM2666.23 2434.68C2678.23 2440.08 2690.31 2445.57 2702.36 2451.04C2698.57 2438.46 2694.89 2425.68 2691.27 2412.8C2680.8 2406.29 2670.32 2399.8 2659.88 2393.38C2661.9 2407.29 2663.98 2421.11 2666.23 2434.68ZM2614.56 2411.52C2627.05 2417.1 2639.44 2422.58 2652.01 2428.23C2649.69 2413.79 2647.44 2399.24 2645.37 2384.41C2634.52 2377.77 2623.73 2371.33 2612.9 2364.78C2613.33 2380.54 2613.85 2396.16 2614.56 2411.52ZM2563 2388.51C2575.69 2394.14 2588.54 2399.91 2601.3 2405.6C2600.62 2389.52 2600.03 2373.3 2599.64 2356.8C2588.54 2350.13 2577.4 2343.36 2566.34 2336.78C2565.08 2354.22 2563.94 2371.49 2563 2388.51ZM2511.38 2365.79C2524.34 2371.48 2537.24 2377.14 2550.27 2382.9C2551.28 2365.25 2552.41 2347.44 2553.77 2329.33C2542.43 2322.62 2531.17 2316.1 2519.86 2309.49C2516.87 2328.47 2514.01 2347.26 2511.38 2365.79ZM2459.73 2343.15C2472.78 2348.84 2485.89 2354.6 2499.02 2360.36C2501.76 2341.26 2504.66 2321.98 2507.78 2302.42C2496.31 2295.74 2484.83 2289.02 2473.39 2282.44C2468.65 2302.89 2464.07 2323.17 2459.73 2343.15ZM2407.93 2320.69C2421.11 2326.39 2434.31 2332.11 2447.57 2337.88C2452.04 2317.4 2456.71 2296.71 2461.59 2275.73C2449.95 2269.06 2438.35 2262.49 2426.74 2255.92C2420.27 2277.74 2413.99 2299.34 2407.93 2320.69ZM2356.09 2298.4C2369.36 2304.09 2382.58 2309.73 2395.95 2315.5C2402.14 2293.7 2408.57 2271.63 2415.18 2249.35C2403.41 2242.71 2391.7 2236.2 2379.96 2229.69C2371.77 2252.84 2363.83 2275.73 2356.09 2298.4ZM6641.26 2243.94L6564.43 2266.42C6533.32 2285.45 6502.39 2304.28 6471.58 2322.98L6545.92 2299.83C6577.54 2281.37 6609.33 2262.74 6641.26 2243.94ZM6766.66 2207.41C6741.75 2214.63 6716.81 2221.9 6691.85 2229.17C6661.45 2247.14 6631.16 2264.97 6601.04 2282.63L6654.99 2265.78L6673.12 2260.12C6704.15 2242.7 6735.33 2225.13 6766.66 2207.41ZM6892.16 2171.24C6868.23 2178.09 6844.27 2184.98 6820.28 2191.89C6790.91 2208.58 6761.64 2225.14 6732.52 2241.57L6801.56 2220.04C6831.64 2203.9 6861.82 2187.64 6892.16 2171.24ZM7017.12 2135.83C6994.58 2142.15 6972.03 2148.5 6949.46 2154.91C6921.62 2170.02 6893.89 2185.02 6866.26 2199.92L6931.02 2179.87C6959.6 2165.3 6988.32 2150.6 7017.12 2135.83ZM7140.9 2101.57C7120.35 2107.17 7099.8 2112.82 7079.23 2118.51C7053.67 2131.67 7028.18 2144.76 7002.79 2157.77L7061.23 2139.89C7087.7 2127.19 7114.25 2114.41 7140.9 2101.57ZM7262 2069.04C7244.27 2073.72 7226.54 2078.43 7208.79 2083.19L7142.2 2115.34C7158.73 2110.36 7175.25 2105.38 7191.79 2100.44L7262 2069.04ZM7378.61 2038.85C7365.07 2042.28 7351.52 2045.75 7337.96 2049.24L7286.19 2072.43L7322.69 2061.72L7378.61 2038.85ZM7485.8 2012.21L7466.26 2016.99L7438.63 2028.28L7453.23 2024.14L7485.8 2012.21ZM6270.65 2352.12C6244.07 2359.8 6217.46 2367.46 6190.84 2375.09C6159.29 2396.08 6127.91 2416.88 6096.67 2437.49C6122.5 2429.8 6148.35 2422.05 6174.21 2414.25C6206.18 2393.74 6238.35 2373.01 6270.65 2352.12ZM6393 2316.57L6313.68 2339.66C6282.09 2360.15 6250.67 2380.45 6219.4 2400.58C6245.04 2392.8 6270.69 2384.97 6296.35 2377.1C6328.39 2357.13 6360.62 2336.93 6393 2316.57ZM6516.64 2280.42L6438.25 2303.36C6406.78 2323.21 6375.49 2342.87 6344.33 2362.37C6369.65 2354.58 6394.98 2346.74 6420.32 2338.89C6452.27 2319.58 6484.37 2300.09 6516.64 2280.42ZM2982.3 2589.06L2983.3 2589.34L2981.92 2588.79L2982.3 2589.06ZM2918.93 2570.31C2927.26 2572.84 2935.58 2575.27 2943.9 2577.74C2938.98 2574.23 2934.03 2570.81 2929.12 2567.24C2921.1 2563.89 2913.08 2560.46 2905.07 2557.02C2909.68 2561.48 2914.29 2565.93 2918.93 2570.31ZM2856.4 2550.67L2863.29 2552.9C2872.55 2555.88 2881.8 2558.68 2891.04 2561.58C2884.57 2555.26 2878.12 2548.93 2871.71 2542.44C2860.87 2537.65 2850.04 2532.76 2839.22 2527.82C2844.88 2535.59 2850.67 2543.08 2856.4 2550.67ZM2795.2 2530.95L2834.55 2543.63C2828.2 2535.04 2822.04 2526.05 2815.82 2517.16C2803.67 2511.56 2791.62 2506.04 2779.53 2500.49C2784.67 2510.81 2789.92 2520.9 2795.2 2530.95ZM2735.46 2511.69L2777.59 2525.28C2771.95 2514.3 2766.36 2503.2 2760.87 2491.93C2748.32 2486.18 2735.77 2480.44 2723.28 2474.76C2727.23 2487.25 2731.3 2499.54 2735.46 2511.69ZM2676.7 2492.73L2720.04 2506.72C2715.72 2493.85 2711.51 2480.79 2707.41 2467.56C2694.55 2461.73 2681.71 2455.91 2668.93 2450.14C2671.42 2464.49 2673.98 2478.73 2676.7 2492.73ZM2618.22 2473.85L2662.43 2488.13C2659.66 2473.51 2657.04 2458.65 2654.53 2443.62C2641.4 2437.71 2628.41 2431.93 2615.35 2426.08C2616.19 2442.18 2617.11 2458.15 2618.22 2473.85ZM2560.08 2455.08L2604.79 2469.52C2603.69 2453.28 2602.78 2436.78 2601.98 2420.11C2588.76 2414.21 2575.48 2408.25 2562.34 2402.42C2561.45 2420.16 2560.66 2437.76 2560.08 2455.08ZM2502.08 2436.33L2547.08 2450.87C2547.71 2433.07 2548.55 2415 2549.53 2396.75C2536.13 2390.81 2522.89 2385.02 2509.58 2379.17C2506.92 2398.42 2504.39 2417.52 2502.08 2436.33ZM2444.23 2417.62L2489.41 2432.23C2491.79 2412.98 2494.4 2393.43 2497.16 2373.71C2483.75 2367.82 2470.33 2361.92 2457 2356.1C2452.57 2376.81 2448.27 2397.37 2444.23 2417.62ZM2386.39 2398.88L2431.73 2413.57C2435.87 2392.91 2440.26 2371.96 2444.81 2350.82C2431.29 2344.93 2417.83 2339.1 2404.39 2333.29C2398.18 2355.4 2392.16 2377.28 2386.39 2398.88ZM2328.73 2380.21L2374.05 2394.9C2379.94 2372.89 2386.07 2350.61 2392.4 2328.1C2378.82 2322.23 2365.36 2316.49 2351.88 2310.7C2343.92 2334.13 2336.21 2357.3 2328.73 2380.21ZM6659.56 2192.78C6631.58 2200.57 6603.51 2208.41 6575.38 2216.29C6542.73 2237.13 6510.24 2257.79 6477.91 2278.26L6535.83 2261.31L6559.22 2254.45C6592.49 2234.11 6625.96 2213.51 6659.56 2192.78ZM6787.31 2157.45C6759.68 2165.02 6731.97 2172.67 6704.19 2180.37C6671.44 2200.63 6638.87 2220.72 6606.43 2240.63L6686.62 2217.2C6720.01 2197.48 6753.6 2177.53 6787.31 2157.45ZM6915.53 2122.68C6888.42 2129.94 6861.24 2137.28 6834 2144.7C6801.38 2164.19 6768.94 2183.48 6736.64 2202.64C6762.85 2195.02 6789.05 2187.43 6815.22 2179.88C6848.49 2160.98 6881.93 2141.91 6915.53 2122.68ZM7043.61 2088.9C7017.2 2095.75 6990.72 2102.69 6964.18 2109.72C6932.08 2128.16 6900.1 2146.46 6868.29 2164.6C6893.73 2157.3 6919.17 2150.05 6944.56 2142.84C6977.44 2124.99 7010.43 2107.03 7043.61 2088.9ZM7170.83 2056.61C7145.41 2062.92 7119.92 2069.35 7094.38 2075.86C7063.12 2092.99 7031.97 2110.02 7000.98 2126.9C7025.47 2120.02 7049.95 2113.18 7074.4 2106.41C7106.39 2089.94 7138.57 2073.31 7170.83 2056.61ZM7296.73 2026.17C7272.67 2031.83 7248.55 2037.6 7224.38 2043.47C7194.44 2059.01 7164.66 2074.43 7134.95 2089.77C7158.04 2083.46 7181.12 2077.2 7204.18 2071.02C7234.92 2056.15 7265.77 2041.2 7296.73 2026.17ZM7420.33 1998.06C7398.05 2002.95 7375.7 2007.97 7353.33 2013.08C7325.49 2026.62 7297.74 2040.1 7270.08 2053.51C7291.26 2047.94 7312.43 2042.43 7333.58 2036.99L7420.33 1998.06ZM7540.47 1972.73C7520.66 1976.72 7500.82 1980.84 7480.95 1985.03L7406.69 2018.39C7425.27 2013.74 7443.84 2009.14 7462.4 2004.6L7540.47 1972.73ZM7655.21 1950.64C7639.05 1953.59 7622.87 1956.63 7606.67 1959.72L7545.65 1984.59C7560.41 1981.11 7575.16 1977.67 7589.91 1974.27L7655.21 1950.64ZM7761.32 1932.21C7750.99 1933.9 7740.65 1935.64 7730.3 1937.4L7690.54 1951.68C7699.07 1949.82 7707.59 1948.01 7716.11 1946.18L7761.32 1932.21ZM6406.54 2263.7L6321.9 2287.44C6289.93 2308.95 6258.12 2330.25 6226.46 2351.38C6253.75 2343.52 6281.01 2335.65 6308.24 2327.74C6340.85 2306.59 6373.61 2285.25 6406.54 2263.7ZM6453 2250.65L6447.96 2252.06C6415.6 2273.3 6383.37 2294.36 6351.33 2315.22L6433 2291.4C6466.04 2270.55 6499.22 2249.53 6532.6 2228.29L6453 2250.65ZM3030.41 2620.98C3038.97 2622.5 3047.52 2624.02 3056.06 2625.5C3051.9 2623.49 3047.75 2621.44 3043.59 2619.4C3034.76 2617.04 3025.92 2614.56 3017.07 2612.14C3021.53 2615.05 3025.94 2618.1 3030.41 2620.98ZM2959.79 2607.79C2972.49 2610.25 2985.17 2612.66 2997.85 2615.01C2990.73 2610.28 2983.57 2605.71 2976.49 2600.85C2964.26 2597.36 2952.02 2593.67 2939.78 2590.03C2946.4 2596.1 2953.12 2601.87 2959.79 2607.79ZM2889.77 2593.62L2890.94 2593.86C2905.48 2596.93 2919.97 2599.84 2934.48 2602.74C2926.95 2595.87 2919.49 2588.8 2912.04 2581.73C2898.1 2577.49 2884.15 2573.08 2870.19 2568.63C2876.66 2577.07 2883.16 2585.48 2889.77 2593.62ZM2821.41 2579.07C2837.43 2582.49 2853.42 2585.91 2869.59 2589.32C2862.44 2580.33 2855.46 2570.96 2848.42 2561.71L2803.91 2547.37C2809.66 2558.09 2815.48 2568.68 2821.41 2579.07ZM2754.67 2564.76C2771.17 2568.33 2787.79 2571.89 2804.45 2575.45C2798.22 2564.31 2792.02 2553.08 2785.97 2541.59L2740.88 2527.05C2745.39 2539.77 2749.97 2552.38 2754.67 2564.76ZM2688.78 2550.41L2739.39 2561.44C2734.56 2548.48 2729.84 2535.34 2725.24 2522.01L2679.58 2507.28C2682.52 2521.85 2685.59 2536.23 2688.78 2550.41ZM2623.47 2536.01C2640.5 2539.79 2657.42 2543.56 2674.63 2547.33C2671.39 2532.67 2668.31 2517.74 2665.32 2502.68L2619.28 2487.81C2620.54 2504.09 2621.91 2520.17 2623.47 2536.01ZM2558.67 2521.59C2575.62 2525.39 2592.86 2529.2 2609.99 2533.01C2608.44 2516.73 2607.08 2500.19 2605.84 2483.47L2559.7 2468.57C2559.19 2486.46 2558.83 2504.15 2558.67 2521.59ZM2494.21 2506.96C2511.31 2510.85 2528.24 2514.74 2545.54 2518.63C2545.73 2500.79 2546.15 2482.67 2546.7 2464.36L2500.54 2449.44C2498.25 2468.84 2496.12 2488.04 2494.21 2506.96ZM2430.08 2492.3C2447.04 2496.21 2464.18 2500.12 2481.32 2504.03C2483.29 2484.73 2485.51 2465.13 2487.87 2445.34L2441.74 2430.43C2437.65 2451.29 2433.75 2471.94 2430.08 2492.3ZM2366.09 2477.43C2383.09 2481.39 2400.12 2485.36 2417.31 2489.33C2421.05 2468.62 2425.06 2447.61 2429.24 2426.38L2383.06 2411.43C2377.17 2433.7 2371.51 2455.69 2366.09 2477.43ZM2302.53 2462.47C2319.48 2466.48 2336.33 2470.49 2353.49 2474.5C2358.99 2452.42 2364.74 2430.06 2370.73 2407.44L2324.72 2392.53C2317.07 2416.12 2309.67 2439.43 2302.53 2462.47ZM6541.79 2174.72C6511.94 2182.93 6481.95 2191.22 6451.82 2199.56C6419.75 2221.35 6387.83 2242.97 6356.06 2264.4L6442.59 2240.09C6475.49 2218.5 6508.56 2196.69 6541.79 2174.72ZM6671.87 2139.11C6642.02 2147.22 6612.02 2155.43 6581.89 2163.69C6549.01 2185.49 6516.3 2207.1 6483.72 2228.54L6570.21 2204.27C6603.93 2182.74 6637.81 2161.02 6671.87 2139.11ZM6802.85 2103.86C6773.09 2111.78 6743.18 2119.8 6713.13 2127.92C6679.55 2149.59 6646.17 2171.03 6612.92 2192.32C6641.72 2184.26 6670.46 2176.27 6699.11 2168.32C6733.52 2147.02 6768.09 2125.55 6802.85 2103.86ZM6934.17 2069.47C6904.65 2077.07 6874.98 2084.81 6845.17 2092.66C6811.13 2113.96 6777.21 2135.11 6743.5 2156.04C6772.06 2148.16 6800.54 2140.35 6828.95 2132.62C6863.84 2111.76 6898.93 2090.71 6934.17 2069.47ZM7065.38 2036.43C7036.28 2043.58 7007.04 2050.9 6977.67 2058.35C6943.28 2079.13 6909.06 2099.72 6875 2120.14C6903.18 2112.53 6931.28 2105.01 6959.31 2097.59C6994.49 2077.39 7029.86 2056.98 7065.38 2036.43ZM7195.81 2005.29C7167.35 2011.87 7138.75 2018.63 7110.03 2025.55C7075.57 2045.54 7041.3 2065.32 7007.16 2084.99C7034.75 2077.77 7062.26 2070.65 7089.71 2063.65C7124.92 2044.35 7160.27 2024.9 7195.81 2005.29ZM7324.73 1976.57C7297.09 1982.48 7269.32 1988.57 7241.42 1994.86C7207.37 2013.7 7173.42 2032.45 7139.67 2051.01C7166.46 2044.29 7193.2 2037.68 7219.86 2031.2C7254.65 2013.13 7289.64 1994.89 7324.73 1976.57ZM7451.64 1950.73C7425.09 1955.85 7398.42 1961.19 7371.62 1966.72C7338.28 1984.16 7305.12 2001.46 7272.05 2018.67C7297.79 2012.56 7323.46 2006.58 7349.07 2000.73C7383.12 1984.15 7417.31 1967.49 7451.64 1950.73ZM7575.61 1928.24C7550.43 1932.51 7525.14 1936.98 7499.75 1941.66C7467.74 1957.31 7435.86 1972.86 7404.1 1988.35C7428.45 1982.97 7452.74 1977.71 7476.98 1972.59L7575.61 1928.24ZM7696.08 1909.41C7672.61 1912.76 7649.04 1916.32 7625.37 1920.08L7535.61 1960.47C7558.2 1955.89 7580.76 1951.44 7603.26 1947.14C7634.11 1934.58 7665.05 1922 7696.08 1909.41ZM7811.87 1894.54C7790.63 1896.95 7769.29 1899.58 7747.88 1902.36L7666.61 1935.33C7686.86 1931.67 7707.07 1928.14 7727.25 1924.73C7755.41 1914.64 7783.61 1904.58 7811.87 1894.54ZM7921.43 1883.85C7903.39 1885.33 7885.29 1886.94 7867.13 1888.71C7844.1 1896.84 7821.11 1904.99 7798.15 1913.16C7815.07 1910.52 7831.96 1908.01 7848.82 1905.56C7872.99 1898.27 7897.2 1891.03 7921.43 1883.85ZM8022.8 1877.09C8009.47 1877.75 7996.12 1878.49 7982.72 1879.34C7965.81 1884.28 7948.92 1889.24 7932.02 1894.23C7943.92 1892.72 7955.8 1891.24 7967.67 1889.83C7986.04 1885.52 8004.42 1881.29 8022.8 1877.09ZM8107.49 1874.07C8102.98 1874.16 8098.45 1874.32 8093.92 1874.44L8075.77 1878.45L8083.62 1877.72C8091.58 1876.48 8099.53 1875.27 8107.49 1874.07ZM3160.52 2658.92C3168.18 2659.53 3175.83 2660.09 3183.48 2660.66L3173.57 2657.54C3165.2 2656.31 3156.83 2655.06 3148.45 2653.78C3152.46 2655.53 3156.5 2657.2 3160.52 2658.92ZM3080.34 2652C3093.68 2653.24 3107.03 2654.44 3120.34 2655.58C3113.32 2652.44 3106.34 2649.19 3099.34 2645.96C3086.18 2643.81 3073.02 2641.61 3059.83 2639.34C3066.66 2643.57 3073.48 2647.88 3080.34 2652ZM3002.29 2644.27C3018.57 2645.99 3034.85 2647.69 3051.08 2649.27C3042.5 2643.95 3033.89 2638.74 3025.34 2633.25C3009.83 2630.46 2994.28 2627.53 2978.73 2624.59C2986.52 2631.31 2994.41 2637.76 3002.29 2644.27ZM2925.11 2635.66C2943.01 2637.79 2960.87 2639.87 2978.68 2641.8C2970.29 2634.67 2962.03 2627.21 2953.73 2619.84C2936.92 2616.57 2920.06 2613.1 2903.21 2609.6C2910.48 2618.35 2917.71 2627.2 2925.11 2635.66ZM2849.56 2626.39C2868.36 2628.72 2887.02 2631.08 2906.04 2633.37C2898.14 2624.15 2890.3 2614.82 2882.53 2605.34C2864.93 2601.63 2847.7 2597.92 2830.28 2594.21C2836.64 2605.07 2843.03 2615.86 2849.56 2626.39ZM2775.48 2617.11C2794.44 2619.54 2813.68 2621.93 2832.86 2624.33C2826.09 2613.21 2819.38 2602 2812.81 2590.49C2795.23 2586.74 2777.57 2582.98 2760.16 2579.22C2765.14 2592.07 2770.25 2604.69 2775.48 2617.11ZM2702.56 2607.54C2721.76 2610.09 2741.04 2612.63 2760.48 2615.15C2755.15 2602.28 2749.96 2589.18 2744.87 2575.9L2691.91 2564.37C2695.3 2578.99 2698.86 2593.36 2702.56 2607.54ZM2630.38 2597.77C2649.67 2600.42 2668.95 2603.08 2688.49 2605.69C2684.77 2591.11 2681.19 2576.31 2677.75 2561.29C2659.96 2557.39 2642.39 2553.49 2624.79 2549.59C2626.48 2565.89 2628.35 2581.94 2630.38 2597.77ZM2558.87 2587.81C2578.01 2590.53 2597.49 2593.2 2616.87 2595.89C2614.85 2579.7 2613 2563.26 2611.31 2546.59C2593.69 2542.68 2575.99 2538.75 2558.55 2534.84C2558.46 2552.75 2558.57 2570.4 2558.87 2587.81ZM2487.89 2577.46C2507.14 2580.29 2526.11 2583.17 2545.63 2585.97C2545.37 2568.21 2545.3 2550.18 2545.42 2531.9C2527.71 2527.92 2510.41 2523.94 2492.91 2519.96C2491.03 2539.39 2489.35 2558.56 2487.89 2577.46ZM2417.41 2566.99C2436.36 2569.86 2455.63 2572.69 2474.83 2575.53C2476.35 2556.3 2478.09 2536.78 2480.02 2517.03C2462.56 2513.04 2445.08 2509.06 2427.8 2505.09C2424.12 2526 2420.64 2546.63 2417.41 2566.99ZM2347.21 2556.07C2366.19 2559.05 2385.18 2562.03 2404.43 2564.97C2407.72 2544.3 2411.27 2523.34 2415.03 2502.12C2397.55 2498.08 2380.24 2494.04 2362.96 2490.01C2357.45 2512.31 2352.21 2534.33 2347.21 2556.07ZM2277.67 2544.95C2296.52 2548 2315.29 2551.06 2334.4 2554.08C2339.47 2532.03 2344.78 2509.71 2350.36 2487.08C2332.96 2483.01 2315.88 2478.95 2298.69 2474.88C2291.41 2498.53 2284.41 2521.88 2277.67 2544.95ZM6675.9 2085.55C6644.26 2094.19 6612.41 2102.94 6580.33 2111.8C6548.44 2133.67 6516.7 2155.38 6485.1 2176.91C6515.7 2168.46 6546.15 2160.06 6576.46 2151.74C6609.46 2129.86 6642.6 2107.81 6675.9 2085.55ZM6810.96 2049.17C6779.26 2057.59 6747.35 2066.17 6715.22 2074.87C6682.15 2097.01 6649.22 2119 6616.47 2140.78C6647.11 2132.4 6677.6 2124.1 6707.95 2115.89C6742.12 2093.84 6776.46 2071.6 6810.96 2049.17ZM6946.32 2013.85C6914.68 2021.93 6882.82 2030.21 6850.74 2038.65C6816.56 2060.92 6782.53 2083.02 6748.69 2104.92C6779.3 2096.69 6809.77 2088.58 6840.09 2080.59C6875.32 2058.55 6910.74 2036.28 6946.32 2013.85ZM7081.74 1980.11C7050.36 1987.7 7018.75 1995.52 6986.9 2003.54C6951.73 2025.76 6916.77 2047.76 6881.95 2069.6C6912.33 2061.68 6942.56 2053.88 6972.65 2046.25C7008.84 2024.38 7045.18 2002.37 7081.74 1980.11ZM7216.13 1948.77C7185.2 1955.71 7154.05 1962.91 7122.67 1970.34C7086.86 1992.18 7051.16 2013.91 7015.69 2035.39C7045.68 2027.89 7075.52 2020.54 7105.22 2013.38C7141.99 1992.04 7179 1970.47 7216.13 1948.77ZM7348.93 1920.39C7318.64 1926.53 7288.11 1932.97 7257.36 1939.67C7221.04 1960.93 7184.92 1982 7148.95 2002.92C7178.39 1995.96 7207.69 1989.18 7236.85 1982.6C7274.03 1962.02 7311.39 1941.3 7348.93 1920.39ZM7479.23 1895.62C7449.79 1900.82 7420.13 1906.35 7390.25 1912.18C7353.86 1932.47 7317.62 1952.64 7281.56 1972.64C7310.26 1966.34 7338.82 1960.24 7367.25 1954.36C7404.4 1934.93 7441.75 1915.32 7479.23 1895.62ZM7606.43 1874.97C7578.06 1879.13 7549.49 1883.63 7520.69 1888.47C7484.6 1907.47 7448.69 1926.33 7412.9 1945.09C7440.65 1939.56 7468.26 1934.26 7495.75 1929.18C7532.49 1911.21 7569.38 1893.14 7606.43 1874.97ZM7729.72 1858.9C7702.63 1861.94 7675.32 1865.36 7647.82 1869.11L7542.46 1920.76C7569.01 1916.1 7595.44 1911.67 7621.75 1907.48L7647.07 1896.09L7729.72 1858.9ZM7848.15 1847.89C7822.63 1849.77 7796.96 1851.97 7771.08 1854.53L7669.8 1900.09C7694.94 1896.37 7719.98 1892.85 7744.9 1889.61C7779.21 1875.72 7813.63 1861.8 7848.15 1847.89ZM7961.33 1841.95C7937.58 1842.68 7913.66 1843.74 7889.58 1845.16C7857.83 1857.93 7826.18 1870.69 7794.6 1883.46C7818.05 1880.69 7841.41 1878.14 7864.66 1875.85C7896.82 1864.51 7929.04 1853.2 7961.33 1841.95ZM8069.06 1840.95C8047.37 1840.62 8025.51 1840.67 8003.53 1841C7974.69 1850.99 7945.91 1861.04 7917.19 1871.11C7938.44 1869.35 7959.65 1867.75 7980.75 1866.41C8010.15 1857.83 8039.58 1849.34 8069.06 1840.95ZM8169.5 1844.95C8150.67 1843.75 8131.74 1842.77 8112.71 1842.07C8087.76 1849.09 8062.83 1856.17 8037.93 1863.34C8056.27 1862.52 8074.54 1861.88 8092.76 1861.41C8118.33 1855.8 8143.91 1850.31 8169.5 1844.95ZM8261.91 1853.05C8246.84 1851.34 8231.7 1849.83 8216.49 1848.5C8197.22 1852.42 8177.96 1856.41 8158.7 1860.48C8172.9 1860.45 8187.06 1860.55 8201.18 1860.76C8221.44 1858.07 8241.68 1855.48 8261.91 1853.05ZM8340.01 1863.69C8331.87 1862.39 8323.7 1861.14 8315.51 1859.96C8305.3 1861.07 8295.07 1862.22 8284.85 1863.41C8291.75 1863.74 8298.65 1864.09 8305.53 1864.49C8317.03 1864.17 8328.53 1863.89 8340.01 1863.69ZM3307.76 2683.45L3327.32 2683.38L3322.9 2682.54C3315.13 2682.13 3307.36 2681.74 3299.58 2681.31C3302.3 2682.05 3305.04 2682.72 3307.76 2683.45ZM3219.32 2683.2C3232.75 2683.32 3246.18 2683.45 3259.56 2683.49C3252.69 2681.52 3245.81 2679.63 3238.93 2677.61C3225.31 2676.71 3211.63 2675.72 3197.96 2674.74C3205.07 2677.64 3212.2 2680.38 3219.32 2683.2ZM3132.15 2682.02C3149.26 2682.36 3166.32 2682.61 3183.35 2682.83C3174.63 2679.22 3165.94 2675.42 3157.24 2671.68C3140.45 2670.35 3123.64 2668.97 3106.79 2667.49C3115.23 2672.38 3123.67 2677.28 3132.15 2682.02ZM3046.63 2679.78C3066.05 2680.38 3085.44 2680.92 3104.76 2681.37C3095.14 2675.84 3085.51 2670.36 3075.95 2664.63C3057.52 2662.92 3039.03 2661.11 3020.52 2659.22C3029.17 2666.2 3037.88 2673.05 3046.63 2679.78ZM2962.57 2676.71C2983.12 2677.57 3003.64 2678.37 3024.07 2679.06C3014.94 2671.85 3005.96 2664.25 2996.92 2656.77C2977.39 2654.71 2957.8 2652.49 2938.19 2650.23C2946.26 2659.17 2954.37 2668.03 2962.57 2676.71ZM2879.66 2672.76C2901.11 2673.81 2922.23 2674.96 2943.96 2675.93C2935.38 2666.66 2926.73 2657.52 2918.28 2647.95L2917.16 2647.82C2897.38 2645.46 2878.13 2642.99 2858.6 2640.58C2865.54 2651.45 2872.54 2662.22 2879.66 2672.76ZM2798.44 2668.67C2819.73 2669.84 2841.51 2670.86 2863.09 2671.95C2855.83 2661.01 2848.7 2649.81 2841.65 2638.49C2821.57 2636 2801.34 2633.53 2781.51 2631C2787.05 2643.73 2792.68 2656.32 2798.44 2668.67ZM2718.33 2663.95C2739.94 2665.26 2761.54 2666.57 2783.45 2667.79C2777.61 2655.06 2771.87 2642.14 2766.27 2629C2746.06 2626.39 2726.12 2623.74 2706.17 2621.1C2710.08 2635.6 2714.12 2649.89 2718.33 2663.95ZM2639.16 2658.95C2660.68 2660.39 2682.32 2661.78 2704.15 2663.11C2699.91 2648.71 2695.8 2634.11 2691.89 2619.22C2671.8 2616.53 2651.91 2613.82 2632.07 2611.1C2634.24 2627.32 2636.62 2643.25 2639.16 2658.95ZM2560.84 2653.56C2582.19 2655.1 2603.85 2656.56 2625.51 2658.01C2622.97 2642.01 2620.62 2625.76 2618.48 2609.21C2598.59 2606.46 2578.67 2603.72 2559.03 2600.93C2559.41 2618.77 2560.04 2636.27 2560.84 2653.56ZM2483.25 2647.61C2504.64 2649.29 2525.76 2651.05 2547.48 2652.64C2546.71 2635.07 2546.13 2617.22 2545.79 2599.09C2525.86 2596.24 2506.49 2593.3 2486.84 2590.41C2485.41 2609.78 2484.22 2628.83 2483.25 2647.61ZM2406.37 2641.43C2427.34 2643.21 2448.78 2644.86 2470.05 2646.56C2471.06 2627.49 2472.31 2608.14 2473.78 2588.48C2454.25 2585.59 2434.64 2582.71 2415.35 2579.78C2412.1 2600.64 2409.11 2621.18 2406.37 2641.43ZM2329.95 2634.58C2350.93 2636.49 2371.88 2638.43 2393.2 2640.26C2396 2619.73 2399.06 2598.9 2402.37 2577.76C2382.84 2574.78 2363.57 2571.75 2344.31 2568.73C2339.27 2590.97 2334.47 2612.93 2329.95 2634.58ZM2254.36 2627.4C2275.13 2629.44 2295.88 2631.47 2316.99 2633.41C2321.56 2611.49 2326.41 2589.27 2331.51 2566.73C2312.13 2563.67 2293.12 2560.56 2274.02 2557.47C2267.18 2581.09 2260.64 2604.4 2254.36 2627.4ZM6808.47 1996.56C6774.91 2005.74 6741.02 2015.12 6706.81 2024.67C6675.44 2046.38 6644.21 2067.93 6613.12 2089.32C6645.56 2080.41 6677.77 2071.59 6709.77 2062.91C6742.52 2040.98 6775.43 2018.85 6808.47 1996.56ZM6949.12 1958.84C6915.47 1967.67 6881.48 1976.75 6847.18 1986.04C6814.19 2008.34 6781.34 2030.45 6748.66 2052.4C6781.19 2043.65 6813.5 2035.04 6845.56 2026.59C6879.92 2004.2 6914.44 1981.61 6949.12 1958.84ZM7089.94 1922.87C7056.36 1931.19 7022.45 1939.79 6988.19 1948.66C6953.66 1971.38 6919.31 1993.88 6885.11 2016.23C6917.61 2007.77 6949.87 1999.48 6981.89 1991.41C7017.74 1968.76 7053.74 1945.93 7089.94 1922.87ZM7229.82 1889.52C7196.56 1897.1 7162.97 1905.02 7129 1913.27C7093.1 1936.18 7057.34 1958.94 7021.77 1981.46C7053.98 1973.48 7085.97 1965.7 7117.71 1958.17C7154.9 1935.48 7192.27 1912.59 7229.82 1889.52ZM7367.99 1859.64C7335.31 1866.29 7302.27 1873.33 7268.89 1880.73C7231.75 1903.6 7194.85 1926.22 7158.07 1948.72C7189.85 1941.34 7221.41 1934.22 7252.72 1927.38C7290.95 1904.98 7329.37 1882.41 7367.99 1859.64ZM7503.23 1834.12C7471.31 1839.65 7439.03 1845.63 7406.4 1852.01C7368.49 1874.4 7330.74 1896.64 7293.19 1918.67C7324.35 1912.07 7355.27 1905.76 7385.95 1899.76C7424.85 1878.04 7463.95 1856.17 7503.23 1834.12ZM7634.63 1813.65C7603.76 1817.88 7572.54 1822.61 7540.97 1827.77C7502.59 1849.34 7464.42 1870.74 7426.39 1892C7456.73 1886.3 7486.82 1880.93 7516.69 1875.91C7555.81 1855.31 7595.14 1834.54 7634.63 1813.65ZM7761.44 1798.82C7731.82 1801.64 7701.88 1804.97 7671.58 1808.77C7633.24 1829.08 7595.07 1849.24 7557.07 1869.29C7586.38 1864.62 7615.46 1860.31 7644.32 1856.37C7683.2 1837.3 7722.25 1818.11 7761.44 1798.82ZM7882.86 1790.06C7854.68 1791.38 7826.18 1793.23 7797.36 1795.6L7684.47 1851.11C7712.51 1847.6 7740.32 1844.48 7767.94 1841.71L7882.86 1790.06ZM7997.98 1787.77C7971.43 1787.57 7944.59 1787.9 7917.46 1788.74L7807.89 1837.97C7834.54 1835.66 7860.98 1833.72 7887.24 1832.16C7924.04 1817.36 7960.96 1802.56 7997.98 1787.77ZM8106.72 1791.81C8081.91 1790.12 8056.81 1788.99 8031.47 1788.35C7996.58 1802.26 7961.8 1816.16 7927.12 1830.09C7952.22 1828.97 7977.14 1828.22 8001.89 1827.86C8036.75 1815.77 8071.7 1803.75 8106.72 1791.81ZM8209.19 1801.91C8186.23 1798.85 8163.01 1796.34 8139.56 1794.31C8107.06 1805.35 8074.63 1816.45 8042.27 1827.61C8065.66 1827.65 8088.9 1828.02 8111.96 1828.82C8144.33 1819.72 8176.73 1810.75 8209.19 1801.91ZM8304.27 1817.98C8283.49 1813.75 8262.5 1809.97 8241.32 1806.63C8212 1814.54 8182.72 1822.56 8153.47 1830.68C8174.62 1831.87 8195.62 1833.42 8216.53 1835.25C8245.76 1829.31 8275.01 1823.55 8304.27 1817.98ZM8392.54 1839.13C8374.16 1834.02 8355.63 1829.32 8336.92 1825.02C8311.5 1829.75 8286.1 1834.63 8260.71 1839.64C8279.5 1841.72 8298.18 1844.08 8316.76 1846.76C8342.04 1844.01 8367.3 1841.46 8392.54 1839.13ZM8472.72 1864.33C8457.47 1858.92 8442.06 1853.9 8426.56 1849.13C8406.4 1850.84 8386.22 1852.7 8366.03 1854.68C8381.21 1857.36 8396.34 1860.2 8411.38 1863.28C8431.87 1863.4 8452.31 1863.78 8472.72 1864.33ZM8540.4 1890.75C8530.66 1886.61 8520.89 1882.53 8511.06 1878.63C8498.77 1878.14 8486.47 1877.72 8474.15 1877.39C8483.75 1879.75 8493.33 1882.18 8502.87 1884.74C8515.4 1886.63 8527.92 1888.64 8540.4 1890.75ZM3473.67 2694.45L3480.77 2693.91L3471.52 2694.13L3473.67 2694.45ZM3375.96 2700.94C3388.89 2700.14 3401.85 2699.36 3414.74 2698.5C3408.67 2697.52 3402.6 2696.62 3396.52 2695.62C3383.01 2695.82 3369.45 2695.96 3355.89 2696.09C3362.57 2697.77 3369.27 2699.31 3375.96 2700.94ZM3280.18 2706.39C3297.79 2705.48 3315.34 2704.51 3332.86 2703.51C3323.87 2701.18 3314.88 2698.84 3305.9 2696.42C3288.29 2696.47 3270.65 2696.48 3252.95 2696.41C3262.01 2699.85 3271.1 2703.08 3280.18 2706.39ZM3185.63 2710.77C3206.09 2709.92 3226.48 2709.01 3246.81 2708.03C3236.72 2704.2 3226.68 2700.14 3216.61 2696.14C3196.66 2695.98 3176.66 2695.7 3156.61 2695.38C3166.27 2700.58 3175.92 2705.76 3185.63 2710.77ZM3092.92 2714.19C3115.27 2713.48 3137.55 2712.71 3159.75 2711.85C3149.25 2706.26 3138.75 2700.71 3128.32 2694.89C3107.12 2694.47 3085.86 2693.93 3064.55 2693.32C3073.97 2700.39 3083.4 2707.39 3092.92 2714.19ZM3001.86 2716.59C3025.04 2716.07 3048.17 2715.5 3071.22 2714.82C3061.36 2707.61 3051.64 2700.06 3041.88 2692.6C3019.7 2691.9 2997.43 2691.06 2975.13 2690.18C2983.93 2699.23 2992.91 2707.85 3001.86 2716.59ZM2911.65 2718.06C2932.62 2717.75 2953.17 2717.61 2974.42 2717.21L2983.47 2717C2974.37 2707.94 2965.3 2698.84 2956.37 2689.42L2945.94 2689C2926.63 2688.14 2907.92 2687.11 2888.83 2686.19C2896.33 2697 2903.95 2707.61 2911.65 2718.06ZM2823.23 2719.25C2846.9 2719.05 2871.32 2718.6 2895.35 2718.28C2887.53 2707.51 2879.86 2696.5 2872.25 2685.37C2849.71 2684.25 2826.86 2683.22 2804.63 2682.02C2810.68 2694.68 2816.91 2707.04 2823.23 2719.25ZM2736.14 2719.47C2760.11 2719.44 2783.92 2719.46 2808.29 2719.29C2801.93 2706.81 2795.72 2694.07 2789.65 2681.13C2766.98 2679.88 2744.74 2678.51 2722.39 2677.16C2726.82 2691.48 2731.4 2705.61 2736.14 2719.47ZM2650.09 2719.37C2673.84 2719.5 2697.88 2719.52 2722.01 2719.51C2717.25 2705.36 2712.67 2690.93 2708.21 2676.33C2685.78 2674.96 2663.5 2673.54 2641.41 2672.08C2644.14 2688.07 2647.01 2703.86 2650.09 2719.37ZM2564.99 2718.62C2588.58 2718.9 2612.43 2719.1 2636.41 2719.25C2633.34 2703.47 2630.47 2687.41 2627.74 2671.14C2605.57 2669.65 2583.43 2668.14 2561.58 2666.57C2562.54 2684.16 2563.65 2701.54 2564.99 2718.62ZM2480.74 2717.21C2504.24 2717.66 2527.59 2718.18 2551.5 2718.5C2550.18 2701.15 2549.07 2683.51 2548.15 2665.64C2526.02 2664.01 2504.48 2662.25 2482.7 2660.53C2481.83 2679.7 2481.16 2698.6 2480.74 2717.21ZM2397.32 2715.45C2420.33 2716.06 2443.97 2716.46 2467.34 2716.93C2467.81 2698.06 2468.48 2678.93 2469.4 2659.48C2447.77 2657.75 2425.99 2656.07 2404.67 2654.26C2401.96 2674.96 2399.52 2695.35 2397.32 2715.45ZM2314.52 2712.73C2337.55 2713.52 2360.48 2714.35 2383.94 2715.01C2386.19 2694.66 2388.66 2674.04 2391.43 2653.06C2369.83 2651.2 2348.6 2649.24 2327.33 2647.29C2322.78 2669.41 2318.51 2691.23 2314.52 2712.73ZM2232.77 2709.6C2255.52 2710.55 2278.33 2711.48 2301.46 2712.3C2305.49 2690.56 2309.79 2668.5 2314.38 2646.13C2292.99 2644.14 2271.98 2642.07 2250.93 2640C2244.58 2663.53 2238.53 2686.73 2232.77 2709.6ZM6938.79 1908.23C6903.06 1918.14 6866.89 1928.34 6830.32 1938.76C6799.82 1960.06 6769.45 1981.18 6739.21 2002.16C6773.72 1992.59 6807.91 1983.22 6841.78 1974.04C6873.98 1952.27 6906.32 1930.33 6938.79 1908.23ZM7086.44 1868.31C7050.61 1877.71 7014.33 1887.45 6977.56 1897.53C6944.99 1919.75 6912.56 1941.79 6880.27 1963.67C6914.88 1954.39 6949.15 1945.34 6983.09 1936.54C7017.4 1913.97 7051.82 1891.24 7086.44 1868.31ZM7233.28 1831.15C7197.61 1839.8 7161.45 1848.88 7124.81 1858.32C7090.27 1881.25 7055.87 1904.03 7021.65 1926.6C7056.17 1917.77 7090.33 1909.26 7124.15 1901.04C7160.35 1877.93 7196.73 1854.64 7233.28 1831.15ZM7378.49 1797.75C7343.29 1805.37 7307.59 1813.49 7271.4 1822.04C7234.96 1845.51 7198.72 1868.73 7162.61 1891.82C7196.8 1883.7 7230.65 1875.89 7264.13 1868.44C7302.04 1845.09 7340.21 1821.48 7378.49 1797.75ZM7520.85 1769.16C7486.38 1775.48 7451.41 1782.37 7415.91 1789.78C7377.87 1813.4 7340.02 1836.84 7302.34 1860.09C7335.93 1852.85 7369.17 1845.98 7402.05 1839.53C7441.48 1816.25 7481.03 1792.83 7520.85 1769.16ZM7658.81 1746.48C7625.42 1751.26 7591.55 1756.62 7557.13 1762.61C7517.87 1785.99 7478.74 1809.25 7439.85 1832.26C7472.63 1826.1 7505.05 1820.36 7537.11 1815.09C7577.48 1792.4 7618.06 1769.52 7658.81 1746.48ZM7791.28 1730.57C7759.25 1733.59 7726.73 1737.28 7693.69 1741.63C7653.6 1764.32 7613.74 1786.81 7574.02 1809.17C7605.76 1804.26 7637.14 1799.83 7668.18 1795.89C7709.02 1774.27 7750.07 1752.48 7791.28 1730.57ZM7917.05 1722.19C7886.61 1723.32 7855.66 1725.2 7824.25 1727.72C7784.05 1749.11 7744.03 1770.38 7704.17 1791.5C7734.66 1787.98 7764.79 1784.98 7794.58 1782.51L7917.05 1722.19ZM8035.4 1721.65C8006.76 1720.82 7977.64 1720.74 7948.09 1721.35L7829.19 1779.93C7858.19 1777.94 7886.89 1776.44 7915.25 1775.51C7955.15 1757.6 7995.2 1739.64 8035.4 1721.65ZM8146.17 1728.89C8119.42 1726.1 8092.25 1724.07 8064.64 1722.76C8025.88 1740.1 7987.25 1757.43 7948.77 1774.69C7976.21 1774.23 8003.35 1774.29 8030.19 1774.92C8068.73 1759.56 8107.39 1744.22 8146.17 1728.89ZM8249.28 1743.74C8224.49 1739.07 8199.33 1735.1 8173.73 1731.93C8136.58 1746.58 8099.55 1761.25 8062.63 1775.93C8088.44 1776.98 8113.98 1778.57 8139.23 1780.74C8175.82 1768.32 8212.52 1755.98 8249.28 1743.74ZM8344.17 1766C8321.37 1759.6 8298.21 1753.95 8274.71 1748.94C8239.96 1760.47 8205.28 1772.08 8170.69 1783.77C8194.65 1786.33 8218.35 1789.45 8241.81 1793.07C8275.88 1783.9 8310 1774.87 8344.17 1766ZM8431.95 1794.83C8411.14 1786.89 8390.03 1779.63 8368.57 1773.07C8336.58 1781.31 8304.63 1789.7 8272.71 1798.21C8294.92 1802.13 8316.91 1806.54 8338.66 1811.51C8369.75 1805.74 8400.85 1800.16 8431.95 1794.83ZM8512.18 1829.73C8493.41 1820.54 8474.34 1812.05 8455.03 1804.09C8426.63 1808.86 8398.25 1813.82 8369.87 1818.97C8389.94 1824.1 8409.77 1829.8 8429.46 1835.87C8457.05 1833.55 8484.63 1831.5 8512.18 1829.73ZM8585.01 1869.53C8568.57 1859.59 8551.93 1850.14 8535.05 1841.27C8510.6 1842.72 8486.13 1844.41 8461.63 1846.29C8479.66 1852.36 8497.55 1858.82 8515.25 1865.78C8538.55 1866.75 8561.81 1867.98 8585.01 1869.53ZM8650.26 1912.71C8636.58 1902.84 8622.77 1893.28 8608.77 1884.24C8589.54 1882.77 8570.27 1881.57 8550.97 1880.53C8565.83 1886.97 8580.56 1893.78 8595.19 1900.85C8613.62 1904.52 8631.96 1908.5 8650.26 1912.71ZM8705.31 1955.41C8695.86 1947.52 8686.32 1939.85 8676.69 1932.43C8664.45 1929.4 8652.18 1926.49 8639.88 1923.72C8650.16 1929.27 8660.4 1934.96 8670.58 1940.85C8682.2 1945.54 8693.78 1950.39 8705.31 1955.41ZM3550.99 2704.94L3586.25 2700.59L3572.76 2699.75C3560.05 2700.79 3547.36 2701.86 3534.61 2702.85L3550.99 2704.94ZM3446.15 2717.2C3463.77 2715.22 3481.34 2713.21 3498.87 2711.16C3490.29 2709.97 3481.7 2708.73 3473.11 2707.48C3455.11 2708.77 3437.04 2710 3418.94 2711.2C3428.01 2713.28 3437.07 2715.21 3446.15 2717.2ZM3342.86 2728.3C3363.98 2726.12 3385.05 2723.88 3406.04 2721.6C3395.56 2719.16 3385.09 2716.58 3374.61 2714C3353.61 2715.29 3332.55 2716.52 3311.42 2717.67C3321.88 2721.33 3332.37 2724.8 3342.86 2728.3ZM3241.17 2738.35C3264.72 2736.13 3288.22 2733.86 3311.61 2731.51C3300.37 2727.61 3289.17 2723.53 3277.95 2719.47C3255.14 2720.64 3232.23 2721.72 3209.27 2722.73C3219.87 2728.02 3230.5 2733.27 3241.17 2738.35ZM3141.2 2747.34C3166.27 2745.19 3191.25 2742.96 3216.14 2740.67C3204.86 2735.15 3193.58 2729.64 3182.39 2723.87C3158.58 2724.85 3134.7 2725.75 3110.74 2726.56C3120.85 2733.59 3130.97 2740.61 3141.2 2747.34ZM3043.1 2755.27C3068.86 2753.29 3094.57 2751.26 3120.14 2749.12C3109.61 2742.02 3099.17 2734.65 3088.74 2727.26C3064.15 2728.04 3039.44 2728.67 3014.67 2729.26C3024.03 2738.17 3033.57 2746.71 3043.1 2755.27ZM2945.61 2762.19C2964.62 2760.87 2983.13 2759.78 3002.38 2758.37C3009.87 2757.82 3017.32 2757.24 3024.79 2756.66C3015.19 2747.85 3005.68 2738.86 2996.25 2729.67C2989.05 2729.84 2981.86 2730.02 2974.63 2730.15C2956.49 2730.5 2939 2730.61 2921.06 2730.88C2929.11 2741.56 2937.32 2751.94 2945.61 2762.19ZM2850.18 2768.62C2876.23 2767 2903 2765.08 2929.47 2763.28C2921.12 2752.75 2912.87 2742.04 2904.74 2731.1C2879.81 2731.45 2854.59 2731.9 2830.04 2732.11C2836.63 2744.49 2843.32 2756.69 2850.18 2768.62ZM2755.88 2773.96C2782.34 2772.51 2808.45 2771.2 2835.37 2769.56C2828.46 2757.34 2821.69 2744.88 2815.04 2732.22C2789.84 2732.41 2765.31 2732.36 2740.53 2732.4C2745.46 2746.53 2750.59 2760.38 2755.88 2773.96ZM2662.98 2778.85C2688.92 2777.61 2715.4 2776.17 2741.79 2774.74C2736.48 2760.91 2731.35 2746.79 2726.39 2732.44C2701.67 2732.45 2676.99 2732.45 2652.66 2732.33C2655.9 2748.11 2659.33 2763.63 2662.98 2778.85ZM2571.12 2782.8C2596.96 2781.76 2622.97 2780.67 2649.28 2779.44C2645.64 2763.98 2642.22 2748.22 2638.97 2732.21C2614.47 2732.05 2590.15 2731.84 2566.05 2731.55C2567.52 2748.91 2569.2 2766.02 2571.12 2782.8ZM2480.24 2786.05C2505.86 2785.22 2531.46 2784.4 2557.55 2783.39C2555.66 2766.36 2554 2749.02 2552.54 2731.42C2528.21 2731.1 2504.42 2730.58 2480.51 2730.11C2480.19 2749.05 2480.08 2767.71 2480.24 2786.05ZM2390.34 2788.76C2415.42 2788.15 2441.22 2787.25 2466.75 2786.46C2466.62 2767.89 2466.76 2749 2467.11 2729.84C2443.36 2729.34 2419.34 2728.95 2395.98 2728.32C2393.85 2748.77 2391.96 2768.93 2390.34 2788.76ZM2301.06 2790.32C2326.21 2789.94 2351.15 2789.64 2376.82 2789.05C2378.48 2768.98 2380.42 2748.57 2382.6 2727.87C2358.8 2727.2 2335.53 2726.35 2312.16 2725.53C2308.18 2747.46 2304.48 2769.04 2301.06 2790.32ZM2213.13 2791.36C2237.85 2791.17 2262.78 2790.9 2287.95 2790.54C2291.38 2769.05 2295.1 2747.25 2299.11 2725.1C2275.71 2724.26 2252.62 2723.3 2229.6 2722.34C2223.8 2745.68 2218.3 2768.69 2213.13 2791.36ZM7222.02 1778.03C7183.82 1788.18 7144.91 1798.89 7105.44 1809.96C7073.61 1831.84 7041.92 1853.57 7010.36 1875.14C7047.27 1865.15 7083.72 1855.5 7119.7 1846.2C7153.66 1823.66 7187.76 1800.92 7222.02 1778.03ZM7376.31 1738.86C7338.33 1748.01 7299.66 1757.73 7260.35 1767.97C7225.96 1790.99 7191.73 1813.82 7157.64 1836.5C7194.46 1827.17 7230.78 1818.24 7266.61 1809.75C7302.99 1786.33 7339.6 1762.65 7376.31 1738.86ZM7527.93 1704.72C7490.57 1712.48 7452.57 1720.87 7413.82 1729.93C7377.07 1753.78 7340.49 1777.47 7304.07 1800.96C7340.39 1792.57 7376.16 1784.69 7411.45 1777.29C7450.12 1753.26 7488.9 1729.12 7527.93 1704.72ZM7675.17 1677.04C7638.88 1683.05 7601.82 1689.88 7564.07 1697.38C7525.3 1721.65 7486.65 1745.81 7448.24 1769.71C7483.76 1762.54 7518.75 1755.9 7553.23 1749.87C7593.69 1725.78 7634.32 1701.51 7675.17 1677.04ZM7815.96 1657.36C7781.18 1661.28 7745.72 1666.01 7709.52 1671.56C7668.99 1695.88 7628.64 1720 7588.49 1743.94C7622.9 1738.27 7656.85 1733.15 7690.24 1728.71C7731.94 1705.11 7773.86 1681.31 7815.96 1657.36ZM7949.28 1646.38C7916.29 1647.96 7882.56 1650.55 7848.13 1653.96C7806.54 1677.64 7765.18 1701.11 7723.97 1724.47C7756.97 1720.48 7789.48 1717.14 7821.48 1714.51C7863.88 1691.94 7906.49 1669.23 7949.28 1646.38ZM8073.43 1645.08C8042.59 1644.2 8011.09 1644.27 7978.92 1645.25C7936.98 1667.66 7895.2 1689.95 7853.64 1712.09C7884.97 1709.95 7915.83 1708.52 7946.19 1707.82L8073.43 1645.08ZM8188.32 1653.31C8159.75 1649.93 8130.57 1647.51 8100.72 1646.08L7976.58 1707.31C8006.11 1707.1 8035.15 1707.66 8063.75 1708.95C8105.12 1690.44 8146.64 1671.9 8188.32 1653.31ZM8293.7 1670.97C8267.4 1665.13 8240.45 1660.38 8212.94 1656.53C8172.53 1674.54 8132.25 1692.52 8092.12 1710.47C8119.77 1712.23 8146.96 1714.74 8173.73 1718.03C8213.59 1702.31 8253.58 1686.62 8293.7 1670.97ZM8389.45 1697.66C8365.45 1689.51 8340.87 1682.45 8315.79 1676.25C8277.06 1691.33 8238.45 1706.46 8199.95 1721.6C8225.63 1725.31 8250.93 1729.71 8275.82 1734.92C8313.61 1722.39 8351.48 1709.97 8389.45 1697.66ZM8476.28 1732.6C8454.52 1722.36 8432.23 1713.14 8409.49 1704.8C8373.15 1716.54 8336.9 1728.38 8300.73 1740.33C8324.53 1745.82 8347.96 1752.04 8371.01 1759.07C8406.06 1750.07 8441.14 1741.23 8476.28 1732.6ZM8554.7 1775.01C8535.06 1762.91 8514.95 1751.81 8494.42 1741.51C8460.93 1749.69 8427.49 1758.04 8394.08 1766.55C8415.89 1773.81 8437.39 1781.7 8458.55 1790.35C8490.59 1784.99 8522.64 1779.87 8554.7 1775.01ZM8625.22 1824C8607.63 1810.37 8589.64 1797.62 8571.29 1785.64C8541.22 1790.13 8511.14 1794.83 8481.09 1799.75C8500.99 1808.46 8520.55 1817.92 8539.85 1828.01C8568.34 1826.36 8596.79 1825.03 8625.22 1824ZM8688.62 1878.45C8673.05 1863.67 8657.15 1849.68 8640.91 1836.45C8614.51 1837.31 8588.09 1838.44 8561.65 1839.83C8579.69 1849.83 8597.52 1860.36 8615.04 1871.66C8639.63 1873.58 8664.15 1875.85 8688.62 1878.45ZM8745.05 1937.13C8731.6 1921.87 8717.89 1907.22 8703.9 1893.26C8681.76 1890.76 8659.58 1888.55 8637.34 1886.61C8653.23 1897.53 8668.93 1908.92 8684.41 1920.92C8704.69 1925.99 8724.92 1931.35 8745.05 1937.13ZM8794.61 1997.91C8783.53 1983.19 8772.23 1969.04 8760.74 1955.38C8743.69 1950.28 8726.59 1945.41 8709.43 1940.83C8722.63 1951.77 8735.62 1963.27 8748.51 1975.06C8763.95 1982.4 8779.34 1989.96 8794.61 1997.91ZM8835.37 2055.84C8827.82 2044.38 8820.15 2033.24 8812.39 2022.32C8801.71 2016.51 8791 2010.83 8780.24 2005.32C8789.56 2014.57 8798.8 2024.05 8807.95 2033.79C8817.14 2040.98 8826.28 2048.32 8835.37 2055.84ZM7066.64 1820.9C7028.47 1831.75 6989.72 1842.99 6950.39 1854.58C6921.1 1875.19 6891.92 1895.67 6862.86 1916C6899.75 1905.56 6936.19 1895.39 6972.17 1885.53C7003.53 1864.15 7035.02 1842.59 7066.64 1820.9ZM3744.37 2694.87C3754.44 2693.13 3764.53 2691.41 3774.57 2689.65L3766.61 2689.82C3755.27 2691.41 3743.91 2692.99 3732.53 2694.55C3736.48 2694.68 3740.42 2694.75 3744.37 2694.87ZM3630.15 2714.15C3647.32 2711.33 3664.45 2708.47 3681.53 2705.6C3673.68 2705.26 3665.83 2704.9 3657.97 2704.52C3640.33 2706.82 3622.66 2709.1 3604.92 2711.33C3613.34 2712.29 3621.75 2713.27 3630.15 2714.15ZM3518.14 2732.13C3539.7 2728.76 3561.2 2725.36 3582.6 2721.91C3572.04 2720.67 3561.47 2719.35 3550.9 2718.02C3529.35 2720.63 3507.71 2723.19 3486.02 2725.7C3496.72 2727.91 3507.43 2730.05 3518.14 2732.13ZM3407.74 2748.95C3432.19 2745.33 3456.52 2741.66 3480.77 2737.93C3468.95 2735.5 3457.15 2732.93 3445.33 2730.36C3421.35 2733.05 3397.25 2735.65 3373.09 2738.21C3384.62 2741.89 3396.17 2745.46 3407.74 2748.95ZM3298.82 2764.62C3325.25 2760.93 3351.55 2757.16 3377.76 2753.33C3365.55 2749.49 3353.36 2745.56 3341.19 2741.52C3315.72 2744.14 3290.17 2746.71 3264.51 2749.18C3275.91 2754.43 3287.34 2759.63 3298.82 2764.62ZM3191.66 2779.18C3219.34 2775.53 3246.95 2771.81 3274.41 2768.02C3262.41 2762.64 3250.39 2757.28 3238.47 2751.63C3212.15 2754.11 3185.7 2756.48 3159.18 2758.79C3169.97 2765.69 3180.74 2772.6 3191.66 2779.18ZM3086.5 2792.68C3114.76 2789.16 3142.92 2785.59 3170.94 2781.92C3159.77 2775.01 3148.69 2767.89 3137.66 2760.67C3110.71 2762.97 3083.62 2765.15 3056.46 2767.27C3066.37 2775.95 3076.41 2784.36 3086.5 2792.68ZM2981.9 2805.07C2998.18 2803.17 3013.93 2801.52 3030.37 2799.54C3043.01 2798.03 3055.58 2796.47 3068.16 2794.92C3058.03 2786.4 3048.05 2777.58 3038.11 2768.67C3026.52 2769.56 3014.93 2770.46 3003.28 2771.31C2987.17 2772.49 2971.69 2773.4 2955.73 2774.51C2964.34 2784.9 2973.06 2795.1 2981.9 2805.07ZM2879.39 2816.74C2907.75 2813.64 2936.73 2810.26 2965.59 2806.92C2956.68 2796.69 2947.85 2786.33 2939.18 2775.63C2911.84 2777.5 2884.34 2779.44 2857.45 2781.13C2864.61 2793.24 2871.94 2805.09 2879.39 2816.74ZM2778.21 2827.29C2806.91 2824.37 2835.26 2821.6 2864.49 2818.44C2857.02 2806.56 2849.64 2794.51 2842.46 2782.13C2814.87 2783.83 2788.16 2785.17 2761.05 2786.66C2766.62 2800.43 2772.32 2814 2778.21 2827.29ZM2678.32 2837.28C2706.42 2834.63 2735.33 2831.61 2763.94 2828.73C2758.04 2815.22 2752.3 2801.47 2746.74 2787.45C2719.77 2788.91 2692.66 2790.43 2666.14 2791.7C2670 2807.17 2674.06 2822.35 2678.32 2837.28ZM2579.53 2846C2607.64 2843.58 2635.77 2841.17 2664.43 2838.5C2660.2 2823.36 2656.1 2808 2652.27 2792.29C2625.41 2793.55 2598.93 2794.65 2572.55 2795.71C2574.63 2812.8 2576.99 2829.51 2579.53 2846ZM2481.88 2854C2509.6 2851.85 2537.52 2849.61 2565.79 2847.21C2563.28 2830.53 2560.97 2813.59 2558.94 2796.28C2532.41 2797.32 2506.35 2798.16 2480.3 2798.99C2480.56 2817.67 2481.1 2835.99 2481.88 2854ZM2385.44 2861.2C2412.64 2859.32 2440.51 2857.14 2468.25 2855.02C2467.5 2836.82 2467.03 2818.26 2466.81 2799.4C2440.89 2800.2 2414.73 2801.1 2389.28 2801.71C2387.72 2821.88 2386.42 2841.72 2385.44 2861.2ZM2289.78 2867.19C2317.02 2865.57 2343.93 2864.12 2371.81 2862.22C2372.83 2842.5 2374.15 2822.41 2375.75 2802C2349.74 2802.59 2324.49 2802.88 2299.02 2803.26C2295.64 2824.9 2292.56 2846.22 2289.78 2867.19ZM2195.6 2872.5C2222.31 2871.13 2249.46 2869.57 2276.65 2867.98C2279.43 2846.83 2282.51 2825.32 2285.91 2803.47C2260.45 2803.82 2235.22 2804.1 2210.21 2804.27C2205.01 2827.37 2200.15 2850.12 2195.6 2872.5ZM4917.83 3149.98C4906.96 3156.49 4895.99 3163.11 4885.17 3169.55L4899.55 3163.23C4911.47 3156.43 4923.39 3149.65 4935.38 3142.77L4917.83 3149.98ZM5042.75 3074.57C5026 3084.78 5009.37 3094.85 4992.74 3104.91C5002.76 3100.7 5012.71 3096.56 5022.78 3092.29C5039.72 3082.43 5056.83 3072.37 5073.91 3062.36C5063.48 3066.47 5053.11 3070.53 5042.75 3074.57ZM5168.63 2997.15C5147.91 3009.99 5127.28 3022.73 5106.74 3035.36C5120.22 3029.97 5133.7 3024.58 5147.26 3019.09C5168.16 3006.7 5189.14 2994.2 5210.23 2981.59C5196.31 2986.84 5182.46 2992.01 5168.63 2997.15ZM5295.92 2917.65C5272.23 2932.57 5248.61 2947.4 5225.15 2962.04C5241.33 2955.89 5257.58 2949.67 5273.89 2943.36C5297.61 2929.05 5321.44 2914.59 5345.39 2900C5328.84 2905.96 5312.36 2911.83 5295.92 2917.65ZM5424.12 2836.26C5397.98 2852.97 5371.99 2869.5 5346.12 2885.9C5364.42 2879.3 5382.79 2872.59 5401.24 2865.78C5427.43 2849.71 5453.77 2833.46 5480.23 2817.07C5461.46 2823.54 5442.74 2829.96 5424.12 2836.26ZM5553.07 2753.23C5525.3 2771.24 5497.65 2789.1 5470.16 2806.77C5490.21 2799.87 5510.26 2792.97 5530.46 2785.88C5558.38 2768.48 5586.43 2750.91 5614.63 2733.15C5594.04 2739.94 5573.53 2746.63 5553.07 2753.23ZM5682.55 2668.71C5653.3 2687.94 5624.21 2706.95 5595.26 2725.81C5616.92 2718.71 5638.67 2711.48 5660.48 2704.18C5689.8 2685.63 5719.29 2666.89 5748.93 2647.96C5726.76 2654.95 5704.62 2661.89 5682.55 2668.71ZM5811.97 2583.1C5781.69 2603.25 5751.57 2623.21 5721.6 2642.98C5744.72 2635.73 5767.9 2628.41 5791.15 2620.96C5821.61 2601.42 5852.24 2581.68 5883.02 2561.75C5859.3 2568.95 5835.61 2576.06 5811.97 2583.1ZM5941.38 2496.52C5910.4 2517.38 5879.58 2538.05 5848.92 2558.53C5873.36 2551.17 5897.83 2543.74 5922.35 2536.21C5953.64 2515.88 5985.08 2495.36 6016.71 2474.63C5991.58 2481.99 5966.47 2489.29 5941.38 2496.52ZM6069.95 2409.41C6038.57 2430.77 6007.35 2451.94 5976.29 2472.92C6002.21 2465.39 6028.14 2457.78 6054.08 2450.12C6085.85 2429.21 6117.8 2408.08 6149.91 2386.78C6123.28 2394.37 6096.62 2401.9 6069.95 2409.41ZM6197.45 2322.16C6166.02 2343.77 6134.75 2365.21 6103.63 2386.46C6130.92 2378.74 6158.18 2370.97 6185.42 2363.17C6217.47 2341.84 6249.69 2320.3 6282.07 2298.58C6253.93 2306.44 6225.73 2314.31 6197.45 2322.16ZM6323.46 2235.07C6292.26 2256.74 6261.23 2278.22 6230.32 2299.55C6259.14 2291.53 6287.88 2283.49 6316.54 2275.47C6348.56 2253.92 6380.74 2232.2 6413.07 2210.28L6394.6 2215.39L6323.46 2235.07ZM6446.94 2148.84C6416.3 2170.32 6385.8 2191.62 6355.43 2212.77L6391.14 2202.9L6446.38 2187.61C6478.09 2166.05 6509.96 2144.33 6541.96 2122.42C6510.49 2131.14 6478.82 2139.94 6446.94 2148.84ZM6567.46 2063.94C6537.74 2084.96 6508.14 2105.84 6478.67 2126.55C6510.95 2117.57 6543.04 2108.66 6574.88 2099.86C6605.95 2078.54 6637.15 2057.05 6668.5 2035.39C6635.11 2044.77 6601.45 2054.28 6567.46 2063.94ZM6684.27 1981C6655.85 2001.26 6627.52 2021.42 6599.32 2041.4C6633.66 2031.68 6667.71 2022.09 6701.42 2012.68C6731.51 1991.84 6761.76 1970.82 6792.1 1949.68C6756.59 1959.89 6720.6 1970.36 6684.27 1981ZM6796.47 1900.73C6769.72 1919.93 6743.01 1939.11 6716.45 1958.08C6753.01 1947.43 6789.11 1937.01 6824.85 1926.81C6853.66 1906.68 6882.57 1886.46 6911.61 1866.06C6873.77 1877.32 6835.39 1888.88 6796.47 1900.73ZM6678.65 1969.11C6704.94 1950.36 6731.33 1931.5 6757.81 1912.52C6637.85 1949.23 6512.84 1988.42 6382.63 2029.24C5906.82 2178.4 5361.6 2349.32 4738.94 2500.66C5345.03 2367.12 5880.54 2207.06 6352.99 2065.82C6465.06 2032.32 6573.55 1999.89 6678.65 1969.11ZM6561.91 2052.02C6589.95 2032.19 6618.08 2012.24 6646.33 1992.14C6552.5 2019.75 6456.04 2048.57 6356.7 2078.26C5803.26 2243.7 5163.36 2434.98 4424.77 2579.27C5150.18 2457.04 5786.55 2274.4 6345.26 2114.01C6418.83 2092.89 6491 2072.18 6561.91 2052.02ZM6441.37 2136.94C6470.79 2116.3 6500.31 2095.55 6529.98 2074.61C6470.5 2091.57 6410.14 2108.89 6348.81 2126.5C5716.35 2308.05 4984.47 2518.11 4136.34 2636.94C4973.01 2546.84 5708.24 2341.6 6357.28 2160.4L6441.37 2136.94ZM6317.98 2223.14C6348.37 2202.01 6378.9 2180.71 6409.56 2159.25L6360.74 2172.89C5670.62 2365.56 4883.14 2585.41 3979.7 2665.36L3951.81 2670.64C4825.44 2629.27 5609.39 2419.02 6317.98 2223.14ZM6192.02 2310.19C6223.09 2288.81 6254.31 2267.24 6285.67 2245.51C5561.21 2445.5 4758.37 2657.18 3861.7 2687.27C3844.73 2690.35 3827.71 2693.4 3810.63 2696.44C4660.48 2711.25 5451.32 2515.58 6192.02 2310.19ZM6064.48 2397.5C6095.9 2376.09 6127.48 2354.5 6159.22 2332.72C5409.07 2539.91 4607.6 2733.87 3745.23 2707.9C3723.56 2711.65 3701.82 2715.35 3680 2719.03C4496.1 2794.46 5290.35 2615.2 6064.48 2397.5ZM5936.02 2484.56C5967.5 2463.36 5999.15 2441.95 6030.95 2420.35C5251.97 2637.96 4452.55 2813.41 3630.45 2727.26C3605.86 2731.31 3581.15 2735.3 3556.37 2739.25C4330.61 2879.34 5126.21 2717.79 5936.02 2484.56ZM5806.59 2571.17C5837.85 2550.36 5869.28 2529.35 5900.87 2508.14C5090.11 2739.46 4293.52 2895.41 3517.69 2745.34C3491.04 2749.5 3464.25 2753.6 3437.36 2757.64C4162.73 2966.26 4958.38 2823.4 5806.59 2571.17ZM5677.16 2656.79C5707.91 2636.57 5738.83 2616.15 5769.92 2595.54C4924.09 2844.08 4130.6 2979.94 3406.51 2762.25C3378.52 2766.39 3350.38 2770.44 3322.14 2774.44C3992.4 3055.16 4787.43 2931.73 5677.16 2656.79ZM5547.62 2741.38C5577.61 2721.92 5607.77 2702.27 5638.09 2682.41C4753.89 2951.74 3963.7 3066.92 3296.63 2778.05C3267.89 2782.06 3239 2786 3210 2789.86C3819.34 3146.1 4613.22 3042.8 5547.62 2741.38ZM5418.92 2824.24C5447.83 2805.75 5476.9 2787.08 5506.14 2768.21C4580.4 3061.92 3793.67 3155.82 3188.65 2792.68C3159.37 2796.54 3129.98 2800.33 3100.44 2804.04C3643.6 3239.03 4436.39 3156.12 5418.92 2824.24ZM5290.51 2905.79C5318.05 2888.44 5345.76 2870.89 5373.61 2853.17C4403.26 3174.81 3620.14 3246.8 3082.08 2806.3C3065.39 2808.36 3048.68 2810.43 3031.9 2812.44C3018.59 2814.04 3005.87 2815.36 2992.67 2816.9C3464.6 3334.33 4256.43 3272.14 5290.51 2905.79ZM5163.12 2985.36C5188.91 2969.38 5214.82 2953.25 5240.88 2936.93C4222.48 3290.11 3442.61 3339.87 2976.22 2818.78C2946.35 2822.25 2916.53 2825.7 2887.2 2828.92C3179.88 3274.47 3688.43 3368.11 4373.62 3223.02C4615.39 3171.83 4879.17 3090.9 5163.12 2985.36ZM5037.17 3062.84C5060.64 3048.54 5084.28 3034.03 5107.98 3019.44C4846.07 3114.52 4601.67 3188.01 4376.31 3235.72C3681.7 3382.8 3166.99 3286.4 2872.3 2830.62C2842.33 2833.87 2813.17 2836.76 2783.77 2839.77C3054.54 3432.34 3675.33 3501.7 4571.26 3226.51C4719.18 3181.07 4874.64 3126.21 5037.17 3062.84ZM4912.21 3138.29C4932.89 3125.91 4953.61 3113.49 4974.48 3100.87C4835.95 3153.48 4702.72 3199.69 4575.07 3238.89C3668.49 3517.35 3041.24 3445.52 2769.49 2841.21C2740.28 2844.16 2710.7 2847.27 2682.02 2849.98C2877.03 3509.38 3471.37 3612.99 4379.86 3331.48C4546.88 3279.73 4724.55 3214.93 4912.21 3138.29ZM4789.28 3211.21C4805.95 3201.43 4822.74 3191.48 4839.54 3181.54C4679.96 3244.84 4527.88 3299.19 4383.67 3343.87C3464.03 3628.83 2863.3 3522.55 2668.12 2851.2C2638.89 2853.92 2610.29 2856.35 2581.62 2858.82C2699.75 3585.99 3267.26 3724.32 4188.43 3436.44C4374.57 3378.27 4575.16 3302.7 4789.28 3211.21ZM2122.43 2804.48C2115.46 2828.94 2108.83 2853.03 2102.54 2876.75C2128.79 2875.68 2155.44 2874.44 2182.29 2873.11C2186.85 2850.53 2191.73 2827.6 2196.94 2804.3C2171.89 2804.44 2146.93 2804.55 2122.43 2804.48ZM2147.87 2718.59C2140.3 2743.28 2133.07 2767.61 2126.14 2791.61C2150.38 2791.66 2175.07 2791.55 2199.86 2791.4C2205.06 2768.52 2210.59 2745.29 2216.43 2721.73C2193.4 2720.74 2170.4 2719.74 2147.87 2718.59ZM2175.21 2632.36C2167.09 2657.22 2159.29 2681.74 2151.79 2705.92C2174.07 2707.06 2196.81 2708.04 2219.58 2709.01C2225.38 2685.9 2231.48 2662.47 2237.88 2638.69C2216.85 2636.62 2195.8 2634.54 2175.21 2632.36ZM2204.22 2546.01C2195.61 2570.95 2187.33 2595.55 2179.32 2619.86C2199.7 2622 2220.51 2624.05 2241.3 2626.09C2247.64 2602.82 2254.25 2579.25 2261.15 2555.35C2242.07 2552.25 2222.95 2549.15 2204.22 2546.01ZM2234.73 2459.68C2225.7 2484.64 2216.98 2509.27 2208.52 2533.61C2227.04 2536.73 2245.93 2539.78 2264.8 2542.84C2271.62 2519.48 2278.71 2495.83 2286.06 2471.88C2268.87 2467.81 2251.65 2463.74 2234.73 2459.68ZM2266.51 2373.67C2257.14 2398.55 2248.04 2423.12 2239.19 2447.43C2255.91 2451.44 2272.92 2455.46 2289.9 2459.48C2297.14 2436.11 2304.64 2412.47 2312.39 2388.54L2266.51 2373.67ZM2299.36 2288.26C2289.7 2312.95 2280.28 2337.39 2271.11 2361.54L2316.4 2376.22C2324 2352.94 2331.84 2329.4 2339.92 2305.6C2326.37 2299.79 2312.8 2293.96 2299.36 2288.26ZM2333.01 2203.74C2323.13 2228.14 2313.47 2252.3 2304.08 2276.18C2317.34 2281.81 2330.74 2287.56 2344.12 2293.29C2352.01 2270.22 2360.11 2246.91 2368.45 2223.33C2356.62 2216.77 2344.78 2210.17 2333.01 2203.74ZM2367.19 2120.51C2357.22 2144.45 2347.46 2168.15 2337.91 2191.64C2349.53 2197.98 2361.2 2204.47 2372.86 2210.95C2380.94 2188.24 2389.24 2165.3 2397.75 2142.14C2387.56 2134.88 2377.38 2127.62 2367.19 2120.51ZM2401.62 2038.99C2391.66 2062.28 2381.88 2085.37 2372.31 2108.24C2382.34 2115.22 2392.36 2122.39 2402.38 2129.53C2410.55 2107.37 2418.94 2084.99 2427.5 2062.41C2418.88 2054.56 2410.28 2046.7 2401.62 2038.99ZM2435.96 1959.73C2426.15 1982.13 2416.5 2004.36 2407.03 2026.4C2415.53 2033.95 2423.98 2041.69 2432.44 2049.4C2440.59 2028.02 2448.9 2006.44 2457.4 1984.69C2450.26 1976.34 2443.14 1967.99 2435.96 1959.73ZM2469.13 1882.31C2460.45 1902.85 2452.05 1923.1 2442.69 1944.35L2441.75 1946.5C2448.76 1954.52 2455.7 1962.69 2462.65 1970.85C2470.97 1949.49 2478.5 1928.96 2486.19 1908.26C2480.52 1899.57 2474.83 1890.94 2469.13 1882.31ZM2501.08 1807.29C2492.62 1827.32 2483.92 1847.61 2475.28 1867.85C2480.85 1876.2 2486.35 1884.68 2491.88 1893.12C2499.22 1873.48 2506.92 1853.45 2514.13 1833.94C2509.87 1824.91 2505.41 1816.2 2501.08 1807.29ZM2531.07 1733.86C2523.55 1752.79 2515.97 1771.77 2507.9 1791.28C2512.08 1799.76 2516.21 1808.29 2520.38 1816.78C2527.37 1797.29 2533.62 1778.61 2540.01 1759.77C2537.19 1750.91 2534 1742.57 2531.07 1733.86ZM2559.22 1662.72C2552.39 1680.08 2545.54 1697.45 2538.54 1714.98C2541.36 1723.12 2544.23 1731.21 2547.03 1739.38C2552.76 1722.56 2558.83 1705.38 2564.51 1688.61C2562.88 1679.82 2561.02 1671.31 2559.22 1662.72ZM2585.39 1594.71C2579.81 1609.79 2573.87 1625.25 2567.93 1640.73C2569.56 1648.19 2571.37 1655.43 2572.96 1662.95C2578.02 1647.37 2582.46 1632.47 2587.11 1617.34C2586.55 1609.78 2586.1 1602.07 2585.39 1594.71ZM2608.55 1530.92C2604.2 1542.87 2600.01 1554.64 2595.57 1566.67C2596.2 1572.33 2597.02 1577.73 2597.61 1583.45C2600.99 1572.24 2604.85 1560.51 2608.18 1549.37C2608.26 1543.27 2608.54 1536.94 2608.55 1530.92ZM2627.88 1477.7C2625.98 1483.17 2623.68 1489.09 2621.73 1494.63C2621.76 1496.83 2621.9 1498.9 2621.92 1501.12C2623.94 1494.03 2625.76 1487.13 2627.63 1480.18L2627.88 1477.7ZM0 715.492C978.235 201.322 3316.83 -845.165 2691.27 1279.59C2681.75 1324.35 2670.74 1370.76 2658.12 1418.91C2651.38 1457.15 2644.08 1496.01 2635.51 1536.3C2630.53 1578.87 2624.42 1622.75 2616.82 1668.34C2614.48 1704.07 2611.4 1740.68 2607.44 1778.33C2607.7 1816.31 2607.1 1855.37 2605.47 1895.69C2608.29 1929.68 2610.39 1964.6 2611.79 2000.43C2617.74 2033.81 2623.05 2068.08 2627.67 2103.3C2636.67 2134.34 2645.1 2166.23 2653.05 2198.86C2665.4 2227.75 2677.35 2257.33 2688.88 2287.63C2701.2 2308.17 2713.48 2328.83 2725.45 2350.11C2729.99 2358.19 2734.74 2365.82 2739.35 2373.75C2743.96 2379.28 2748.58 2384.72 2753.15 2390.38C2770.06 2411.37 2787.27 2431.61 2804.63 2451.4C2833 2475.87 2861.6 2499.48 2890.54 2521.88C2925.04 2542.2 2959.72 2561.61 2994.59 2579.89C3034.43 2595.57 3074.34 2610.34 3114.3 2624.11C3160.91 2635.6 3207.44 2646.12 3253.91 2655.71C3306.3 2662.56 3358.46 2668.45 3410.42 2673.53C3468.41 2675.72 3526.02 2677.07 3583.26 2677.63C3648.69 2675.09 3713.53 2671.75 3777.8 2667.67C3848.98 2660.27 3919.38 2652.16 3989.01 2643.42C4066.74 2631.04 4143.46 2618.05 4219.17 2604.52C5061.36 2429.81 5775.85 2205.86 6378.77 2016.85C6522.33 1971.84 6659.58 1928.82 6790.75 1888.91C7469.52 1401.37 8208.54 838.695 9000 207.035V223.621C8223.44 843.205 7497.34 1396.38 6829.15 1877.26C6868.25 1865.44 6906.8 1853.91 6944.81 1842.71C7579.91 1395.79 8267.17 885.151 9000 316.82V333.204C8281.95 889.916 7607.66 1391.22 6983.33 1831.41C7012.77 1822.82 7041.9 1814.42 7070.69 1806.25C7080.49 1803.47 7090.17 1800.77 7099.89 1798.05C7690.61 1391.87 8325.79 932.751 9000 426.487V442.708C8340.37 937.892 7718.1 1387.92 7138.28 1787.35C7177.85 1776.41 7216.79 1765.92 7255.1 1755.92C7800.92 1390.44 8384.03 981.995 9000 536.081V552.057C8398.22 987.585 7827.8 1387.34 7292.88 1746.18C7332.22 1736.13 7370.94 1726.59 7408.9 1717.69C7909.75 1392.49 8441.27 1033.43 9000 645.546V661.295C8454.91 1039.62 7935.73 1390.51 7445.67 1709.25C7484.29 1700.51 7522.21 1692.39 7559.45 1684.96C8015.74 1399.21 8496.81 1087.65 9000 754.855V770.409C8509.84 1094.52 8040.68 1398.47 7594.95 1678.02C7632.51 1670.89 7669.33 1664.5 7705.46 1658.89C8118.04 1411.39 8550.24 1145.07 9000 864.034V879.315C8562.37 1152.73 8141.4 1412.19 7738.91 1653.91C7774.96 1648.74 7810.32 1644.36 7844.94 1640.88C8215.29 1429.99 8600.82 1206.15 9000 973.019V988.011C8612.07 1214.56 8237.05 1432.28 7876.3 1637.9C7910.4 1634.96 7943.75 1632.98 7976.46 1631.86C8222.21 1500.59 8474.24 1364.85 8732.19 1225.93C8820.77 1178.23 8910.04 1130.16 9000 1081.76V1096.49C8912.13 1143.77 8824.9 1190.75 8738.34 1237.36C8488.37 1371.98 8243.91 1503.63 8005.38 1631.12C8037.41 1630.55 8068.8 1630.86 8099.46 1632.24L8112.03 1626.03C8400.09 1483.94 8696.25 1337.84 9000 1190.24V1204.65C8701.36 1349.8 8409.62 1493.69 8125.74 1633.73C8155.39 1635.65 8184.4 1638.53 8212.78 1642.41C8469.41 1528.1 8731.95 1412.67 9000 1298.39V1312.47C8740.56 1423.12 8486.01 1534.96 8236.86 1645.88C8264.13 1650.23 8290.75 1655.63 8316.84 1661.96C8540.82 1574.76 8768.65 1488.83 9000 1406.11V1419.86C8776.07 1499.98 8555.46 1583.1 8338.48 1667.42C8363.46 1674.1 8387.87 1681.79 8411.76 1690.44C8605.6 1627.86 8801.74 1568.26 9000 1513.29V1526.74C8808.4 1579.93 8618.78 1637.42 8431.3 1697.75C8454.04 1706.63 8476.28 1716.48 8498.04 1727.29C8664.28 1686.8 8831.63 1650.51 9000 1619.78V1632.95C8837.64 1662.62 8676.19 1697.49 8515.76 1736.31C8536.39 1747.2 8556.56 1759.04 8576.3 1771.79C8717.33 1750.94 8858.58 1735.07 9000 1725.34V1738.32C8864.05 1747.7 8728.25 1762.75 8592.62 1782.48C8611.26 1795.15 8629.45 1808.78 8647.28 1823.25C8765.31 1819.63 8882.88 1821.43 9000 1829.6V1842.61C8887.89 1834.76 8775.34 1832.77 8662.36 1835.8C8679.11 1850.05 8695.49 1865.12 8711.53 1881.04C8808.58 1892.26 8904.72 1909.02 9000 1932.09V1945.46C8909.49 1923.39 8818.16 1907.07 8726 1895.81C8740.87 1911.27 8755.44 1927.46 8769.69 1944.44C8847.62 1968.02 8924.37 1996.99 9000 2031.96V2046.28C8929.3 2013.31 8857.59 1985.63 8784.83 1962.74C8797.64 1978.76 8810.15 1995.56 8822.46 2012.89C8882.9 2046.1 8942.07 2084.25 9000 2127.83V2144.16C8947.5 2104.18 8893.96 2068.71 8839.35 2037.4C8849.96 2053.12 8860.38 2069.28 8870.59 2086.09C8914.92 2125.54 8958.05 2169.19 9000 2217.39V2237.35C8965.17 2196.6 8929.5 2159.06 8892.99 2124.49C8899.9 2136.79 8906.72 2149.31 8913.45 2162.1C8943.29 2203.45 8972.14 2248.01 9000 2295.96V2322.23C8985.26 2296.16 8970.23 2271.08 8954.93 2246.94C8970.49 2281.07 8985.5 2316.82 9000 2354.25V2390.99C8969.73 2309.19 8937.02 2235.21 8901.79 2168.53C8868.4 2122.52 8833.69 2080.68 8797.69 2042.58C8754.01 2008.67 8709.17 1978.57 8663.13 1952.02C8609.41 1930.49 8554.73 1912.29 8499 1897.37C8435.13 1887.83 8370.48 1881.3 8305 1877.53C8232.07 1879.56 8158.62 1884.02 8084.62 1890.69C8004.44 1903.17 7924.02 1917.45 7843.39 1933.27C7757.77 1954.59 7672.24 1977.05 7586.81 2000.4C7497.81 2028.7 7409.2 2057.51 7321 2086.61C7230.27 2120.12 7140.19 2153.59 7050.78 2186.83C6960.48 2223.64 6871.05 2259.98 6782.48 2295.67C6692.59 2334.94 6603.75 2373.34 6515.95 2410.8C6426.43 2451.91 6338.1 2491.88 6250.99 2530.61C6164.2 2571.94 6078.67 2611.97 5994.43 2650.6C5909.28 2692.32 5825.47 2732.56 5743.04 2771.26C5658.63 2813.53 5575.66 2854.17 5494.17 2893.13C5411.36 2935.31 5329.98 2975.84 5250.22 3014.53C5169.14 3056.39 5089.56 3096.53 5011.61 3134.79C4932.5 3176.11 4854.96 3215.6 4778.99 3253.25C4700.54 3294.62 4623.72 3334.08 4548.55 3371.61C4470.94 3412.88 4395.01 3452.16 4320.76 3489.46C4212.27 3547.54 4107.2 3601.58 4005.65 3651.52H3949.52C4012.65 3623.44 4077.29 3593.61 4143.41 3562.05C4070.11 3594.14 3998.75 3623.99 3929.37 3651.52H3894.03C4042.01 3593.79 4199.21 3525.31 4365.23 3446.54C4175.02 3529.47 3997.05 3598.09 3832 3651.52H3789.14C3794.63 3649.8 3800.06 3648.16 3805.59 3646.4C4029.31 3575.34 4277.16 3475.94 4547.57 3350.18L4560.98 3342.68C4361.29 3428.37 4174.3 3499.15 4000.88 3553.79C3866.73 3596.06 3740.64 3628.77 3622.85 3651.52H3546.91C3684.72 3629.44 3834.93 3592.48 3997.02 3541.41C4201.95 3476.83 4425.77 3389.81 4667.31 3282.04C4679.12 3275.26 4690.91 3268.48 4702.78 3261.61C4522.42 3336.16 4352.03 3398.9 4192.29 3448.82C3259.41 3740.37 2685.48 3599.26 2567.87 2860.03C2539.16 2862.46 2510.76 2864.75 2482.6 2866.94C2505.85 3324.76 2694.79 3576.43 3029.04 3651.52H2968.59C2662.68 3561.23 2490.26 3308.55 2468.92 2867.96C2440.76 2870.11 2412.49 2872.3 2384.87 2874.21C2367.82 3259.04 2460.16 3513.77 2651.34 3651.52H2623.64C2441.21 3509.18 2353.77 3254.47 2371.15 2875.23C2342.93 2877.14 2315.67 2878.61 2288.1 2880.23C2263.74 3071.41 2264.55 3233.79 2289.46 3368.48C2310.54 3482.47 2348.97 3576.56 2404.04 3651.52H2387.83C2334.73 3576.36 2297.48 3483.03 2276.72 3370.82C2251.69 3235.48 2250.76 3072.59 2274.98 2881.02C2247.46 2882.62 2220 2884.18 2192.97 2885.56C2146.43 3119.9 2135.44 3314.94 2158.29 3472.27C2167.94 3538.74 2183.68 3598.44 2205.34 3651.52H2191.22C2170.26 3598.72 2154.96 3539.62 2145.45 3474.1C2122.5 3316.15 2133.35 3120.68 2179.69 2886.16C2152.55 2887.49 2125.63 2888.73 2099.11 2889.79C2026.48 3167.67 2001.02 3395.06 2020.19 3573.96C2023.09 3600.92 2027.01 3626.76 2031.93 3651.52H2018.67C2013.93 3627.16 2010.13 3601.76 2007.3 3575.33C1988.06 3395.86 2013.32 3168.21 2085.6 2890.41C913.939 2935.7 308.672 2734.92 0 2488.3V2472.16C303.725 2719.97 907.056 2923.79 2089 2877.37C2095.31 2853.46 2101.98 2829.17 2108.99 2804.51C907.583 2799.14 302.966 2562.24 0 2308.74V2292.77C297.805 2546.92 900.07 2787.01 2112.67 2791.65C2119.64 2767.43 2126.9 2742.87 2134.53 2717.94C912.978 2653.56 303.816 2388.09 0 2139.04V2123.53C298.584 2372.54 905.231 2641.04 2138.45 2705.29C2146 2680.85 2153.86 2656.09 2162.05 2630.96C933.879 2499.38 312.279 2216.94 0 1984.4V1969.35C307.404 2201.32 927.067 2486.34 2166.16 2618.47C2174.24 2593.91 2182.6 2569.03 2191.28 2543.81C973.296 2337.79 328.429 2052.99 0 1847.82V1833.04C324.334 2037.43 968.05 2324.16 2195.58 2531.42C2204.13 2506.78 2212.94 2481.87 2222.06 2456.62C1031.32 2170.06 351.15 1898.42 0 1728.87V1714.55C348.479 1883.47 1028.81 2156.27 2226.52 2444.38C2235.47 2419.76 2244.67 2394.86 2254.17 2369.67C1107.04 1997.67 379.207 1753.93 0 1625.31V1611.63C378.017 1739.87 1107.1 1984.08 2258.77 2357.54C2268.05 2333.03 2277.61 2308.25 2287.42 2283.21C1198.55 1821.94 411.306 1619.21 0 1534.45V1521.22C411.352 1605.84 1200.44 1808.69 2292.14 2271.12C2301.69 2246.84 2311.52 2222.28 2321.56 2197.47C1303.32 1643.65 446.259 1493.08 0 1453.5V1440.53C447.183 1480.12 1306.23 1630.79 2326.46 2185.38C2336.2 2161.43 2346.14 2137.25 2356.33 2112.82C1419.24 1463.44 483.161 1374.31 0 1380.17V1367.28C484.74 1361.47 1422.56 1450.94 2361.45 2100.61C2371.24 2077.22 2381.25 2053.6 2391.46 2029.78C1544.53 1281.7 521.409 1261.68 0 1312.71V1299.73C523.424 1248.72 1547.78 1269.41 2396.85 2017.19C2406.57 1994.6 2416.49 1971.79 2426.57 1948.8C1677.88 1098.5 560.553 1154.06 0 1249.72V1236.6C562.933 1140.92 1680.74 1086.46 2432.34 1935.54C2442.3 1912.87 2451.31 1891.21 2460.56 1869.28C1817.53 913.898 600.211 1050.59 0 1190.16V1176.84C602.825 1037.17 1819.6 902.173 2466.72 1854.82C2475.65 1833.85 2484.76 1812.69 2493.53 1791.88C1962.98 727.774 640.194 950.573 0 1133.36V1119.87C642.918 936.867 1964.02 716.29 2500.35 1775.86C2508.92 1755.05 2516.64 1735.13 2524.51 1715.04C2112.27 540.462 680.125 853.449 0 1078.67V1064.98C682.803 839.509 2111.48 529.517 2531.99 1696.13C2539.37 1677.48 2546.8 1658.8 2554.11 1640.22C2266.03 351.869 720.237 758.742 0 1025.7V1011.88C722.819 744.621 2263.41 341.458 2562.82 1618.19C2569.64 1600.29 2575.69 1583.17 2581.87 1565.92C2422.59 162.134 760.097 666.156 0 974.131V960.145C762.204 652.021 2416.1 153.144 2592.07 1537.82C2597.4 1523.1 2602.83 1508.27 2608.12 1493.58C2582.87 -28.9039 800.055 575.306 0 923.711V909.595C801.387 561.306 2571.59 -36.1229 2620.65 1458.16C2624.98 1445.52 2628.71 1433.52 2632.74 1421.22C2744.96 -220.596 839.798 486.032 0 874.208V859.954C839.289 472.727 2723.76 -223.8 2648.93 1371.7C2651.13 1364.84 2653.6 1357.69 2655.74 1350.9C2910.32 -413.92 879.382 398.137 0 825.581V811.132C873.735 387.159 2863.46 -406.335 2679.93 1266.72C3065.8 -602.69 916.404 312.711 0 777.591V763.059C900.799 306.784 2971.37 -573.865 2719.58 1121.32C3174 -769.256 943.055 233.948 0 730.204V715.492Z" fill="white"/>
</mask>
<g mask="url(#mask0_42_6362)">
<path d="M9000 -845.165H0V3740.37H9000V-845.165Z" fill="white" fill-opacity="0.5"/>
</g>
</svg>
