<svg width="6000" height="3000" viewBox="0 0 6000 3000" fill="none" xmlns="http://www.w3.org/2000/svg">
<g clip-path="url(#clip0_42_6174)">
<mask id="mask0_42_6174" style="mask-type:luminance" maskUnits="userSpaceOnUse" x="0" y="0" width="6000" height="3000">
<path d="M6000 0H0V3000H6000V0Z" fill="white"/>
</mask>
<g mask="url(#mask0_42_6174)">
<path opacity="0.01" d="M7153.99 4074.73C7188.31 3374.95 7152.47 2632.89 6709.24 2320.6C6157.57 1931.91 5437.1 2556.69 4816.41 2400.43C4051.55 2207.87 3388.54 813.664 3364.82 -3503.59" stroke="#4D4D4D" stroke-width="1.0179" stroke-miterlimit="10"/>
<path opacity="0.0107" d="M7199.85 4064.35C7194.13 3273.1 7128.83 2523.44 6675.31 2225.51C6102.28 1849.08 5387.38 2559.59 4746.17 2403.93C3974.65 2216.64 3303.27 814.996 3254.77 -3412.87" stroke="#4D4D4D" stroke-width="1.5357" stroke-miterlimit="10"/>
<path opacity="0.0161" d="M7245.72 4053.98C7199.95 3171.25 7104.9 2414.17 6641.38 2130.42C6046.65 1766.37 5338.86 2557.99 4675.94 2407.44C3896.53 2230.44 3218 816.329 3144.72 -3322.15" stroke="#4D4D4D" stroke-width="2.0536" stroke-miterlimit="10"/>
<path opacity="0.0214" d="M7291.58 4043.6C7205.77 3069.4 7080.72 2305.08 6607.45 2035.34C5990.71 1683.81 5290.43 2556.22 4605.7 2410.95C3818.52 2243.94 3132.73 817.659 3034.67 -3231.42" stroke="#4D4D4D" stroke-width="2.5714" stroke-miterlimit="10"/>
<path opacity="0.0268" d="M7337.44 4033.22C7211.6 2967.55 7056.29 2196.19 6573.52 1940.25C5934.48 1601.45 5242.08 2554.27 4535.46 2414.46C3740.61 2257.18 3047.46 818.993 2924.61 -3140.7" stroke="#4D4D4D" stroke-width="3.0893" stroke-miterlimit="10"/>
<path opacity="0.0321" d="M7383.3 4022.84C7217.42 2865.7 7031.65 2087.51 6539.6 1845.16C5877.99 1519.29 5193.8 2552.15 4465.23 2417.96C3662.79 2270.17 2962.19 820.323 2814.56 -3049.98" stroke="#4D4D4D" stroke-width="3.6071" stroke-miterlimit="10"/>
<path opacity="0.0375" d="M7429.16 4012.47C7223.24 2763.84 7006.83 1979.04 6505.67 1750.07C5821.27 1437.38 5145.57 2549.86 4394.99 2421.47C3585.03 2282.92 2876.92 821.655 2704.51 -2959.26" stroke="#4D4D4D" stroke-width="4.125" stroke-miterlimit="10"/>
<path opacity="0.0429" d="M7475.02 4002.09C7229.06 2661.99 6981.84 1870.79 6471.74 1654.98C5764.35 1355.71 5097.39 2547.39 4324.75 2424.98C3507.32 2295.46 2791.65 822.987 2594.46 -2868.53" stroke="#4D4D4D" stroke-width="4.6429" stroke-miterlimit="10"/>
<path opacity="0.0482" d="M7520.88 3991.71C7234.89 2560.14 6956.73 1762.74 6437.81 1559.89C5707.25 1274.3 5049.26 2544.76 4254.51 2428.48C3429.67 2307.8 2706.38 824.319 2484.41 -2777.81" stroke="#4D4D4D" stroke-width="5.1607" stroke-miterlimit="10"/>
<path opacity="0.0536" d="M7566.75 3981.34C7240.71 2458.29 6931.51 1654.91 6403.88 1464.8C5650 1193.17 5001.15 2541.96 4184.28 2431.99C3352.04 2319.96 2621.11 825.65 2374.35 -2687.09" stroke="#4D4D4D" stroke-width="5.6786" stroke-miterlimit="10"/>
<path opacity="0.0589" d="M7612.61 3970.96C7246.53 2356.44 6906.19 1547.28 6369.95 1369.71C5592.63 1112.32 4953.07 2538.99 4114.04 2435.5C3274.45 2331.93 2535.84 826.982 2264.3 -2596.37" stroke="#4D4D4D" stroke-width="6.1964" stroke-miterlimit="10"/>
<path opacity="0.0643" d="M7658.47 3960.58C7252.36 2254.59 6880.81 1439.84 6336.02 1274.62C5535.17 1031.75 4905.01 2535.86 4043.8 2439C3196.87 2343.75 2450.57 828.313 2154.25 -2505.64" stroke="#4D4D4D" stroke-width="6.7143" stroke-miterlimit="10"/>
<path opacity="0.0696" d="M7704.33 3950.21C7258.18 2152.74 6845.64 1364.25 6302.1 1179.53C5492.15 904.29 4856.97 2532.58 3973.56 2442.51C3119.31 2355.42 2365.3 829.646 2044.2 -2414.92" stroke="#4D4D4D" stroke-width="7.2321" stroke-miterlimit="10"/>
<path opacity="0.075" d="M7750.19 3939.83C7264 2050.88 6821.11 1256.87 6268.17 1084.44C5433.35 824.119 4808.94 2529.13 3903.33 2446.02C3041.76 2366.94 2280.03 830.977 1934.14 -2324.2" stroke="#4D4D4D" stroke-width="7.75" stroke-miterlimit="10"/>
<path opacity="0.0804" d="M7796.05 3929.45C7269.82 1949.03 6804.45 1118.62 6234.24 989.355C5362.41 791.714 4760.9 2525.54 3833.09 2449.52C2964.2 2378.34 2194.76 832.308 1824.09 -2233.48" stroke="#4D4D4D" stroke-width="8.2679" stroke-miterlimit="10"/>
<path opacity="0.0857" d="M7841.92 3919.07C7275.65 1847.18 6778.96 1011.88 6200.31 894.267C5304.77 712.248 4712.88 2521.8 3762.85 2453.03C2886.65 2389.61 2109.49 833.641 1714.04 -2142.75" stroke="#4D4D4D" stroke-width="8.7857" stroke-miterlimit="10"/>
<path opacity="0.0911" d="M7887.77 3908.7C7281.47 1745.33 6753.48 905.286 6166.38 799.178C5247.13 633.04 4664.84 2517.91 3692.61 2456.54C2809.09 2400.77 2024.21 834.973 1603.99 -2052.03" stroke="#4D4D4D" stroke-width="9.3036" stroke-miterlimit="10"/>
<path opacity="0.0964" d="M7933.64 3898.32C7287.29 1643.48 6728.03 798.833 6132.45 704.088C5189.51 554.082 4616.81 2513.88 3622.38 2460.05C2731.53 2411.82 1938.95 836.304 1493.94 -1961.31" stroke="#4D4D4D" stroke-width="9.8214" stroke-miterlimit="10"/>
<path opacity="0.1018" d="M7979.5 3887.94C7293.11 1541.63 6702.59 692.511 6098.52 609C5131.91 475.367 4568.76 2509.71 3552.14 2463.55C2653.95 2422.77 1853.67 837.636 1383.88 -1870.58" stroke="#4D4D4D" stroke-width="10.3393" stroke-miterlimit="10"/>
<path opacity="0.1071" d="M8025.36 3877.56C7298.94 1439.77 6677.19 586.309 6064.6 513.911C5074.36 396.881 4520.7 2505.4 3481.9 2467.06C2576.36 2433.63 1768.41 838.968 1273.83 -1779.86" stroke="#4D4D4D" stroke-width="10.8571" stroke-miterlimit="10"/>
<path opacity="0.1125" d="M8071.22 3867.19C7304.76 1337.92 6651.83 480.218 6030.67 418.821C5016.86 318.613 4472.63 2500.97 3411.66 2470.57C2498.76 2444.41 1683.13 840.299 1163.78 -1689.14" stroke="#4D4D4D" stroke-width="11.375" stroke-miterlimit="10"/>
<path opacity="0.1179" d="M8117.08 3856.81C7310.58 1236.07 6626.51 374.231 5996.74 323.733C4959.41 240.554 4424.54 2496.41 3341.43 2474.07C2421.14 2455.1 1597.87 841.632 1053.73 -1598.42" stroke="#4D4D4D" stroke-width="11.8929" stroke-miterlimit="10"/>
<path opacity="0.1232" d="M8162.94 3846.43C7316.4 1134.22 6601.24 268.337 5962.81 228.644C4902.03 162.69 4376.44 2491.72 3271.19 2477.58C2343.5 2465.71 1512.59 842.963 943.674 -1507.69" stroke="#4D4D4D" stroke-width="12.4107" stroke-miterlimit="10"/>
<path opacity="0.1286" d="M8208.81 3836.05C7322.23 1032.37 6576.02 162.529 5928.88 133.554C4844.72 85.0104 4328.31 2486.91 3200.95 2481.09C2265.84 2476.26 1427.33 844.293 833.623 -1416.97" stroke="#4D4D4D" stroke-width="12.9286" stroke-miterlimit="10"/>
<path opacity="0.1339" d="M8254.67 3825.68C7328.05 930.517 6550.85 56.8 5894.96 38.464C4787.48 7.50499 4280.17 2481.98 3130.71 2484.59C2188.15 2486.73 1342.05 845.625 723.568 -1326.25" stroke="#4D4D4D" stroke-width="13.4464" stroke-miterlimit="10"/>
<path opacity="0.1393" d="M8300.53 3815.3C7333.87 828.667 6525.74 -48.8564 5861.03 -56.6244C4730.32 -69.8374 4232 2476.94 3060.48 2488.1C2110.45 2497.15 1256.79 846.958 613.518 -1235.53" stroke="#4D4D4D" stroke-width="13.9643" stroke-miterlimit="10"/>
<path opacity="0.1446" d="M8346.39 3804.92C7339.69 726.814 6500.68 -154.448 5827.1 -151.714C4673.25 -147.03 4183.78 2469.95 2990.24 2491.61C2032.7 2506.03 1171.51 848.289 503.465 -1144.8" stroke="#4D4D4D" stroke-width="14.4821" stroke-miterlimit="10"/>
<path opacity="0.15" d="M8392.25 3794.54C7345.52 624.963 6475.68 -259.98 5793.17 -246.803C4616.25 -224.081 4135.59 2466.54 2920 2495.11C1954.97 2517.8 1086.24 849.621 393.412 -1054.08" stroke="#4D4D4D" stroke-width="15" stroke-miterlimit="10"/>
</g>
<mask id="mask1_42_6174" style="mask-type:luminance" maskUnits="userSpaceOnUse" x="0" y="0" width="6000" height="3000">
<path d="M6000 0H0V3000H6000V0Z" fill="white"/>
</mask>
<g mask="url(#mask1_42_6174)">
<path opacity="0.01" d="M6776.99 2813.34C6619.88 2063.32 6376.85 1287.94 5821.48 1079.97C5130.26 821.12 4540.51 1681.43 3840.47 1687.62C2977.83 1695.26 1890.84 403.103 672.441 -4159.07" stroke="#4D4D4D" stroke-width="1.1133" stroke-miterlimit="10"/>
<path opacity="0.0107" d="M6822.66 2789.68C6597.89 1953.92 6321.58 1178.65 5759.3 988.719C5048.85 748.743 4488.69 1698.24 3767.11 1710.75C2898.88 1725.8 1800.97 428.081 581.055 -4032.65" stroke="#4D4D4D" stroke-width="1.6797" stroke-miterlimit="10"/>
<path opacity="0.0161" d="M6868.32 2766.03C6575.9 1844.53 6266.06 1069.62 5697.11 897.468C4967.11 676.589 4436.9 1709.96 3693.75 1733.87C2820.02 1761.99 1711.1 453.06 489.668 -3906.22" stroke="#4D4D4D" stroke-width="2.2461" stroke-miterlimit="10"/>
<path opacity="0.0214" d="M6913.98 2742.37C6553.91 1735.14 6210.31 960.863 5634.92 806.218C4885.09 604.69 4385.16 1721.47 3620.39 1757C2741.2 1797.84 1621.23 478.037 398.281 -3779.8" stroke="#4D4D4D" stroke-width="2.8125" stroke-miterlimit="10"/>
<path opacity="0.0268" d="M6959.65 2718.71C6531.92 1625.74 6154.36 852.385 5572.73 714.969C4802.82 533.069 4333.46 1732.78 3547.03 1780.12C2662.41 1833.39 1531.36 503.016 306.895 -3653.37" stroke="#4D4D4D" stroke-width="3.3789" stroke-miterlimit="10"/>
<path opacity="0.0321" d="M7005.31 2695.05C6509.93 1516.35 6098.25 744.185 5510.55 623.719C4720.34 461.744 4281.77 1743.88 3473.67 1803.25C2583.64 1868.64 1441.49 527.994 215.508 -3526.95" stroke="#4D4D4D" stroke-width="3.9453" stroke-miterlimit="10"/>
<path opacity="0.0375" d="M7050.98 2671.4C6487.94 1406.96 6042 636.259 5448.36 532.469C4637.67 390.731 4230.11 1754.78 3400.31 1826.38C2504.88 1903.63 1351.62 552.972 124.121 -3400.52" stroke="#4D4D4D" stroke-width="4.5117" stroke-miterlimit="10"/>
<path opacity="0.0429" d="M7096.64 2647.74C6465.95 1297.56 5985.64 528.603 5386.17 441.219C4554.86 320.039 4178.44 1765.49 3326.95 1849.5C2426.12 1938.38 1261.76 577.95 32.7344 -3274.09" stroke="#4D4D4D" stroke-width="5.0781" stroke-miterlimit="10"/>
<path opacity="0.0482" d="M7142.31 2624.08C6443.96 1188.17 5929.2 421.208 5323.98 349.969C4471.93 249.675 4126.77 1776 3253.59 1872.62C2347.34 1972.9 1171.89 602.928 -58.6523 -3147.67" stroke="#4D4D4D" stroke-width="5.6445" stroke-miterlimit="10"/>
<path opacity="0.0536" d="M7187.97 2600.42C6421.97 1078.78 5872.7 314.063 5261.8 258.719C4388.93 179.642 4075.09 1786.34 3180.23 1895.75C2268.56 2007.22 1082.02 627.906 -150.039 -3021.24" stroke="#4D4D4D" stroke-width="6.2109" stroke-miterlimit="10"/>
<path opacity="0.0589" d="M7233.64 2576.76C6399.98 969.382 5816.17 207.158 5199.61 167.469C4305.87 109.937 4023.39 1796.49 3106.88 1918.87C2189.75 2041.34 992.148 652.884 -241.426 -2894.82" stroke="#4D4D4D" stroke-width="6.7773" stroke-miterlimit="10"/>
<path opacity="0.0643" d="M7279.3 2553.11C6377.99 859.99 5759.61 100.478 5137.42 76.2195C4222.79 40.5575 3971.67 1806.46 3033.52 1942C2110.93 2075.29 902.28 677.863 -332.812 -2768.39" stroke="#4D4D4D" stroke-width="7.3438" stroke-miterlimit="10"/>
<path opacity="0.0696" d="M7324.97 2529.45C6356 750.595 5701.49 30.2042 5075.23 -15.0308C4142.03 -82.4368 3919.91 1816.26 2960.16 1965.12C2032.07 2109.08 812.41 702.841 -424.199 -2641.96" stroke="#4D4D4D" stroke-width="7.9102" stroke-miterlimit="10"/>
<path opacity="0.075" d="M7370.63 2505.79C6334.01 641.201 5645.85 -76.646 5013.05 -106.281C4057.64 -151.025 3868.13 1825.9 2886.8 1988.25C1953.19 2142.71 722.541 727.819 -515.586 -2515.54" stroke="#4D4D4D" stroke-width="8.4766" stroke-miterlimit="10"/>
<path opacity="0.0804" d="M7416.3 2482.13C6312.02 531.808 5590.01 -218.345 4950.86 -197.531C3973.62 -165.708 3816.31 1835.37 2813.44 2011.38C1874.27 2176.2 632.672 752.797 -606.973 -2389.11" stroke="#4D4D4D" stroke-width="9.043" stroke-miterlimit="10"/>
<path opacity="0.0857" d="M7461.96 2458.47C6290.03 422.415 5533.54 -324.26 4888.67 -288.781C3890.65 -233.873 3764.45 1844.68 2740.08 2034.5C1795.31 2209.57 542.803 777.775 -698.359 -2262.69" stroke="#4D4D4D" stroke-width="9.6094" stroke-miterlimit="10"/>
<path opacity="0.0911" d="M7507.62 2434.82C6268.04 313.021 5477.11 -430.019 4826.48 -380.031C3807.76 -301.763 3712.54 1853.84 2666.72 2057.62C1716.32 2242.81 452.934 802.753 -789.746 -2136.26" stroke="#4D4D4D" stroke-width="10.1758" stroke-miterlimit="10"/>
<path opacity="0.0964" d="M7553.29 2411.16C6246.05 203.627 5420.75 -535.635 4764.3 -471.281C3724.96 -369.392 3660.59 1862.85 2593.36 2080.75C1637.29 2275.95 363.065 827.731 -881.133 -2009.84" stroke="#4D4D4D" stroke-width="10.7422" stroke-miterlimit="10"/>
<path opacity="0.1018" d="M7598.96 2387.5C6224.06 94.2339 5364.44 -641.121 4702.11 -562.531C3642.26 -436.774 3608.6 1871.72 2520 2103.88C1558.23 2308.98 273.198 852.71 -972.52 -1883.41" stroke="#4D4D4D" stroke-width="11.3086" stroke-miterlimit="10"/>
<path opacity="0.1071" d="M7644.62 2363.84C6202.07 -15.1602 5308.21 -746.488 4639.92 -653.781C3559.66 -503.924 3556.55 1880.45 2446.64 2127C1479.12 2341.92 183.328 877.688 -1063.91 -1756.98" stroke="#4D4D4D" stroke-width="11.875" stroke-miterlimit="10"/>
<path opacity="0.1125" d="M7690.28 2340.18C6180.08 -124.552 5252.04 -851.747 4577.73 -745.031C3477.17 -570.856 3504.45 1889.04 2373.28 2150.13C1399.97 2374.77 93.459 902.667 -1155.29 -1630.56" stroke="#4D4D4D" stroke-width="12.4414" stroke-miterlimit="10"/>
<path opacity="0.1179" d="M7735.95 2316.53C6158.09 -233.947 5195.96 -956.911 4515.55 -836.281C3394.8 -637.585 3452.3 1897.51 2299.92 2173.25C1320.78 2407.54 3.59033 927.644 -1246.68 -1504.13" stroke="#4D4D4D" stroke-width="13.0078" stroke-miterlimit="10"/>
<path opacity="0.1232" d="M7781.61 2292.87C6136.1 -343.341 5139.94 -1061.99 4453.36 -927.531C3312.56 -704.123 3400.1 1905.84 2226.56 2196.38C1241.55 2440.23 -86.2794 952.622 -1338.07 -1377.71" stroke="#4D4D4D" stroke-width="13.5742" stroke-miterlimit="10"/>
<path opacity="0.1286" d="M7827.28 2269.21C6114.11 -452.734 5084.01 -1166.99 4391.17 -1018.78C3230.44 -770.486 3347.84 1914.06 2153.2 2219.5C1162.28 2472.86 -176.148 977.6 -1429.45 -1251.28" stroke="#4D4D4D" stroke-width="14.1406" stroke-miterlimit="10"/>
<path opacity="0.1339" d="M7872.94 2245.55C6092.12 -562.128 5028.15 -1271.92 4328.98 -1110.03C3148.44 -836.686 3295.53 1922.15 2079.84 2242.62C1082.97 2505.42 -266.019 1002.58 -1520.84 -1124.86" stroke="#4D4D4D" stroke-width="14.707" stroke-miterlimit="10"/>
<path opacity="0.1393" d="M7918.61 2221.89C6070.13 -671.521 4972.37 -1376.79 4266.8 -1201.28C3066.58 -902.736 3243.16 1930.13 2006.48 2265.75C1003.62 2537.91 -355.886 1027.56 -1612.23 -998.43" stroke="#4D4D4D" stroke-width="15.2734" stroke-miterlimit="10"/>
<path opacity="0.1446" d="M7964.27 2198.24C6048.14 -780.915 4916.67 -1481.6 4204.61 -1292.53C2984.84 -968.647 3190.2 1936.06 1933.12 2288.88C923.797 2568.8 -445.755 1052.54 -1703.61 -872.004" stroke="#4D4D4D" stroke-width="15.8398" stroke-miterlimit="10"/>
<path opacity="0.15" d="M8009.93 2174.58C6026.15 -890.308 4861.05 -1586.37 4142.42 -1383.78C2903.23 -1034.43 3138.27 1945.76 1859.77 2312C844.797 2602.75 -535.624 1077.51 -1795 -745.578" stroke="#4D4D4D" stroke-width="16.4063" stroke-miterlimit="10"/>
</g>
<g opacity="0.1">
<mask id="mask2_42_6174" style="mask-type:luminance" maskUnits="userSpaceOnUse" x="0" y="0" width="6000" height="3000">
<path d="M6000 0H0V3000H6000V0Z" fill="white"/>
</mask>
<g mask="url(#mask2_42_6174)">
<g opacity="0.56">
<path d="M3898.51 4876.86C2728.09 2460.46 1699.58 1828.09 902.5 1808.5C-763.791 1767.55 -1742.48 4396.57 -3266 4163C-4107.77 4033.95 -4684.98 3097.08 -5066 2207" stroke="#B3B3B3" stroke-width="15" stroke-miterlimit="10"/>
<path opacity="0.9643" d="M3856.76 4898.49C2725.22 2546.7 1726.58 1911.6 940.071 1885.32C-688.664 1836.77 -1652.61 4397.38 -3143.87 4171.84C-3983.56 4047 -4575.3 3101.98 -4982.45 2091.41" stroke="#B3B3B3" stroke-width="14.4821" stroke-miterlimit="10"/>
<path opacity="0.9286" d="M3815.01 4920.12C2722.35 2632.94 1753.7 1992.32 977.644 1962.14C-613.323 1900.27 -1562.2 4394.58 -3021.75 4180.68C-3859.06 4057.97 -4465.62 3106.89 -4898.89 1975.82" stroke="#B3B3B3" stroke-width="13.9643" stroke-miterlimit="10"/>
<path opacity="0.8929" d="M3773.26 4941.75C2719.48 2719.18 1780.79 2074.5 1015.21 2038.96C-538.045 1966.86 -1472.1 4393.77 -2899.63 4189.52C-3734.72 4070.03 -4355.94 3111.79 -4815.34 1860.23" stroke="#B3B3B3" stroke-width="13.4464" stroke-miterlimit="10"/>
<path opacity="0.8571" d="M3731.51 4963.38C2716.61 2805.41 1807.91 2156.73 1052.79 2115.79C-462.733 2033.6 -1382.03 4393.09 -2777.5 4198.36C-3610.4 4082.13 -4246.26 3116.7 -4731.79 1744.64" stroke="#B3B3B3" stroke-width="12.9286" stroke-miterlimit="10"/>
<path opacity="0.8214" d="M3689.76 4985.01C2713.74 2891.65 1835.04 2239.02 1090.36 2192.61C-387.396 2100.51 -1291.99 4392.55 -2655.38 4207.2C-3486.09 4094.26 -4136.58 3121.6 -4648.23 1629.05" stroke="#B3B3B3" stroke-width="12.4107" stroke-miterlimit="10"/>
<path opacity="0.7857" d="M3648.01 5006.64C2710.87 2977.89 1862.19 2321.36 1127.93 2269.43C-312.028 2167.59 -1201.98 4392.13 -2533.25 4216.04C-3361.8 4106.44 -4026.9 3126.5 -4564.68 1513.46" stroke="#B3B3B3" stroke-width="11.8929" stroke-miterlimit="10"/>
<path opacity="0.75" d="M3606.26 5028.27C2708 3064.13 1889.36 2403.76 1165.5 2346.25C-236.637 2234.85 -1111.99 4391.85 -2411.12 4224.88C-3237.52 4118.66 -3917.22 3131.41 -4481.12 1397.88" stroke="#B3B3B3" stroke-width="11.375" stroke-miterlimit="10"/>
<path opacity="0.7143" d="M3564.51 5049.9C2705.13 3150.37 1916.56 2486.23 1203.07 2423.07C-161.223 2302.3 -1022.03 4391.7 -2289 4233.71C-3113.25 4130.93 -3807.54 3136.31 -4397.57 1282.29" stroke="#B3B3B3" stroke-width="10.8571" stroke-miterlimit="10"/>
<path opacity="0.6786" d="M3522.76 5071.53C2702.26 3236.61 1943.76 2568.78 1240.64 2499.89C-85.7894 2369.94 -932.089 4391.69 -2166.87 4242.55C-2988.99 4143.26 -3697.86 3141.22 -4314.02 1166.7" stroke="#B3B3B3" stroke-width="10.3393" stroke-miterlimit="10"/>
<path opacity="0.6429" d="M3481.01 5093.16C2699.38 3322.85 1970.98 2651.4 1278.21 2576.71C-10.3422 2437.8 -842.177 4391.82 -2044.75 4251.39C-2864.75 4155.64 -3588.18 3146.12 -4230.46 1051.11" stroke="#B3B3B3" stroke-width="9.8214" stroke-miterlimit="10"/>
<path opacity="0.6071" d="M3439.26 5114.79C2696.51 3409.09 1998.22 2734.11 1315.79 2653.54C65.1221 2505.87 -752.285 4392.08 -1922.62 4260.23C-2740.52 4168.09 -3478.49 3151.02 -4146.91 935.518" stroke="#B3B3B3" stroke-width="9.3036" stroke-miterlimit="10"/>
<path opacity="0.5714" d="M3397.51 5136.42C2693.64 3495.33 2025.46 2816.92 1353.36 2730.36C140.589 2574.16 -662.419 4392.49 -1800.5 4269.07C-2616.31 4180.6 -3368.81 3155.93 -4063.36 819.928" stroke="#B3B3B3" stroke-width="8.7857" stroke-miterlimit="10"/>
<path opacity="0.5357" d="M3355.76 5158.05C2690.77 3581.57 2052.72 2899.83 1390.93 2807.18C216.059 2642.7 -572.572 4393.03 -1678.37 4277.91C-2492.11 4193.19 -3259.13 3160.83 -3979.8 704.34" stroke="#B3B3B3" stroke-width="8.2679" stroke-miterlimit="10"/>
<path opacity="0.5" d="M3314.01 5179.68C2687.9 3667.81 2079.97 2982.85 1428.5 2884C291.524 2711.48 -482.746 4393.73 -1556.25 4286.75C-2367.92 4205.87 -3149.45 3165.73 -3896.25 588.75" stroke="#B3B3B3" stroke-width="7.75" stroke-miterlimit="10"/>
<path opacity="0.4643" d="M3272.25 5201.31C2685.03 3754.04 2107.22 3066 1466.07 2960.82C366.977 2780.52 -392.938 4394.56 -1434.13 4295.59C-2243.74 4218.63 -3039.77 3170.64 -3812.7 473.16" stroke="#B3B3B3" stroke-width="7.2321" stroke-miterlimit="10"/>
<path opacity="0.4286" d="M3230.51 5222.94C2682.16 3840.28 2134.46 3149.29 1503.64 3037.64C442.408 2849.82 -303.146 4395.55 -1312 4304.43C-2119.57 4231.49 -2930.09 3175.54 -3729.14 357.572" stroke="#B3B3B3" stroke-width="6.7143" stroke-miterlimit="10"/>
<path opacity="0.3929" d="M3188.75 5244.57C2679.29 3926.52 2161.69 3232.72 1541.21 3114.46C517.804 2919.41 -213.372 4396.68 -1189.88 4313.27C-1995.42 4244.46 -2820.41 3180.45 -3645.59 241.982" stroke="#B3B3B3" stroke-width="6.1964" stroke-miterlimit="10"/>
<path opacity="0.3571" d="M3147 5266.2C2676.42 4012.76 2188.89 3316.33 1578.79 3191.28C593.16 2989.28 -123.608 4397.96 -1067.75 4322.11C-1871.28 4257.55 -2710.73 3185.35 -3562.04 126.393" stroke="#B3B3B3" stroke-width="5.6786" stroke-miterlimit="10"/>
<path opacity="0.3214" d="M3105.25 5287.83C2673.55 4099 2216.06 3400.11 1616.36 3268.11C668.454 3059.46 -33.8585 4399.39 -945.625 4330.95C-1747.14 4270.77 -2601.05 3190.25 -3478.48 10.8027" stroke="#B3B3B3" stroke-width="5.1607" stroke-miterlimit="10"/>
<path opacity="0.2857" d="M3063.5 5309.46C2670.68 4185.24 2243.18 3484.1 1653.93 3344.93C743.677 3129.94 55.8842 4400.98 -823.5 4339.79C-1623.02 4284.15 -2491.37 3195.16 -3394.93 -104.785" stroke="#B3B3B3" stroke-width="4.6429" stroke-miterlimit="10"/>
<path opacity="0.25" d="M3021.75 5331.09C2667.81 4271.48 2270.23 3568.31 1691.5 3421.75C818.806 3200.75 145.621 4402.72 -701.375 4348.62C-1498.9 4297.69 -2381.69 3200.06 -3311.38 -220.375" stroke="#B3B3B3" stroke-width="4.125" stroke-miterlimit="10"/>
<path opacity="0.2143" d="M2980 5352.72C2664.94 4357.72 2297.2 3652.77 1729.07 3498.57C893.82 3271.88 235.355 4404.62 -579.25 4357.46C-1374.79 4311.41 -2272.01 3204.96 -3227.82 -335.965" stroke="#B3B3B3" stroke-width="3.6071" stroke-miterlimit="10"/>
<path opacity="0.1786" d="M2938.25 5374.35C2662.07 4443.96 2324.07 3737.5 1766.64 3575.39C968.695 3343.35 325.091 4406.67 -457.125 4366.3C-1250.68 4325.35 -2162.33 3209.87 -3144.27 -451.553" stroke="#B3B3B3" stroke-width="3.0893" stroke-miterlimit="10"/>
<path opacity="0.1429" d="M2896.5 5395.98C2659.2 4530.19 2350.81 3822.53 1804.21 3652.21C1043.4 3415.15 414.829 4408.88 -335.001 4375.14C-1126.58 4339.52 -2052.65 3214.77 -3060.71 -567.143" stroke="#B3B3B3" stroke-width="2.5714" stroke-miterlimit="10"/>
<path opacity="0.1071" d="M2854.75 5417.61C2656.33 4616.43 2377.38 3907.89 1841.79 3729.04C1117.9 3487.3 504.582 4411.25 -212.874 4383.98C-1002.47 4353.97 -1942.97 3219.67 -2977.16 -682.732" stroke="#B3B3B3" stroke-width="2.0536" stroke-miterlimit="10"/>
<path opacity="0.0714" d="M2813 5439.24C2653.46 4702.67 2403.75 3993.63 1879.36 3805.86C1192.16 3559.79 594.349 4413.79 -90.7505 4392.82C-878.352 4368.72 -1833.29 3224.58 -2893.61 -798.322" stroke="#B3B3B3" stroke-width="1.5357" stroke-miterlimit="10"/>
<path opacity="0.0357" d="M2771.25 5460.87C2650.58 4788.91 2429.86 4079.77 1916.93 3882.68C1266.14 3632.61 684.14 4416.48 31.3752 4401.66C-754.221 4383.82 -1723.61 3229.48 -2810.05 -913.91" stroke="#B3B3B3" stroke-width="1.0179" stroke-miterlimit="10"/>
</g>
</g>
</g>
<g opacity="0.1">
<mask id="mask3_42_6174" style="mask-type:luminance" maskUnits="userSpaceOnUse" x="0" y="0" width="6000" height="3000">
<path d="M6000 0H0V3000H6000V0Z" fill="white"/>
</mask>
<g mask="url(#mask3_42_6174)">
<g opacity="0.56">
<path d="M8138.71 2110.07C5513.5 1546.91 4382.33 1969.01 3876.68 2585.48C2819.63 3874.22 4290.8 6262.79 3169.66 7320.48C2550.22 7904.87 1456.49 7783.85 520.305 7536.9" stroke="#999999" stroke-width="15" stroke-miterlimit="10"/>
<path opacity="0.9643" d="M8130.09 2156.3C5579.74 1602.21 4464.79 1999.08 3960.37 2603.1C2920.41 3857.55 4346.71 6192.42 3251.74 7229.62C2636.89 7814.96 1527.81 7700.38 480.545 7399.93" stroke="#999999" stroke-width="14.4821" stroke-miterlimit="10"/>
<path opacity="0.9286" d="M8121.47 2202.52C5645.98 1657.51 4545.12 2027.34 4044.05 2620.72C3016.82 3837.2 4400.1 6119.4 3333.82 7138.75C2722.12 7723.53 1599.13 7616.91 440.785 7262.96" stroke="#999999" stroke-width="13.9643" stroke-miterlimit="10"/>
<path opacity="0.8929" d="M8112.85 2248.74C5712.22 1712.81 4626.59 2056.52 4127.73 2638.34C3115.63 3818.78 4454.88 6047.86 3415.89 7047.89C2808.09 7632.91 1670.45 7533.44 401.025 7125.98" stroke="#999999" stroke-width="13.4464" stroke-miterlimit="10"/>
<path opacity="0.8571" d="M8104.23 2294.97C5778.45 1768.11 4708.1 2085.71 4211.41 2655.96C3214.57 3800.45 4509.73 5976.42 3497.97 6957.03C2894.09 7542.31 1741.77 7449.97 361.264 6989.01" stroke="#999999" stroke-width="12.9286" stroke-miterlimit="10"/>
<path opacity="0.8214" d="M8095.61 2341.19C5844.69 1823.41 4789.67 2114.92 4295.1 2673.58C3313.66 3782.19 4564.68 5905.09 3580.05 6866.16C2980.11 7451.76 1813.09 7366.5 321.504 6852.04" stroke="#999999" stroke-width="12.4107" stroke-miterlimit="10"/>
<path opacity="0.7857" d="M8086.99 2387.41C5910.93 1878.71 4871.3 2144.14 4378.78 2691.2C3412.91 3764.01 4619.71 5833.85 3662.12 6775.3C3066.15 7361.23 1884.41 7283.03 281.744 6715.07" stroke="#999999" stroke-width="11.8929" stroke-miterlimit="10"/>
<path opacity="0.75" d="M8078.37 2433.64C5977.16 1934.01 4952.99 2173.4 4462.46 2708.82C3512.31 3745.93 4674.83 5762.72 3744.2 6684.44C3152.22 7270.75 1955.73 7199.56 241.982 6578.1" stroke="#999999" stroke-width="11.375" stroke-miterlimit="10"/>
<path opacity="0.7143" d="M8069.75 2479.86C6043.4 1989.31 5034.74 2202.68 4546.14 2726.43C3611.87 3727.95 4730.04 5691.69 3826.28 6593.58C3238.32 7180.31 2027.05 7116.09 202.223 6441.13" stroke="#999999" stroke-width="10.8571" stroke-miterlimit="10"/>
<path opacity="0.6786" d="M8061.13 2526.09C6109.63 2044.61 5116.56 2231.99 4629.83 2744.05C3711.6 3710.07 4785.34 5620.76 3908.35 6502.71C3324.45 7089.91 2098.36 7032.62 162.461 6304.15" stroke="#999999" stroke-width="10.3393" stroke-miterlimit="10"/>
<path opacity="0.6429" d="M8052.51 2572.31C6175.87 2099.91 5198.45 2261.33 4713.51 2761.67C3811.51 3692.3 4840.74 5549.94 3990.43 6411.85C3410.63 6999.56 2169.69 6949.14 122.701 6167.18" stroke="#999999" stroke-width="9.8214" stroke-miterlimit="10"/>
<path opacity="0.6071" d="M8043.89 2618.53C6242.11 2155.21 5280.42 2290.72 4797.19 2779.29C3911.6 3674.66 4896.23 5479.22 4072.51 6320.99C3496.84 6909.26 2241.01 6865.67 82.9414 6030.21" stroke="#999999" stroke-width="9.3036" stroke-miterlimit="10"/>
<path opacity="0.5714" d="M8035.27 2664.76C6308.35 2210.51 5362.47 2320.17 4880.87 2796.91C4011.86 3657.15 4951.82 5408.61 4154.58 6230.12C3583.1 6819.01 2312.33 6782.21 43.1816 5893.24" stroke="#999999" stroke-width="8.7857" stroke-miterlimit="10"/>
<path opacity="0.5357" d="M8026.65 2710.98C6374.58 2265.81 5444.61 2349.67 4964.56 2814.53C4112.32 3639.79 5007.5 5338.1 4236.66 6139.26C3669.42 6728.81 2383.65 6698.73 3.42188 5756.27" stroke="#999999" stroke-width="8.2679" stroke-miterlimit="10"/>
<path opacity="0.5" d="M8018.03 2757.21C6440.82 2321.11 5526.84 2379.24 5048.24 2832.15C4212.96 3622.58 5063.29 5267.7 4318.73 6048.4C3755.78 6638.68 2454.97 6615.26 -36.3398 5619.3" stroke="#999999" stroke-width="7.75" stroke-miterlimit="10"/>
<path opacity="0.4643" d="M8009.41 2803.43C6507.06 2376.41 5609.16 2408.89 5131.92 2849.77C4313.8 3605.55 5119.18 5197.4 4400.81 5957.53C3842.22 6548.61 2526.29 6531.79 -76.0996 5482.33" stroke="#999999" stroke-width="7.2321" stroke-miterlimit="10"/>
<path opacity="0.4286" d="M8000.79 2849.65C6573.29 2431.71 5691.59 2438.62 5215.6 2867.38C4414.84 3588.69 5175.18 5127.2 4482.89 5866.67C3928.72 6458.61 2597.61 6448.32 -115.859 5345.35" stroke="#999999" stroke-width="6.7143" stroke-miterlimit="10"/>
<path opacity="0.3929" d="M7992.17 2895.88C6639.53 2487.01 5774.13 2468.47 5299.28 2885C4516.08 3572.03 5231.28 5057.1 4564.96 5775.81C4015.3 6368.69 2668.92 6364.85 -155.621 5208.38" stroke="#999999" stroke-width="6.1964" stroke-miterlimit="10"/>
<path opacity="0.3571" d="M7983.55 2942.1C6705.77 2542.31 5856.78 2498.43 5382.97 2902.62C4617.52 3555.58 5287.5 4987.11 4647.04 5684.94C4101.97 6278.85 2740.25 6281.38 -195.381 5071.41" stroke="#999999" stroke-width="5.6786" stroke-miterlimit="10"/>
<path opacity="0.3214" d="M7974.93 2988.32C6772 2597.61 5939.55 2528.54 5466.65 2920.24C4719.17 3539.37 5343.83 4917.22 4729.12 5594.08C4188.74 6189.1 2811.57 6197.91 -235.141 4934.44" stroke="#999999" stroke-width="5.1607" stroke-miterlimit="10"/>
<path opacity="0.2857" d="M7966.31 3034.55C6838.24 2652.91 6022.46 2558.81 5550.33 2937.86C4821 3523.4 5400.27 4847.43 4811.19 5503.22C4275.62 6099.45 2882.88 6114.44 -274.902 4797.47" stroke="#999999" stroke-width="4.6429" stroke-miterlimit="10"/>
<path opacity="0.25" d="M7957.69 3080.77C6904.48 2708.21 6105.5 2589.27 5634.01 2955.48C4923.04 3507.71 5456.83 4777.74 4893.27 5412.36C4362.63 6009.9 2954.21 6030.97 -314.662 4660.5" stroke="#999999" stroke-width="4.125" stroke-miterlimit="10"/>
<path opacity="0.2143" d="M7949.07 3127C6970.71 2763.51 6188.68 2619.94 5717.69 2973.1C5025.26 3492.3 5513.51 4708.15 4975.35 5321.49C4449.78 5920.48 3025.52 5947.5 -354.424 4523.53" stroke="#999999" stroke-width="3.6071" stroke-miterlimit="10"/>
<path opacity="0.1786" d="M7940.45 3173.22C7036.95 2818.81 6272.02 2650.86 5801.38 2990.72C5127.67 3477.21 5570.32 4638.66 5057.43 5230.63C4537.1 5831.19 3096.85 5864.03 -394.182 4386.55" stroke="#999999" stroke-width="3.0893" stroke-miterlimit="10"/>
<path opacity="0.1429" d="M7931.82 3219.44C7103.18 2874.11 6355.51 2682.07 5885.06 3008.33C5230.23 3462.47 5627.25 4569.25 5139.5 5139.77C4624.59 5742.04 3168.16 5780.56 -433.945 4249.58" stroke="#999999" stroke-width="2.5714" stroke-miterlimit="10"/>
<path opacity="0.1071" d="M7923.2 3265.67C7169.42 2929.41 6439.16 2713.62 5968.74 3025.95C5332.94 3448.09 5684.32 4499.94 5221.58 5048.9C4712.31 5653.06 3239.48 5697.09 -473.703 4112.61" stroke="#999999" stroke-width="2.0536" stroke-miterlimit="10"/>
<path opacity="0.0714" d="M7914.58 3311.89C7235.66 2984.71 6522.98 2745.55 6052.42 3043.57C5435.77 3434.12 5741.52 4430.71 5303.65 4958.04C4800.27 5564.26 3310.8 5613.62 -513.465 3975.64" stroke="#999999" stroke-width="1.5357" stroke-miterlimit="10"/>
<path opacity="0.0357" d="M7905.96 3358.12C7301.89 3040.01 6606.97 2777.94 6136.11 3061.19C5538.69 3420.57 5798.87 4361.57 5385.73 4867.18C4888.52 5475.67 3382.12 5530.15 -553.225 3838.67" stroke="#999999" stroke-width="1.0179" stroke-miterlimit="10"/>
</g>
</g>
</g>
</g>
<defs>
<clipPath id="clip0_42_6174">
<rect width="6000" height="3000" fill="white"/>
</clipPath>
</defs>
</svg>
