<svg width="6588" height="2893" viewBox="0 0 6588 2893" fill="none" xmlns="http://www.w3.org/2000/svg">
<g clip-path="url(#clip0_73_5855)">
<path opacity="0.01" d="M7534.99 2691.01C7569.3 2320.2 7533.46 1926.99 7090.23 1761.51C6538.57 1555.55 5818.1 1886.61 5197.41 1803.81C4432.55 1701.77 3769.53 962.998 3745.82 -1324.67" stroke="white" stroke-width="2" stroke-miterlimit="10"/>
<path opacity="0.0107" d="M7580.85 2685.51C7575.12 2266.23 7509.83 1868.99 7056.3 1711.12C6483.28 1511.65 5768.37 1888.15 5127.17 1805.67C4355.65 1706.42 3684.26 963.704 3635.77 -1276.6" stroke="white" stroke-width="2" stroke-miterlimit="10"/>
<path opacity="0.0161" d="M7626.72 2680.01C7580.95 2212.26 7485.9 1811.09 7022.38 1660.74C6427.65 1467.83 5719.86 1887.3 5056.94 1807.53C4277.53 1713.73 3599 964.41 3525.72 -1228.53" stroke="white" stroke-width="2" stroke-miterlimit="10"/>
<path opacity="0.0214" d="M7672.58 2674.51C7586.77 2158.29 7461.71 1753.29 6988.45 1610.35C6371.71 1424.08 5671.43 1886.36 4986.7 1809.38C4199.52 1720.89 3513.73 965.115 3415.66 -1180.46" stroke="white" stroke-width="2" stroke-miterlimit="10"/>
<path opacity="0.0268" d="M7718.43 2669.01C7592.59 2104.32 7437.28 1695.59 6954.52 1559.96C6315.48 1380.44 5623.08 1885.33 4916.46 1811.24C4121.61 1727.9 3428.45 965.822 3305.61 -1132.38" stroke="white" stroke-width="2" stroke-miterlimit="10"/>
<path opacity="0.0321" d="M7764.3 2663.51C7598.42 2050.35 7412.65 1638 6920.6 1509.58C6258.99 1336.91 5574.8 1884.21 4846.23 1813.1C4043.79 1734.79 3343.19 966.527 3195.56 -1084.31" stroke="white" stroke-width="2" stroke-miterlimit="10"/>
<path opacity="0.0375" d="M7810.16 2658.01C7604.24 1996.38 7387.83 1580.52 6886.66 1459.19C6202.27 1293.5 5526.57 1882.99 4775.99 1814.96C3966.02 1741.55 3257.91 967.233 3085.51 -1036.24" stroke="white" stroke-width="2" stroke-miterlimit="10"/>
<path opacity="0.0429" d="M7856.02 2652.51C7610.06 1942.41 7362.84 1523.16 6852.73 1408.8C6145.34 1250.22 5478.39 1881.68 4705.75 1816.82C3888.32 1748.19 3172.64 967.938 2975.45 -988.164" stroke="white" stroke-width="2" stroke-miterlimit="10"/>
<path opacity="0.0482" d="M7901.88 2647.02C7615.89 1888.44 7337.73 1465.91 6818.81 1358.42C6088.25 1207.09 5430.26 1880.29 4635.51 1818.68C3810.67 1754.73 3087.38 968.644 2865.41 -940.09" stroke="white" stroke-width="2" stroke-miterlimit="10"/>
<path opacity="0.0536" d="M7947.74 2641.52C7621.71 1834.47 7312.51 1408.77 6784.88 1308.03C6031 1164.1 5382.15 1878.81 4565.27 1820.53C3733.04 1761.17 3002.1 969.35 2755.35 -892.017" stroke="white" stroke-width="2" stroke-miterlimit="10"/>
<path opacity="0.0589" d="M7993.6 2636.02C7627.53 1780.5 7287.19 1351.73 6750.95 1257.64C5973.63 1121.25 5334.07 1877.23 4495.03 1822.39C3655.44 1767.52 2916.83 970.055 2645.3 -843.944" stroke="white" stroke-width="2" stroke-miterlimit="10"/>
<path opacity="0.0643" d="M8039.47 2630.52C7633.35 1726.53 7261.81 1294.8 6717.02 1207.26C5916.16 1078.56 5286.01 1875.57 4424.8 1824.25C3577.87 1773.78 2831.56 970.761 2535.25 -795.871" stroke="white" stroke-width="2" stroke-miterlimit="10"/>
<path opacity="0.0696" d="M8085.33 2625.02C7639.18 1672.56 7226.64 1254.75 6683.1 1156.87C5873.15 1011.02 5237.97 1873.83 4354.56 1826.11C3500.31 1779.96 2746.3 971.467 2425.2 -747.797" stroke="white" stroke-width="2" stroke-miterlimit="10"/>
<path opacity="0.075" d="M8131.19 2619.52C7645 1618.59 7202.1 1197.85 6649.16 1106.48C5814.34 968.538 5189.93 1872.01 4284.32 1827.97C3422.75 1786.07 2661.02 972.172 2315.14 -699.724" stroke="white" stroke-width="2" stroke-miterlimit="10"/>
<path opacity="0.0804" d="M8177.05 2614.02C7650.82 1564.62 7185.44 1124.59 6615.24 1056.1C5743.41 951.367 5141.9 1870.1 4214.09 1829.82C3345.2 1792.1 2575.75 972.877 2205.09 -651.652" stroke="white" stroke-width="2" stroke-miterlimit="10"/>
<path opacity="0.0857" d="M8222.91 2608.53C7656.64 1510.65 7159.96 1068.03 6581.31 1005.71C5685.77 909.259 5093.87 1868.12 4143.85 1831.68C3267.65 1798.08 2490.49 973.584 2095.04 -603.578" stroke="white" stroke-width="2" stroke-miterlimit="10"/>
<path opacity="0.0911" d="M8268.77 2603.03C7662.47 1456.68 7134.48 1011.55 6547.38 955.322C5628.13 867.287 5045.84 1866.06 4073.61 1833.54C3190.09 1803.99 2405.21 974.289 1984.98 -555.506" stroke="white" stroke-width="2" stroke-miterlimit="10"/>
<path opacity="0.0964" d="M8314.64 2597.53C7668.29 1402.71 7109.02 955.14 6513.45 904.936C5570.51 825.449 4997.8 1863.93 4003.37 1835.4C3112.53 1809.85 2319.94 974.996 1874.93 -507.432" stroke="white" stroke-width="2" stroke-miterlimit="10"/>
<path opacity="0.1018" d="M8360.5 2592.03C7674.11 1348.74 7083.59 898.801 6479.52 854.549C5512.91 783.738 4949.76 1861.72 3933.14 1837.26C3034.95 1815.65 2234.67 975.701 1764.88 -459.359" stroke="white" stroke-width="2" stroke-miterlimit="10"/>
<path opacity="0.1071" d="M8406.36 2586.53C7679.93 1294.77 7058.19 842.525 6445.6 804.162C5455.36 742.149 4901.7 1859.43 3862.9 1839.12C2957.36 1821.41 2149.4 976.406 1654.83 -411.286" stroke="white" stroke-width="2" stroke-miterlimit="10"/>
<path opacity="0.1125" d="M8452.22 2581.03C7685.75 1240.8 7032.82 786.309 6411.66 753.776C5397.85 700.676 4853.63 1857.08 3792.66 1840.98C2879.76 1827.11 2064.13 977.113 1544.77 -363.213" stroke="white" stroke-width="2" stroke-miterlimit="10"/>
<path opacity="0.1179" d="M8498.08 2575.53C7691.58 1186.83 7007.51 730.147 6377.74 703.389C5340.41 659.313 4805.54 1854.67 3722.43 1842.83C2802.14 1832.78 1978.87 977.819 1434.73 -315.14" stroke="white" stroke-width="2" stroke-miterlimit="10"/>
<path opacity="0.1232" d="M8543.94 2570.03C7697.4 1132.86 6982.24 674.034 6343.81 653.001C5283.03 618.053 4757.43 1852.18 3652.19 1844.69C2724.5 1838.4 1893.59 978.523 1324.67 -267.068" stroke="white" stroke-width="2" stroke-miterlimit="10"/>
<path opacity="0.1286" d="M8589.8 2564.53C7703.22 1078.89 6957.02 617.968 6309.88 602.615C5225.72 576.892 4709.31 1849.64 3581.95 1846.55C2646.84 1843.99 1808.32 979.229 1214.62 -218.995" stroke="white" stroke-width="2" stroke-miterlimit="10"/>
<path opacity="0.1339" d="M8635.66 2559.04C7709.05 1024.92 6931.85 561.943 6275.95 552.227C5168.48 535.822 4661.16 1847.02 3511.71 1848.41C2569.15 1849.54 1723.05 979.934 1104.57 -170.922" stroke="white" stroke-width="2" stroke-miterlimit="10"/>
<path opacity="0.1393" d="M8681.53 2553.54C7714.87 970.948 6906.74 505.956 6242.03 501.84C5111.32 494.839 4613 1844.35 3441.47 1850.27C2491.45 1855.06 1637.78 980.64 994.516 -122.849" stroke="white" stroke-width="2" stroke-miterlimit="10"/>
<path opacity="0.1446" d="M8727.39 2548.04C7720.69 916.978 6881.68 450.005 6208.1 451.454C5054.24 453.936 4564.77 1840.65 3371.23 1852.12C2413.7 1859.77 1552.51 981.346 884.461 -74.7754" stroke="white" stroke-width="2" stroke-miterlimit="10"/>
<path opacity="0.15" d="M8773.25 2542.54C7726.51 863.008 6856.68 394.085 6174.17 401.067C4997.25 413.107 4516.59 1838.84 3301 1853.98C2335.97 1866 1467.24 982.052 774.41 -26.7024" stroke="white" stroke-width="2" stroke-miterlimit="10"/>
<path opacity="0.01" d="M7157.99 2022.61C7000.88 1625.18 6757.85 1214.31 6202.48 1104.11C5511.26 966.949 4921.51 1422.82 4221.47 1426.1C3358.83 1430.15 2271.84 745.446 1053.44 -1672.01" stroke="white" stroke-width="2" stroke-miterlimit="10"/>
<path opacity="0.0107" d="M7203.66 2010.07C6978.89 1567.21 6702.58 1156.4 6140.3 1055.76C5429.85 928.597 4869.69 1431.73 4148.11 1438.36C3279.88 1446.33 2181.97 758.681 962.055 -1605.02" stroke="white" stroke-width="2" stroke-miterlimit="10"/>
<path opacity="0.0161" d="M7249.32 1997.54C6956.9 1509.24 6647.06 1098.63 6078.11 1007.41C5348.11 890.364 4817.9 1437.94 4074.75 1450.61C3201.02 1465.51 2092.1 771.918 870.668 -1538.02" stroke="white" stroke-width="2" stroke-miterlimit="10"/>
<path opacity="0.0214" d="M7294.98 1985C6934.91 1451.28 6591.31 1041 6015.92 959.053C5266.09 852.265 4766.16 1444.04 4001.39 1462.86C3122.2 1484.51 2002.23 785.153 779.281 -1471.03" stroke="white" stroke-width="2" stroke-miterlimit="10"/>
<path opacity="0.0268" d="M7340.65 1972.46C6912.92 1393.31 6535.36 983.516 5953.73 910.701C5183.82 814.314 4714.46 1450.03 3928.03 1475.12C3043.41 1503.34 1912.36 798.389 687.895 -1404.04" stroke="white" stroke-width="2" stroke-miterlimit="10"/>
<path opacity="0.0321" d="M7386.31 1959.93C6890.93 1335.34 6479.25 926.182 5891.55 862.348C5101.34 776.519 4662.77 1455.91 3854.67 1487.37C2964.64 1522.02 1822.49 811.624 596.508 -1337.05" stroke="white" stroke-width="2" stroke-miterlimit="10"/>
<path opacity="0.0375" d="M7431.98 1947.39C6868.94 1277.38 6423 868.994 5829.36 813.996C5018.67 738.891 4611.11 1461.69 3781.31 1499.62C2885.88 1540.56 1732.62 824.86 505.121 -1270.06" stroke="white" stroke-width="2" stroke-miterlimit="10"/>
<path opacity="0.0429" d="M7477.64 1934.86C6846.95 1219.41 6366.64 811.947 5767.17 765.644C4935.86 701.431 4559.44 1467.36 3707.95 1511.88C2807.12 1558.98 1642.76 838.096 413.734 -1203.07" stroke="white" stroke-width="2" stroke-miterlimit="10"/>
<path opacity="0.0482" d="M7523.31 1922.32C6824.96 1161.45 6310.2 755.04 5704.98 717.291C4852.93 664.146 4507.77 1472.93 3634.59 1524.13C2728.34 1577.27 1552.89 851.331 322.348 -1136.07" stroke="white" stroke-width="2" stroke-miterlimit="10"/>
<path opacity="0.0536" d="M7568.97 1909.78C6802.97 1103.48 6253.7 698.265 5642.8 668.938C4769.93 627.036 4456.09 1478.41 3561.23 1536.39C2649.56 1595.45 1463.02 864.567 230.961 -1069.08" stroke="white" stroke-width="2" stroke-miterlimit="10"/>
<path opacity="0.0589" d="M7614.64 1897.25C6780.98 1045.51 6197.17 641.616 5580.61 620.586C4686.87 590.1 4404.39 1483.79 3487.88 1548.64C2570.75 1613.53 1373.15 877.802 139.574 -1002.09" stroke="white" stroke-width="2" stroke-miterlimit="10"/>
<path opacity="0.0643" d="M7660.3 1884.71C6758.99 987.546 6140.61 585.088 5518.42 572.234C4603.79 553.337 4352.67 1489.07 3414.52 1560.89C2491.93 1631.52 1283.28 891.039 48.1875 -935.098" stroke="white" stroke-width="2" stroke-miterlimit="10"/>
<path opacity="0.0696" d="M7705.97 1872.18C6737 929.579 6082.49 547.851 5456.23 523.881C4523.03 488.163 4300.91 1494.26 3341.16 1573.15C2413.07 1649.42 1193.41 904.274 -43.1992 -868.106" stroke="white" stroke-width="2" stroke-miterlimit="10"/>
<path opacity="0.075" d="M7751.63 1859.64C6715.01 871.612 6026.85 491.232 5394.05 475.528C4438.64 451.819 4249.13 1499.37 3267.8 1585.4C2334.19 1667.25 1103.54 917.51 -134.586 -801.115" stroke="white" stroke-width="2" stroke-miterlimit="10"/>
<path opacity="0.0804" d="M7797.3 1847.1C6693.02 813.645 5971.01 416.147 5331.86 427.176C4354.62 444.038 4197.31 1504.39 3194.44 1597.65C2255.27 1685 1013.67 930.745 -225.973 -734.123" stroke="white" stroke-width="2" stroke-miterlimit="10"/>
<path opacity="0.0857" d="M7842.96 1834.57C6671.03 755.679 5914.54 360.024 5269.67 378.824C4271.65 407.919 4145.45 1509.32 3121.08 1609.91C2176.31 1702.68 923.803 943.981 -317.359 -667.131" stroke="white" stroke-width="2" stroke-miterlimit="10"/>
<path opacity="0.0911" d="M7888.62 1822.03C6649.04 697.713 5858.11 303.983 5207.48 330.471C4188.76 371.944 4093.54 1514.18 3047.72 1622.16C2097.32 1720.29 833.934 957.217 -408.746 -600.139" stroke="white" stroke-width="2" stroke-miterlimit="10"/>
<path opacity="0.0964" d="M7934.29 1809.5C6627.05 639.746 5801.75 248.018 5145.3 282.118C4105.96 336.108 4041.59 1518.95 2974.36 1634.42C2018.29 1737.85 744.065 970.452 -500.133 -533.147" stroke="white" stroke-width="2" stroke-miterlimit="10"/>
<path opacity="0.1018" d="M7979.96 1796.96C6605.06 581.779 5745.44 192.122 5083.11 233.766C4023.26 300.403 3989.6 1523.65 2901 1646.67C1939.23 1755.35 654.198 983.688 -591.52 -466.156" stroke="white" stroke-width="2" stroke-miterlimit="10"/>
<path opacity="0.1071" d="M8025.62 1784.42C6583.07 523.812 5689.21 136.289 5020.92 185.413C3940.66 264.821 3937.55 1528.28 2827.64 1658.92C1860.12 1772.81 564.328 996.924 -682.906 -399.164" stroke="white" stroke-width="2" stroke-miterlimit="10"/>
<path opacity="0.1125" d="M8071.28 1771.89C6561.08 465.846 5633.04 80.5131 4958.73 137.061C3858.17 229.355 3885.45 1532.83 2754.28 1671.18C1780.97 1790.21 474.455 1010.16 -774.297 -332.172" stroke="white" stroke-width="2" stroke-miterlimit="10"/>
<path opacity="0.1179" d="M8116.95 1759.35C6539.09 407.879 5576.96 24.7876 4896.55 88.7083C3775.8 193.995 3833.3 1537.32 2680.92 1683.43C1701.78 1807.58 384.59 1023.4 -865.68 -265.18" stroke="white" stroke-width="2" stroke-miterlimit="10"/>
<path opacity="0.1232" d="M8162.62 1746.81C6517.1 349.912 5520.95 -30.8917 4834.36 40.3558C3693.56 158.738 3781.1 1541.73 2607.57 1695.68C1622.56 1824.9 294.724 1036.63 -957.062 -198.188" stroke="white" stroke-width="2" stroke-miterlimit="10"/>
<path opacity="0.1286" d="M8208.28 1734.28C6495.11 291.946 5465.01 -86.5297 4772.17 -7.99675C3611.44 123.572 3728.84 1546.09 2534.2 1707.94C1543.28 1842.19 204.852 1049.87 -1048.45 -131.196" stroke="white" stroke-width="2" stroke-miterlimit="10"/>
<path opacity="0.1339" d="M8253.94 1721.74C6473.12 233.979 5409.15 -142.132 4709.98 -56.3493C3529.44 88.4936 3676.53 1550.38 2460.84 1720.19C1463.97 1859.44 114.979 1063.1 -1139.84 -64.2044" stroke="white" stroke-width="2" stroke-miterlimit="10"/>
<path opacity="0.1393" d="M8299.61 1709.21C6451.13 176.013 5353.37 -197.701 4647.8 -104.701C3447.58 53.4948 3624.16 1554.6 2387.48 1732.45C1384.62 1876.66 25.1144 1076.34 -1231.23 2.78748" stroke="white" stroke-width="2" stroke-miterlimit="10"/>
<path opacity="0.1446" d="M8345.27 1696.67C6429.14 118.047 5297.67 -253.242 4585.61 -153.054C3365.85 18.5693 3571.2 1557.75 2314.13 1744.7C1304.8 1893.03 -64.7513 1089.57 -1322.61 69.7795" stroke="white" stroke-width="2" stroke-miterlimit="10"/>
<path opacity="0.15" d="M8390.93 1684.14C6407.15 60.0807 5242.05 -308.758 4523.42 -201.406C3284.23 -16.29 3519.27 1562.89 2240.77 1756.95C1225.8 1911.02 -154.624 1102.81 -1414 136.772" stroke="white" stroke-width="2" stroke-miterlimit="10"/>
<path d="M4279.51 3116.05C3109.09 1835.62 2080.58 1500.53 1283.5 1490.15C-382.791 1468.45 -1361.48 2861.55 -2885 2737.78C-3726.77 2669.4 -4303.98 2172.96 -4685 1701.31" stroke="white" stroke-width="2" stroke-miterlimit="10"/>
<path opacity="0.9643" d="M4237.76 3127.51C3106.22 1881.32 2107.58 1544.78 1321.07 1530.86C-307.664 1505.13 -1271.61 2861.98 -2762.87 2742.46C-3602.56 2676.31 -4194.3 2175.56 -4601.45 1640.06" stroke="white" stroke-width="2" stroke-miterlimit="10"/>
<path opacity="0.9286" d="M4196.01 3138.97C3103.35 1927.01 2134.7 1587.56 1358.65 1571.57C-232.322 1538.78 -1181.2 2860.49 -2640.75 2747.15C-3478.06 2682.12 -4084.62 2178.16 -4517.89 1578.81" stroke="white" stroke-width="2" stroke-miterlimit="10"/>
<path opacity="0.8929" d="M4154.25 3150.43C3100.47 1972.71 2161.79 1631.11 1396.21 1612.27C-157.049 1574.07 -1091.11 2860.06 -2518.63 2751.83C-3353.73 2688.52 -3974.94 2180.75 -4434.34 1517.56" stroke="white" stroke-width="2" stroke-miterlimit="10"/>
<path opacity="0.8571" d="M4112.51 3161.89C3097.61 2018.41 2188.91 1674.68 1433.79 1652.98C-81.729 1609.43 -1001.03 2859.7 -2396.5 2756.52C-3229.4 2694.93 -3865.25 2183.35 -4350.78 1456.32" stroke="white" stroke-width="2" stroke-miterlimit="10"/>
<path opacity="0.8214" d="M4070.76 3173.35C3094.73 2064.11 2216.04 1718.28 1471.35 1693.69C-6.39746 1644.88 -910.994 2859.41 -2274.38 2761.2C-3105.1 2701.36 -3755.58 2185.95 -4267.23 1395.07" stroke="white" stroke-width="2" stroke-miterlimit="10"/>
<path opacity="0.7857" d="M4029.01 3184.82C3091.87 2109.8 2243.19 1761.91 1508.93 1734.39C68.9717 1680.43 -820.978 2859.19 -2152.25 2765.88C-2980.8 2707.81 -3645.9 2188.55 -4183.68 1333.82" stroke="white" stroke-width="2" stroke-miterlimit="10"/>
<path opacity="0.75" d="M3987.26 3196.28C3089 2155.5 2270.36 1805.58 1546.5 1775.1C144.363 1716.07 -730.989 2859.04 -2030.12 2770.57C-2856.52 2714.29 -3536.22 2191.15 -4100.12 1272.57" stroke="white" stroke-width="2" stroke-miterlimit="10"/>
<path opacity="0.7143" d="M3945.51 3207.74C3086.13 2201.2 2297.56 1849.28 1584.07 1815.81C219.777 1751.81 -641.026 2858.97 -1908 2775.25C-2732.25 2720.79 -3426.54 2193.75 -4016.57 1211.32" stroke="white" stroke-width="2" stroke-miterlimit="10"/>
<path opacity="0.6786" d="M3903.76 3219.2C3083.26 2246.89 2324.76 1893.02 1621.65 1856.52C295.213 1787.66 -551.087 2858.96 -1785.87 2779.93C-2607.99 2727.32 -3316.85 2196.35 -3933.02 1150.07" stroke="white" stroke-width="2" stroke-miterlimit="10"/>
<path opacity="0.6429" d="M3862 3230.66C3080.38 2292.59 2351.98 1936.8 1659.21 1897.22C370.654 1823.61 -461.181 2859.03 -1663.75 2784.62C-2483.76 2733.88 -3207.18 2198.94 -3849.47 1088.82" stroke="white" stroke-width="2" stroke-miterlimit="10"/>
<path opacity="0.6071" d="M3820.26 3242.12C3077.52 2338.29 2379.22 1980.63 1696.79 1937.93C446.126 1859.68 -371.281 2859.17 -1541.62 2789.3C-2359.52 2740.48 -3097.49 2201.54 -3765.91 1027.57" stroke="white" stroke-width="2" stroke-miterlimit="10"/>
<path opacity="0.5714" d="M3778.5 3253.58C3074.64 2383.99 2406.46 2024.5 1734.35 1978.64C521.587 1895.87 -281.421 2859.38 -1419.5 2793.99C-2235.31 2747.11 -2987.82 2204.14 -3682.36 966.317" stroke="white" stroke-width="2" stroke-miterlimit="10"/>
<path opacity="0.5357" d="M3736.75 3265.05C3071.77 2429.68 2433.71 2068.44 1771.93 2019.34C597.057 1932.19 -191.574 2859.67 -1297.38 2798.67C-2111.11 2753.78 -2878.14 2206.74 -3598.8 905.069" stroke="white" stroke-width="2" stroke-miterlimit="10"/>
<path opacity="0.5" d="M3695.01 3276.51C3068.9 2475.38 2460.97 2112.43 1809.5 2060.05C672.524 1968.63 -101.746 2860.04 -1175.25 2803.35C-1986.92 2760.49 -2768.45 2209.34 -3515.25 843.819" stroke="white" stroke-width="2" stroke-miterlimit="10"/>
<path opacity="0.4643" d="M3653.26 3287.97C3066.03 2521.08 2488.22 2156.49 1847.07 2100.76C747.979 2005.21 -11.9363 2860.48 -1053.12 2808.04C-1862.74 2767.26 -2658.77 2211.94 -3431.7 782.569" stroke="white" stroke-width="2" stroke-miterlimit="10"/>
<path opacity="0.4286" d="M3611.51 3299.43C3063.16 2566.78 2515.47 2200.62 1884.65 2141.46C823.41 2041.94 77.8555 2861 -930.998 2812.72C-1738.57 2774.07 -2549.09 2214.53 -3348.14 721.32" stroke="white" stroke-width="2" stroke-miterlimit="10"/>
<path opacity="0.3929" d="M3569.75 3310.89C3060.29 2612.47 2542.68 2244.84 1922.21 2182.17C898.8 2078.81 167.624 2861.6 -808.88 2817.41C-1614.42 2780.94 -2439.42 2217.13 -3264.59 660.07" stroke="white" stroke-width="2" stroke-miterlimit="10"/>
<path opacity="0.3571" d="M3528.01 3322.35C3057.42 2658.17 2569.9 2289.14 1959.79 2222.88C974.164 2115.84 257.396 2862.28 -686.745 2822.09C-1490.27 2787.88 -2329.73 2219.73 -3181.03 598.82" stroke="white" stroke-width="2" stroke-miterlimit="10"/>
<path opacity="0.3214" d="M3486.25 3333.82C3054.55 2703.87 2597.05 2333.53 1997.35 2263.58C1049.45 2153.02 347.14 2863.04 -564.627 2826.77C-1366.15 2794.89 -2220.05 2222.33 -3097.48 537.57" stroke="white" stroke-width="2" stroke-miterlimit="10"/>
<path opacity="0.2857" d="M3444.5 3345.28C3051.68 2749.56 2624.17 2378.04 2034.93 2304.29C1124.68 2190.37 436.882 2863.88 -442.502 2831.46C-1242.02 2801.98 -2110.37 2224.93 -3013.93 476.321" stroke="white" stroke-width="2" stroke-miterlimit="10"/>
<path opacity="0.25" d="M3402.75 3356.74C3048.81 2795.26 2651.23 2422.66 2072.5 2345C1199.81 2227.89 526.621 2864.81 -320.375 2836.14C-1117.9 2809.15 -2000.69 2227.53 -2930.38 415.071" stroke="white" stroke-width="2" stroke-miterlimit="10"/>
<path opacity="0.2143" d="M3361 3368.2C3045.94 2840.96 2678.2 2467.41 2110.07 2385.71C1274.82 2265.58 616.357 2865.81 -198.248 2840.82C-993.79 2816.42 -1891.01 2230.13 -2846.82 353.821" stroke="white" stroke-width="2" stroke-miterlimit="10"/>
<path opacity="0.1786" d="M3319.25 3379.66C3043.07 2886.66 2705.07 2512.31 2147.65 2426.41C1349.7 2303.45 706.092 2866.9 -76.1226 2845.51C-869.682 2823.81 -1781.33 2232.72 -2763.27 292.572" stroke="white" stroke-width="2" stroke-miterlimit="10"/>
<path opacity="0.1429" d="M3277.5 3391.12C3040.19 2932.35 2731.8 2557.37 2185.21 2467.12C1424.39 2341.5 795.825 2868.07 45.9954 2850.19C-745.582 2831.32 -1671.65 2235.32 -2679.72 231.322" stroke="white" stroke-width="2" stroke-miterlimit="10"/>
<path opacity="0.1071" d="M3235.76 3402.59C3037.33 2978.05 2758.38 2602.6 2222.79 2507.83C1498.91 2379.73 885.586 2869.33 168.13 2854.88C-621.463 2838.97 -1561.96 2237.92 -2596.16 170.072" stroke="white" stroke-width="2" stroke-miterlimit="10"/>
<path opacity="0.0714" d="M3194 3414.05C3034.45 3023.75 2784.74 2648.03 2260.35 2548.53C1573.16 2418.14 975.347 2870.67 290.248 2859.56C-497.353 2846.79 -1452.29 2240.52 -2512.61 108.822" stroke="white" stroke-width="2" stroke-miterlimit="10"/>
<path opacity="0.0357" d="M3152.25 3425.51C3031.58 3069.44 2810.86 2693.68 2297.93 2589.24C1647.13 2456.73 1065.14 2872.1 412.373 2864.24C-373.223 2854.79 -1342.61 2243.12 -2429.05 47.5732" stroke="white" stroke-width="2" stroke-miterlimit="10"/>
<path d="M8519.71 1649.95C5894.5 1351.54 4763.33 1575.21 4257.68 1901.87C3200.63 2584.76 4671.8 3850.44 3550.66 4410.9C2931.22 4720.56 1837.49 4656.43 901.305 4525.58" stroke="white" stroke-width="2" stroke-miterlimit="10"/>
<path opacity="0.9643" d="M8511.1 1674.45C5960.75 1380.84 4845.79 1591.14 4341.37 1911.21C3301.42 2575.92 4727.71 3813.15 3632.74 4362.75C3017.89 4672.92 1908.81 4612.2 861.547 4453" stroke="white" stroke-width="2" stroke-miterlimit="10"/>
<path opacity="0.9286" d="M8502.47 1698.94C6026.98 1410.14 4926.12 1606.11 4425.05 1920.54C3397.82 2565.14 4781.1 3774.46 3714.82 4314.6C3103.12 4624.47 1980.13 4567.97 821.785 4380.42" stroke="white" stroke-width="2" stroke-miterlimit="10"/>
<path opacity="0.8929" d="M8493.85 1723.43C6093.22 1439.45 5007.58 1621.57 4508.73 1929.88C3496.62 2555.38 4835.87 3736.55 3796.89 4266.46C3189.09 4576.45 2051.45 4523.74 782.023 4307.84" stroke="white" stroke-width="2" stroke-miterlimit="10"/>
<path opacity="0.8571" d="M8485.23 1747.93C6159.45 1468.75 5089.1 1637.04 4592.42 1939.21C3595.57 2545.67 4890.74 3698.69 3878.97 4218.31C3275.09 4528.44 2122.77 4479.51 742.266 4235.26" stroke="white" stroke-width="2" stroke-miterlimit="10"/>
<path opacity="0.8214" d="M8476.61 1772.42C6225.69 1498.05 5170.67 1652.52 4676.1 1948.55C3694.66 2535.99 4945.68 3660.89 3961.05 4170.16C3361.11 4480.46 2194.09 4435.28 702.504 4162.68" stroke="white" stroke-width="2" stroke-miterlimit="10"/>
<path opacity="0.7857" d="M8467.99 1796.91C6291.93 1527.35 5252.3 1668.01 4759.78 1957.88C3793.9 2526.36 5000.71 3623.15 4043.12 4122.01C3447.15 4432.49 2265.41 4391.05 662.742 4090.1" stroke="white" stroke-width="2" stroke-miterlimit="10"/>
<path opacity="0.75" d="M8459.37 1821.41C6358.17 1556.66 5333.99 1683.51 4843.46 1967.22C3893.31 2516.78 5055.83 3585.46 4125.2 4073.87C3533.22 4384.55 2336.73 4346.82 622.984 4017.52" stroke="white" stroke-width="2" stroke-miterlimit="10"/>
<path opacity="0.7143" d="M8450.75 1845.9C6424.4 1585.96 5415.74 1699.02 4927.14 1976.56C3992.87 2507.25 5111.04 3547.82 4207.28 4025.72C3619.32 4336.62 2408.05 4302.59 583.223 3944.94" stroke="white" stroke-width="2" stroke-miterlimit="10"/>
<path opacity="0.6786" d="M8442.13 1870.39C6490.63 1615.26 5497.56 1714.55 5010.83 1985.89C4092.6 2497.77 5166.34 3510.23 4289.35 3977.57C3705.45 4288.72 2479.36 4258.36 543.461 3872.36" stroke="white" stroke-width="2" stroke-miterlimit="10"/>
<path opacity="0.6429" d="M8433.51 1894.89C6556.87 1644.57 5579.45 1730.1 5094.51 1995.23C4192.51 2488.36 5221.74 3472.71 4371.43 3929.42C3791.63 4240.84 2550.69 4214.13 503.703 3799.78" stroke="white" stroke-width="2" stroke-miterlimit="10"/>
<path opacity="0.6071" d="M8424.89 1919.38C6623.11 1673.87 5661.42 1745.68 5178.19 2004.56C4292.6 2479.01 5277.23 3435.23 4453.51 3881.28C3877.84 4192.99 2622.01 4169.9 463.941 3727.2" stroke="white" stroke-width="2" stroke-miterlimit="10"/>
<path opacity="0.5714" d="M8416.27 1943.88C6689.34 1703.17 5743.47 1761.28 5261.87 2013.9C4392.86 2469.74 5332.81 3397.82 4535.58 3833.13C3964.1 4145.17 2693.32 4125.67 424.18 3654.62" stroke="white" stroke-width="2" stroke-miterlimit="10"/>
<path opacity="0.5357" d="M8407.65 1968.37C6755.58 1732.48 5825.61 1776.91 5345.56 2023.24C4493.32 2460.54 5388.5 3360.46 4617.66 3784.98C4050.42 4097.38 2764.65 4081.44 384.422 3582.04" stroke="white" stroke-width="2" stroke-miterlimit="10"/>
<path opacity="0.5" d="M8399.03 1992.86C6821.82 1761.78 5907.84 1792.58 5429.24 2032.57C4593.96 2451.42 5444.29 3323.15 4699.73 3736.83C4136.78 4049.62 2835.97 4037.21 344.66 3509.46" stroke="white" stroke-width="2" stroke-miterlimit="10"/>
<path opacity="0.4643" d="M8390.41 2017.36C6888.05 1791.08 5990.16 1808.29 5512.92 2041.91C4694.8 2442.39 5500.18 3285.9 4781.81 3688.69C4223.21 4001.89 2907.28 3992.98 304.898 3436.88" stroke="white" stroke-width="2" stroke-miterlimit="10"/>
<path opacity="0.4286" d="M8381.79 2041.85C6954.29 1820.38 6072.59 1824.05 5596.6 2051.24C4795.84 2433.46 5556.18 3248.7 4863.89 3640.54C4309.72 3954.2 2978.61 3948.75 265.141 3364.3" stroke="white" stroke-width="2" stroke-miterlimit="10"/>
<path opacity="0.3929" d="M8373.17 2066.34C7020.53 1849.69 6155.13 1839.86 5680.28 2060.58C4897.08 2424.63 5612.28 3211.56 4945.96 3592.39C4396.3 3906.55 3049.92 3904.52 225.379 3291.72" stroke="white" stroke-width="2" stroke-miterlimit="10"/>
<path opacity="0.3571" d="M8364.54 2090.84C7086.76 1878.99 6237.78 1855.74 5763.96 2069.92C4998.52 2415.92 5668.5 3174.47 5028.04 3544.24C4482.97 3858.95 3121.24 3860.29 185.617 3219.14" stroke="white" stroke-width="2" stroke-miterlimit="10"/>
<path opacity="0.3214" d="M8355.93 2115.33C7153 1908.29 6320.55 1871.7 5847.65 2079.25C5100.17 2407.32 5724.83 3137.43 5110.12 3496.1C4569.74 3811.39 3192.57 3816.06 145.859 3146.56" stroke="white" stroke-width="2" stroke-miterlimit="10"/>
<path opacity="0.2857" d="M8347.31 2139.82C7219.24 1937.6 6403.46 1887.73 5931.33 2088.59C5202 2398.86 5781.27 3100.45 5192.19 3447.95C4656.62 3763.88 3263.88 3771.83 106.098 3073.98" stroke="white" stroke-width="2" stroke-miterlimit="10"/>
<path opacity="0.25" d="M8338.68 2164.32C7285.47 1966.9 6486.5 1903.87 6015.01 2097.93C5304.04 2390.55 5837.83 3063.53 5274.27 3399.8C4743.63 3716.44 3335.2 3727.6 66.3359 3001.4" stroke="white" stroke-width="2" stroke-miterlimit="10"/>
<path opacity="0.2143" d="M8330.07 2188.81C7351.71 1996.2 6569.68 1920.12 6098.7 2107.26C5406.27 2382.38 5894.51 3026.65 5356.35 3351.65C4830.78 3669.05 3406.53 3683.37 26.5781 2928.82" stroke="white" stroke-width="2" stroke-miterlimit="10"/>
<path opacity="0.1786" d="M8321.45 2213.3C7417.95 2025.51 6653.02 1936.51 6182.38 2116.6C5508.67 2374.39 5951.32 2989.82 5438.43 3303.51C4918.1 3621.74 3477.85 3639.14 -13.1797 2856.24" stroke="white" stroke-width="2" stroke-miterlimit="10"/>
<path opacity="0.1429" d="M8312.82 2237.8C7484.18 2054.81 6736.51 1953.05 6266.06 2125.93C5611.23 2366.57 6008.25 2953.05 5520.5 3255.36C5005.59 3574.5 3549.16 3594.91 -52.9453 2783.66" stroke="white" stroke-width="2" stroke-miterlimit="10"/>
<path opacity="0.1071" d="M8304.2 2262.29C7550.42 2084.11 6820.16 1969.77 6349.74 2135.27C5713.94 2358.96 6065.32 2916.32 5602.58 3207.21C5093.31 3527.35 3620.48 3550.68 -92.7031 2711.08" stroke="white" stroke-width="2" stroke-miterlimit="10"/>
<path opacity="0.0714" d="M8295.58 2286.79C7616.66 2113.42 6903.98 1986.69 6433.42 2144.61C5816.77 2351.55 6122.52 2879.64 5684.65 3159.06C5181.27 3480.3 3691.8 3506.45 -132.465 2638.5" stroke="white" stroke-width="2" stroke-miterlimit="10"/>
<path opacity="0.0357" d="M8286.96 2311.28C7682.89 2142.72 6987.97 2003.85 6517.11 2153.94C5919.69 2344.37 6179.87 2843 5766.73 3110.92C5269.52 3433.35 3763.12 3462.22 -172.227 2565.92" stroke="white" stroke-width="2" stroke-miterlimit="10"/>
</g>
<defs>
<clipPath id="clip0_73_5855">
<rect width="6588" height="2893" fill="white"/>
</clipPath>
</defs>
</svg>
