<svg width="3230" height="1269" viewBox="0 0 3230 1269" fill="none" xmlns="http://www.w3.org/2000/svg">
<g clip-path="url(#clip0_70_5780)">
<path d="M-492.917 63.6688C-442.884 63.6688 106.079 189.29 -17.6088 742.531C-141.301 1295.77 -457.513 1701.52 -115.955 2284.61" stroke="#99D2ED" stroke-miterlimit="2" stroke-linecap="round" stroke-linejoin="round"/>
<path d="M-366.442 -17.0223C-321.972 -17.0223 178.346 172.913 56.0455 727.302C-66.2505 1281.68 -410.092 1712.38 114.829 2284.61" stroke="#99D2ED" stroke-miterlimit="2" stroke-linecap="round" stroke-linejoin="round"/>
<path d="M-239.976 -97.7095C-201.059 -97.7095 250.612 156.536 129.704 712.066C8.79547 1267.6 -362.672 1723.24 345.616 2284.61" stroke="#99D2ED" stroke-miterlimit="2" stroke-linecap="round" stroke-linejoin="round"/>
<path d="M-113.505 -178.397C-80.1504 -178.397 322.883 140.155 203.362 696.833C83.8414 1253.51 -315.246 1734.11 576.404 2284.61" stroke="#99D2ED" stroke-miterlimit="2" stroke-linecap="round" stroke-linejoin="round"/>
<path d="M12.9662 -259.088C40.762 -259.088 395.15 123.778 277.021 681.6C158.887 1239.42 -267.826 1744.97 807.192 2284.61" stroke="#99D2ED" stroke-miterlimit="2" stroke-linecap="round" stroke-linejoin="round"/>
<path d="M139.433 -339.775C161.666 -339.775 467.421 107.405 350.679 666.367C233.937 1225.33 -220.405 1755.83 1037.98 2284.61" stroke="#99D2ED" stroke-miterlimit="2" stroke-linecap="round" stroke-linejoin="round"/>
<path d="M265.9 -420.466C282.579 -420.466 539.688 91.0279 424.337 651.135C308.983 1211.24 -172.984 1766.69 1268.77 2284.61" stroke="#99D2ED" stroke-miterlimit="2" stroke-linecap="round" stroke-linejoin="round"/>
<path d="M392.371 -501.153C403.487 -501.153 611.958 74.6507 497.996 635.902C384.033 1197.15 -125.563 1777.56 1499.55 2284.61" stroke="#99D2ED" stroke-miterlimit="2" stroke-linecap="round" stroke-linejoin="round"/>
<path d="M518.842 -581.844C524.4 -581.844 684.225 58.2737 571.654 620.669C459.079 1183.06 -78.1422 1788.42 1730.34 2284.61" stroke="#99D2ED" stroke-miterlimit="2" stroke-linecap="round" stroke-linejoin="round"/>
<path d="M645.313 -662.532C645.313 -662.532 756.496 41.8966 645.313 605.432C534.129 1168.98 -30.7214 1799.28 1961.13 2284.61" stroke="#99D2ED" stroke-miterlimit="2" stroke-linecap="round" stroke-linejoin="round"/>
<path d="M711.096 -662.532C711.096 -662.532 765.758 36.7705 711.096 597.749C656.429 1158.73 230.925 1719.69 2119.75 2199.99" stroke="#99D2ED" stroke-miterlimit="2" stroke-linecap="round" stroke-linejoin="round"/>
<path d="M776.879 -662.532C776.879 -662.532 775.025 31.6481 776.879 590.065C778.729 1148.48 492.579 1640.11 2278.37 2115.37" stroke="#99D2ED" stroke-miterlimit="2" stroke-linecap="round" stroke-linejoin="round"/>
<path d="M842.663 -662.532C842.663 -662.532 784.292 26.5257 842.663 582.382C901.034 1138.24 754.229 1560.51 2436.99 2030.75" stroke="#99D2ED" stroke-miterlimit="2" stroke-linecap="round" stroke-linejoin="round"/>
<path d="M908.442 -662.532C908.442 -662.532 793.554 21.4033 908.442 574.694C1023.33 1127.99 1015.88 1480.92 2595.61 1946.12" stroke="#99D2ED" stroke-miterlimit="2" stroke-linecap="round" stroke-linejoin="round"/>
<path d="M974.225 -662.532C974.225 -662.532 802.821 16.2809 974.225 567.011C1145.63 1117.74 1277.53 1401.33 2754.24 1861.5" stroke="#99D2ED" stroke-miterlimit="2" stroke-linecap="round" stroke-linejoin="round"/>
<path d="M1040.01 -662.532C1040.01 -662.532 812.088 11.1547 1040.01 559.327C1267.93 1107.5 1539.18 1321.75 2912.86 1776.88" stroke="#99D2ED" stroke-miterlimit="2" stroke-linecap="round" stroke-linejoin="round"/>
<path d="M1105.79 -662.532C1105.79 -662.532 821.35 6.03225 1105.79 551.644C1390.23 1097.25 1800.83 1242.15 3071.48 1692.26" stroke="#99D2ED" stroke-miterlimit="2" stroke-linecap="round" stroke-linejoin="round"/>
<path d="M1171.58 -662.532C1171.58 -662.532 830.617 0.909878 1171.58 543.956C1512.53 1087.01 2062.49 1162.56 3230.1 1607.64" stroke="#99D2ED" stroke-miterlimit="2" stroke-linecap="round" stroke-linejoin="round"/>
<path d="M1237.36 -662.532C1237.36 -662.532 839.88 -4.21247 1237.36 536.273C1634.83 1076.76 2324.14 1082.97 3388.72 1523.02" stroke="#99D2ED" stroke-miterlimit="2" stroke-linecap="round" stroke-linejoin="round"/>
<path d="M1303.14 -662.532C1303.14 -662.532 849.146 -9.33492 1303.14 528.589C1757.13 1066.51 2585.79 1003.39 3547.34 1438.39" stroke="#99D2ED" stroke-miterlimit="2" stroke-linecap="round" stroke-linejoin="round"/>
<path d="M1368.92 -662.532C1368.92 -662.532 858.413 -14.4611 1368.92 520.902C1879.43 1056.27 2847.44 923.793 3705.96 1353.77" stroke="#99D2ED" stroke-miterlimit="2" stroke-linecap="round" stroke-linejoin="round"/>
<path d="M1434.7 -662.532C1434.7 -662.532 867.675 -19.5835 1434.7 513.218C2001.73 1046.02 3109.09 844.203 3864.59 1269.15" stroke="#99D2ED" stroke-miterlimit="2" stroke-linecap="round" stroke-linejoin="round"/>
<path d="M1500.49 -662.532C1500.49 -662.532 876.942 -24.7059 1500.49 505.534C2124.03 1035.77 3370.74 764.614 4023.21 1184.53" stroke="#99D2ED" stroke-miterlimit="2" stroke-linecap="round" stroke-linejoin="round"/>
<path d="M1566.27 -662.532C1566.27 -662.532 886.209 -29.8284 1566.27 497.851C2246.33 1025.53 3632.39 685.025 4181.83 1099.9" stroke="#99D2ED" stroke-miterlimit="2" stroke-linecap="round" stroke-linejoin="round"/>
<path d="M1632.06 -662.532C1632.06 -662.532 895.471 -34.9506 1632.06 490.163C2368.64 1015.28 3894.05 605.433 4340.45 1015.28" stroke="#99D2ED" stroke-miterlimit="2" stroke-linecap="round" stroke-linejoin="round"/>
<path d="M1681.16 -662.532C1681.16 -662.532 980.713 -52.8829 1723.78 441.497C2466.85 935.873 3912.8 520.902 4329.44 903.43" stroke="#99D2ED" stroke-miterlimit="2" stroke-linecap="round" stroke-linejoin="round"/>
<path d="M1730.27 -662.532C1730.27 -662.532 1065.95 -70.8151 1815.51 392.826C2565.06 856.468 3931.55 436.371 4318.44 791.574" stroke="#99D2ED" stroke-miterlimit="2" stroke-linecap="round" stroke-linejoin="round"/>
<path d="M1779.37 -662.532C1779.37 -662.532 1151.19 -88.7435 1907.23 344.156C2663.27 777.059 3950.31 351.84 4307.44 679.719" stroke="#99D2ED" stroke-miterlimit="2" stroke-linecap="round" stroke-linejoin="round"/>
<path d="M1828.48 -662.532C1828.48 -662.532 1236.43 -106.676 1998.96 295.486C2761.48 697.651 3969.06 267.309 4296.4 567.863" stroke="#99D2ED" stroke-miterlimit="2" stroke-linecap="round" stroke-linejoin="round"/>
<path d="M1877.58 -662.532C1877.58 -662.532 1321.67 -124.608 2090.68 246.815C2859.69 618.242 3987.82 182.778 4285.4 456.011" stroke="#99D2ED" stroke-miterlimit="2" stroke-linecap="round" stroke-linejoin="round"/>
<path d="M1926.69 -662.532C1926.69 -662.532 1406.91 -142.536 2182.4 198.149C2957.9 538.834 4006.57 98.2506 4274.4 344.156" stroke="#99D2ED" stroke-miterlimit="2" stroke-linecap="round" stroke-linejoin="round"/>
<path d="M1975.79 -662.532C1975.79 -662.532 1492.15 -160.468 2274.13 149.478C3056.11 459.425 4025.32 13.7158 4263.4 232.301" stroke="#99D2ED" stroke-miterlimit="2" stroke-linecap="round" stroke-linejoin="round"/>
<path d="M2024.9 -662.532C2024.9 -662.532 1577.39 -178.397 2365.86 100.812C3154.32 380.017 4044.07 -70.8151 4252.4 120.449" stroke="#99D2ED" stroke-miterlimit="2" stroke-linecap="round" stroke-linejoin="round"/>
<path d="M2074.01 -662.532C2074.01 -662.532 1662.63 -196.329 2457.58 52.1415C3252.54 300.608 4062.83 -155.346 4241.4 8.59351" stroke="#99D2ED" stroke-miterlimit="2" stroke-linecap="round" stroke-linejoin="round"/>
<path d="M2123.11 -662.532C2123.11 -662.532 1747.87 -214.261 2549.31 3.47108C3350.75 221.203 4081.58 -239.877 4230.36 -103.258" stroke="#99D2ED" stroke-miterlimit="2" stroke-linecap="round" stroke-linejoin="round"/>
<path d="M2172.21 -662.532C2172.21 -662.532 1833.11 -232.19 2641.04 -45.1992C3448.96 141.795 4100.34 -324.408 4219.36 -215.114" stroke="#99D2ED" stroke-miterlimit="2" stroke-linecap="round" stroke-linejoin="round"/>
</g>
<defs>
<clipPath id="clip0_70_5780">
<rect width="3230" height="1269" fill="white"/>
</clipPath>
</defs>
</svg>
