<svg width="5000" height="2029" viewBox="0 0 5000 2029" fill="none" xmlns="http://www.w3.org/2000/svg">
<mask id="mask0_42_6362" style="mask-type:luminance" maskUnits="userSpaceOnUse" x="0" y="0" width="5000" height="2029">
<path d="M1444.76 899.036C1444.91 900.931 1445.01 902.893 1445.15 904.794C1446.15 900.622 1447.39 896.18 1448.35 892.061C1448.42 890.374 1448.39 888.803 1448.45 887.127C1447.19 891.124 1446.01 895.042 1444.76 899.036ZM1437.06 966.439C1437.38 968.346 1437.74 970.184 1438.04 972.101C1438.93 967.381 1439.72 962.796 1440.62 958.073C1440.58 956.437 1440.58 954.744 1440.52 953.113C1439.4 957.521 1438.3 961.908 1437.06 966.439ZM1432.26 938.482C1432.91 941.912 1433.44 945.505 1434.06 948.971C1435.93 941.858 1437.57 935.001 1439.32 928.007C1439.15 924.823 1438.86 921.79 1438.67 918.631C1436.63 925.143 1434.49 931.773 1432.26 938.482ZM2873.36 1679.42L2862.69 1683.78C2856.48 1687.47 2850.23 1691.18 2844.05 1694.83L2852.99 1690.93C2859.78 1687.09 2866.53 1683.3 2873.36 1679.42ZM1439.9 1056.68L1440.11 1057.53C1440.15 1056.63 1440.15 1055.75 1440.17 1054.87L1439.9 1056.68ZM1433.49 1029.75C1434.17 1032.4 1434.75 1035.17 1435.41 1037.84C1436.06 1033.06 1436.8 1028.17 1437.38 1023.48C1437.11 1021.02 1436.78 1018.66 1436.5 1016.22C1435.47 1020.76 1434.48 1025.25 1433.49 1029.75ZM1426.35 1003.75C1427.38 1007.35 1428.49 1010.86 1429.48 1014.51C1430.87 1007.97 1432.57 1001.09 1433.87 994.649C1433.34 990.707 1432.97 986.562 1432.41 982.669C1430.36 989.728 1428.38 996.721 1426.35 1003.75ZM1418.77 977.672C1420.11 981.925 1421.28 986.435 1422.57 990.753C1424.85 982.673 1427.38 974.295 1429.59 966.298C1428.84 961.817 1428.06 957.379 1427.28 952.936C1424.44 961.182 1421.63 969.396 1418.77 977.672ZM2951.31 1634.63C2945.18 1637.03 2939.09 1639.38 2933 1641.74C2923.52 1647.46 2914.12 1653.09 2904.71 1658.73C2910.59 1656.28 2916.45 1653.86 2922.36 1651.38C2931.97 1645.85 2941.63 1640.25 2951.31 1634.63ZM3007.25 1612.39L2995.69 1617.05L2976.28 1628.4L2986.51 1624L3007.25 1612.39ZM3060.3 1590.72L3059.8 1590.93L3057.69 1592.13L3060.3 1590.72ZM1444.8 1143.92C1443.88 1141.03 1442.93 1138.19 1442 1135.32C1441.53 1140.06 1440.98 1144.92 1440.51 1149.66M1443.6 1116.84L1443.99 1118.03L1443.84 1113.26C1443.76 1114.46 1443.7 1115.63 1443.6 1116.84ZM1434.65 1091.86C1435.59 1094.39 1436.57 1096.85 1437.49 1099.41C1437.85 1094.33 1438.14 1089.34 1438.48 1084.28C1437.95 1081.67 1437.52 1078.9 1436.97 1076.31C1436.21 1081.48 1435.53 1086.56 1434.65 1091.86ZM1425.24 1066.81C1426.69 1070.45 1428.02 1074.28 1429.43 1077.96C1430.54 1070.94 1431.49 1064.09 1432.53 1057.15C1431.67 1053.41 1430.77 1049.7 1429.87 1046C1428.37 1052.89 1426.94 1059.7 1425.24 1066.81ZM1415.14 1042.75C1416.91 1046.87 1418.73 1050.92 1420.45 1055.1C1422.44 1046.58 1424.21 1038.3 1426.04 1029.96C1424.91 1025.58 1423.75 1021.25 1422.57 1016.94C1420.17 1025.46 1417.84 1033.91 1415.14 1042.75ZM1404.63 1018.36C1406.72 1022.88 1408.61 1027.71 1410.65 1032.31C1413.54 1022.66 1416.14 1013.33 1418.78 1003.95C1417.4 999.188 1416.05 994.385 1414.63 989.684C1411.39 999.141 1408.18 1008.57 1404.63 1018.36ZM3086.46 1567.43C3079.87 1569.98 3073.3 1572.5 3066.74 1575C3057.12 1580.74 3047.54 1586.44 3037.98 1592.11C3044.28 1589.53 3050.56 1586.96 3056.89 1584.34C3066.7 1578.76 3076.58 1573.1 3086.46 1567.43ZM3144.09 1544.85L3131.03 1550.02C3124.33 1553.9 3117.6 1557.83 3110.93 1561.67L3122.29 1556.85C3129.55 1552.86 3136.79 1548.89 3144.09 1544.85ZM3198.62 1522.93L3196.92 1523.62L3189.39 1527.84L3189.51 1527.79L3198.62 1522.93ZM3004.45 1598.41L3003.68 1598.69C2992.08 1605.81 2980.49 1612.92 2968.98 1619.92C2976.83 1616.82 2984.69 1613.7 2992.59 1610.53C3004.35 1603.64 3016.17 1596.66 3028.03 1589.64C3020.15 1592.59 3012.29 1595.52 3004.45 1598.41ZM1452.09 1173.42L1453.71 1176.76C1453.42 1174.44 1453.03 1172.26 1452.73 1169.96C1452.53 1169.26 1452.34 1168.53 1452.14 1167.83C1452.14 1169.68 1452.09 1171.57 1452.09 1173.42ZM1440.51 1149.66C1442.04 1152.69 1443.51 1155.86 1445.03 1158.93ZM1428.39 1126.7C1430.41 1130.46 1432.48 1134.15 1434.47 1137.96C1435.09 1131.21 1435.79 1124.38 1436.29 1117.77C1434.94 1113.84 1433.61 1109.89 1432.23 1106.02C1430.99 1112.86 1429.63 1119.84 1428.39 1126.7ZM1415.89 1103.57C1418.3 1107.81 1420.57 1112.3 1422.94 1116.62C1424.35 1108.67 1425.94 1100.53 1427.23 1092.73C1425.55 1088.21 1423.88 1083.69 1422.16 1079.24C1420.1 1087.31 1417.95 1095.49 1415.89 1103.57ZM1402.76 1081.44C1405.42 1085.88 1408.1 1090.28 1410.72 1094.79C1413 1085.73 1415.54 1076.37 1417.72 1067.43C1415.79 1062.63 1413.75 1058.02 1411.76 1053.31C1408.78 1062.66 1405.74 1072.08 1402.76 1081.44ZM1389.28 1059.19C1392.18 1063.77 1394.99 1068.52 1397.84 1073.2C1400.98 1063.28 1404.37 1053.08 1407.42 1043.26C1405.25 1038.25 1403.15 1033.12 1400.93 1028.19C1397.09 1038.47 1393.16 1048.86 1389.28 1059.19ZM3104.51 1543.98C3094.78 1547.46 3085.02 1550.98 3075.36 1554.37C3061.97 1562.72 3048.65 1570.98 3035.38 1579.17C3044.79 1575.63 3054.22 1572.07 3063.7 1568.45C3077.24 1560.37 3090.84 1552.22 3104.51 1543.98ZM3164.79 1522.1C3156.16 1525.28 3147.55 1528.44 3138.97 1531.56C3126.96 1538.84 3115.01 1546.06 3103.11 1553.23C3111.43 1549.98 3119.78 1546.71 3128.16 1543.4C3140.32 1536.36 3152.52 1529.27 3164.79 1522.1ZM3224.88 1499.64C3217.81 1502.33 3210.79 1504.94 3203.74 1507.58C3193.59 1513.56 3183.52 1519.45 3173.45 1525.34C3180.3 1522.58 3187.16 1519.8 3194.04 1517C3204.29 1511.26 3214.57 1505.47 3224.88 1499.64ZM3284.05 1476.92L3269.68 1482.46L3247.72 1494.95L3261.07 1489.4C3268.71 1485.26 3276.38 1481.1 3284.05 1476.92ZM3340.78 1454.63L3336.93 1456.17L3327.47 1461.38L3329.49 1460.51L3340.78 1454.63ZM1466.22 1226.68C1467.01 1227.89 1467.77 1229.16 1468.56 1230.37C1468.05 1228.23 1467.58 1226.04 1467.05 1223.91L1465.6 1220.59C1465.79 1222.64 1466.03 1224.62 1466.22 1226.68ZM1451.8 1205.16C1453.74 1208.02 1455.72 1210.82 1457.65 1213.71C1457.16 1208.8 1456.66 1203.92 1456.16 1199.02C1454.74 1195.91 1453.37 1192.7 1451.94 1189.61C1451.89 1194.79 1451.91 1199.89 1451.8 1205.16ZM1436.99 1183.54C1439.59 1187.22 1442.12 1191.06 1444.7 1194.79C1444.8 1188.18 1444.81 1181.68 1444.88 1175.12C1442.96 1171.15 1441.04 1167.18 1439.1 1163.26C1438.42 1169.99 1437.8 1176.66 1436.99 1183.54ZM1421.71 1162.66C1424.69 1166.7 1427.7 1170.66 1430.65 1174.76C1431.55 1166.74 1432.31 1158.89 1433.11 1150.99C1430.88 1146.6 1428.56 1142.36 1426.28 1138.04C1424.81 1146.19 1423.38 1154.28 1421.71 1162.66ZM1406.1 1141.64C1409.39 1145.92 1412.6 1150.4 1415.86 1154.75C1417.64 1145.68 1419.23 1136.83 1420.84 1127.95C1418.31 1123.27 1415.82 1118.5 1413.24 1113.89C1410.93 1123.07 1408.66 1132.19 1406.1 1141.64ZM1389.97 1121.39C1393.48 1125.77 1397 1130.14 1400.49 1134.6C1403.21 1124.44 1405.68 1114.58 1408.18 1104.68C1405.45 1099.9 1402.59 1095.34 1399.81 1090.65C1396.6 1100.82 1393.48 1110.89 1389.97 1121.39ZM1373.5 1101.16C1377.22 1105.59 1380.9 1110.1 1384.58 1114.63C1388.22 1103.66 1391.53 1093.06 1394.89 1082.41C1391.94 1077.53 1389.09 1072.46 1386.09 1067.66C1381.97 1078.74 1377.97 1089.7 1373.5 1101.16ZM3180.44 1497.86C3169.49 1501.6 3158.6 1505.27 3147.71 1508.92C3133.04 1518.2 3118.44 1527.4 3103.91 1536.51C3114.59 1532.69 3125.26 1528.87 3136 1524.96C3150.74 1516.02 3165.55 1506.98 3180.44 1497.86ZM3242.43 1476.37C3232.11 1480 3221.8 1483.62 3211.55 1487.18C3197.87 1495.6 3184.25 1503.95 3170.7 1512.23C3180.73 1508.51 3190.82 1504.72 3200.91 1500.93C3214.68 1492.82 3228.52 1484.63 3242.43 1476.37ZM3304.43 1454.28C3295.19 1457.62 3286.01 1460.91 3276.82 1464.18C3264.51 1471.55 3252.23 1478.88 3240.01 1486.13C3248.94 1482.72 3257.9 1479.27 3266.87 1475.8C3279.33 1468.69 3291.86 1461.51 3304.43 1454.28ZM3366.61 1431.55C3358.83 1434.43 3351.08 1437.27 3343.34 1440.11C3332.87 1446.18 3322.43 1452.21 3312.04 1458.2C3319.35 1455.32 3326.63 1452.49 3333.98 1449.58C3344.82 1443.61 3355.69 1437.61 3366.61 1431.55ZM3428.01 1408.62L3411.15 1414.98C3403.2 1419.42 3395.28 1423.84 3387.37 1428.24C3392.57 1426.15 3397.82 1423.99 3403.04 1421.88C3411.34 1417.48 3419.66 1413.07 3428.01 1408.62ZM3486.51 1386.39L3480.3 1388.76L3468.42 1395.14L3473.26 1393.15L3486.51 1386.39ZM1486.64 1277.05C1487.74 1278.31 1488.85 1279.53 1489.95 1280.8C1489.09 1278.5 1488.16 1276.32 1487.3 1274.03C1486.58 1272.84 1485.89 1271.6 1485.18 1270.41L1486.64 1277.05ZM1469.11 1257.1C1471.68 1259.96 1474.21 1262.93 1476.77 1265.82C1476.53 1264.67 1476.26 1263.55 1476.02 1262.4C1475.24 1258.74 1474.35 1255.26 1473.52 1251.67C1471.62 1248.64 1469.7 1245.64 1467.79 1242.63C1468.22 1247.48 1468.65 1252.3 1469.11 1257.1ZM1451.26 1237.67C1454.52 1241.19 1457.81 1244.62 1461.05 1248.19C1460.78 1245.14 1460.48 1242.15 1460.23 1239.07C1459.95 1235.66 1459.56 1232.41 1459.21 1229.1C1456.71 1225.27 1454.19 1221.49 1451.66 1217.72C1451.48 1224.43 1451.37 1231.06 1451.26 1237.67ZM1433.13 1218.19C1436.85 1222.08 1440.52 1226.15 1444.22 1230.1C1444.31 1225.34 1444.36 1220.65 1444.5 1215.83C1444.58 1212.95 1444.56 1210.19 1444.58 1207.39C1441.67 1203.12 1438.76 1198.83 1435.83 1194.61C1434.87 1202.55 1433.99 1210.38 1433.13 1218.19ZM1414.6 1199.33C1418.61 1203.4 1422.64 1207.41 1426.63 1211.53C1427.33 1205.25 1428.01 1199 1428.79 1192.63C1429.09 1190.17 1429.31 1187.81 1429.54 1185.43C1426.37 1180.97 1423.11 1176.7 1419.89 1172.35C1418.06 1181.43 1416.31 1190.41 1414.6 1199.33ZM1395.81 1180.43C1400.05 1184.6 1404.27 1188.89 1408.49 1193.13C1410 1185.29 1411.5 1177.46 1413.12 1169.49C1413.47 1167.77 1413.75 1166.13 1414.06 1164.45C1410.63 1159.84 1407.23 1155.16 1403.79 1150.56C1401.05 1160.61 1398.4 1170.56 1395.81 1180.43ZM1376.59 1162.01C1381.02 1166.23 1385.46 1170.46 1389.88 1174.75C1392.35 1165.36 1394.84 1155.95 1397.46 1146.39C1397.74 1145.35 1397.98 1144.36 1398.24 1143.36C1394.62 1138.69 1390.95 1134.16 1387.28 1129.61C1383.64 1140.5 1380.07 1151.3 1376.59 1162.01ZM1357.09 1143.75C1361.68 1147.96 1366.26 1152.19 1370.82 1156.48C1374.39 1145.53 1378.05 1134.48 1381.79 1123.33L1381.93 1122.9C1378.13 1118.21 1374.38 1113.42 1370.55 1108.81C1365.97 1120.56 1361.49 1132.2 1357.09 1143.75ZM3256.15 1451.12C3244.17 1455.03 3232.23 1458.88 3220.31 1462.69C3204.56 1472.79 3188.89 1482.79 3173.3 1492.71C3184.99 1488.73 3196.75 1484.67 3208.53 1480.59C3224.32 1470.87 3240.19 1461.04 3256.15 1451.12ZM3319.55 1430.14C3308.02 1434 3296.52 1437.82 3285.04 1441.62C3270.01 1451.01 3255.05 1460.31 3240.16 1469.53C3251.37 1465.59 3262.58 1461.62 3273.85 1457.6C3289.01 1448.53 3304.24 1439.38 3319.55 1430.14ZM3383.35 1408.52C3372.48 1412.25 3361.64 1415.94 3350.81 1419.6C3336.64 1428.2 3322.54 1436.72 3308.5 1445.18C3319.08 1441.34 3329.73 1437.43 3340.37 1433.53C3354.63 1425.27 3368.96 1416.93 3383.35 1408.52ZM3447.69 1386.19C3437.76 1389.67 3427.84 1393.14 3417.94 1396.58C3405.06 1404.15 3392.25 1411.64 3379.48 1419.1C3388.99 1415.57 3398.51 1412.03 3408.07 1408.45C3421.23 1401.09 3434.43 1393.68 3447.69 1386.19ZM3511.81 1363.56C3503.31 1366.59 3494.84 1369.58 3486.37 1372.58C3475.12 1378.97 3463.94 1385.28 3452.77 1391.59C3460.92 1388.49 3469.12 1385.34 3477.3 1382.21C3488.76 1376.04 3500.27 1369.82 3511.81 1363.56ZM3575 1340.9L3555.67 1347.87C3546.94 1352.64 3538.25 1357.37 3529.57 1362.09C3535.51 1359.79 3541.42 1357.52 3547.37 1355.2C3556.55 1350.47 3565.77 1345.68 3575 1340.9ZM3635.57 1318.93L3626.18 1322.35L3611.01 1330.27L3618.8 1327.2L3635.57 1318.93ZM1514.72 1324.14L1518.71 1327.62C1517.77 1326.04 1516.85 1324.43 1515.91 1322.86C1514.77 1321.47 1513.63 1320.12 1512.49 1318.73L1514.72 1324.14ZM1493.49 1306.07C1496.53 1308.63 1499.57 1311.12 1502.6 1313.7C1500.93 1309.5 1499.32 1305.16 1497.68 1300.89C1495.14 1297.88 1492.61 1294.82 1490.06 1291.84C1491.18 1296.62 1492.32 1301.38 1493.49 1306.07ZM1472.35 1288.38C1476.3 1291.64 1480.24 1295 1484.19 1298.29C1482.76 1292.38 1481.36 1286.42 1480 1280.4C1476.75 1276.68 1473.5 1272.97 1470.25 1269.3C1470.9 1275.74 1471.62 1282.06 1472.35 1288.38ZM1451 1271.08C1455.46 1274.67 1459.91 1278.18 1464.36 1281.81C1463.57 1274.64 1462.83 1267.39 1462.13 1260.07C1458.46 1255.99 1454.75 1252.04 1451.06 1248.02C1450.97 1255.81 1450.98 1263.45 1451 1271.08ZM1429.46 1253.79C1434.25 1257.56 1439.03 1261.49 1443.81 1265.31C1443.82 1257.11 1443.88 1248.83 1444.01 1240.45C1440.02 1236.16 1436.06 1231.82 1432.05 1227.6C1431.11 1236.44 1430.28 1245.13 1429.46 1253.79ZM1407.64 1236.98C1412.67 1240.84 1417.7 1244.67 1422.72 1248.59C1423.6 1239.39 1424.54 1230.12 1425.58 1220.73C1421.38 1216.36 1417.14 1212.18 1412.93 1207.89C1411.07 1217.7 1409.34 1227.36 1407.64 1236.98ZM1385.62 1220.17C1390.82 1224.08 1396.02 1228.06 1401.22 1232.03C1403.01 1222.01 1404.86 1211.92 1406.81 1201.68C1402.43 1197.27 1398.09 1192.72 1393.69 1188.38C1390.91 1199.09 1388.23 1209.66 1385.62 1220.17ZM1363.29 1203.69C1368.65 1207.62 1374.01 1211.57 1379.37 1215.56C1382.08 1204.7 1384.86 1193.77 1387.76 1182.69C1383.23 1178.27 1378.67 1173.95 1374.12 1169.62C1370.42 1181.08 1366.8 1192.44 1363.29 1203.69ZM1340.74 1187.38C1346.22 1191.29 1351.69 1195.18 1357.16 1199.16C1360.79 1187.59 1364.52 1175.89 1368.35 1164.09C1363.69 1159.68 1359.03 1155.3 1354.35 1150.98C1349.71 1163.22 1345.17 1175.36 1340.74 1187.38ZM3332.1 1403.59C3319.1 1407.64 3306.12 1411.67 3293.17 1415.64C3276.67 1426.36 3260.25 1436.98 3243.91 1447.5C3256.58 1443.39 3269.28 1439.24 3282.01 1435.03C3298.61 1424.66 3315.32 1414.17 3332.1 1403.59ZM3396.81 1383.15C3384.12 1387.2 3371.44 1391.22 3358.79 1395.21C3342.71 1405.39 3326.71 1415.48 3310.78 1425.47C3323.12 1421.36 3335.48 1417.2 3347.87 1412.99C3364.1 1403.14 3380.42 1393.19 3396.81 1383.15ZM3462.29 1362.02C3450.02 1366.02 3437.77 1369.99 3425.54 1373.93C3410.01 1383.48 3394.55 1392.95 3379.17 1402.34C3391.09 1398.26 3403.04 1394.12 3415.01 1389.97C3430.7 1380.74 3446.46 1371.42 3462.29 1362.02ZM3528.28 1340.37C3516.64 1344.22 3505.02 1348.05 3493.41 1351.86C3478.73 1360.61 3464.12 1369.3 3449.57 1377.91C3460.81 1373.96 3472.08 1370 3483.37 1366C3498.28 1357.54 3513.25 1348.99 3528.28 1340.37ZM3594.49 1318.37C3583.77 1321.95 3573.06 1325.52 3562.37 1329.07C3548.82 1336.88 3535.32 1344.63 3521.88 1352.32C3532.15 1348.66 3542.43 1344.98 3552.74 1341.28C3566.6 1333.7 3580.52 1326.06 3594.49 1318.37ZM3660.53 1296.18L3632.27 1305.7C3620.29 1312.34 3608.34 1318.95 3596.44 1325.5L3623.3 1315.74C3635.67 1309.27 3648.08 1302.74 3660.53 1296.18ZM3725.64 1274.18L3703.13 1281.8C3693.41 1286.95 3683.69 1292.11 3674.03 1297.21L3694.79 1289.58C3705.05 1284.47 3715.32 1279.35 3725.64 1274.18ZM3787.79 1253.12L3774.87 1257.5L3755.85 1267.07L3767.28 1262.85L3788.23 1252.97L3787.79 1253.12ZM1552.2 1367.91L1556.05 1370.35C1555.08 1369.26 1554.09 1368.2 1553.11 1367.09L1549.89 1364.3C1550.66 1365.49 1551.42 1366.73 1552.2 1367.91ZM1526.51 1351.57C1530.24 1353.93 1533.97 1356.32 1537.7 1358.69C1535.31 1354.95 1532.87 1351.32 1530.52 1347.49C1527.35 1344.7 1524.18 1341.96 1521.01 1339.19C1522.81 1343.38 1524.67 1347.46 1526.51 1351.57ZM1501.35 1335.81C1506.07 1338.74 1510.76 1341.59 1515.49 1344.56C1513.18 1339.27 1510.94 1333.85 1508.69 1328.45C1504.66 1324.98 1500.63 1321.51 1496.59 1318.08C1498.15 1324.03 1499.72 1329.97 1501.35 1335.81ZM1476.37 1320.36C1481.67 1323.6 1486.99 1326.93 1492.3 1330.21C1490.51 1323.57 1488.74 1316.89 1487.05 1310.08C1482.55 1306.3 1478.05 1302.52 1473.55 1298.78C1474.43 1306.07 1475.38 1313.24 1476.37 1320.36ZM1451.39 1305.23C1457.07 1308.66 1462.74 1312.01 1468.45 1315.49C1467.41 1307.75 1466.42 1299.95 1465.49 1292.04C1460.67 1288.07 1455.83 1284.24 1451 1280.33C1451.06 1288.73 1451.2 1297.01 1451.39 1305.23ZM1426.34 1290.15C1432.24 1293.66 1438.19 1297.29 1444.11 1300.85C1443.94 1292.17 1443.82 1283.42 1443.79 1274.54C1438.74 1270.48 1433.69 1266.36 1428.63 1262.37C1427.78 1271.74 1427.03 1280.98 1426.34 1290.15ZM1401.13 1275.41C1407.22 1278.97 1413.31 1282.5 1419.42 1286.11C1420.17 1276.52 1420.97 1266.85 1421.88 1257.05C1416.66 1252.95 1411.43 1249 1406.21 1244.97C1404.42 1255.24 1402.75 1265.36 1401.13 1275.41ZM1375.8 1260.7C1382.01 1264.27 1388.24 1267.89 1394.47 1271.51C1396.16 1261.11 1397.9 1250.64 1399.77 1240.02C1394.42 1235.92 1389.07 1231.76 1383.72 1227.73C1380.98 1238.84 1378.35 1249.82 1375.8 1260.7ZM1350.29 1246.19C1356.61 1249.77 1362.94 1253.36 1369.29 1256.99C1371.92 1245.8 1374.61 1234.54 1377.45 1223.11C1371.98 1219.01 1366.5 1214.99 1361.02 1210.97C1357.35 1222.83 1353.76 1234.58 1350.29 1246.19ZM1324.65 1231.84C1331.06 1235.39 1337.45 1238.92 1343.88 1242.55C1347.44 1230.64 1351.12 1218.6 1354.9 1206.45C1349.33 1202.38 1343.75 1198.38 1338.17 1194.39C1333.56 1206.99 1329.04 1219.48 1324.65 1231.84ZM3744.91 1251.42L3710.08 1262.3C3695.66 1270.39 3681.29 1278.43 3666.98 1286.41L3700.35 1275.14C3715.14 1267.29 3729.99 1259.39 3744.91 1251.42ZM3812.59 1230.35L3781.35 1240.06C3768.35 1247.04 3755.38 1253.98 3742.45 1260.88L3772.08 1250.84C3785.54 1244.05 3799.04 1237.22 3812.59 1230.35ZM3879.21 1209.75L3853.28 1217.74C3842.3 1223.34 3831.35 1228.9 3820.44 1234.44L3844.55 1226.28C3856.07 1220.79 3867.62 1215.29 3879.21 1209.75ZM3943.27 1190.17L3925.52 1195.57L3901.95 1206.87L3917.44 1201.64L3943.27 1190.17ZM4001.94 1172.49L3997.94 1173.69L3989.47 1177.47L3991.15 1176.9L4001.94 1172.49ZM3407.92 1355.44C3394.06 1359.59 3380.2 1363.72 3366.35 1367.81C3349.26 1379.06 3332.24 1390.2 3315.32 1401.24C3328.79 1397.06 3342.27 1392.85 3355.79 1388.6C3373.08 1377.65 3390.45 1366.6 3407.92 1355.44ZM3474.22 1335.4C3460.52 1339.58 3446.81 1343.74 3433.11 1347.87C3416.21 1358.71 3399.39 1369.45 3382.67 1380.08C3395.98 1375.85 3409.3 1371.59 3422.64 1367.29C3439.76 1356.76 3456.94 1346.14 3474.22 1335.4ZM3541.2 1314.86C3527.75 1319.01 3514.3 1323.15 3500.86 1327.27C3484.27 1337.61 3467.76 1347.86 3451.33 1358.02C3464.37 1353.79 3477.42 1349.52 3490.51 1345.23C3507.33 1335.2 3524.22 1325.08 3541.2 1314.86ZM3608.79 1293.91L3569.7 1306.05C3553.59 1315.78 3537.55 1325.44 3521.59 1335C3534.18 1330.84 3546.8 1326.66 3559.43 1322.46C3575.81 1313.02 3592.26 1303.51 3608.79 1293.91ZM3676.82 1272.69L3639.5 1284.34C3624.08 1293.34 3608.73 1302.27 3593.44 1311.12L3629.43 1299.05C3645.16 1290.34 3660.95 1281.55 3676.82 1272.69ZM1599.65 1406.48C1600.81 1406.99 1601.98 1407.54 1603.15 1408.05L1601.76 1407L1598 1404.78L1599.65 1406.48ZM1569.18 1392.71L1575.4 1395.57C1577.56 1396.57 1579.72 1397.51 1581.88 1398.49C1579.13 1395.61 1576.34 1392.84 1573.61 1389.9C1569.79 1387.53 1565.99 1385.13 1562.18 1382.73C1564.51 1386.06 1566.84 1389.4 1569.18 1392.71ZM1539.24 1378.96L1556.14 1386.73C1553.06 1382.23 1549.99 1377.73 1546.97 1373.12C1541.92 1369.89 1536.89 1366.71 1531.85 1363.5C1534.27 1368.74 1536.76 1373.84 1539.24 1378.96ZM1510.09 1365.66C1516.38 1368.52 1522.64 1371.36 1528.96 1374.24C1526.19 1368.39 1523.48 1362.45 1520.78 1356.47C1515.27 1352.99 1509.75 1349.52 1504.25 1346.08C1506.15 1352.68 1508.1 1359.21 1510.09 1365.66ZM1481.24 1352.6C1487.9 1355.6 1494.61 1358.65 1501.31 1361.69C1499.2 1354.7 1497.16 1347.6 1495.15 1340.44C1489.33 1336.83 1483.51 1333.22 1477.71 1329.66C1478.83 1337.39 1479.99 1345.06 1481.24 1352.6ZM1452.53 1339.73C1459.48 1342.83 1466.35 1345.88 1473.34 1349.02C1472.05 1340.99 1470.8 1332.91 1469.65 1324.67C1463.62 1320.98 1457.63 1317.4 1451.61 1313.77C1451.85 1322.52 1452.14 1331.2 1452.53 1339.73ZM1423.89 1326.95C1430.94 1330.08 1438.08 1333.28 1445.17 1336.45C1444.79 1327.51 1444.46 1318.5 1444.24 1309.33C1438.08 1305.63 1431.89 1301.87 1425.75 1298.21C1425.04 1307.9 1424.41 1317.49 1423.89 1326.95ZM1395.21 1314.33C1402.41 1317.49 1409.58 1320.63 1416.82 1323.84C1417.38 1314.02 1418.01 1304.13 1418.76 1294.07C1412.46 1290.34 1406.2 1286.72 1399.92 1283.05C1398.26 1293.59 1396.67 1304.03 1395.21 1314.33ZM1366.52 1301.75C1373.77 1304.91 1381.05 1308.11 1388.35 1311.31C1389.87 1300.7 1391.48 1289.99 1393.21 1279.12C1386.84 1275.41 1380.46 1271.68 1374.1 1268.02C1371.47 1279.39 1368.93 1290.65 1366.52 1301.75ZM1337.74 1289.27C1345.06 1292.44 1352.39 1295.62 1359.76 1298.82C1362.24 1287.45 1364.84 1275.95 1367.55 1264.3C1361.09 1260.59 1354.64 1256.94 1348.19 1253.29C1344.6 1265.41 1341.1 1277.41 1337.74 1289.27ZM1308.94 1276.89C1316.31 1280.05 1323.66 1283.18 1331.08 1286.39C1334.52 1274.28 1338.09 1262.02 1341.77 1249.64C1335.23 1245.95 1328.72 1242.34 1322.2 1238.71C1317.65 1251.58 1313.24 1264.3 1308.94 1276.89ZM3689.59 1246.63L3646.9 1259.12C3629.62 1269.7 3612.44 1280.16 3595.32 1290.54L3636.62 1277.68C3654.19 1267.43 3671.85 1257.08 3689.59 1246.63ZM3759.26 1226.34C3745.41 1230.35 3731.56 1234.39 3717.69 1238.43C3700.81 1248.41 3683.98 1258.32 3667.24 1268.13L3697.22 1258.77L3707.29 1255.62C3724.53 1245.94 3741.85 1236.18 3759.26 1226.34ZM3828.98 1206.24C3815.68 1210.05 3802.37 1213.88 3789.05 1217.72C3772.73 1226.99 3756.47 1236.19 3740.29 1245.32L3778.64 1233.36C3795.36 1224.39 3812.12 1215.36 3828.98 1206.24ZM3898.4 1186.57C3885.88 1190.08 3873.35 1193.61 3860.81 1197.17C3845.35 1205.56 3829.94 1213.9 3814.59 1222.18L3850.57 1211.04C3866.44 1202.94 3882.4 1194.78 3898.4 1186.57ZM3967.17 1167.54C3955.75 1170.65 3944.34 1173.79 3932.91 1176.95C3918.71 1184.26 3904.55 1191.53 3890.44 1198.76L3922.91 1188.83C3937.61 1181.77 3952.36 1174.67 3967.17 1167.54ZM4034.45 1149.47C4024.6 1152.07 4014.74 1154.68 4004.88 1157.33L3967.89 1175.19C3977.07 1172.42 3986.25 1169.66 3995.44 1166.91L4034.45 1149.47ZM4099.23 1132.69C4091.7 1134.6 4084.18 1136.53 4076.64 1138.46L4047.89 1151.35L4068.16 1145.4L4099.23 1132.69ZM4158.78 1117.89L4147.92 1120.55L4132.57 1126.82L4140.68 1124.52L4158.78 1117.89ZM3483.69 1306.73C3468.93 1311 3454.15 1315.25 3439.35 1319.49C3421.83 1331.15 3404.39 1342.71 3387.04 1354.16C3401.39 1349.89 3415.75 1345.58 3430.12 1341.25C3447.88 1329.86 3465.75 1318.34 3483.69 1306.73ZM3551.67 1286.98L3507.6 1299.81C3490.05 1311.19 3472.59 1322.47 3455.22 1333.66C3469.46 1329.33 3483.72 1324.98 3497.97 1320.61C3515.77 1309.52 3533.68 1298.3 3551.67 1286.98ZM3620.36 1266.9L3576.8 1279.64C3559.32 1290.67 3541.94 1301.59 3524.63 1312.43C3538.69 1308.1 3552.77 1303.75 3566.85 1299.38C3584.59 1288.66 3602.43 1277.83 3620.36 1266.9ZM1656.83 1438.37L1657.39 1438.52L1656.62 1438.22L1656.83 1438.37ZM1621.63 1427.95C1626.26 1429.35 1630.88 1430.7 1635.5 1432.08C1632.77 1430.13 1630.02 1428.23 1627.29 1426.24C1622.84 1424.38 1618.38 1422.48 1613.93 1420.57C1616.49 1423.04 1619.05 1425.51 1621.63 1427.95ZM1586.89 1417.04L1590.72 1418.28C1595.86 1419.93 1601 1421.49 1606.13 1423.1C1602.54 1419.59 1598.96 1416.07 1595.4 1412.47C1589.37 1409.81 1583.36 1407.09 1577.35 1404.35C1580.49 1408.66 1583.7 1412.82 1586.89 1417.04ZM1552.89 1406.08L1574.75 1413.13C1571.23 1408.35 1567.8 1403.36 1564.35 1398.42C1557.6 1395.31 1550.9 1392.25 1544.19 1389.16C1547.04 1394.9 1549.96 1400.5 1552.89 1406.08ZM1519.7 1395.38L1543.11 1402.93C1539.97 1396.83 1536.87 1390.67 1533.82 1384.4C1526.84 1381.21 1519.87 1378.02 1512.93 1374.86C1515.13 1381.8 1517.39 1388.64 1519.7 1395.38ZM1487.05 1384.85L1511.13 1392.62C1508.73 1385.47 1506.39 1378.22 1504.11 1370.87C1496.97 1367.62 1489.84 1364.39 1482.74 1361.19C1484.12 1369.16 1485.55 1377.07 1487.05 1384.85ZM1454.57 1374.36L1479.13 1382.3C1477.59 1374.17 1476.13 1365.92 1474.74 1357.57C1467.45 1354.28 1460.23 1351.07 1452.97 1347.82C1453.44 1356.76 1453.95 1365.64 1454.57 1374.36ZM1422.27 1363.93L1447.11 1371.95C1446.5 1362.93 1445.99 1353.77 1445.54 1344.51C1438.2 1341.23 1430.82 1337.92 1423.52 1334.68C1423.03 1344.53 1422.59 1354.31 1422.27 1363.93ZM1390.05 1353.52L1415.05 1361.6C1415.4 1351.7 1415.86 1341.67 1416.4 1331.53C1408.96 1328.23 1401.61 1325.01 1394.21 1321.76C1392.73 1332.46 1391.33 1343.07 1390.05 1353.52ZM1357.91 1343.12L1383.01 1351.24C1384.33 1340.54 1385.78 1329.68 1387.31 1318.73C1379.86 1315.46 1372.4 1312.18 1365 1308.95C1362.54 1320.45 1360.15 1331.87 1357.91 1343.12ZM1325.77 1332.71L1350.96 1340.87C1353.26 1329.39 1355.7 1317.75 1358.23 1306.01C1350.72 1302.74 1343.24 1299.5 1335.77 1296.27C1332.32 1308.56 1328.98 1320.71 1325.77 1332.71ZM1293.74 1322.34L1318.92 1330.5C1322.19 1318.27 1325.59 1305.89 1329.11 1293.39C1321.57 1290.13 1314.09 1286.94 1306.6 1283.72C1302.18 1296.74 1297.9 1309.61 1293.74 1322.34ZM3699.76 1218.21C3684.21 1222.54 3668.62 1226.89 3652.99 1231.27C3634.85 1242.85 3616.8 1254.33 3598.84 1265.7L3631.02 1256.28L3644.01 1252.47C3662.49 1241.17 3681.09 1229.73 3699.76 1218.21ZM3770.73 1198.58C3755.38 1202.79 3739.98 1207.04 3724.55 1211.32C3706.36 1222.57 3688.26 1233.73 3670.24 1244.79L3714.79 1231.78C3733.34 1220.82 3752 1209.74 3770.73 1198.58ZM3841.96 1179.27C3826.9 1183.3 3811.8 1187.38 3796.67 1191.5C3778.55 1202.33 3760.52 1213.04 3742.58 1223.69C3757.14 1219.45 3771.69 1215.24 3786.23 1211.04C3804.72 1200.54 3823.3 1189.95 3841.96 1179.27ZM3913.12 1160.5C3898.44 1164.3 3883.73 1168.16 3868.99 1172.07C3851.16 1182.31 3833.39 1192.48 3815.72 1202.55C3829.85 1198.5 3843.98 1194.47 3858.09 1190.47C3876.36 1180.55 3894.69 1170.57 3913.12 1160.5ZM3983.79 1142.56C3969.67 1146.07 3955.51 1149.64 3941.32 1153.25C3923.96 1162.77 3906.65 1172.24 3889.44 1181.61C3903.04 1177.79 3916.64 1173.99 3930.22 1170.23C3948 1161.08 3965.87 1151.84 3983.79 1142.56ZM4053.74 1125.65C4040.38 1128.79 4026.97 1132 4013.55 1135.26C3996.91 1143.89 3980.37 1152.46 3963.86 1160.98C3976.69 1157.48 3989.51 1154 4002.32 1150.56C4019.4 1142.31 4036.54 1134 4053.74 1125.65ZM4122.41 1110.03C4110.03 1112.75 4097.61 1115.54 4085.18 1118.38C4069.72 1125.9 4054.3 1133.39 4038.94 1140.84C4050.7 1137.75 4062.46 1134.68 4074.21 1131.66L4122.41 1110.03ZM4189.15 1095.96C4178.15 1098.18 4167.12 1100.47 4156.08 1102.8L4114.83 1121.33C4125.15 1118.74 4135.47 1116.19 4145.78 1113.67L4189.15 1095.96ZM4252.89 1083.69C4243.92 1085.33 4234.93 1087.02 4225.93 1088.74L4192.03 1102.55C4200.23 1100.61 4208.42 1098.7 4216.62 1096.81L4252.89 1083.69ZM4311.84 1073.45C4306.1 1074.39 4300.36 1075.36 4294.61 1076.33L4272.52 1084.27C4277.26 1083.23 4281.99 1082.22 4286.73 1081.21L4311.84 1073.45ZM3559.19 1257.61L3512.17 1270.8C3494.41 1282.75 3476.73 1294.58 3459.15 1306.32C3474.31 1301.96 3489.45 1297.58 3504.58 1293.19C3522.7 1281.44 3540.89 1269.58 3559.19 1257.61ZM3585 1250.36L3582.2 1251.15C3564.22 1262.94 3546.32 1274.65 3528.52 1286.23L3573.89 1273C3592.25 1261.42 3610.68 1249.74 3629.22 1237.94L3585 1250.36ZM1683.56 1456.1C1688.31 1456.95 1693.07 1457.79 1697.81 1458.61C1695.5 1457.49 1693.19 1456.36 1690.89 1455.22C1685.98 1453.91 1681.07 1452.53 1676.15 1451.19C1678.63 1452.8 1681.08 1454.5 1683.56 1456.1ZM1644.33 1448.77C1651.39 1450.14 1658.43 1451.48 1665.47 1452.79C1661.52 1450.16 1657.54 1447.62 1653.61 1444.92C1646.81 1442.98 1640.01 1440.93 1633.21 1438.91C1636.89 1442.28 1640.63 1445.49 1644.33 1448.77ZM1605.43 1440.9L1606.08 1441.04C1614.15 1442.74 1622.21 1444.35 1630.27 1445.97C1626.08 1442.15 1621.94 1438.22 1617.8 1434.29C1610.06 1431.94 1602.3 1429.49 1594.55 1427.02C1598.15 1431.71 1601.76 1436.38 1605.43 1440.9ZM1567.45 1432.82C1576.35 1434.71 1585.23 1436.61 1594.22 1438.51C1590.25 1433.52 1586.37 1428.31 1582.46 1423.17L1557.73 1415.21C1560.92 1421.16 1564.16 1427.04 1567.45 1432.82ZM1530.37 1424.87C1539.54 1426.85 1548.77 1428.83 1558.03 1430.81C1554.57 1424.61 1551.12 1418.38 1547.76 1412L1522.71 1403.92C1525.21 1410.99 1527.76 1417.99 1530.37 1424.87ZM1493.77 1416.9L1521.89 1423.02C1519.2 1415.82 1516.58 1408.52 1514.02 1401.11L1488.66 1392.93C1490.29 1401.03 1491.99 1409.02 1493.77 1416.9ZM1457.48 1408.89C1466.94 1410.99 1476.34 1413.09 1485.91 1415.18C1484.1 1407.04 1482.4 1398.75 1480.74 1390.38L1455.16 1382.12C1455.85 1391.16 1456.62 1400.09 1457.48 1408.89ZM1421.48 1400.88C1430.9 1403 1440.48 1405.11 1449.99 1407.23C1449.13 1398.18 1448.38 1388.99 1447.69 1379.71L1422.06 1371.43C1421.77 1381.37 1421.57 1391.2 1421.48 1400.88ZM1385.67 1392.76C1395.17 1394.92 1404.58 1397.08 1414.19 1399.24C1414.3 1389.33 1414.53 1379.26 1414.83 1369.09L1389.19 1360.8C1387.92 1371.58 1386.74 1382.25 1385.67 1392.76ZM1350.04 1384.61C1359.46 1386.78 1368.99 1388.96 1378.51 1391.13C1379.61 1380.4 1380.84 1369.52 1382.15 1358.52L1356.52 1350.24C1354.25 1361.83 1352.08 1373.3 1350.04 1384.61ZM1314.49 1376.35C1323.94 1378.55 1333.4 1380.76 1342.95 1382.96C1345.03 1371.46 1347.25 1359.78 1349.58 1347.99L1323.92 1339.68C1320.65 1352.05 1317.51 1364.27 1314.49 1376.35ZM1279.18 1368.04C1288.6 1370.27 1297.96 1372.49 1307.49 1374.72C1310.55 1362.45 1313.75 1350.03 1317.07 1337.47L1291.51 1329.18C1287.26 1342.29 1283.15 1355.24 1279.18 1368.04ZM3634.33 1208.18C3617.75 1212.74 3601.08 1217.34 3584.35 1221.98C3566.53 1234.08 3548.79 1246.09 3531.14 1258L3579.22 1244.49C3597.49 1232.5 3615.87 1220.38 3634.33 1208.18ZM3706.59 1188.39C3690.01 1192.9 3673.35 1197.46 3656.6 1202.05C3638.34 1214.16 3620.17 1226.16 3602.07 1238.08L3650.12 1224.59C3668.85 1212.63 3687.67 1200.57 3706.59 1188.39ZM3779.36 1168.81C3762.83 1173.21 3746.21 1177.67 3729.52 1182.18C3710.86 1194.22 3692.32 1206.13 3673.85 1217.95C3689.85 1213.48 3705.81 1209.04 3721.73 1204.62C3740.85 1192.79 3760.05 1180.86 3779.36 1168.81ZM3852.32 1149.71C3835.92 1153.93 3819.44 1158.23 3802.87 1162.59C3783.96 1174.42 3765.12 1186.17 3746.39 1197.8C3762.25 1193.42 3778.08 1189.09 3793.86 1184.79C3813.25 1173.2 3832.74 1161.5 3852.32 1149.71ZM3925.21 1131.35C3909.04 1135.32 3892.8 1139.39 3876.48 1143.53C3857.38 1155.07 3838.37 1166.51 3819.45 1177.85C3835.1 1173.63 3850.71 1169.45 3866.28 1165.33C3885.83 1154.11 3905.48 1142.76 3925.21 1131.35ZM3997.67 1114.05C3981.86 1117.71 3965.97 1121.46 3950.02 1125.3C3930.87 1136.41 3911.84 1147.4 3892.87 1158.33C3908.19 1154.31 3923.48 1150.36 3938.73 1146.47C3958.29 1135.75 3977.93 1124.95 3997.67 1114.05ZM4069.3 1098.09C4053.94 1101.38 4038.51 1104.76 4023.01 1108.26C4004.09 1118.72 3985.23 1129.14 3966.48 1139.45C3981.37 1135.72 3996.22 1132.04 4011.03 1128.45C4030.36 1118.41 4049.8 1108.27 4069.3 1098.09ZM4139.8 1083.74C4125.05 1086.58 4110.24 1089.55 4095.35 1092.62C4076.82 1102.31 4058.4 1111.92 4040.03 1121.48C4054.33 1118.09 4068.59 1114.77 4082.82 1111.51C4101.74 1102.31 4120.73 1093.05 4139.8 1083.74ZM4208.67 1071.25C4194.68 1073.61 4180.64 1076.1 4166.53 1078.7C4148.75 1087.39 4131.04 1096.04 4113.39 1104.64C4126.92 1101.65 4140.41 1098.73 4153.88 1095.88L4208.67 1071.25ZM4275.6 1060.78C4262.56 1062.64 4249.46 1064.62 4236.32 1066.71L4186.45 1089.15C4199 1086.6 4211.53 1084.13 4224.04 1081.74C4241.17 1074.77 4258.36 1067.78 4275.6 1060.78ZM4339.93 1052.52C4328.13 1053.86 4316.27 1055.32 4304.38 1056.87L4259.23 1075.18C4270.48 1073.15 4281.71 1071.19 4292.92 1069.29C4308.56 1063.69 4324.23 1058.1 4339.93 1052.52ZM4400.79 1046.58C4390.77 1047.41 4380.72 1048.3 4370.63 1049.29C4357.83 1053.8 4345.06 1058.33 4332.31 1062.87C4341.71 1061.4 4351.09 1060 4360.45 1058.64C4373.88 1054.59 4387.33 1050.57 4400.79 1046.58ZM4457.11 1042.83C4449.71 1043.19 4442.29 1043.6 4434.85 1044.08C4425.45 1046.82 4416.06 1049.58 4406.68 1052.35C4413.29 1051.51 4419.89 1050.69 4426.48 1049.91C4436.69 1047.51 4446.9 1045.16 4457.11 1042.83ZM4504.16 1041.15C4501.65 1041.2 4499.14 1041.29 4496.62 1041.36L4486.54 1043.58L4490.9 1043.18C4495.32 1042.49 4499.74 1041.81 4504.16 1041.15ZM1755.85 1477.18C1760.1 1477.51 1764.35 1477.83 1768.6 1478.14L1763.1 1476.41C1758.44 1475.73 1753.79 1475.03 1749.14 1474.32C1751.37 1475.29 1753.61 1476.22 1755.85 1477.18ZM1711.3 1473.33C1718.71 1474.02 1726.13 1474.69 1733.52 1475.32C1729.63 1473.57 1725.74 1471.77 1721.85 1469.98C1714.54 1468.78 1707.23 1467.56 1699.91 1466.3C1703.7 1468.65 1707.49 1471.04 1711.3 1473.33ZM1667.94 1469.04C1676.98 1469.99 1686.03 1470.94 1695.05 1471.81C1690.28 1468.86 1685.49 1465.96 1680.75 1462.92C1672.13 1461.37 1663.49 1459.74 1654.85 1458.1C1659.18 1461.84 1663.56 1465.42 1667.94 1469.04ZM1625.06 1464.26C1635 1465.44 1644.93 1466.59 1654.82 1467.66C1650.16 1463.7 1645.57 1459.56 1640.96 1455.47C1631.62 1453.65 1622.26 1451.72 1612.89 1449.78C1616.93 1454.64 1620.95 1459.56 1625.06 1464.26ZM1583.09 1459.1C1593.54 1460.4 1603.9 1461.71 1614.47 1462.98C1610.08 1457.86 1605.72 1452.68 1601.4 1447.41C1591.63 1445.35 1582.05 1443.29 1572.38 1441.23C1575.91 1447.26 1579.46 1453.26 1583.09 1459.1ZM1541.93 1453.95C1552.46 1455.3 1563.16 1456.63 1573.81 1457.96C1570.05 1451.79 1566.32 1445.55 1562.68 1439.16C1552.91 1437.08 1543.1 1434.99 1533.42 1432.9C1536.19 1440.04 1539.03 1447.05 1541.93 1453.95ZM1501.42 1448.63C1512.09 1450.05 1522.8 1451.46 1533.6 1452.86C1530.64 1445.71 1527.75 1438.43 1524.93 1431.05L1495.5 1424.65C1497.39 1432.77 1499.37 1440.76 1501.42 1448.63ZM1461.32 1443.2C1472.04 1444.68 1482.75 1446.15 1493.61 1447.61C1491.54 1439.51 1489.55 1431.28 1487.64 1422.94C1477.76 1420.77 1468 1418.6 1458.22 1416.44C1459.15 1425.49 1460.19 1434.41 1461.32 1443.2ZM1421.6 1437.67C1432.23 1439.18 1443.05 1440.67 1453.82 1442.16C1452.7 1433.17 1451.67 1424.03 1450.73 1414.77C1440.94 1412.6 1431.11 1410.42 1421.42 1408.24C1421.37 1418.2 1421.43 1428 1421.6 1437.67ZM1382.16 1431.92C1392.85 1433.49 1403.4 1435.09 1414.24 1436.65C1414.09 1426.78 1414.06 1416.77 1414.12 1406.61C1404.28 1404.4 1394.67 1402.19 1384.95 1399.98C1383.9 1410.77 1382.97 1421.42 1382.16 1431.92ZM1343.01 1426.1C1353.54 1427.7 1364.24 1429.27 1374.91 1430.85C1375.75 1420.17 1376.72 1409.32 1377.79 1398.35C1368.09 1396.13 1358.38 1393.92 1348.78 1391.72C1346.73 1403.33 1344.8 1414.79 1343.01 1426.1ZM1304 1420.04C1314.55 1421.69 1325.1 1423.35 1335.79 1424.98C1337.62 1413.5 1339.6 1401.85 1341.69 1390.07C1331.97 1387.82 1322.36 1385.58 1312.75 1383.34C1309.7 1395.73 1306.78 1407.96 1304 1420.04ZM1265.37 1413.86C1275.84 1415.55 1286.27 1417.26 1296.89 1418.93C1299.71 1406.69 1302.66 1394.28 1305.76 1381.71C1296.09 1379.45 1286.6 1377.19 1277.05 1374.93C1273.01 1388.07 1269.12 1401.05 1265.37 1413.86ZM3708.83 1158.64C3691.25 1163.44 3673.56 1168.3 3655.74 1173.22C3638.02 1185.37 3620.39 1197.43 3602.83 1209.4C3619.83 1204.7 3636.75 1200.03 3653.59 1195.41C3671.92 1183.26 3690.33 1171 3708.83 1158.64ZM3783.86 1138.42C3766.26 1143.1 3748.53 1147.87 3730.68 1152.71C3712.31 1165.01 3694.01 1177.22 3675.82 1189.32C3692.84 1184.67 3709.78 1180.06 3726.64 1175.49C3745.62 1163.24 3764.7 1150.89 3783.86 1138.42ZM3859.07 1118.8C3841.49 1123.3 3823.79 1127.89 3805.97 1132.58C3786.98 1144.96 3768.07 1157.23 3749.27 1169.4C3766.28 1164.83 3783.21 1160.32 3800.05 1155.88C3819.62 1143.64 3839.3 1131.27 3859.07 1118.8ZM3934.3 1100.06C3916.87 1104.28 3899.3 1108.62 3881.61 1113.08C3862.07 1125.42 3842.65 1137.64 3823.31 1149.78C3840.18 1145.38 3856.98 1141.05 3873.69 1136.8C3893.8 1124.66 3913.99 1112.42 3934.3 1100.06ZM4008.96 1082.65C3991.78 1086.5 3974.47 1090.51 3957.04 1094.63C3937.14 1106.77 3917.31 1118.84 3897.61 1130.77C3914.27 1126.6 3930.84 1122.52 3947.34 1118.54C3967.77 1106.69 3988.33 1094.7 4008.96 1082.65ZM4082.74 1066.88C4065.91 1070.29 4048.95 1073.87 4031.87 1077.59C4011.69 1089.41 3991.62 1101.11 3971.64 1112.73C3988 1108.87 4004.27 1105.1 4020.47 1101.44C4041.13 1090.01 4061.88 1078.5 4082.74 1066.88ZM4155.13 1053.12C4138.77 1056.01 4122.29 1059.08 4105.7 1062.32C4085.48 1073.6 4065.34 1084.8 4045.31 1095.91C4061.26 1092.41 4077.13 1089.02 4092.92 1085.76C4113.55 1074.96 4134.3 1064.07 4155.13 1053.12ZM4225.79 1041.65C4210.04 1043.96 4194.16 1046.46 4178.16 1049.15C4158.11 1059.71 4138.16 1070.18 4118.28 1080.6C4133.69 1077.53 4149.03 1074.59 4164.3 1071.77C4184.72 1061.78 4205.21 1051.74 4225.79 1041.65ZM4294.29 1032.72C4279.24 1034.41 4264.07 1036.31 4248.79 1038.4L4190.25 1067.09C4205 1064.5 4219.69 1062.04 4234.3 1059.71L4248.37 1053.38L4294.29 1032.72ZM4360.08 1026.61C4345.91 1027.65 4331.64 1028.87 4317.27 1030.29L4261 1055.61C4274.97 1053.54 4288.88 1051.59 4302.72 1049.78C4321.78 1042.06 4340.91 1034.33 4360.08 1026.61ZM4422.96 1023.3C4409.77 1023.71 4396.48 1024.3 4383.1 1025.09C4365.46 1032.18 4347.88 1039.27 4330.33 1046.36C4343.36 1044.83 4356.34 1043.41 4369.25 1042.14C4387.12 1035.84 4405.02 1029.56 4422.96 1023.3ZM4482.81 1022.75C4470.76 1022.57 4458.62 1022.6 4446.41 1022.78C4430.38 1028.33 4414.4 1033.91 4398.44 1039.51C4410.25 1038.53 4422.03 1037.64 4433.75 1036.89C4450.08 1032.13 4466.44 1027.41 4482.81 1022.75ZM4538.61 1024.97C4528.15 1024.3 4517.64 1023.76 4507.06 1023.37C4493.2 1027.27 4479.35 1031.21 4465.52 1035.19C4475.7 1034.74 4485.86 1034.38 4495.98 1034.12C4510.19 1031 4524.39 1027.95 4538.61 1024.97ZM4589.95 1029.47C4581.58 1028.52 4573.17 1027.68 4564.71 1026.94C4554.01 1029.12 4543.31 1031.34 4532.61 1033.6C4540.5 1033.58 4548.37 1033.64 4556.21 1033.76C4567.47 1032.26 4578.71 1030.82 4589.95 1029.47ZM4633.34 1035.38C4628.82 1034.66 4624.28 1033.97 4619.73 1033.31C4614.05 1033.93 4608.37 1034.57 4602.69 1035.23C4606.53 1035.41 4610.36 1035.6 4614.18 1035.83C4620.57 1035.65 4626.96 1035.49 4633.34 1035.38ZM1837.64 1490.81L1848.51 1490.77L1846.05 1490.3C1841.74 1490.07 1837.42 1489.86 1833.1 1489.61C1834.61 1490.03 1836.13 1490.4 1837.64 1490.81ZM1788.51 1490.67C1795.97 1490.73 1803.43 1490.81 1810.87 1490.83C1807.05 1489.73 1803.23 1488.68 1799.41 1487.56C1791.84 1487.06 1784.24 1486.51 1776.65 1485.96C1780.59 1487.58 1784.56 1489.1 1788.51 1490.67ZM1740.09 1490.01C1749.59 1490.2 1759.07 1490.34 1768.53 1490.46C1763.68 1488.46 1758.86 1486.35 1754.02 1484.27C1744.69 1483.53 1735.35 1482.76 1726 1481.94C1730.69 1484.65 1735.37 1487.38 1740.09 1490.01ZM1692.57 1488.77C1703.36 1489.1 1714.13 1489.4 1724.87 1489.65C1719.52 1486.58 1714.17 1483.53 1708.86 1480.35C1698.62 1479.4 1688.35 1478.39 1678.07 1477.35C1682.87 1481.22 1687.71 1485.03 1692.57 1488.77ZM1645.88 1487.06C1657.29 1487.54 1668.69 1487.99 1680.04 1488.37C1674.97 1484.36 1669.98 1480.14 1664.96 1475.98C1654.11 1474.84 1643.22 1473.6 1632.33 1472.35C1636.81 1477.32 1641.32 1482.24 1645.88 1487.06ZM1599.81 1484.87C1611.73 1485.45 1623.46 1486.09 1635.54 1486.63C1630.76 1481.48 1625.96 1476.4 1621.27 1471.08L1620.64 1471.01C1609.66 1469.7 1598.96 1468.33 1588.11 1466.99C1591.97 1473.03 1595.85 1479.01 1599.81 1484.87ZM1554.69 1482.59C1566.52 1483.24 1578.62 1483.81 1590.61 1484.41C1586.57 1478.34 1582.61 1472.12 1578.69 1465.83C1567.54 1464.44 1556.3 1463.07 1545.28 1461.66C1548.36 1468.74 1551.49 1475.73 1554.69 1482.59ZM1510.18 1479.97C1522.19 1480.7 1534.19 1481.43 1546.36 1482.1C1543.12 1475.03 1539.93 1467.86 1536.82 1460.55C1525.59 1459.1 1514.51 1457.63 1503.43 1456.17C1505.6 1464.22 1507.85 1472.16 1510.18 1479.97ZM1466.2 1477.2C1478.16 1477.99 1490.18 1478.76 1502.31 1479.51C1499.95 1471.51 1497.67 1463.4 1495.5 1455.12C1484.33 1453.63 1473.28 1452.12 1462.26 1450.61C1463.47 1459.62 1464.79 1468.47 1466.2 1477.2ZM1422.69 1474.2C1434.55 1475.06 1446.59 1475.86 1458.62 1476.67C1457.21 1467.78 1455.9 1458.75 1454.71 1449.56C1443.66 1448.03 1432.59 1446.51 1421.68 1444.96C1421.9 1454.87 1422.25 1464.6 1422.69 1474.2ZM1379.59 1470.89C1391.47 1471.83 1403.2 1472.8 1415.27 1473.69C1414.84 1463.93 1414.52 1454.01 1414.33 1443.94C1403.26 1442.35 1392.49 1440.72 1381.58 1439.12C1380.78 1449.88 1380.12 1460.46 1379.59 1470.89ZM1336.87 1467.46C1348.52 1468.45 1360.43 1469.37 1372.25 1470.31C1372.81 1459.72 1373.51 1448.96 1374.33 1438.05C1363.47 1436.44 1352.58 1434.84 1341.86 1433.21C1340.06 1444.8 1338.39 1456.21 1336.87 1467.46ZM1294.42 1463.65C1306.07 1464.72 1317.71 1465.8 1329.56 1466.81C1331.11 1455.41 1332.81 1443.83 1334.65 1432.09C1323.8 1430.43 1313.1 1428.75 1302.4 1427.07C1299.59 1439.43 1296.93 1451.63 1294.42 1463.65ZM1252.42 1459.67C1263.96 1460.8 1275.49 1461.92 1287.22 1463.01C1289.75 1450.83 1292.45 1438.48 1295.29 1425.96C1284.52 1424.26 1273.96 1422.53 1263.35 1420.81C1259.54 1433.94 1255.91 1446.89 1252.42 1459.67ZM3782.48 1109.2C3763.84 1114.3 3745.01 1119.51 3726 1124.82C3708.58 1136.88 3691.23 1148.85 3673.96 1160.73C3691.98 1155.78 3709.87 1150.88 3727.65 1146.06C3745.84 1133.88 3764.13 1121.58 3782.48 1109.2ZM3860.62 1088.24C3841.93 1093.15 3823.05 1098.19 3803.99 1103.35C3785.66 1115.74 3767.41 1128.03 3749.26 1140.22C3767.33 1135.36 3785.28 1130.57 3803.09 1125.88C3822.18 1113.44 3841.36 1100.9 3860.62 1088.24ZM3938.85 1068.26C3920.2 1072.88 3901.36 1077.66 3882.33 1082.59C3863.14 1095.21 3844.06 1107.71 3825.06 1120.13C3843.12 1115.43 3861.04 1110.82 3878.83 1106.34C3898.74 1093.75 3918.74 1081.07 3938.85 1068.26ZM4016.57 1049.73C3998.09 1053.95 3979.43 1058.34 3960.55 1062.93C3940.61 1075.66 3920.74 1088.3 3900.99 1100.81C3918.88 1096.38 3936.65 1092.05 3954.29 1087.87C3974.94 1075.27 3995.71 1062.55 4016.57 1049.73ZM4093.33 1033.13C4075.17 1036.83 4056.82 1040.74 4038.27 1044.85C4017.64 1057.56 3997.14 1070.12 3976.71 1082.62C3994.36 1078.52 4011.89 1074.56 4029.29 1070.77C4050.53 1058.32 4071.87 1045.78 4093.33 1033.13ZM4168.46 1018.96C4150.73 1022.03 4132.79 1025.35 4114.67 1028.89C4093.61 1041.33 4072.63 1053.69 4051.78 1065.93C4069.08 1062.26 4086.26 1058.75 4103.31 1055.42C4124.92 1043.36 4146.64 1031.2 4168.46 1018.96ZM4241.46 1007.58C4224.31 1009.93 4206.96 1012.56 4189.43 1015.43C4168.11 1027.41 4146.9 1039.3 4125.77 1051.11C4142.63 1047.95 4159.34 1044.96 4175.94 1042.17C4197.67 1030.73 4219.52 1019.19 4241.46 1007.58ZM4311.91 999.346C4295.46 1000.91 4278.82 1002.76 4261.99 1004.87C4240.69 1016.15 4219.49 1027.36 4198.37 1038.49C4214.66 1035.9 4230.81 1033.51 4246.85 1031.32C4268.44 1020.72 4290.14 1010.06 4311.91 999.346ZM4379.36 994.479C4363.71 995.209 4347.88 996.238 4331.87 997.556L4269.15 1028.39C4284.73 1026.44 4300.18 1024.71 4315.53 1023.17L4379.36 994.479ZM4443.32 993.208C4428.57 993.096 4413.66 993.277 4398.59 993.743L4337.72 1021.1C4352.52 1019.81 4367.21 1018.73 4381.8 1017.86C4402.24 1009.64 4422.75 1001.42 4443.32 993.208ZM4503.73 995.447C4489.95 994.512 4476.01 993.881 4461.93 993.526C4442.54 1001.25 4423.22 1008.98 4403.95 1016.71C4417.9 1016.09 4431.75 1015.68 4445.49 1015.48C4464.86 1008.76 4484.28 1002.08 4503.73 995.447ZM4560.66 1001.06C4547.91 999.362 4535.01 997.965 4521.98 996.841C4503.92 1002.97 4485.91 1009.14 4467.93 1015.34C4480.92 1015.36 4493.83 1015.57 4506.64 1016.01C4524.63 1010.96 4542.63 1005.97 4560.66 1001.06ZM4613.48 1009.99C4601.94 1007.64 4590.28 1005.54 4578.51 1003.68C4562.22 1008.08 4545.95 1012.53 4529.71 1017.05C4541.46 1017.71 4553.12 1018.57 4564.74 1019.58C4580.98 1016.28 4597.23 1013.08 4613.48 1009.99ZM4662.52 1021.74C4652.31 1018.9 4642.01 1016.29 4631.62 1013.9C4617.5 1016.53 4603.39 1019.24 4589.28 1022.02C4599.72 1023.18 4610.1 1024.49 4620.42 1025.98C4634.47 1024.45 4648.5 1023.04 4662.52 1021.74ZM4707.07 1035.74C4698.59 1032.73 4690.03 1029.95 4681.42 1027.3C4670.22 1028.25 4659.01 1029.28 4647.8 1030.38C4656.23 1031.86 4664.63 1033.45 4672.99 1035.15C4684.37 1035.22 4695.73 1035.44 4707.07 1035.74ZM4744.67 1050.42C4739.26 1048.12 4733.83 1045.85 4728.37 1043.69C4721.54 1043.41 4714.71 1043.18 4707.86 1043C4713.2 1044.31 4718.52 1045.66 4723.81 1047.08C4730.78 1048.13 4737.73 1049.24 4744.67 1050.42ZM1929.82 1496.91L1933.76 1496.62L1928.62 1496.74L1929.82 1496.91ZM1875.53 1500.52C1882.72 1500.08 1889.92 1499.64 1897.08 1499.17C1893.7 1498.62 1890.33 1498.12 1886.96 1497.57C1879.45 1497.68 1871.92 1497.76 1864.38 1497.83C1868.1 1498.76 1871.82 1499.62 1875.53 1500.52ZM1822.32 1503.55C1832.1 1503.05 1841.86 1502.5 1851.59 1501.95C1846.6 1500.66 1841.6 1499.36 1836.61 1498.01C1826.83 1498.04 1817.03 1498.04 1807.2 1498.01C1812.23 1499.92 1817.28 1501.71 1822.32 1503.55ZM1769.8 1505.99C1781.16 1505.51 1792.49 1505.01 1803.78 1504.46C1798.18 1502.33 1792.6 1500.07 1787.01 1497.86C1775.92 1497.76 1764.81 1497.61 1753.68 1497.43C1759.04 1500.32 1764.4 1503.2 1769.8 1505.99ZM1718.29 1507.88C1730.7 1507.49 1743.08 1507.06 1755.42 1506.58C1749.58 1503.48 1743.75 1500.39 1737.95 1497.16C1726.18 1496.93 1714.37 1496.63 1702.53 1496.29C1707.76 1500.21 1713 1504.11 1718.29 1507.88ZM1667.7 1509.22C1680.58 1508.93 1693.43 1508.61 1706.23 1508.23C1700.76 1504.23 1695.36 1500.04 1689.93 1495.89C1677.61 1495.5 1665.24 1495.03 1652.85 1494.54C1657.74 1499.57 1662.73 1504.36 1667.7 1509.22ZM1617.58 1510.03C1629.23 1509.86 1640.65 1509.78 1652.46 1509.56L1657.48 1509.45C1652.43 1504.41 1647.39 1499.36 1642.43 1494.12L1636.64 1493.89C1625.91 1493.41 1615.51 1492.84 1604.91 1492.33C1609.08 1498.33 1613.3 1504.23 1617.58 1510.03ZM1568.46 1510.69C1581.61 1510.58 1595.18 1510.33 1608.53 1510.15C1604.19 1504.17 1599.92 1498.06 1595.69 1491.87C1583.17 1491.25 1570.48 1490.68 1558.13 1490.01C1561.49 1497.04 1564.95 1503.91 1568.46 1510.69ZM1520.08 1510.82C1533.39 1510.8 1546.63 1510.81 1560.16 1510.71C1556.63 1503.78 1553.18 1496.71 1549.8 1489.52C1537.21 1488.82 1524.85 1488.06 1512.44 1487.31C1514.9 1495.27 1517.45 1503.11 1520.08 1510.82ZM1472.27 1510.76C1485.47 1510.83 1498.82 1510.84 1512.23 1510.84C1509.58 1502.98 1507.04 1494.96 1504.56 1486.85C1492.1 1486.09 1479.72 1485.3 1467.45 1484.49C1468.97 1493.37 1470.56 1502.15 1472.27 1510.76ZM1425 1510.34C1438.1 1510.5 1451.35 1510.61 1464.67 1510.69C1462.97 1501.93 1461.37 1493 1459.86 1483.97C1447.54 1483.14 1435.24 1482.3 1423.1 1481.43C1423.63 1491.2 1424.25 1500.85 1425 1510.34ZM1378.19 1509.56C1391.25 1509.81 1404.21 1510.1 1417.5 1510.27C1416.76 1500.64 1416.15 1490.84 1415.64 1480.91C1403.34 1480.01 1391.38 1479.02 1379.28 1478.07C1378.8 1488.72 1378.42 1499.22 1378.19 1509.56ZM1331.85 1508.58C1344.63 1508.92 1357.76 1509.14 1370.75 1509.41C1371 1498.92 1371.38 1488.29 1371.89 1477.49C1359.87 1476.53 1347.77 1475.59 1335.93 1474.59C1334.42 1486.09 1333.07 1497.41 1331.85 1508.58ZM1285.84 1507.07C1298.64 1507.51 1311.38 1507.97 1324.41 1508.34C1325.66 1497.03 1327.03 1485.58 1328.57 1473.92C1316.57 1472.89 1304.78 1471.8 1292.96 1470.72C1290.44 1483 1288.06 1495.13 1285.84 1507.07ZM1240.43 1505.34C1253.07 1505.86 1265.74 1506.38 1278.59 1506.83C1280.83 1494.76 1283.22 1482.5 1285.76 1470.07C1273.88 1468.97 1262.21 1467.82 1250.52 1466.67C1246.99 1479.74 1243.63 1492.63 1240.43 1505.34ZM3854.89 1060.13C3835.04 1065.63 3814.94 1071.3 3794.62 1077.09C3777.68 1088.92 3760.81 1100.65 3744 1112.31C3763.18 1106.99 3782.17 1101.79 3800.99 1096.69C3818.88 1084.59 3836.84 1072.41 3854.89 1060.13ZM3936.91 1037.95C3917.01 1043.17 3896.85 1048.58 3876.42 1054.19C3858.33 1066.53 3840.31 1078.77 3822.37 1090.93C3841.6 1085.77 3860.64 1080.74 3879.5 1075.86C3898.55 1063.32 3917.68 1050.69 3936.91 1037.95ZM4018.49 1017.31C3998.67 1022.11 3978.58 1027.16 3958.23 1032.4C3939.04 1045.14 3919.93 1057.79 3900.91 1070.33C3920.1 1065.43 3939.07 1060.7 3957.86 1056.13C3977.97 1043.3 3998.18 1030.35 4018.49 1017.31ZM4099.16 998.748C4079.61 1002.98 4059.77 1007.5 4039.67 1012.24C4019.42 1025.28 3999.29 1038.18 3979.23 1051.01C3998.22 1046.5 4017.03 1042.16 4035.63 1038.02C4056.69 1025.05 4077.89 1011.93 4099.16 998.748ZM4178.25 982.864C4159.1 986.381 4139.67 990.204 4119.95 994.32C4098.82 1007.45 4077.79 1020.47 4056.85 1033.38C4075.52 1029.36 4093.98 1025.54 4112.25 1021.96C4134.16 1009.03 4156.13 996.014 4178.25 982.864ZM4254.9 970.266C4236.35 972.923 4217.53 975.903 4198.41 979.23C4176.6 992.219 4154.85 1005.14 4133.25 1017.92C4151.46 1014.5 4169.47 1011.31 4187.28 1008.38C4209.71 995.776 4232.25 983.066 4254.9 970.266ZM4328.49 961.428C4310.69 963.107 4292.63 965.154 4274.27 967.572C4252 980.177 4229.85 992.671 4207.79 1005.09C4225.42 1002.37 4242.86 999.903 4260.1 997.718C4282.79 985.706 4305.59 973.598 4328.49 961.428ZM4398.36 956.773C4381.45 957.401 4364.26 958.444 4346.81 959.846C4324.47 971.728 4302.24 983.546 4280.1 995.28C4297.03 993.323 4313.77 991.655 4330.33 990.283L4398.36 956.773ZM4464.11 956.471C4448.2 956.008 4432.02 955.969 4415.61 956.303L4349.55 988.851C4365.66 987.742 4381.6 986.912 4397.36 986.395C4419.53 976.444 4441.78 966.468 4464.11 956.471ZM4525.65 960.496C4510.79 958.947 4495.7 957.817 4480.36 957.088C4458.82 966.724 4437.36 976.348 4415.98 985.94C4431.23 985.684 4446.31 985.716 4461.22 986.066C4482.63 977.534 4504.11 969.011 4525.65 960.496ZM4582.93 968.743C4569.16 966.149 4555.18 963.947 4540.96 962.182C4520.32 970.321 4499.75 978.469 4479.24 986.63C4493.58 987.211 4507.77 988.092 4521.8 989.301C4542.12 982.401 4562.51 975.545 4582.93 968.743ZM4635.65 981.112C4622.99 977.556 4610.11 974.418 4597.06 971.634C4577.76 978.039 4558.49 984.489 4539.27 990.983C4552.58 992.406 4565.75 994.136 4578.79 996.151C4597.71 991.053 4616.67 986.038 4635.65 981.112ZM4684.42 997.13C4672.86 992.718 4661.13 988.685 4649.21 985.04C4631.43 989.616 4613.68 994.277 4595.95 999.007C4608.29 1001.18 4620.51 1003.63 4632.59 1006.39C4649.86 1003.19 4667.14 1000.09 4684.42 997.13ZM4728.99 1016.51C4718.56 1011.41 4707.97 1006.69 4697.24 1002.27C4681.46 1004.92 4665.69 1007.68 4649.93 1010.54C4661.08 1013.39 4672.09 1016.55 4683.03 1019.93C4698.36 1018.64 4713.68 1017.5 4728.99 1016.51ZM4769.45 1038.63C4760.32 1033.11 4751.08 1027.85 4741.69 1022.93C4728.11 1023.73 4714.52 1024.67 4700.91 1025.72C4710.92 1029.09 4720.86 1032.68 4730.69 1036.54C4743.64 1037.08 4756.56 1037.77 4769.45 1038.63ZM4805.7 1062.62C4798.1 1057.13 4790.43 1051.82 4782.65 1046.8C4771.97 1045.98 4761.26 1045.32 4750.54 1044.74C4758.79 1048.32 4766.98 1052.1 4775.11 1056.03C4785.34 1058.07 4795.54 1060.28 4805.7 1062.62ZM4836.28 1086.34C4831.03 1081.95 4825.73 1077.7 4820.38 1073.57C4813.58 1071.89 4806.77 1070.27 4799.93 1068.73C4805.65 1071.82 4811.33 1074.98 4816.99 1078.25C4823.44 1080.86 4829.88 1083.55 4836.28 1086.34ZM1972.77 1502.74L1992.36 1500.33L1984.87 1499.86C1977.81 1500.44 1970.76 1501.03 1963.67 1501.58L1972.77 1502.74ZM1914.53 1509.56C1924.31 1508.45 1934.08 1507.34 1943.82 1506.2C1939.05 1505.54 1934.28 1504.85 1929.51 1504.15C1919.51 1504.87 1909.47 1505.56 1899.41 1506.22C1904.45 1507.37 1909.49 1508.45 1914.53 1509.56ZM1857.15 1515.72C1868.88 1514.51 1880.58 1513.27 1892.24 1512C1886.42 1510.65 1880.6 1509.21 1874.78 1507.78C1863.12 1508.49 1851.42 1509.18 1839.68 1509.82C1845.49 1511.85 1851.32 1513.78 1857.15 1515.72ZM1800.65 1521.3C1813.73 1520.07 1826.79 1518.81 1839.79 1517.5C1833.54 1515.34 1827.31 1513.07 1821.09 1510.82C1808.41 1511.47 1795.68 1512.07 1782.93 1512.62C1788.82 1515.57 1794.72 1518.49 1800.65 1521.3ZM1745.11 1526.3C1759.04 1525.1 1772.92 1523.87 1786.74 1522.59C1780.48 1519.53 1774.21 1516.47 1767.99 1513.26C1754.77 1513.81 1741.5 1514.3 1728.19 1514.75C1733.81 1518.66 1739.43 1522.56 1745.11 1526.3ZM1690.61 1530.71C1704.92 1529.61 1719.2 1528.48 1733.41 1527.29C1727.56 1523.35 1721.76 1519.25 1715.97 1515.15C1702.31 1515.58 1688.58 1515.93 1674.82 1516.25C1680.02 1521.21 1685.32 1525.95 1690.61 1530.71ZM1636.45 1534.55C1647.01 1533.82 1657.3 1533.21 1667.99 1532.43C1672.15 1532.12 1676.29 1531.8 1680.44 1531.48C1675.1 1526.58 1669.82 1521.59 1664.59 1516.48C1660.58 1516.58 1656.59 1516.68 1652.57 1516.75C1642.5 1516.94 1632.78 1517 1622.81 1517.16C1627.28 1523.09 1631.85 1528.86 1636.45 1534.55ZM1583.43 1538.12C1597.9 1537.22 1612.78 1536.16 1627.49 1535.16C1622.85 1529.31 1618.26 1523.36 1613.74 1517.28C1599.89 1517.47 1585.88 1517.72 1572.24 1517.84C1575.9 1524.72 1579.62 1531.49 1583.43 1538.12ZM1531.05 1541.09C1545.75 1540.28 1560.25 1539.56 1575.21 1538.64C1571.37 1531.85 1567.61 1524.93 1563.91 1517.9C1549.91 1518.01 1536.29 1517.98 1522.51 1518C1525.26 1525.85 1528.1 1533.54 1531.05 1541.09ZM1479.43 1543.81C1493.85 1543.12 1508.56 1542.31 1523.22 1541.52C1520.27 1533.84 1517.42 1526 1514.66 1518.02C1500.93 1518.03 1487.22 1518.03 1473.7 1517.96C1475.5 1526.73 1477.41 1535.35 1479.43 1543.81ZM1428.4 1546C1442.76 1545.42 1457.2 1544.82 1471.82 1544.13C1469.8 1535.54 1467.9 1526.79 1466.1 1517.89C1452.49 1517.81 1438.97 1517.69 1425.58 1517.53C1426.4 1527.17 1427.33 1536.68 1428.4 1546ZM1377.91 1547.8C1392.14 1547.35 1406.37 1546.89 1420.86 1546.33C1419.81 1536.87 1418.89 1527.23 1418.08 1517.46C1404.56 1517.28 1391.35 1516.99 1378.06 1516.73C1377.88 1527.25 1377.82 1537.61 1377.91 1547.8ZM1327.97 1549.31C1341.9 1548.97 1356.23 1548.47 1370.42 1548.03C1370.34 1537.72 1370.42 1527.22 1370.62 1516.58C1357.42 1516.3 1344.08 1516.08 1331.1 1515.73C1329.92 1527.1 1328.87 1538.3 1327.97 1549.31ZM1278.37 1550.18C1292.34 1549.97 1306.19 1549.8 1320.45 1549.47C1321.38 1538.32 1322.45 1526.98 1323.67 1515.48C1310.44 1515.11 1297.52 1514.64 1284.53 1514.19C1282.32 1526.37 1280.27 1538.36 1278.37 1550.18ZM1229.52 1550.75C1243.25 1550.65 1257.1 1550.5 1271.08 1550.3C1272.99 1538.36 1275.05 1526.25 1277.29 1513.94C1264.28 1513.48 1251.46 1512.95 1238.67 1512.41C1235.45 1525.38 1232.39 1538.16 1229.52 1550.75ZM4012.23 987.795C3991.01 993.435 3969.39 999.383 3947.47 1005.54C3929.78 1017.69 3912.18 1029.76 3894.64 1041.74C3915.15 1036.2 3935.4 1030.83 3955.39 1025.67C3974.25 1013.14 3993.2 1000.51 4012.23 987.795ZM4097.95 966.031C4076.85 971.115 4055.37 976.517 4033.53 982.203C4014.42 994.993 3995.4 1007.68 3976.47 1020.28C3996.92 1015.1 4017.1 1010.13 4037.01 1005.42C4057.22 992.403 4077.55 979.25 4097.95 966.031ZM4182.18 947.065C4161.43 951.379 4140.32 956.04 4118.79 961.07C4098.37 974.324 4078.05 987.483 4057.82 1000.53C4077.99 995.873 4097.87 991.494 4117.47 987.381C4138.96 974.036 4160.5 960.623 4182.18 947.065ZM4263.99 931.691C4243.82 935.027 4223.24 938.821 4202.26 942.988C4180.72 956.474 4159.25 969.894 4137.91 983.171C4157.65 979.188 4177.09 975.502 4196.24 972.152C4218.72 958.767 4241.29 945.284 4263.99 931.691ZM4342.2 920.757C4322.88 922.935 4303.18 925.559 4283.07 928.646C4260.55 942.153 4238.13 955.553 4215.83 968.855C4234.95 965.706 4253.81 962.861 4272.36 960.395C4295.52 947.284 4318.81 934.058 4342.2 920.757ZM4416.27 914.656C4397.94 915.536 4379.2 916.97 4360.07 918.866C4336.96 932.022 4313.99 945.064 4291.1 958.037C4309.43 955.823 4327.49 953.965 4345.27 952.503C4368.82 939.969 4392.5 927.347 4416.27 914.656ZM4485.24 913.933C4468.11 913.442 4450.6 913.482 4432.73 914.03C4409.43 926.476 4386.22 938.861 4363.13 951.159C4380.54 949.971 4397.68 949.177 4414.55 948.791L4485.24 913.933ZM4549.07 918.507C4533.19 916.626 4516.98 915.283 4500.4 914.488L4431.43 948.505C4447.84 948.389 4463.97 948.7 4479.86 949.418C4502.85 939.136 4525.91 928.831 4549.07 918.507ZM4607.61 928.314C4593 925.072 4578.03 922.433 4562.75 920.294C4540.29 930.3 4517.92 940.287 4495.62 950.259C4510.98 951.238 4526.09 952.635 4540.96 954.459C4563.11 945.729 4585.32 937.009 4607.61 928.314ZM4660.81 943.143C4647.47 938.618 4633.82 934.694 4619.88 931.249C4598.37 939.629 4576.91 948.031 4555.53 956.444C4569.79 958.507 4583.85 960.951 4597.68 963.842C4618.67 956.882 4639.71 949.986 4660.81 943.143ZM4709.04 962.554C4696.95 956.864 4684.57 951.743 4671.94 947.108C4651.75 953.632 4631.61 960.212 4611.52 966.848C4624.74 969.898 4637.75 973.357 4650.56 977.261C4670.03 972.26 4689.52 967.352 4709.04 962.554ZM4752.61 986.117C4741.7 979.394 4730.53 973.227 4719.12 967.504C4700.52 972.05 4681.94 976.686 4663.38 981.416C4675.49 985.45 4687.44 989.833 4699.2 994.639C4716.99 991.663 4734.8 988.815 4752.61 986.117ZM4791.79 1013.33C4782.02 1005.76 4772.02 998.679 4761.83 992.024C4745.12 994.515 4728.41 997.126 4711.71 999.863C4722.77 1004.7 4733.64 1009.96 4744.36 1015.56C4760.19 1014.65 4775.99 1013.91 4791.79 1013.33ZM4827.01 1043.58C4818.36 1035.37 4809.53 1027.6 4800.5 1020.25C4785.84 1020.72 4771.16 1021.35 4756.47 1022.13C4766.49 1027.68 4776.4 1033.54 4786.13 1039.81C4799.79 1040.88 4813.42 1042.14 4827.01 1043.58ZM4858.36 1076.18C4850.89 1067.71 4843.27 1059.56 4835.5 1051.81C4823.2 1050.42 4810.88 1049.19 4798.53 1048.12C4807.35 1054.18 4816.07 1060.51 4824.67 1067.18C4835.94 1070 4847.18 1072.97 4858.36 1076.18ZM4885.9 1109.95C4879.74 1101.77 4873.46 1093.91 4867.08 1086.32C4857.61 1083.49 4848.11 1080.78 4838.57 1078.24C4845.91 1084.32 4853.13 1090.7 4860.29 1097.26C4868.86 1101.33 4877.41 1105.53 4885.9 1109.95ZM4908.54 1142.13C4904.34 1135.77 4900.08 1129.58 4895.77 1123.51C4889.84 1120.28 4883.89 1117.13 4877.91 1114.07C4883.09 1119.2 4888.22 1124.47 4893.31 1129.88C4898.41 1133.87 4903.49 1137.95 4908.54 1142.13ZM3925.91 1011.61C3904.71 1017.64 3883.18 1023.88 3861.33 1030.32C3845.06 1041.77 3828.85 1053.15 3812.7 1064.45C3833.2 1058.65 3853.44 1053 3873.43 1047.52C3890.85 1035.64 3908.34 1023.66 3925.91 1011.61ZM2080.2 1497.15C2085.8 1496.18 2091.41 1495.23 2096.98 1494.25L2092.56 1494.34C2086.26 1495.23 2079.95 1496.11 2073.63 1496.97C2075.82 1497.04 2078.01 1497.09 2080.2 1497.15ZM2016.75 1507.86C2026.29 1506.29 2035.81 1504.71 2045.29 1503.11C2040.94 1502.92 2036.57 1502.72 2032.21 1502.51C2022.41 1503.79 2012.59 1505.05 2002.73 1506.3C2007.41 1506.83 2012.08 1507.37 2016.75 1507.86ZM1954.52 1517.85C1966.5 1515.98 1978.44 1514.09 1990.34 1512.17C1984.47 1511.48 1978.59 1510.75 1972.72 1510.01C1960.75 1511.46 1948.73 1512.88 1936.68 1514.27C1942.62 1515.5 1948.57 1516.69 1954.52 1517.85ZM1893.19 1527.19C1906.77 1525.18 1920.29 1523.14 1933.76 1521.07C1927.2 1519.72 1920.64 1518.29 1914.08 1516.87C1900.75 1518.36 1887.36 1519.81 1873.94 1521.23C1880.34 1523.27 1886.76 1525.26 1893.19 1527.19ZM1832.68 1535.9C1847.36 1533.85 1861.97 1531.75 1876.54 1529.63C1869.75 1527.49 1862.98 1525.31 1856.22 1523.07C1842.07 1524.52 1827.87 1525.95 1813.62 1527.32C1819.95 1530.24 1826.3 1533.13 1832.68 1535.9ZM1773.14 1543.99C1788.52 1541.96 1803.86 1539.9 1819.11 1537.79C1812.45 1534.8 1805.77 1531.82 1799.15 1528.68C1784.53 1530.06 1769.84 1531.38 1755.1 1532.66C1761.09 1536.49 1767.08 1540.33 1773.14 1543.99ZM1714.72 1551.49C1730.42 1549.53 1746.07 1547.55 1761.63 1545.51C1755.43 1541.67 1749.27 1537.72 1743.14 1533.7C1728.17 1534.98 1713.12 1536.2 1698.03 1537.37C1703.54 1542.2 1709.12 1546.87 1714.72 1551.49ZM1656.61 1558.37C1665.66 1557.31 1674.41 1556.4 1683.54 1555.3C1690.56 1554.46 1697.54 1553.6 1704.53 1552.74C1698.91 1548 1693.36 1543.1 1687.84 1538.15C1681.4 1538.65 1674.96 1539.14 1668.49 1539.62C1659.54 1540.27 1650.94 1540.78 1642.07 1541.39C1646.86 1547.16 1651.7 1552.84 1656.61 1558.37ZM1599.66 1564.86C1615.42 1563.13 1631.52 1561.25 1647.55 1559.4C1642.6 1553.72 1637.69 1547.96 1632.88 1542.02C1617.69 1543.06 1602.41 1544.14 1587.47 1545.07C1591.45 1551.8 1595.52 1558.38 1599.66 1564.86ZM1543.45 1570.72C1559.4 1569.1 1575.14 1567.56 1591.38 1565.8C1587.23 1559.2 1583.13 1552.51 1579.15 1545.63C1563.82 1546.57 1548.98 1547.32 1533.92 1548.15C1537.01 1555.79 1540.18 1563.33 1543.45 1570.72ZM1487.96 1576.27C1503.57 1574.8 1519.63 1573.12 1535.52 1571.52C1532.24 1564.01 1529.06 1556.37 1525.97 1548.58C1510.98 1549.39 1495.92 1550.24 1481.19 1550.95C1483.34 1559.54 1485.59 1567.97 1487.96 1576.27ZM1433.07 1581.11C1448.69 1579.76 1464.31 1578.43 1480.24 1576.95C1477.89 1568.53 1475.61 1560 1473.48 1551.27C1458.56 1551.97 1443.85 1552.58 1429.2 1553.17C1430.35 1562.66 1431.66 1571.95 1433.07 1581.11ZM1378.82 1585.56C1394.22 1584.36 1409.73 1583.12 1425.44 1581.78C1424.04 1572.52 1422.76 1563.11 1421.63 1553.49C1406.89 1554.06 1392.42 1554.53 1377.95 1555C1378.09 1565.37 1378.39 1575.55 1378.82 1585.56ZM1325.24 1589.56C1340.36 1588.51 1355.84 1587.3 1371.25 1586.12C1370.83 1576.01 1370.57 1565.7 1370.45 1555.22C1356.05 1555.66 1341.52 1556.17 1327.38 1556.5C1326.51 1567.71 1325.79 1578.74 1325.24 1589.56ZM1272.1 1592.88C1287.23 1591.99 1302.18 1591.17 1317.67 1590.12C1318.24 1579.17 1318.97 1568.01 1319.86 1556.67C1305.41 1557 1291.38 1557.16 1277.23 1557.36C1275.35 1569.39 1273.64 1581.23 1272.1 1592.88ZM1219.78 1595.84C1234.62 1595.07 1249.7 1594.2 1264.8 1593.32C1266.35 1581.57 1268.06 1569.62 1269.95 1557.48C1255.81 1557.68 1241.79 1557.83 1227.89 1557.93C1225.01 1570.76 1222.3 1583.4 1219.78 1595.84ZM2732.13 1749.99C2726.09 1753.6 2720 1757.28 2713.99 1760.86L2721.97 1757.35C2728.6 1753.57 2735.21 1749.81 2741.88 1745.99L2732.13 1749.99ZM2801.53 1708.09C2792.22 1713.77 2782.99 1719.36 2773.75 1724.95C2779.31 1722.61 2784.84 1720.31 2790.43 1717.94C2799.85 1712.46 2809.35 1706.87 2818.84 1701.31C2813.05 1703.6 2807.28 1705.85 2801.53 1708.09ZM2871.46 1665.08C2859.95 1672.22 2848.49 1679.3 2837.08 1686.31C2844.56 1683.32 2852.06 1680.32 2859.59 1677.27C2871.2 1670.39 2882.85 1663.44 2894.57 1656.44C2886.84 1659.35 2879.14 1662.23 2871.46 1665.08ZM2942.18 1620.92C2929.02 1629.21 2915.9 1637.44 2902.86 1645.58C2911.85 1642.16 2920.88 1638.71 2929.94 1635.2C2943.12 1627.25 2956.35 1619.22 2969.66 1611.11C2960.47 1614.42 2951.31 1617.68 2942.18 1620.92ZM3013.4 1575.7C2998.88 1584.98 2984.44 1594.17 2970.07 1603.28C2980.23 1599.61 2990.44 1595.88 3000.69 1592.1C3015.24 1583.17 3029.87 1574.15 3044.57 1565.04C3034.14 1568.63 3023.75 1572.2 3013.4 1575.7ZM3085.04 1529.57C3069.61 1539.58 3054.25 1549.5 3038.98 1559.32C3050.12 1555.48 3061.25 1551.65 3072.48 1547.71C3087.99 1538.05 3103.57 1528.28 3119.24 1518.42C3107.8 1522.19 3096.4 1525.91 3085.04 1529.57ZM3156.97 1482.62C3140.72 1493.3 3124.56 1503.86 3108.48 1514.34C3120.51 1510.39 3132.6 1506.38 3144.71 1502.32C3161 1492.02 3177.38 1481.61 3193.85 1471.09C3181.53 1474.97 3169.23 1478.83 3156.97 1482.62ZM3228.87 1435.06C3212.05 1446.25 3195.31 1457.34 3178.66 1468.32C3191.51 1464.3 3204.39 1460.23 3217.31 1456.09C3234.23 1445.24 3251.24 1434.27 3268.34 1423.2C3255.16 1427.19 3242.01 1431.15 3228.87 1435.06ZM3300.77 1386.96C3283.55 1398.55 3266.44 1410.03 3249.4 1421.4C3262.98 1417.32 3276.57 1413.19 3290.2 1409.01C3307.58 1397.71 3325.05 1386.31 3342.61 1374.8C3328.66 1378.88 3314.71 1382.94 3300.77 1386.96ZM3372.2 1338.56C3354.76 1350.43 3337.42 1362.19 3320.16 1373.85C3334.56 1369.66 3348.97 1365.43 3363.38 1361.18C3381.03 1349.56 3398.78 1337.82 3416.62 1325.99C3401.82 1330.2 3387.01 1334.39 3372.2 1338.56ZM3443.03 1290.09C3425.57 1302.09 3408.19 1314 3390.91 1325.81C3406.07 1321.52 3421.21 1317.21 3436.34 1312.87C3454.15 1301.02 3472.05 1289.06 3490.04 1276.99C3474.41 1281.36 3458.74 1285.73 3443.03 1290.09ZM3513.03 1241.7C3495.7 1253.75 3478.46 1265.68 3461.29 1277.53C3477.3 1273.07 3493.27 1268.61 3509.19 1264.15C3526.98 1252.18 3544.85 1240.11 3562.82 1227.93L3552.55 1230.77L3513.03 1241.7ZM3581.63 1193.8C3564.61 1205.73 3547.67 1217.57 3530.79 1229.32L3550.63 1223.83L3581.33 1215.34C3598.94 1203.36 3616.64 1191.29 3634.42 1179.12C3616.94 1183.97 3599.35 1188.86 3581.63 1193.8ZM3648.59 1146.64C3632.08 1158.31 3615.63 1169.91 3599.26 1181.42C3617.19 1176.43 3635.02 1171.48 3652.71 1166.59C3669.97 1154.75 3687.31 1142.8 3704.72 1130.77C3686.17 1135.98 3667.47 1141.27 3648.59 1146.64ZM3713.48 1100.56C3697.7 1111.81 3681.96 1123.01 3666.29 1134.11C3685.37 1128.71 3704.28 1123.38 3723.01 1118.15C3739.73 1106.58 3756.53 1094.9 3773.39 1083.16C3753.66 1088.83 3733.67 1094.65 3713.48 1100.56ZM3775.82 1055.96C3760.96 1066.63 3746.12 1077.28 3731.36 1087.82C3751.67 1081.9 3771.73 1076.11 3791.58 1070.45C3807.59 1059.27 3823.65 1048.03 3839.79 1036.7C3818.76 1042.96 3797.44 1049.38 3775.82 1055.96ZM3710.36 1093.95C3724.97 1083.54 3739.63 1073.05 3754.34 1062.51C3687.69 1082.9 3618.24 1104.68 3545.9 1127.35C3281.57 1210.22 2978.67 1305.17 2632.74 1389.26C2969.46 1315.06 3266.97 1226.14 3529.44 1147.68C3591.7 1129.07 3651.97 1111.05 3710.36 1093.95ZM3645.51 1140.01C3661.08 1128.99 3676.71 1117.91 3692.41 1106.75C3640.28 1122.08 3586.69 1138.09 3531.5 1154.59C3224.03 1246.5 2868.53 1352.76 2458.21 1432.93C2861.21 1365.02 3214.75 1263.55 3525.14 1174.45C3566.02 1162.71 3606.11 1151.21 3645.51 1140.01ZM3578.54 1187.19C3594.88 1175.72 3611.28 1164.19 3627.76 1152.56C3594.72 1161.98 3561.19 1171.61 3527.11 1181.39C3175.75 1282.25 2769.15 1398.95 2297.97 1464.96C2762.78 1414.91 3171.25 1300.89 3531.82 1200.22L3578.54 1187.19ZM3509.99 1235.07C3526.87 1223.34 3543.84 1211.5 3560.87 1199.59L3533.74 1207.16C3150.34 1314.2 2712.85 1436.34 2210.94 1480.75L2195.45 1483.69C2680.8 1460.7 3116.33 1343.9 3509.99 1235.07ZM3440.01 1283.44C3457.27 1271.56 3474.62 1259.58 3492.04 1247.5C3089.56 1358.61 2643.54 1476.21 2145.39 1492.93C2135.96 1494.64 2126.5 1496.33 2117.02 1498.02C2589.15 1506.25 3028.51 1397.55 3440.01 1283.44ZM3369.16 1331.94C3386.61 1320.05 3404.16 1308.06 3421.79 1295.96C3005.04 1411.06 2559.78 1518.82 2080.68 1504.39C2068.65 1506.47 2056.57 1508.53 2044.44 1510.57C2497.83 1552.48 2939.08 1452.89 3369.16 1331.94ZM3297.79 1380.31C3315.28 1368.53 3332.86 1356.64 3350.53 1344.64C2917.76 1465.54 2473.64 1563 2016.92 1515.15C2003.25 1517.4 1989.53 1519.61 1975.76 1521.8C2405.9 1599.63 2847.89 1509.88 3297.79 1380.31ZM3225.88 1428.42C3243.25 1416.87 3260.71 1405.19 3278.26 1393.41C2827.84 1521.92 2385.29 1608.56 1954.27 1525.19C1939.46 1527.5 1924.58 1529.78 1909.65 1532.02C2312.63 1647.92 2754.66 1568.55 3225.88 1428.42ZM3153.98 1475.99C3171.06 1464.76 3188.24 1453.42 3205.51 1441.96C2735.61 1580.04 2294.78 1655.52 1892.51 1534.59C1876.96 1536.89 1861.32 1539.13 1845.63 1541.36C2218 1697.31 2659.68 1628.74 3153.98 1475.99ZM3082.01 1522.99C3098.67 1512.18 3115.43 1501.26 3132.27 1490.23C2641.05 1639.85 2202.06 1703.85 1831.46 1543.36C1815.5 1545.59 1799.44 1547.77 1783.34 1549.92C2121.86 1747.83 2562.9 1690.45 3082.01 1522.99ZM3010.51 1569.02C3026.57 1558.75 3042.72 1548.38 3058.97 1537.89C2544.66 1701.06 2107.59 1753.23 1771.47 1551.49C1755.21 1553.63 1738.88 1555.74 1722.47 1557.8C2024.22 1799.46 2464.66 1753.4 3010.51 1569.02ZM2939.17 1614.33C2954.47 1604.69 2969.87 1594.94 2985.34 1585.09C2446.26 1763.78 2011.19 1803.78 1712.27 1559.05C1703 1560.2 1693.71 1561.35 1684.39 1562.47C1676.99 1563.35 1669.93 1564.09 1662.6 1564.95C1924.78 1852.41 2364.68 1817.86 2939.17 1614.33ZM2868.4 1658.53C2882.73 1649.65 2897.12 1640.69 2911.6 1631.63C2345.82 1827.84 1912.56 1855.48 1653.45 1565.99C1636.86 1567.92 1620.29 1569.83 1604 1571.62C1766.6 1819.15 2049.13 1871.17 2429.79 1790.57C2564.1 1762.13 2710.65 1717.17 2868.4 1658.53ZM2798.43 1701.58C2811.47 1693.63 2824.6 1685.57 2837.77 1677.47C2692.26 1730.29 2556.49 1771.11 2431.29 1797.62C2045.39 1879.33 1759.44 1825.78 1595.72 1572.57C1579.07 1574.37 1562.87 1575.98 1546.54 1577.65C1696.97 1906.86 2041.85 1945.39 2539.59 1792.5C2621.77 1767.26 2708.13 1736.78 2798.43 1701.58ZM2729.01 1743.49C2740.5 1736.61 2752 1729.71 2763.6 1722.71C2686.64 1751.93 2612.62 1777.6 2541.71 1799.39C2038.05 1954.08 1689.58 1914.17 1538.61 1578.45C1522.38 1580.09 1505.94 1581.82 1490.01 1583.32C1598.35 1949.66 1928.54 2007.22 2433.26 1850.82C2526.05 1822.07 2624.75 1786.07 2729.01 1743.49ZM2660.71 1784C2669.97 1778.57 2679.3 1773.04 2688.63 1767.52C2599.98 1802.69 2515.49 1832.88 2435.37 1857.71C1924.46 2016.02 1590.72 1956.97 1482.29 1584C1466.05 1585.51 1450.16 1586.86 1434.23 1588.23C1499.86 1992.22 1815.15 2069.07 2326.91 1909.13C2430.32 1876.82 2541.76 1834.84 2660.71 1784ZM1179.13 1558.04C1175.25 1571.63 1171.57 1585.01 1168.08 1598.19C1182.66 1597.6 1197.47 1596.91 1212.38 1596.17C1214.92 1583.63 1217.63 1570.89 1220.52 1557.94C1206.6 1558.02 1192.74 1558.08 1179.13 1558.04ZM1193.26 1510.33C1189.05 1524.05 1185.04 1537.56 1181.19 1550.89C1194.66 1550.92 1208.37 1550.86 1222.14 1550.78C1225.04 1538.07 1228.11 1525.16 1231.35 1512.07C1218.56 1511.52 1205.78 1510.97 1193.26 1510.33ZM1208.45 1462.42C1203.94 1476.23 1199.6 1489.85 1195.44 1503.29C1207.82 1503.92 1220.45 1504.47 1233.1 1505C1236.32 1492.17 1239.71 1479.15 1243.27 1465.94C1231.58 1464.79 1219.89 1463.63 1208.45 1462.42ZM1224.57 1414.45C1219.79 1428.3 1215.18 1441.97 1210.73 1455.48C1222.05 1456.67 1233.62 1457.8 1245.17 1458.94C1248.69 1446.01 1252.36 1432.92 1256.2 1419.64C1245.59 1417.92 1234.97 1416.2 1224.57 1414.45ZM1241.51 1366.49C1236.5 1380.36 1231.66 1394.04 1226.96 1407.56C1237.24 1409.29 1247.74 1410.99 1258.23 1412.69C1262.01 1399.71 1265.95 1386.57 1270.04 1373.27C1260.48 1371.01 1250.91 1368.74 1241.51 1366.49ZM1259.17 1318.71C1253.96 1332.53 1248.91 1346.18 1244 1359.68C1253.28 1361.91 1262.73 1364.14 1272.17 1366.38C1276.19 1353.4 1280.36 1340.26 1284.66 1326.97L1259.17 1318.71ZM1277.42 1271.26C1272.05 1284.97 1266.82 1298.55 1261.73 1311.97L1286.89 1320.12C1291.11 1307.19 1295.47 1294.11 1299.96 1280.89C1292.43 1277.66 1284.89 1274.42 1277.42 1271.26ZM1296.12 1224.3C1290.63 1237.85 1285.26 1251.28 1280.04 1264.55C1287.41 1267.67 1294.85 1270.87 1302.29 1274.05C1306.67 1261.23 1311.17 1248.28 1315.81 1235.18C1309.24 1231.54 1302.66 1227.87 1296.12 1224.3ZM1315.11 1178.06C1309.57 1191.36 1304.15 1204.53 1298.84 1217.58C1305.29 1221.1 1311.78 1224.71 1318.26 1228.31C1322.75 1215.69 1327.36 1202.94 1332.08 1190.08C1326.42 1186.05 1320.77 1182.01 1315.11 1178.06ZM1334.24 1132.77C1328.7 1145.71 1323.27 1158.54 1317.95 1171.25C1323.52 1175.12 1329.09 1179.11 1334.66 1183.07C1339.2 1170.76 1343.85 1158.33 1348.61 1145.78C1343.82 1141.42 1339.04 1137.05 1334.24 1132.77ZM1353.31 1088.74C1347.86 1101.18 1342.5 1113.53 1337.24 1125.78C1341.96 1129.97 1346.66 1134.27 1351.35 1138.56C1355.88 1126.68 1360.5 1114.69 1365.22 1102.61C1361.26 1097.97 1357.3 1093.33 1353.31 1088.74ZM1371.74 1045.73C1366.92 1057.14 1362.25 1068.39 1357.05 1080.2L1356.53 1081.39C1360.42 1085.85 1364.28 1090.39 1368.14 1094.92C1372.76 1083.05 1376.94 1071.65 1381.22 1060.15C1378.07 1055.32 1374.9 1050.52 1371.74 1045.73ZM1389.49 1004.05C1384.79 1015.18 1379.96 1026.45 1375.16 1037.69C1378.25 1042.34 1381.31 1047.04 1384.38 1051.73C1388.46 1040.82 1392.73 1029.69 1396.74 1018.86C1394.37 1013.84 1391.89 1009 1389.49 1004.05ZM1406.15 963.258C1401.97 973.769 1397.76 984.318 1393.28 995.154C1395.6 999.864 1397.9 1004.61 1400.21 1009.32C1404.1 998.494 1407.57 988.114 1411.12 977.65C1409.55 972.728 1407.78 968.093 1406.15 963.258ZM1421.79 923.732C1417.99 933.376 1414.19 943.027 1410.3 952.765C1411.87 957.289 1413.46 961.784 1415.02 966.324C1418.2 956.978 1421.57 947.433 1424.73 938.117C1423.82 933.232 1422.79 928.505 1421.79 923.732ZM1436.33 885.948C1433.23 894.328 1429.93 902.917 1426.63 911.514C1427.54 915.659 1428.54 919.682 1429.42 923.858C1432.23 915.207 1434.7 906.925 1437.28 898.519C1436.97 894.32 1436.72 890.038 1436.33 885.948ZM1449.2 850.512C1446.78 857.148 1444.45 863.691 1441.99 870.371C1442.33 873.516 1442.79 876.516 1443.12 879.694C1444.99 873.469 1447.14 866.951 1448.99 860.759C1449.03 857.372 1449.19 853.855 1449.2 850.512ZM1459.93 820.942C1458.88 823.984 1457.6 827.271 1456.51 830.347C1456.53 831.571 1456.61 832.723 1456.62 833.954C1457.74 830.014 1458.75 826.181 1459.79 822.324L1459.93 820.942ZM0 397.496C543.464 111.846 1842.69 -469.536 1495.15 710.881C1489.86 735.747 1483.75 761.531 1476.73 788.282C1472.99 809.527 1468.93 831.116 1464.17 853.498C1461.4 877.151 1458.01 901.527 1453.79 926.855C1452.49 946.703 1450.78 967.044 1448.58 987.962C1448.72 1009.06 1448.39 1030.76 1447.48 1053.16C1449.05 1072.04 1450.22 1091.45 1450.99 1111.35C1454.3 1129.89 1457.25 1148.94 1459.82 1168.5C1464.82 1185.74 1469.5 1203.46 1473.91 1221.59C1480.78 1237.64 1487.42 1254.07 1493.82 1270.91C1500.67 1282.32 1507.49 1293.79 1514.14 1305.62C1516.66 1310.11 1519.3 1314.35 1521.86 1318.75C1524.42 1321.82 1526.99 1324.85 1529.53 1327.99C1538.92 1339.65 1548.48 1350.89 1558.13 1361.89C1573.89 1375.48 1589.78 1388.6 1605.86 1401.04C1625.02 1412.33 1644.29 1423.12 1663.66 1433.27C1685.79 1441.98 1707.97 1450.19 1730.17 1457.84C1756.06 1464.22 1781.91 1470.07 1807.73 1475.4C1836.84 1479.2 1865.81 1482.47 1894.68 1485.3C1926.89 1486.51 1958.9 1487.26 1990.7 1487.57C2027.05 1486.16 2063.07 1484.31 2098.78 1482.04C2138.32 1477.93 2177.43 1473.42 2216.12 1468.57C2259.3 1461.69 2301.92 1454.47 2343.98 1446.95C2811.87 1349.9 3208.8 1225.48 3543.76 1120.47C3623.52 1095.47 3699.77 1071.57 3772.64 1049.39C4149.74 778.537 4560.3 465.942 5000 115.019V124.234C4568.58 468.447 4165.19 775.767 3793.97 1042.92C3815.7 1036.35 3837.11 1029.95 3858.23 1023.73C4211.06 775.439 4592.87 491.751 5000 176.011V185.113C4601.08 494.398 4226.48 772.902 3879.63 1017.45C3895.99 1012.68 3912.16 1008.01 3928.16 1003.47C3933.61 1001.93 3938.98 1000.43 3944.38 998.914C4272.56 773.262 4625.44 518.195 5000 236.937V245.949C4633.54 521.051 4287.84 771.064 3965.71 992.97C3987.7 986.894 4009.33 981.066 4030.61 975.513C4333.85 772.467 4657.79 545.553 5000 297.823V306.698C4665.68 548.658 4348.78 770.746 4051.6 970.101C4073.46 964.518 4094.97 959.214 4116.06 954.274C4394.31 773.605 4689.59 574.128 5000 358.637V367.386C4697.17 577.564 4408.74 772.508 4136.48 949.584C4157.94 944.728 4179.01 940.218 4199.69 936.091C4453.19 777.338 4720.45 604.247 5000 419.364V428.005C4727.69 608.067 4467.04 776.926 4219.42 932.235C4240.28 928.27 4260.74 924.721 4280.81 921.604C4510.02 784.108 4750.13 636.151 5000 480.019V488.508C4756.87 640.407 4523 784.548 4299.39 918.839C4319.42 915.969 4339.07 913.531 4358.3 911.6C4564.05 794.437 4778.23 670.083 5000 540.566V548.895C4784.48 674.755 4576.14 795.712 4375.72 909.942C4394.67 908.309 4413.19 907.212 4431.37 906.591C4567.89 833.659 4707.91 758.251 4851.22 681.074C4900.43 654.574 4950.02 627.864 5000 600.975V609.16C4951.18 635.427 4902.72 661.526 4854.64 687.421C4715.76 762.212 4579.95 835.35 4447.43 906.179C4465.23 905.858 4482.67 906.032 4499.7 906.797L4506.68 903.352C4666.72 824.412 4831.25 743.246 5000 661.244V669.252C4834.09 749.889 4672.01 829.828 4514.3 907.628C4530.77 908.693 4546.89 910.293 4562.66 912.452C4705.23 848.943 4851.09 784.815 5000 721.328V729.149C4855.87 790.621 4714.45 852.756 4576.03 914.377C4591.18 916.792 4605.97 919.792 4620.47 923.308C4744.9 874.869 4871.47 827.128 5000 781.173V788.813C4875.59 833.324 4753.03 879.498 4632.49 926.345C4646.37 930.054 4659.93 934.325 4673.2 939.131C4780.89 904.364 4889.86 871.258 5000 840.716V848.19C4893.56 877.739 4788.21 909.679 4684.06 943.197C4696.69 948.129 4709.05 953.602 4721.13 959.603C4813.49 937.108 4906.46 916.947 5000 899.879V907.192C4909.8 923.678 4820.11 943.048 4730.98 964.615C4742.44 970.667 4753.64 977.244 4764.61 984.329C4842.96 972.743 4921.43 963.928 5000 958.52V965.734C4924.47 970.944 4849.03 979.306 4773.68 990.264C4784.04 997.306 4794.14 1004.88 4804.05 1012.91C4869.61 1010.9 4934.93 1011.91 5000 1016.44V1023.67C4937.72 1019.31 4875.19 1018.2 4812.42 1019.89C4821.73 1027.81 4830.83 1036.18 4839.74 1045.02C4893.65 1051.26 4947.07 1060.57 5000 1073.38V1080.81C4949.72 1068.55 4898.98 1059.48 4847.78 1053.23C4856.04 1061.82 4864.13 1070.81 4872.05 1080.25C4915.34 1093.34 4957.99 1109.44 5000 1128.87V1136.82C4960.72 1118.5 4920.88 1103.13 4880.46 1090.41C4887.58 1099.31 4894.53 1108.64 4901.36 1118.27C4934.94 1136.72 4967.81 1157.92 5000 1182.13V1191.2C4970.84 1168.99 4941.09 1149.29 4910.75 1131.89C4916.64 1140.62 4922.44 1149.6 4928.1 1158.94C4952.74 1180.85 4976.7 1205.11 5000 1231.88V1242.97C4980.65 1220.33 4960.83 1199.48 4940.55 1180.27C4944.39 1187.1 4948.18 1194.06 4951.92 1201.17C4968.5 1224.14 4984.52 1248.9 5000 1275.53V1290.13C4991.81 1275.65 4983.46 1261.71 4974.96 1248.3C4983.6 1267.26 4991.95 1287.12 5000 1307.92V1328.32C4983.18 1282.88 4965.01 1241.79 4945.44 1204.74C4926.89 1179.18 4907.6 1155.93 4887.61 1134.77C4863.34 1115.92 4838.43 1099.2 4812.85 1084.46C4783.01 1072.49 4752.63 1062.38 4721.67 1054.09C4686.18 1048.8 4650.26 1045.16 4613.89 1043.07C4573.37 1044.2 4532.56 1046.68 4491.46 1050.38C4446.91 1057.32 4402.23 1065.25 4357.44 1074.04C4309.87 1085.88 4262.35 1098.36 4214.89 1111.33C4165.45 1127.06 4116.22 1143.06 4067.22 1159.23C4016.82 1177.84 3966.77 1196.44 3917.1 1214.9C3866.93 1235.36 3817.25 1255.54 3768.04 1275.37C3718.11 1297.19 3668.75 1318.52 3619.97 1339.33C3570.24 1362.17 3521.17 1384.38 3472.77 1405.89C3424.56 1428.86 3377.04 1451.09 3330.24 1472.56C3282.93 1495.73 3236.37 1518.09 3190.58 1539.59C3143.68 1563.07 3097.59 1585.65 3052.32 1607.29C3006.31 1630.73 2961.1 1653.25 2916.79 1674.74C2871.75 1698 2827.54 1720.3 2784.23 1741.55C2740.28 1764.5 2697.2 1786.45 2654.99 1807.36C2611.41 1830.34 2568.74 1852.27 2526.97 1873.12C2483.85 1896.04 2441.67 1917.87 2400.42 1938.59C2340.15 1970.86 2281.78 2000.88 2225.36 2028.62H2194.18C2229.25 2013.02 2265.16 1996.45 2301.89 1978.91C2261.17 1996.74 2221.53 2013.33 2182.98 2028.62H2163.35C2245.56 1996.55 2332.9 1958.5 2425.13 1914.74C2319.46 1960.81 2220.59 1998.94 2128.89 2028.62H2105.08C2108.13 2027.67 2111.15 2026.75 2114.22 2025.78C2238.51 1986.3 2376.2 1931.08 2526.43 1861.21L2533.88 1857.04C2422.94 1904.65 2319.06 1943.97 2222.71 1974.33C2148.19 1997.81 2078.13 2015.99 2012.7 2028.62H1970.51C2047.07 2016.36 2130.52 1995.82 2220.57 1967.45C2334.42 1931.57 2458.76 1883.23 2592.95 1823.36C2599.51 1819.59 2606.06 1815.82 2612.66 1812C2512.45 1853.42 2417.8 1888.28 2329.05 1916.01C1810.79 2077.98 1491.94 1999.59 1426.6 1588.9C1410.64 1590.26 1394.87 1591.53 1379.22 1592.74C1392.14 1847.09 1497.11 1986.91 1682.8 2028.62H1649.22C1479.27 1978.46 1383.48 1838.08 1371.62 1593.31C1355.98 1594.5 1340.27 1595.72 1324.93 1596.78C1315.45 1810.58 1366.75 1952.09 1472.97 2028.62H1457.58C1356.23 1949.54 1307.65 1808.04 1317.31 1597.35C1301.63 1598.41 1286.49 1599.23 1271.17 1600.13C1257.64 1706.34 1258.08 1796.55 1271.92 1871.38C1283.64 1934.71 1304.98 1986.98 1335.58 2028.62H1326.57C1297.07 1986.87 1276.38 1935.02 1264.85 1872.68C1250.94 1797.49 1250.43 1706.99 1263.88 1600.57C1248.59 1601.46 1233.33 1602.32 1218.32 1603.09C1192.46 1733.28 1186.35 1841.63 1199.05 1929.04C1204.41 1965.97 1213.16 1999.13 1225.19 2028.62H1217.34C1205.7 1999.29 1197.2 1966.46 1191.92 1930.05C1179.17 1842.31 1185.19 1733.71 1210.94 1603.42C1195.86 1604.16 1180.91 1604.85 1166.18 1605.44C1125.83 1759.82 1111.68 1886.15 1122.33 1985.53C1123.94 2000.51 1126.12 2014.87 1128.85 2028.62H1121.49C1118.85 2015.09 1116.74 2000.98 1115.17 1986.29C1104.48 1886.59 1118.51 1760.11 1158.67 1605.78C507.744 1630.95 171.484 1519.4 0 1382.39V1373.42C168.736 1511.09 503.92 1624.32 1160.55 1598.54C1164.06 1585.26 1167.77 1571.76 1171.66 1558.06C504.213 1555.08 168.314 1423.47 0 1282.63V1273.76C165.447 1414.96 500.039 1548.34 1173.71 1550.92C1177.58 1537.46 1181.61 1523.82 1185.85 1509.97C507.21 1474.2 168.787 1326.72 0 1188.36V1179.74C165.88 1318.08 502.906 1467.25 1188.03 1502.94C1192.23 1489.36 1196.59 1475.6 1201.14 1461.65C518.822 1388.54 173.488 1231.63 0 1102.45V1094.09C170.78 1222.95 515.037 1381.3 1203.42 1454.71C1207.91 1441.06 1212.56 1427.24 1217.38 1413.23C540.72 1298.77 182.461 1140.55 0 1026.57V1018.35C180.186 1131.91 537.806 1291.2 1219.77 1406.35C1224.52 1392.66 1229.41 1378.81 1234.48 1364.79C572.957 1205.59 195.083 1054.68 0 960.481V952.527C193.599 1046.37 571.563 1197.93 1236.95 1357.99C1241.93 1344.31 1247.04 1330.48 1252.32 1316.48C615.02 1109.81 210.671 974.403 0 902.949V895.349C210.009 966.594 615.057 1102.26 1254.87 1309.74C1260.03 1296.13 1265.34 1282.36 1270.79 1268.45C665.862 1012.19 228.503 899.559 0 852.469V845.121C228.529 892.132 666.909 1004.83 1273.41 1261.74C1278.72 1248.24 1284.18 1234.6 1289.75 1220.82C724.068 913.138 247.922 829.491 0 807.498V800.295C248.435 822.288 725.682 905.993 1292.48 1214.1C1297.89 1200.79 1303.41 1187.36 1309.07 1173.79C788.468 813.022 268.423 763.503 0 766.763V759.599C269.3 756.372 790.311 806.075 1311.92 1167.01C1317.36 1154.01 1322.92 1140.89 1328.59 1127.65C858.074 712.054 289.672 700.931 0 729.284V722.074C290.791 693.734 859.877 705.227 1331.59 1120.66C1336.98 1108.11 1342.49 1095.44 1348.1 1082.67C932.154 610.278 311.418 641.146 0 694.287V686.997C312.741 633.844 933.743 603.591 1351.3 1075.3C1356.84 1062.71 1361.84 1050.67 1366.98 1038.49C1009.74 507.721 333.451 583.66 0 661.198V653.801C334.903 576.204 1010.89 501.207 1370.4 1030.46C1375.36 1018.8 1380.42 1007.05 1385.3 995.491C1090.54 404.319 355.663 528.096 0 629.645V622.149C357.177 520.482 1091.12 397.939 1389.09 986.589C1393.84 975.025 1398.13 963.958 1402.5 952.798C1173.48 300.257 377.847 474.138 0 599.262V591.658C379.335 466.394 1173.04 294.176 1406.66 942.294C1410.76 931.932 1414.89 921.555 1418.95 911.233C1258.9 195.483 400.132 421.523 0 569.831V562.155C401.566 413.678 1257.45 189.699 1423.79 898.996C1427.58 889.048 1430.94 879.538 1434.37 869.956C1345.89 90.0745 422.276 370.087 0 541.184V533.414C423.447 362.234 1342.28 85.08 1440.04 854.347C1443 846.164 1446.02 837.929 1448.96 829.764C1434.93 -16.0577 444.475 319.614 0 513.173V505.331C445.215 311.837 1428.66 -20.0683 1455.92 810.088C1458.32 803.064 1460.4 796.399 1462.63 789.564C1524.98 -122.553 466.554 270.018 0 485.671V477.752C466.272 262.626 1513.2 -124.333 1471.63 762.054C1472.85 758.246 1474.23 754.271 1475.41 750.5C1616.85 -229.955 488.546 221.187 0 458.656V450.629C485.408 215.088 1590.81 -225.742 1488.85 703.732C1703.22 -334.828 509.113 173.728 0 431.995V423.922C500.444 170.436 1650.76 -318.814 1510.88 622.957C1763.33 -427.364 523.919 129.971 0 405.669V397.496Z" fill="white"/>
</mask>
<g mask="url(#mask0_42_6362)">
<path d="M5000 -469.536H0V2077.98H5000V-469.536Z" fill="white" fill-opacity="0.5"/>
</g>
</svg>
