<svg width="40" height="40" viewBox="0 0 40 40" fill="none" xmlns="http://www.w3.org/2000/svg">
<g clip-path="url(#clip0_1_305)">
<path d="M39.9875 29.1827L38.7489 16.696C38.6835 16.0359 38.3642 15.4406 37.85 15.0199C37.3399 14.6027 36.7007 14.4087 36.0489 14.4746L33.8921 14.6921C32.8094 14.8013 31.9594 15.6036 31.7323 16.617L30.5344 16.7378L27.2479 14.7742C26.9093 14.572 26.6427 14.4246 26.4013 14.3204C27.7637 12.7993 28.5935 10.7918 28.5935 8.59372C28.5935 3.85514 24.7384 0 19.9998 0C15.2611 0 11.4061 3.85514 11.4061 8.59372C11.4061 10.7917 12.2359 12.7992 13.5982 14.3205C13.3568 14.4246 13.0904 14.5721 12.7517 14.7743L9.4653 16.7378L8.26733 16.617C8.04038 15.6036 7.19031 14.8013 6.10758 14.6921L3.95087 14.4746C3.29899 14.4088 2.65993 14.6026 2.1497 15.0199C1.63548 15.4407 1.31627 16.0359 1.2508 16.696L0.808847 21.1519C0.766269 21.5812 1.07978 21.9638 1.50916 22.0064C1.93923 22.0491 2.32119 21.7354 2.36369 21.3061L2.80564 16.8502C2.82993 16.606 2.94829 16.3855 3.13915 16.2294C3.32595 16.0766 3.55884 16.0055 3.79407 16.0292L5.95078 16.2467C6.44734 16.2968 6.81062 16.7476 6.76054 17.2517L5.52195 29.7382C5.49766 29.9825 5.3793 30.2031 5.18844 30.3592C5.00164 30.5121 4.76899 30.5832 4.53352 30.5593L2.37673 30.3418C1.88025 30.2918 1.51697 29.841 1.56705 29.3368L1.66955 28.3032C1.71213 27.8738 1.39853 27.4912 0.969159 27.4486C0.540489 27.4061 0.157209 27.7197 0.114631 28.149L0.0121317 29.1826C-0.122868 30.5427 0.867597 31.7601 2.22001 31.8964L4.3768 32.1139C4.45993 32.1223 4.5429 32.1264 4.62547 32.1264C5.1893 32.1264 5.73289 31.9325 6.17789 31.5685C6.48281 31.319 6.71843 31.0078 6.87398 30.6585L7.34374 30.7058C6.67968 31.6707 6.77304 33.0089 7.62507 33.8679C8.08976 34.3365 8.70991 34.5946 9.37116 34.5946C9.57209 34.5946 9.76928 34.5707 9.95936 34.5245C10.0637 34.9444 10.2785 35.342 10.6036 35.6697C11.0683 36.1383 11.6883 36.3963 12.3496 36.3963H12.3497C12.5506 36.3963 12.7478 36.3725 12.9379 36.3262C13.0422 36.7461 13.257 37.1437 13.5821 37.4715C14.0468 37.9401 14.6669 38.1981 15.3282 38.1981C15.5291 38.1981 15.7263 38.1743 15.9164 38.1281C16.0207 38.548 16.2355 38.9455 16.5606 39.2734C17.0253 39.742 17.6454 39.9999 18.3067 39.9999C18.9679 39.9999 19.588 39.7419 20.0528 39.2734L21.0763 38.2414C21.5531 38.5437 22.0845 38.7006 22.6212 38.7006C22.9931 38.7006 23.3674 38.6252 23.7272 38.4711C24.3964 38.1845 24.9076 37.6708 25.187 37.045C25.9321 37.3004 26.6961 37.223 27.3571 36.7997C27.9255 36.4357 28.3316 35.8646 28.5083 35.2459C29.5819 35.367 30.6016 34.8458 31.1682 34.1101C31.9492 33.096 31.885 31.8071 31.0239 30.8704L33.1256 30.6586C33.2811 31.0078 33.5168 31.3189 33.8216 31.5684C34.2666 31.9326 34.8102 32.1265 35.3741 32.1265C35.4567 32.1265 35.5397 32.1224 35.6228 32.114L37.7796 31.8965C39.132 31.7602 40.1225 30.5428 39.9875 29.1827ZM29.9548 18.2118C30.0764 18.2845 30.2149 18.3224 30.3555 18.3224C30.3816 18.3224 30.4078 18.3211 30.4339 18.3185L31.7615 18.1847L32.8458 29.1164L29.6215 29.4414L24.8702 24.6073C25.0698 24.569 25.2677 24.5212 25.4629 24.463C25.8764 24.3397 26.1116 23.9046 25.9884 23.4912C25.8651 23.0776 25.4298 22.8425 25.0165 22.9657C23.3629 23.4587 21.3867 22.9753 20.211 21.79C20.0566 21.6342 19.8428 21.5509 19.6246 21.5595C19.4054 21.5684 19.2001 21.6691 19.0589 21.8368L17.9665 23.1337C17.1275 24.1297 16.7063 24.6297 14.0221 24.6297C13.8532 24.6297 13.7301 24.5776 13.6754 24.4832C13.6176 24.3836 13.635 24.2335 13.7219 24.0817C14.41 22.8801 15.0342 21.8461 15.6379 20.846C16.3061 19.739 16.9971 18.5941 17.7738 17.2238C17.8346 17.1167 17.8923 17.0224 17.9481 16.9393C18.6058 17.101 19.2928 17.1874 19.9998 17.1874C21.7869 17.1874 23.4481 16.6389 24.8245 15.7017C25.6096 15.6268 25.6388 15.6332 26.4466 16.1157L29.9548 18.2118ZM19.9998 1.56249C23.8768 1.56249 27.031 4.7167 27.031 8.59372C27.031 12.4707 23.8768 15.6249 19.9998 15.6249C16.1228 15.6249 12.9686 12.4707 12.9686 8.59372C12.9686 4.7167 16.1228 1.56249 19.9998 1.56249ZM9.37116 33.0321C9.12967 33.0321 8.90366 32.9382 8.73452 32.7678C8.37843 32.4088 8.37843 31.8247 8.7346 31.4657L9.92592 30.2644C10.0951 30.0939 10.3212 30 10.5626 30C10.804 30 11.0302 30.0939 11.1994 30.2644C11.5554 30.6234 11.5554 31.2075 11.1993 31.5665L10.6036 32.1671C10.6033 32.1674 10.6032 32.1676 10.6029 32.1678C10.6022 32.1686 10.6014 32.1694 10.6005 32.1703L10.0078 32.7678C9.83881 32.9382 9.61272 33.0321 9.37116 33.0321ZM12.3497 34.8339C12.1082 34.8339 11.8822 34.74 11.713 34.5695C11.3572 34.2106 11.3571 33.6268 11.7127 33.2678C11.7129 33.2676 11.713 33.2675 11.7131 33.2674L12.3088 32.6667C12.309 32.6666 12.309 32.6665 12.3091 32.6664L12.9044 32.0662C13.0736 31.8957 13.2997 31.8018 13.5411 31.8018C13.7825 31.8018 14.0087 31.8957 14.1778 32.0662C14.5339 32.4252 14.5339 33.0092 14.1778 33.3683L13.5821 33.9689C13.5819 33.9691 13.5818 33.9692 13.5818 33.9693L12.9863 34.5696C12.8173 34.74 12.5911 34.8339 12.3497 34.8339ZM15.3282 36.6357C15.0868 36.6357 14.8607 36.5418 14.6915 36.3713C14.3357 36.0124 14.3356 35.4286 14.6912 35.0696C14.6914 35.0694 14.6915 35.0693 14.6916 35.0692L15.2873 34.4685C15.2875 34.4684 15.2875 34.4683 15.2876 34.4681L15.8829 33.8679C16.0521 33.6974 16.2782 33.6035 16.5196 33.6035C16.761 33.6035 16.9871 33.6974 17.1563 33.8679C17.5123 34.2268 17.5124 34.8108 17.1564 35.1698C17.1564 35.1699 17.1563 35.1699 17.1562 35.17L16.5605 35.7706C16.5603 35.7708 16.5603 35.7709 16.5602 35.771L15.9648 36.3713C15.7958 36.5418 15.5696 36.6357 15.3282 36.6357ZM18.9435 38.1731C18.7743 38.3436 18.5482 38.4374 18.3067 38.4374C18.0653 38.4374 17.8392 38.3435 17.6701 38.1731C17.3146 37.8147 17.314 37.232 17.6683 36.8728L17.6696 36.8716C17.6697 36.8713 17.67 36.8712 17.6702 36.871L18.2659 36.2704C18.266 36.2702 18.2661 36.2702 18.2663 36.27L18.8617 35.6699C19.0307 35.4993 19.2568 35.4055 19.4982 35.4055C19.7396 35.4055 19.9658 35.4994 20.1349 35.6699C20.491 36.0289 20.491 36.613 20.1349 36.972L18.9435 38.1731ZM29.9303 33.1567C29.5644 33.6319 28.8436 33.9087 28.1742 33.5191C27.902 33.3607 27.5614 33.3811 27.3101 33.571C27.0588 33.7609 26.9462 34.083 27.0243 34.3881C27.1176 34.7526 26.8889 35.2442 26.5145 35.484C26.0137 35.8048 25.4882 35.5307 25.1358 35.2444C24.8981 35.0513 24.5694 35.0149 24.2952 35.1513C24.021 35.2876 23.8518 35.5716 23.8624 35.8777C23.8796 36.3781 23.5851 36.8324 23.112 37.0349C22.9058 37.1232 22.4196 37.2608 21.8923 36.9112C22.0888 36.0981 21.8728 35.2034 21.2441 34.5696C20.7794 34.101 20.1592 33.843 19.4979 33.8431C19.2971 33.8431 19.0999 33.8669 18.9099 33.9131C18.8055 33.4932 18.5907 33.0957 18.2657 32.7678C17.801 32.2992 17.1809 32.0412 16.5196 32.0412C16.3187 32.0412 16.1215 32.065 15.9314 32.1113C15.827 31.6914 15.6122 31.2937 15.2871 30.9659C14.8224 30.4973 14.2022 30.2393 13.541 30.2393C13.3401 30.2393 13.1429 30.2632 12.9529 30.3094C12.8485 29.8895 12.6338 29.4919 12.3087 29.1641C12.3087 29.1641 12.3087 29.1641 12.3086 29.1641C11.844 28.6955 11.2238 28.4375 10.5626 28.4375C9.90131 28.4375 9.28124 28.6956 8.81639 29.1641L8.70835 29.273L7.15367 29.1162L8.23804 18.1845L9.56553 18.3184C9.5917 18.321 9.61788 18.3223 9.64397 18.3223C9.78459 18.3223 9.92311 18.2843 10.0447 18.2116L13.5529 16.1156C14.3604 15.6331 14.3894 15.6267 15.175 15.7015C15.5732 15.9727 15.9954 16.2112 16.4374 16.4134C16.4296 16.4268 16.4221 16.4393 16.4143 16.4531C15.6482 17.8048 14.9628 18.9402 14.3 20.0383C13.6918 21.0459 13.0628 22.0879 12.3658 23.305C11.9988 23.946 11.9829 24.6793 12.3234 25.2665C12.6593 25.846 13.2943 26.1919 14.0219 26.1919C17.0964 26.1919 17.9864 25.5348 19.1614 24.1401L19.7445 23.4479C20.6044 24.09 21.6453 24.5037 22.7274 24.6559L29.8273 31.8797C30.3613 32.4139 30.1211 32.909 29.9303 33.1567ZM37.6229 30.3418L35.4661 30.5593C35.2308 30.5832 34.998 30.5121 34.8111 30.3591C34.6204 30.203 34.5019 29.9825 34.4777 29.7382L33.2391 17.2517C33.1891 16.7476 33.5525 16.2967 34.049 16.2467L36.2057 16.0292C36.4411 16.0054 36.6739 16.0765 36.8606 16.2293C37.0514 16.3855 37.1699 16.606 37.1942 16.8502L38.4328 29.3369C38.4827 29.841 38.1194 30.2918 37.6229 30.3418Z" fill="white"/>
<path d="M17.4478 12.1576C17.8905 12.6003 18.479 12.844 19.105 12.844C19.7311 12.844 20.3196 12.6002 20.7622 12.1576L24.5757 8.34416C25.4895 7.43041 25.4895 5.94354 24.5757 5.02979C24.1331 4.58713 23.5446 4.34338 22.9185 4.34338C22.2924 4.34338 21.7039 4.58713 21.2614 5.02979L19.105 7.18612L18.7387 6.81971C18.296 6.37706 17.7075 6.13331 17.0815 6.13331C16.4555 6.13331 15.867 6.37713 15.4243 6.81971C14.9817 7.26237 14.7379 7.85088 14.7379 8.4769C14.7379 9.10291 14.9817 9.69143 15.4243 10.134L17.4478 12.1576ZM16.5292 7.92456C16.6767 7.77698 16.8728 7.69581 17.0815 7.69581C17.2902 7.69581 17.4864 7.77706 17.6338 7.92456L18.5526 8.84338C18.6991 8.98987 18.8978 9.07221 19.105 9.07221C19.3122 9.07221 19.5109 8.98995 19.6574 8.84338L22.3662 6.13463C22.5137 5.98713 22.7098 5.90588 22.9185 5.90588C23.1271 5.90588 23.3233 5.98713 23.4707 6.13463C23.6183 6.28213 23.6996 6.47831 23.6996 6.6869C23.6996 6.89549 23.6183 7.09167 23.4707 7.23917L19.6572 11.0527C19.5097 11.2002 19.3136 11.2814 19.1049 11.2814C18.8963 11.2814 18.7001 11.2002 18.5527 11.0527L16.5292 9.02909C16.2246 8.72456 16.2246 8.22909 16.5292 7.92456Z" fill="white"/>
<path d="M1.23925 25.5088C1.67065 25.5088 2.0205 25.159 2.0205 24.7275C2.0205 24.2961 1.67065 23.9463 1.23925 23.9463H1.2387C0.807295 23.9463 0.457764 24.2961 0.457764 24.7275C0.457764 25.159 0.807764 25.5088 1.23925 25.5088Z" fill="white"/>
<path d="M27.9974 22.3145C28.4288 22.3145 28.7786 21.9647 28.7786 21.5332C28.7786 21.1017 28.4288 20.752 27.9974 20.752H27.9968C27.5653 20.752 27.2158 21.1017 27.2158 21.5332C27.2158 21.9647 27.566 22.3145 27.9974 22.3145Z" fill="white"/>
</g>
<defs>
<clipPath id="clip0_1_305">
<rect width="40" height="40" fill="white"/>
</clipPath>
</defs>
</svg>
