<svg width="40" height="40" viewBox="0 0 40 40" fill="none" xmlns="http://www.w3.org/2000/svg">
<g clip-path="url(#clip0_29_1434)">
<path d="M39.9877 29.1827L38.7491 16.696C38.6836 16.0359 38.3644 15.4406 37.8501 15.0199C37.3401 14.6027 36.7008 14.4087 36.049 14.4746L33.8923 14.6921C32.8096 14.8013 31.9595 15.6036 31.7325 16.617L30.5345 16.7378L27.2481 14.7742C26.9095 14.572 26.6429 14.4246 26.4015 14.3204C27.7638 12.7993 28.5937 10.7918 28.5937 8.59372C28.5937 3.85514 24.7386 0 20 0C15.2613 0 11.4063 3.85514 11.4063 8.59372C11.4063 10.7917 12.2361 12.7992 13.5984 14.3205C13.357 14.4246 13.0905 14.5721 12.7519 14.7743L9.46548 16.7378L8.26752 16.617C8.04056 15.6036 7.19049 14.8013 6.10776 14.6921L3.95105 14.4746C3.29918 14.4088 2.66012 14.6026 2.14988 15.0199C1.63567 15.4407 1.31645 16.0359 1.25098 16.696L0.80903 21.1519C0.766452 21.5812 1.07997 21.9638 1.50934 22.0064C1.93942 22.0491 2.32137 21.7354 2.36387 21.3061L2.80582 16.8502C2.83012 16.606 2.94848 16.3855 3.13933 16.2294C3.32613 16.0766 3.55902 16.0055 3.79425 16.0292L5.95096 16.2467C6.44752 16.2968 6.8108 16.7476 6.76073 17.2517L5.52214 29.7382C5.49784 29.9825 5.37948 30.2031 5.18862 30.3592C5.00183 30.5121 4.76917 30.5832 4.5337 30.5593L2.37691 30.3418C1.88043 30.2918 1.51715 29.841 1.56723 29.3368L1.66973 28.3032C1.71231 27.8738 1.39872 27.4912 0.969342 27.4486C0.540672 27.4061 0.157392 27.7197 0.114814 28.149L0.0123148 29.1826C-0.122685 30.5427 0.86778 31.7601 2.2202 31.8964L4.37699 32.1139C4.46011 32.1223 4.54308 32.1264 4.62566 32.1264C5.18948 32.1264 5.73307 31.9325 6.17807 31.5685C6.48299 31.319 6.71862 31.0078 6.87416 30.6585L7.34393 30.7058C6.67987 31.6707 6.77323 33.0089 7.62525 33.8679C8.08994 34.3365 8.71009 34.5946 9.37134 34.5946C9.57228 34.5946 9.76946 34.5707 9.95954 34.5245C10.0639 34.9444 10.2787 35.342 10.6038 35.6697C11.0684 36.1383 11.6885 36.3963 12.3498 36.3963H12.3498C12.5508 36.3963 12.748 36.3725 12.938 36.3262C13.0424 36.7461 13.2572 37.1437 13.5823 37.4715C14.0469 37.9401 14.6671 38.1981 15.3283 38.1981C15.5293 38.1981 15.7265 38.1743 15.9165 38.1281C16.0209 38.548 16.2357 38.9455 16.5608 39.2734C17.0255 39.742 17.6456 39.9999 18.3069 39.9999C18.9681 39.9999 19.5882 39.7419 20.0529 39.2734L21.0765 38.2414C21.5532 38.5437 22.0847 38.7006 22.6214 38.7006C22.9932 38.7006 23.3676 38.6252 23.7274 38.4711C24.3966 38.1845 24.9078 37.6708 25.1872 37.045C25.9323 37.3004 26.6963 37.223 27.3573 36.7997C27.9256 36.4357 28.3318 35.8646 28.5085 35.2459C29.5821 35.367 30.6018 34.8458 31.1684 34.1101C31.9494 33.096 31.8852 31.8071 31.0241 30.8704L33.1258 30.6586C33.2812 31.0078 33.517 31.3189 33.8218 31.5684C34.2668 31.9326 34.8104 32.1265 35.3743 32.1265C35.4569 32.1265 35.5398 32.1224 35.623 32.114L37.7797 31.8965C39.1322 31.7602 40.1227 30.5428 39.9877 29.1827ZM29.955 18.2118C30.0766 18.2845 30.2151 18.3224 30.3557 18.3224C30.3818 18.3224 30.408 18.3211 30.4341 18.3185L31.7616 18.1847L32.846 29.1164L29.6217 29.4414L24.8704 24.6073C25.07 24.569 25.2679 24.5212 25.4631 24.463C25.8766 24.3397 26.1118 23.9046 25.9885 23.4912C25.8653 23.0776 25.43 22.8425 25.0167 22.9657C23.3631 23.4587 21.3869 22.9753 20.2112 21.79C20.0568 21.6342 19.843 21.5509 19.6248 21.5595C19.4056 21.5684 19.2003 21.6691 19.059 21.8368L17.9667 23.1337C17.1276 24.1297 16.7065 24.6297 14.0223 24.6297C13.8534 24.6297 13.7303 24.5776 13.6755 24.4832C13.6178 24.3836 13.6352 24.2335 13.7221 24.0817C14.4101 22.8801 15.0344 21.8461 15.638 20.846C16.3063 19.739 16.9972 18.5941 17.774 17.2238C17.8347 17.1167 17.8925 17.0224 17.9483 16.9393C18.606 17.101 19.293 17.1874 20 17.1874C21.7871 17.1874 23.4482 16.6389 24.8246 15.7017C25.6098 15.6268 25.6389 15.6332 26.4467 16.1157L29.955 18.2118ZM20 1.56249C23.877 1.56249 27.0312 4.7167 27.0312 8.59372C27.0312 12.4707 23.877 15.6249 20 15.6249C16.123 15.6249 12.9687 12.4707 12.9687 8.59372C12.9687 4.7167 16.123 1.56249 20 1.56249ZM9.37134 33.0321C9.12986 33.0321 8.90384 32.9382 8.7347 32.7678C8.37861 32.4088 8.37861 31.8247 8.73478 31.4657L9.9261 30.2644C10.0952 30.0939 10.3214 30 10.5628 30C10.8042 30 11.0304 30.0939 11.1995 30.2644C11.5556 30.6234 11.5556 31.2075 11.1995 31.5665L10.6038 32.1671C10.6035 32.1674 10.6034 32.1676 10.6031 32.1678C10.6024 32.1686 10.6016 32.1694 10.6007 32.1703L10.008 32.7678C9.83899 32.9382 9.6129 33.0321 9.37134 33.0321ZM12.3498 34.8339C12.1084 34.8339 11.8823 34.74 11.7132 34.5695C11.3573 34.2106 11.3573 33.6268 11.7129 33.2678C11.713 33.2676 11.7132 33.2675 11.7133 33.2674L12.309 32.6667C12.3091 32.6666 12.3092 32.6665 12.3093 32.6664L12.9046 32.0662C13.0737 31.8957 13.2999 31.8018 13.5412 31.8018C13.7827 31.8018 14.0089 31.8957 14.178 32.0662C14.5341 32.4252 14.5341 33.0092 14.178 33.3683L13.5823 33.9689C13.5821 33.9691 13.582 33.9692 13.5819 33.9693L12.9865 34.5696C12.8175 34.74 12.5913 34.8339 12.3498 34.8339ZM15.3283 36.6357C15.0869 36.6357 14.8609 36.5418 14.6917 36.3713C14.3359 36.0124 14.3358 35.4286 14.6914 35.0695C14.6916 35.0694 14.6917 35.0693 14.6918 35.0692L15.2875 34.4685C15.2876 34.4684 15.2877 34.4683 15.2878 34.4681L15.8831 33.8679C16.0523 33.6974 16.2784 33.6035 16.5198 33.6035C16.7612 33.6035 16.9873 33.6974 17.1565 33.8679C17.5125 34.2268 17.5126 34.8108 17.1566 35.1698C17.1565 35.1699 17.1565 35.1699 17.1564 35.17L16.5607 35.7706C16.5605 35.7708 16.5605 35.7709 16.5604 35.771L15.965 36.3713C15.796 36.5418 15.5698 36.6357 15.3283 36.6357ZM18.9436 38.1731C18.7745 38.3436 18.5483 38.4374 18.3069 38.4374C18.0655 38.4374 17.8394 38.3435 17.6703 38.1731C17.3148 37.8147 17.3142 37.232 17.6685 36.8728L17.6697 36.8716C17.6699 36.8713 17.6701 36.8712 17.6704 36.871L18.2661 36.2704C18.2662 36.2702 18.2663 36.2702 18.2665 36.27L18.8619 35.6699C19.0309 35.4993 19.257 35.4055 19.4984 35.4055C19.7398 35.4055 19.966 35.4994 20.1351 35.6699C20.4912 36.0289 20.4912 36.613 20.1351 36.972L18.9436 38.1731ZM29.9305 33.1567C29.5646 33.6319 28.8438 33.9087 28.1744 33.5191C27.9022 33.3606 27.5616 33.3811 27.3103 33.571C27.059 33.7609 26.9464 34.083 27.0245 34.3881C27.1178 34.7526 26.8891 35.2442 26.5147 35.484C26.0139 35.8048 25.4884 35.5307 25.136 35.2444C24.8982 35.0513 24.5696 35.0149 24.2954 35.1513C24.0212 35.2876 23.852 35.5716 23.8625 35.8777C23.8798 36.3781 23.5853 36.8324 23.1122 37.0349C22.906 37.1232 22.4198 37.2608 21.8925 36.9112C22.089 36.0981 21.8729 35.2034 21.2443 34.5696C20.7796 34.101 20.1594 33.843 19.4981 33.8431C19.2972 33.8431 19.1001 33.8669 18.9101 33.9131C18.8057 33.4932 18.5909 33.0956 18.2658 32.7678C17.8012 32.2992 17.1811 32.0412 16.5198 32.0412C16.3189 32.0412 16.1217 32.065 15.9316 32.1113C15.8272 31.6914 15.6124 31.2937 15.2873 30.9659C14.8226 30.4973 14.2024 30.2393 13.5412 30.2393C13.3403 30.2393 13.1431 30.2632 12.9531 30.3094C12.8487 29.8895 12.634 29.4919 12.3089 29.1641C12.3089 29.1641 12.3089 29.1641 12.3088 29.1641C11.8441 28.6955 11.224 28.4375 10.5627 28.4375C9.90149 28.4375 9.28142 28.6956 8.81658 29.1641L8.70853 29.273L7.15385 29.1162L8.23822 18.1845L9.56572 18.3184C9.59189 18.321 9.61806 18.3223 9.64415 18.3223C9.78478 18.3223 9.92329 18.2843 10.0449 18.2116L13.553 16.1156C14.3606 15.6331 14.3896 15.6267 15.1752 15.7015C15.5734 15.9727 15.9955 16.2112 16.4376 16.4134C16.4298 16.4268 16.4223 16.4393 16.4144 16.4531C15.6483 17.8048 14.963 18.9402 14.3001 20.0383C13.6919 21.0459 13.063 22.0879 12.366 23.305C11.999 23.946 11.9831 24.6793 12.3236 25.2665C12.6595 25.846 13.2944 26.1919 14.0221 26.1919C17.0966 26.1919 17.9866 25.5348 19.1615 24.1401L19.7447 23.4479C20.6046 24.09 21.6455 24.5037 22.7275 24.6559L29.8275 31.8797C30.3615 32.4139 30.1213 32.909 29.9305 33.1567ZM37.6231 30.3418L35.4663 30.5593C35.231 30.5832 34.9982 30.5121 34.8113 30.3591C34.6205 30.203 34.5021 29.9825 34.4779 29.7382L33.2393 17.2517C33.1893 16.7476 33.5527 16.2967 34.0491 16.2467L36.2059 16.0292C36.4412 16.0054 36.674 16.0765 36.8608 16.2293C37.0516 16.3855 37.1701 16.606 37.1944 16.8502L38.4329 29.3369C38.4829 29.841 38.1196 30.2918 37.6231 30.3418Z" fill="#007DC5"/>
<path d="M17.4482 12.1577C17.8909 12.6004 18.4794 12.8441 19.1054 12.8441C19.7315 12.8441 20.32 12.6003 20.7626 12.1577L24.5761 8.34429C25.4898 7.43054 25.4898 5.94366 24.5761 5.02991C24.1334 4.58726 23.5449 4.34351 22.9189 4.34351C22.2928 4.34351 21.7043 4.58726 21.2617 5.02991L19.1054 7.18624L18.7391 6.81983C18.2964 6.37718 17.7079 6.13343 17.0819 6.13343C16.4559 6.13343 15.8673 6.37726 15.4247 6.81983C14.982 7.26249 14.7383 7.85101 14.7383 8.47702C14.7383 9.10304 14.982 9.69155 15.4247 10.1341L17.4482 12.1577ZM16.5296 7.92468C16.6771 7.7771 16.8732 7.69593 17.0819 7.69593C17.2905 7.69593 17.4867 7.77718 17.6341 7.92468L18.553 8.84351C18.6995 8.98999 18.8982 9.07233 19.1054 9.07233C19.3126 9.07233 19.5113 8.99007 19.6578 8.84351L22.3666 6.13476C22.5141 5.98726 22.7102 5.90601 22.9188 5.90601C23.1275 5.90601 23.3237 5.98726 23.4711 6.13476C23.6187 6.28226 23.6999 6.47843 23.6999 6.68702C23.6999 6.89562 23.6187 7.09179 23.4711 7.23929L19.6576 11.0528C19.5101 11.2003 19.314 11.2816 19.1053 11.2816C18.8966 11.2816 18.7005 11.2003 18.553 11.0528L16.5295 9.02921C16.225 8.72468 16.225 8.22921 16.5296 7.92468Z" fill="#007DC5"/>
<path d="M1.23949 25.5088C1.6709 25.5088 2.02074 25.159 2.02074 24.7275C2.02074 24.2961 1.6709 23.9463 1.23949 23.9463H1.23895C0.807539 23.9463 0.458008 24.2961 0.458008 24.7275C0.458008 25.159 0.808008 25.5088 1.23949 25.5088Z" fill="#007DC5"/>
<path d="M27.9974 22.3145C28.4288 22.3145 28.7786 21.9647 28.7786 21.5332C28.7786 21.1017 28.4288 20.752 27.9974 20.752H27.9968C27.5653 20.752 27.2158 21.1017 27.2158 21.5332C27.2158 21.9647 27.566 22.3145 27.9974 22.3145Z" fill="#007DC5"/>
</g>
<defs>
<clipPath id="clip0_29_1434">
<rect width="40" height="40" fill="white"/>
</clipPath>
</defs>
</svg>
