<svg width="2286" height="1124" viewBox="0 0 2286 1124" fill="none" xmlns="http://www.w3.org/2000/svg">
<path d="M572.097 1H1V561.794H572.097V1Z" stroke="#F3F3F3" stroke-width="1.65526" stroke-miterlimit="10"/>
<path d="M1 481.762H572.098" stroke="#F3F3F3" stroke-width="1.65526" stroke-miterlimit="10"/>
<path d="M1 401.729H572.098" stroke="#F3F3F3" stroke-width="1.65526" stroke-miterlimit="10"/>
<path d="M1 321.697H572.098" stroke="#F3F3F3" stroke-width="1.65526" stroke-miterlimit="10"/>
<path d="M1 241.663H572.098" stroke="#F3F3F3" stroke-width="1.65526" stroke-miterlimit="10"/>
<path d="M1 161.632H572.098" stroke="#F3F3F3" stroke-width="1.65526" stroke-miterlimit="10"/>
<path d="M1 81.598H572.098" stroke="#F3F3F3" stroke-width="1.65526" stroke-miterlimit="10"/>
<path d="M476.914 1V561.796" stroke="#F3F3F3" stroke-width="1.65526" stroke-miterlimit="10"/>
<path d="M381.732 1V561.796" stroke="#F3F3F3" stroke-width="1.65526" stroke-miterlimit="10"/>
<path d="M286.549 1V561.796" stroke="#F3F3F3" stroke-width="1.65526" stroke-miterlimit="10"/>
<path d="M191.367 1V561.796" stroke="#F3F3F3" stroke-width="1.65526" stroke-miterlimit="10"/>
<path d="M96.1825 1V561.796" stroke="#F3F3F3" stroke-width="1.65526" stroke-miterlimit="10"/>
<path d="M572.097 562H1V1122.79H572.097V562Z" stroke="#F3F3F3" stroke-width="1.65526" stroke-miterlimit="10"/>
<path d="M1 1042.76H572.098" stroke="#F3F3F3" stroke-width="1.65526" stroke-miterlimit="10"/>
<path d="M1 962.729H572.098" stroke="#F3F3F3" stroke-width="1.65526" stroke-miterlimit="10"/>
<path d="M1 882.697H572.098" stroke="#F3F3F3" stroke-width="1.65526" stroke-miterlimit="10"/>
<path d="M1 802.663H572.098" stroke="#F3F3F3" stroke-width="1.65526" stroke-miterlimit="10"/>
<path d="M1 722.632H572.098" stroke="#F3F3F3" stroke-width="1.65526" stroke-miterlimit="10"/>
<path d="M1 642.598H572.098" stroke="#F3F3F3" stroke-width="1.65526" stroke-miterlimit="10"/>
<path d="M476.914 562V1122.8" stroke="#F3F3F3" stroke-width="1.65526" stroke-miterlimit="10"/>
<path d="M381.732 562V1122.8" stroke="#F3F3F3" stroke-width="1.65526" stroke-miterlimit="10"/>
<path d="M286.549 562V1122.8" stroke="#F3F3F3" stroke-width="1.65526" stroke-miterlimit="10"/>
<path d="M191.367 562V1122.8" stroke="#F3F3F3" stroke-width="1.65526" stroke-miterlimit="10"/>
<path d="M96.1825 562V1122.8" stroke="#F3F3F3" stroke-width="1.65526" stroke-miterlimit="10"/>
<path d="M1143.1 1H572V561.794H1143.1V1Z" stroke="#F3F3F3" stroke-width="1.65526" stroke-miterlimit="10"/>
<path d="M572 481.762H1143.1" stroke="#F3F3F3" stroke-width="1.65526" stroke-miterlimit="10"/>
<path d="M572 401.729H1143.1" stroke="#F3F3F3" stroke-width="1.65526" stroke-miterlimit="10"/>
<path d="M572 321.697H1143.1" stroke="#F3F3F3" stroke-width="1.65526" stroke-miterlimit="10"/>
<path d="M572 241.663H1143.1" stroke="#F3F3F3" stroke-width="1.65526" stroke-miterlimit="10"/>
<path d="M572 161.632H1143.1" stroke="#F3F3F3" stroke-width="1.65526" stroke-miterlimit="10"/>
<path d="M572 81.598H1143.1" stroke="#F3F3F3" stroke-width="1.65526" stroke-miterlimit="10"/>
<path d="M1047.91 1V561.796" stroke="#F3F3F3" stroke-width="1.65526" stroke-miterlimit="10"/>
<path d="M952.732 1V561.796" stroke="#F3F3F3" stroke-width="1.65526" stroke-miterlimit="10"/>
<path d="M857.549 1V561.796" stroke="#F3F3F3" stroke-width="1.65526" stroke-miterlimit="10"/>
<path d="M762.367 1V561.796" stroke="#F3F3F3" stroke-width="1.65526" stroke-miterlimit="10"/>
<path d="M667.183 1V561.796" stroke="#F3F3F3" stroke-width="1.65526" stroke-miterlimit="10"/>
<path d="M1143.1 562H572V1122.79H1143.1V562Z" stroke="#F3F3F3" stroke-width="1.65526" stroke-miterlimit="10"/>
<path d="M572 1042.76H1143.1" stroke="#F3F3F3" stroke-width="1.65526" stroke-miterlimit="10"/>
<path d="M572 962.729H1143.1" stroke="#F3F3F3" stroke-width="1.65526" stroke-miterlimit="10"/>
<path d="M572 882.697H1143.1" stroke="#F3F3F3" stroke-width="1.65526" stroke-miterlimit="10"/>
<path d="M572 802.663H1143.1" stroke="#F3F3F3" stroke-width="1.65526" stroke-miterlimit="10"/>
<path d="M572 722.632H1143.1" stroke="#F3F3F3" stroke-width="1.65526" stroke-miterlimit="10"/>
<path d="M572 642.598H1143.1" stroke="#F3F3F3" stroke-width="1.65526" stroke-miterlimit="10"/>
<path d="M1047.91 562V1122.8" stroke="#F3F3F3" stroke-width="1.65526" stroke-miterlimit="10"/>
<path d="M952.732 562V1122.8" stroke="#F3F3F3" stroke-width="1.65526" stroke-miterlimit="10"/>
<path d="M857.549 562V1122.8" stroke="#F3F3F3" stroke-width="1.65526" stroke-miterlimit="10"/>
<path d="M762.367 562V1122.8" stroke="#F3F3F3" stroke-width="1.65526" stroke-miterlimit="10"/>
<path d="M667.183 562V1122.8" stroke="#F3F3F3" stroke-width="1.65526" stroke-miterlimit="10"/>
<path d="M1714.1 1H1143V561.794H1714.1V1Z" stroke="#F3F3F3" stroke-width="1.65526" stroke-miterlimit="10"/>
<path d="M1143 481.762H1714.1" stroke="#F3F3F3" stroke-width="1.65526" stroke-miterlimit="10"/>
<path d="M1143 401.729H1714.1" stroke="#F3F3F3" stroke-width="1.65526" stroke-miterlimit="10"/>
<path d="M1143 321.697H1714.1" stroke="#F3F3F3" stroke-width="1.65526" stroke-miterlimit="10"/>
<path d="M1143 241.663H1714.1" stroke="#F3F3F3" stroke-width="1.65526" stroke-miterlimit="10"/>
<path d="M1143 161.632H1714.1" stroke="#F3F3F3" stroke-width="1.65526" stroke-miterlimit="10"/>
<path d="M1143 81.598H1714.1" stroke="#F3F3F3" stroke-width="1.65526" stroke-miterlimit="10"/>
<path d="M1618.91 1V561.796" stroke="#F3F3F3" stroke-width="1.65526" stroke-miterlimit="10"/>
<path d="M1523.73 1V561.796" stroke="#F3F3F3" stroke-width="1.65526" stroke-miterlimit="10"/>
<path d="M1428.55 1V561.796" stroke="#F3F3F3" stroke-width="1.65526" stroke-miterlimit="10"/>
<path d="M1333.37 1V561.796" stroke="#F3F3F3" stroke-width="1.65526" stroke-miterlimit="10"/>
<path d="M1238.18 1V561.796" stroke="#F3F3F3" stroke-width="1.65526" stroke-miterlimit="10"/>
<path d="M1714.1 562H1143V1122.79H1714.1V562Z" stroke="#F3F3F3" stroke-width="1.65526" stroke-miterlimit="10"/>
<path d="M1143 1042.76H1714.1" stroke="#F3F3F3" stroke-width="1.65526" stroke-miterlimit="10"/>
<path d="M1143 962.729H1714.1" stroke="#F3F3F3" stroke-width="1.65526" stroke-miterlimit="10"/>
<path d="M1143 882.697H1714.1" stroke="#F3F3F3" stroke-width="1.65526" stroke-miterlimit="10"/>
<path d="M1143 802.663H1714.1" stroke="#F3F3F3" stroke-width="1.65526" stroke-miterlimit="10"/>
<path d="M1143 722.632H1714.1" stroke="#F3F3F3" stroke-width="1.65526" stroke-miterlimit="10"/>
<path d="M1143 642.598H1714.1" stroke="#F3F3F3" stroke-width="1.65526" stroke-miterlimit="10"/>
<path d="M1618.91 562V1122.8" stroke="#F3F3F3" stroke-width="1.65526" stroke-miterlimit="10"/>
<path d="M1523.73 562V1122.8" stroke="#F3F3F3" stroke-width="1.65526" stroke-miterlimit="10"/>
<path d="M1428.55 562V1122.8" stroke="#F3F3F3" stroke-width="1.65526" stroke-miterlimit="10"/>
<path d="M1333.37 562V1122.8" stroke="#F3F3F3" stroke-width="1.65526" stroke-miterlimit="10"/>
<path d="M1238.18 562V1122.8" stroke="#F3F3F3" stroke-width="1.65526" stroke-miterlimit="10"/>
<path d="M2285.1 1H1714V561.794H2285.1V1Z" stroke="#F3F3F3" stroke-width="1.65526" stroke-miterlimit="10"/>
<path d="M1714 481.762H2285.1" stroke="#F3F3F3" stroke-width="1.65526" stroke-miterlimit="10"/>
<path d="M1714 401.729H2285.1" stroke="#F3F3F3" stroke-width="1.65526" stroke-miterlimit="10"/>
<path d="M1714 321.697H2285.1" stroke="#F3F3F3" stroke-width="1.65526" stroke-miterlimit="10"/>
<path d="M1714 241.663H2285.1" stroke="#F3F3F3" stroke-width="1.65526" stroke-miterlimit="10"/>
<path d="M1714 161.632H2285.1" stroke="#F3F3F3" stroke-width="1.65526" stroke-miterlimit="10"/>
<path d="M1714 81.598H2285.1" stroke="#F3F3F3" stroke-width="1.65526" stroke-miterlimit="10"/>
<path d="M2189.91 1V561.796" stroke="#F3F3F3" stroke-width="1.65526" stroke-miterlimit="10"/>
<path d="M2094.73 1V561.796" stroke="#F3F3F3" stroke-width="1.65526" stroke-miterlimit="10"/>
<path d="M1999.55 1V561.796" stroke="#F3F3F3" stroke-width="1.65526" stroke-miterlimit="10"/>
<path d="M1904.37 1V561.796" stroke="#F3F3F3" stroke-width="1.65526" stroke-miterlimit="10"/>
<path d="M1809.18 1V561.796" stroke="#F3F3F3" stroke-width="1.65526" stroke-miterlimit="10"/>
<path d="M2285.1 562H1714V1122.79H2285.1V562Z" stroke="#F3F3F3" stroke-width="1.65526" stroke-miterlimit="10"/>
<path d="M1714 1042.76H2285.1" stroke="#F3F3F3" stroke-width="1.65526" stroke-miterlimit="10"/>
<path d="M1714 962.729H2285.1" stroke="#F3F3F3" stroke-width="1.65526" stroke-miterlimit="10"/>
<path d="M1714 882.697H2285.1" stroke="#F3F3F3" stroke-width="1.65526" stroke-miterlimit="10"/>
<path d="M1714 802.663H2285.1" stroke="#F3F3F3" stroke-width="1.65526" stroke-miterlimit="10"/>
<path d="M1714 722.632H2285.1" stroke="#F3F3F3" stroke-width="1.65526" stroke-miterlimit="10"/>
<path d="M1714 642.598H2285.1" stroke="#F3F3F3" stroke-width="1.65526" stroke-miterlimit="10"/>
<path d="M2189.91 562V1122.8" stroke="#F3F3F3" stroke-width="1.65526" stroke-miterlimit="10"/>
<path d="M2094.73 562V1122.8" stroke="#F3F3F3" stroke-width="1.65526" stroke-miterlimit="10"/>
<path d="M1999.55 562V1122.8" stroke="#F3F3F3" stroke-width="1.65526" stroke-miterlimit="10"/>
<path d="M1904.37 562V1122.8" stroke="#F3F3F3" stroke-width="1.65526" stroke-miterlimit="10"/>
<path d="M1809.18 562V1122.8" stroke="#F3F3F3" stroke-width="1.65526" stroke-miterlimit="10"/>
</svg>
