<svg width="48" height="48" viewBox="0 0 48 48" fill="none" xmlns="http://www.w3.org/2000/svg">
<path d="M24.0002 11.2001C24.442 11.2001 24.8002 10.8419 24.8002 10.4001C24.8002 9.95827 24.442 9.6001 24.0002 9.6001C23.5584 9.6001 23.2002 9.95827 23.2002 10.4001C23.2002 10.8419 23.5584 11.2001 24.0002 11.2001Z" fill="#007DC5"/>
<path d="M31.1925 11.9479C31.2272 11.7859 31.3113 11.6386 31.4332 11.5264C31.5552 11.4141 31.709 11.3426 31.8733 11.3215L32.7533 11.2095C32.812 10.6714 32.812 10.1285 32.7533 9.59034L31.8733 9.47834C31.709 9.4573 31.5552 9.38574 31.4332 9.27353C31.3113 9.16132 31.2272 9.01401 31.1925 8.85194C31.0054 7.98436 30.6614 7.15827 30.1773 6.41434C30.0871 6.27522 30.0423 6.1115 30.0492 5.94582C30.0561 5.78015 30.1143 5.6207 30.2157 5.48954L30.7638 4.78074C30.5939 4.56986 30.4128 4.36823 30.2213 4.17674C30.0306 3.98563 29.8294 3.8051 29.6189 3.63594L28.9101 4.18394C28.779 4.2854 28.6195 4.34359 28.4539 4.35047C28.2882 4.35735 28.1245 4.31257 27.9853 4.22234C27.2414 3.73832 26.4153 3.39428 25.5477 3.20714C25.3857 3.17252 25.2384 3.08842 25.1262 2.96647C25.0139 2.84451 24.9424 2.69072 24.9213 2.52634L24.8093 1.64634C24.2712 1.58794 23.7283 1.58794 23.1901 1.64634L23.0781 2.52634C23.0571 2.69072 22.9855 2.84451 22.8733 2.96647C22.7611 3.08842 22.6138 3.17252 22.4517 3.20714C21.5842 3.39428 20.7581 3.73832 20.0141 4.22234C19.875 4.31257 19.7113 4.35735 19.5456 4.35047C19.38 4.34359 19.2205 4.2854 19.0893 4.18394L18.3805 3.63594C18.1697 3.80581 17.968 3.98687 17.7765 4.17834C17.5854 4.36914 17.4049 4.57024 17.2357 4.78074L17.7837 5.48954C17.8852 5.6207 17.9434 5.78015 17.9503 5.94582C17.9572 6.1115 17.9124 6.27522 17.8221 6.41434C17.3381 7.15827 16.9941 7.98436 16.8069 8.85194C16.7723 9.01401 16.6882 9.16132 16.5663 9.27353C16.4443 9.38574 16.2905 9.4573 16.1261 9.47834L15.2461 9.59034C15.1875 10.1285 15.1875 10.6714 15.2461 11.2095L16.1261 11.3215C16.2905 11.3426 16.4443 11.4141 16.5663 11.5264C16.6882 11.6386 16.7723 11.7859 16.8069 11.9479C16.9941 12.8155 17.3381 13.6416 17.8221 14.3855C17.9124 14.5247 17.9572 14.6884 17.9503 14.8541C17.9434 15.0197 17.8852 15.1792 17.7837 15.3103L17.2357 16.0191C17.4056 16.23 17.5867 16.4316 17.7781 16.6231C17.9689 16.8142 18.17 16.9948 18.3805 17.1639L19.0893 16.6159C19.2205 16.5145 19.38 16.4563 19.5456 16.4494C19.7113 16.4425 19.875 16.4873 20.0141 16.5775C20.7581 17.0616 21.5842 17.4056 22.4517 17.5927C22.6138 17.6274 22.7611 17.7115 22.8733 17.8334C22.9855 17.9554 23.0571 18.1092 23.0781 18.2735L23.1901 19.1535C23.7283 19.2119 24.2712 19.2119 24.8093 19.1535L24.9213 18.2735C24.9424 18.1092 25.0139 17.9554 25.1262 17.8334C25.2384 17.7115 25.3857 17.6274 25.5477 17.5927C26.4153 17.4056 27.2414 17.0616 27.9853 16.5775C28.1245 16.4873 28.2882 16.4425 28.4539 16.4494C28.6195 16.4563 28.779 16.5145 28.9101 16.6159L29.6189 17.1639C29.8298 16.9941 30.0315 16.813 30.2229 16.6215C30.4141 16.4307 30.5946 16.2296 30.7638 16.0191L30.2157 15.3103C30.1143 15.1792 30.0561 15.0197 30.0492 14.8541C30.0423 14.6884 30.0871 14.5247 30.1773 14.3855C30.6614 13.6416 31.0054 12.8155 31.1925 11.9479ZM23.9997 15.9999C22.8922 15.9999 21.8095 15.6715 20.8886 15.0562C19.9676 14.4408 19.2499 13.5662 18.826 12.543C18.4022 11.5197 18.2913 10.3937 18.5073 9.30744C18.7234 8.22114 19.2568 7.22332 20.0399 6.44014C20.8231 5.65697 21.8209 5.12362 22.9072 4.90754C23.9935 4.69147 25.1195 4.80236 26.1428 5.22622C27.166 5.65007 28.0406 6.36783 28.656 7.28875C29.2713 8.20966 29.5997 9.29237 29.5997 10.3999C29.5978 11.8846 29.0072 13.3078 27.9574 14.3576C26.9076 15.4074 25.4844 15.998 23.9997 15.9999Z" fill="#007DC5"/>
<path d="M38.4002 32.7998C37.169 32.8204 35.9604 33.1333 34.8739 33.7127C33.7874 34.2922 32.8543 35.1216 32.1514 36.1326C33.1043 37.7969 33.6039 39.682 33.6002 41.5998C33.6782 43.0306 33.2765 44.4465 32.4586 45.623C33.9202 46.3246 36.0986 46.3998 38.4002 46.3998C44.0418 46.3998 46.4002 45.7326 46.4002 41.5998C46.4002 36.7478 42.8114 32.7998 38.4002 32.7998ZM39.2002 43.8526V43.9998C39.2002 44.212 39.1159 44.4155 38.9659 44.5655C38.8158 44.7155 38.6123 44.7998 38.4002 44.7998C38.188 44.7998 37.9845 44.7155 37.8345 44.5655C37.6845 44.4155 37.6002 44.212 37.6002 43.9998V43.8398C37.0638 43.6557 36.6102 43.2871 36.3202 42.7998C36.2216 42.6166 36.1982 42.4023 36.2551 42.2022C36.3119 42.0021 36.4444 41.832 36.6245 41.728C36.8046 41.6239 37.0181 41.5941 37.2198 41.6449C37.4215 41.6956 37.5955 41.8229 37.705 41.9998C37.7751 42.1213 37.876 42.2223 37.9975 42.2925C38.119 42.3627 38.2569 42.3997 38.3972 42.3998C38.5375 42.3999 38.6754 42.3631 38.797 42.2931C38.9186 42.223 39.0197 42.1223 39.09 42.0008C39.1604 41.8794 39.1975 41.7416 39.1978 41.6013C39.198 41.461 39.1614 41.323 39.0915 41.2014C39.0216 41.0797 38.9209 40.9785 38.7996 40.908C38.6782 40.8375 38.5405 40.8002 38.4002 40.7998C37.8347 40.8009 37.2871 40.6018 36.8544 40.2378C36.4216 39.8738 36.1317 39.3684 36.0359 38.8111C35.94 38.2539 36.0445 37.6807 36.3309 37.193C36.6172 36.7054 37.0668 36.3349 37.6002 36.147V35.9998C37.6002 35.7876 37.6845 35.5841 37.8345 35.4341C37.9845 35.2841 38.188 35.1998 38.4002 35.1998C38.6123 35.1998 38.8158 35.2841 38.9659 35.4341C39.1159 35.5841 39.2002 35.7876 39.2002 35.9998V36.1598C39.7365 36.344 40.1901 36.7125 40.4802 37.1998C40.5787 37.383 40.6021 37.5973 40.5453 37.7974C40.4885 37.9975 40.356 38.1676 40.1759 38.2716C39.9958 38.3757 39.7822 38.4055 39.5805 38.3547C39.3788 38.304 39.2048 38.1767 39.0954 37.9998C39.0252 37.8783 38.9243 37.7773 38.8028 37.7071C38.6813 37.6369 38.5435 37.5999 38.4031 37.5998C38.2628 37.5997 38.1249 37.6365 38.0033 37.7065C37.8817 37.7766 37.7807 37.8774 37.7103 37.9988C37.64 38.1202 37.6028 38.258 37.6026 38.3983C37.6023 38.5387 37.6389 38.6766 37.7088 38.7983C37.7787 38.9199 37.8794 39.0211 38.0007 39.0916C38.1221 39.1621 38.2598 39.1994 38.4002 39.1998C38.9656 39.1987 39.5132 39.3978 39.946 39.7618C40.3787 40.1258 40.6687 40.6312 40.7645 41.1885C40.8603 41.7457 40.7558 42.319 40.4695 42.8066C40.1832 43.2942 39.7335 43.6648 39.2002 43.8526Z" fill="#007DC5"/>
<path d="M23.999 32.7998C19.5878 32.7998 15.999 36.7478 15.999 41.5998C15.999 45.7326 18.3574 46.3998 23.999 46.3998C29.6406 46.3998 31.999 45.7326 31.999 41.5998C31.999 36.7478 28.4102 32.7998 23.999 32.7998ZM24.799 43.8526V43.9998C24.799 44.212 24.7147 44.4155 24.5647 44.5655C24.4147 44.7155 24.2112 44.7998 23.999 44.7998C23.7869 44.7998 23.5834 44.7155 23.4333 44.5655C23.2833 44.4155 23.199 44.212 23.199 43.9998V43.8398C22.6627 43.6557 22.2091 43.2871 21.919 42.7998C21.8205 42.6166 21.7971 42.4023 21.8539 42.2022C21.9107 42.0021 22.0432 41.832 22.2233 41.728C22.4034 41.6239 22.617 41.5941 22.8187 41.6449C23.0204 41.6956 23.1944 41.8229 23.3038 41.9998C23.374 42.1213 23.4749 42.2223 23.5964 42.2925C23.7179 42.3627 23.8557 42.3997 23.996 42.3998C24.1364 42.3999 24.2743 42.3631 24.3959 42.2931C24.5175 42.223 24.6185 42.1223 24.6889 42.0008C24.7592 41.8794 24.7964 41.7416 24.7966 41.6013C24.7969 41.461 24.7602 41.323 24.6904 41.2014C24.6205 41.0797 24.5198 40.9785 24.3984 40.908C24.2771 40.8375 24.1394 40.8002 23.999 40.7998C23.4336 40.8009 22.886 40.6018 22.4532 40.2378C22.0205 39.8738 21.7305 39.3684 21.6347 38.8111C21.5389 38.2539 21.6434 37.6807 21.9297 37.193C22.216 36.7054 22.6657 36.3349 23.199 36.147V35.9998C23.199 35.7876 23.2833 35.5841 23.4333 35.4341C23.5834 35.2841 23.7869 35.1998 23.999 35.1998C24.2112 35.1998 24.4147 35.2841 24.5647 35.4341C24.7147 35.5841 24.799 35.7876 24.799 35.9998V36.1598C25.3354 36.344 25.789 36.7125 26.079 37.1998C26.1776 37.383 26.2009 37.5973 26.1441 37.7974C26.0873 37.9975 25.9548 38.1676 25.7747 38.2716C25.5946 38.3757 25.3811 38.4055 25.1794 38.3547C24.9777 38.304 24.8037 38.1767 24.6942 37.9998C24.6241 37.8783 24.5232 37.7773 24.4017 37.7071C24.2802 37.6369 24.1423 37.5999 24.002 37.5998C23.8617 37.5997 23.7238 37.6365 23.6022 37.7065C23.4806 37.7766 23.3795 37.8774 23.3092 37.9988C23.2388 38.1202 23.2017 38.258 23.2014 38.3983C23.2011 38.5387 23.2378 38.6766 23.3077 38.7983C23.3776 38.9199 23.4783 39.0211 23.5996 39.0916C23.7209 39.1621 23.8587 39.1994 23.999 39.1998C24.5645 39.1987 25.1121 39.3978 25.5448 39.7618C25.9776 40.1258 26.2675 40.6312 26.3633 41.1885C26.4592 41.7457 26.3547 42.319 26.0683 42.8066C25.782 43.2942 25.3324 43.6648 24.799 43.8526Z" fill="#007DC5"/>
<path d="M9.59969 31.2001C10.2855 31.2046 10.9685 31.2889 11.6349 31.4513L14.3549 28.1537C13.8429 27.8017 13.2927 27.5086 12.7149 27.2801L12.3037 28.3513C12.2659 28.4494 12.2092 28.539 12.1368 28.6152C12.0644 28.6913 11.9776 28.7525 11.8816 28.7951C11.6876 28.8812 11.4674 28.8868 11.2693 28.8105C11.1712 28.7727 11.0815 28.716 11.0054 28.6436C10.9292 28.5712 10.8681 28.4845 10.8255 28.3884C10.7393 28.1944 10.7338 27.9742 10.8101 27.7761L11.5077 25.9617L11.5125 25.9545L11.8285 25.1305C11.362 24.9948 10.8835 24.9046 10.3997 24.8609V12.8001C10.3997 12.3758 10.5683 11.9688 10.8683 11.6687C11.1684 11.3687 11.5753 11.2001 11.9997 11.2001H13.5997V9.6001H11.9997C11.151 9.6001 10.3371 9.93724 9.73695 10.5374C9.13683 11.1375 8.79969 11.9514 8.79969 12.8001V24.8609C8.3162 24.9051 7.83803 24.9954 7.37169 25.1305L7.68689 25.9529L7.69169 25.9601L8.38929 27.7745C8.46557 27.9726 8.46004 28.1928 8.37392 28.3868C8.2878 28.5808 8.12815 28.7326 7.93009 28.8089C7.73203 28.8852 7.51177 28.8796 7.31779 28.7935C7.1238 28.7074 6.97197 28.5478 6.89569 28.3497L6.48449 27.2801C5.89778 27.5121 5.33971 27.8109 4.82129 28.1705L7.55409 31.4401C8.22433 31.281 8.91082 31.2004 9.59969 31.2001Z" fill="#007DC5"/>
<path d="M36.7299 28.8089C36.6318 28.8467 36.5273 28.8648 36.4222 28.8622C36.3171 28.8596 36.2136 28.8363 36.1175 28.7936C36.0215 28.751 35.9348 28.6898 35.8623 28.6137C35.7899 28.5375 35.7332 28.4478 35.6955 28.3497L35.2843 27.2801C34.6976 27.5121 34.1395 27.8109 33.6211 28.1705L36.3611 31.4505C37.7005 31.1188 39.1003 31.1157 40.4411 31.4417L43.1563 28.1529C42.6437 27.801 42.093 27.5082 41.5147 27.2801L41.1035 28.3513C41.0657 28.4494 41.009 28.539 40.9366 28.6152C40.8642 28.6913 40.7774 28.7525 40.6814 28.7951C40.5853 28.8378 40.4818 28.8611 40.3768 28.8637C40.2717 28.8664 40.1672 28.8483 40.0691 28.8105C39.971 28.7727 39.8813 28.716 39.8052 28.6436C39.729 28.5712 39.6679 28.4845 39.6253 28.3884C39.5826 28.2923 39.5593 28.1888 39.5567 28.0838C39.554 27.9787 39.5721 27.8742 39.6099 27.7761L40.3075 25.9617L40.3123 25.9545L40.6323 25.1305C40.1645 24.9946 39.6847 24.9043 39.1995 24.8609V12.8001C39.1995 11.9514 38.8624 11.1375 38.2622 10.5374C37.6621 9.93724 36.8482 9.6001 35.9995 9.6001H34.3995V11.2001H35.9995C36.4238 11.2001 36.8308 11.3687 37.1309 11.6687C37.4309 11.9688 37.5995 12.3758 37.5995 12.8001V24.8609C37.116 24.9051 36.6378 24.9954 36.1715 25.1305L36.4867 25.9529L36.4915 25.9601L37.1891 27.7745C37.2269 27.8726 37.245 27.9771 37.2424 28.0822C37.2398 28.1873 37.2165 28.2908 37.1738 28.3868C37.1312 28.4829 37.07 28.5696 36.9939 28.642C36.9177 28.7145 36.828 28.7712 36.7299 28.8089Z" fill="#007DC5"/>
<path d="M9.60059 32.7998C5.18939 32.7998 1.60059 36.7478 1.60059 41.5998C1.60059 45.7326 3.95899 46.3998 9.60059 46.3998C11.9022 46.3998 14.0806 46.3246 15.5422 45.623C14.7243 44.4465 14.3225 43.0306 14.4006 41.5998C14.3969 39.682 14.8964 37.7969 15.8494 36.1326C15.1465 35.1216 14.2133 34.2922 13.1268 33.7127C12.0404 33.1333 10.8317 32.8204 9.60059 32.7998ZM10.4006 43.8526V43.9998C10.4006 44.212 10.3163 44.4155 10.1663 44.5655C10.0162 44.7155 9.81276 44.7998 9.60059 44.7998C9.38841 44.7998 9.18493 44.7155 9.0349 44.5655C8.88487 44.4155 8.80059 44.212 8.80059 43.9998V43.8398C8.26422 43.6557 7.81063 43.2871 7.52059 42.7998C7.42202 42.6166 7.39866 42.4023 7.45547 42.2022C7.51227 42.0021 7.64477 41.832 7.82487 41.728C8.00498 41.6239 8.21852 41.5941 8.42023 41.6449C8.62194 41.6956 8.79596 41.8229 8.90539 41.9998C8.97555 42.1213 9.07645 42.2223 9.19795 42.2925C9.31945 42.3627 9.45728 42.3997 9.59761 42.3998C9.73794 42.3999 9.87583 42.3631 9.99743 42.2931C10.119 42.223 10.2201 42.1223 10.2904 42.0008C10.3608 41.8794 10.3979 41.7416 10.3982 41.6013C10.3985 41.461 10.3618 41.323 10.2919 41.2014C10.222 41.0797 10.1214 40.9785 10 40.908C9.87866 40.8375 9.74091 40.8002 9.60059 40.7998C9.03513 40.8009 8.48753 40.6018 8.05479 40.2378C7.62205 39.8738 7.3321 39.3684 7.23628 38.8111C7.14046 38.2539 7.24496 37.6807 7.53128 37.193C7.81759 36.7054 8.26724 36.3349 8.80059 36.147V35.9998C8.80059 35.7876 8.88487 35.5841 9.0349 35.4341C9.18493 35.2841 9.38841 35.1998 9.60059 35.1998C9.81276 35.1998 10.0162 35.2841 10.1663 35.4341C10.3163 35.5841 10.4006 35.7876 10.4006 35.9998V36.1598C10.9369 36.344 11.3905 36.7125 11.6806 37.1998C11.7792 37.383 11.8025 37.5973 11.7457 37.7974C11.6889 37.9975 11.5564 38.1676 11.3763 38.2716C11.1962 38.3757 10.9827 38.4055 10.7809 38.3547C10.5792 38.304 10.4052 38.1767 10.2958 37.9998C10.2256 37.8783 10.1247 37.7773 10.0032 37.7071C9.88172 37.6369 9.74389 37.5999 9.60356 37.5998C9.46323 37.5997 9.32535 37.6365 9.20374 37.7065C9.08213 37.7766 8.98109 37.8774 8.91074 37.9988C8.8404 38.1202 8.80323 38.258 8.80297 38.3983C8.80271 38.5387 8.83936 38.6766 8.90926 38.7983C8.97915 38.9199 9.07982 39.0211 9.20117 39.0916C9.32251 39.1621 9.46026 39.1994 9.60059 39.1998C10.166 39.1987 10.7136 39.3978 11.1464 39.7618C11.5791 40.1258 11.8691 40.6312 11.9649 41.1885C12.0607 41.7457 11.9562 42.319 11.6699 42.8066C11.3836 43.2942 10.9339 43.6648 10.4006 43.8526Z" fill="#007DC5"/>
<path d="M22.3305 28.8086C22.2324 28.8464 22.1279 28.8645 22.0228 28.8619C21.9177 28.8593 21.8142 28.836 21.7181 28.7933C21.6221 28.7507 21.5354 28.6895 21.4629 28.6134C21.3905 28.5372 21.3338 28.4475 21.2961 28.3494L20.8849 27.2798C20.2982 27.5118 19.7401 27.8106 19.2217 28.1702L21.9545 31.4398C23.2979 31.1161 24.699 31.1161 26.0425 31.4398L28.7577 28.151C28.2448 27.7996 27.6938 27.5074 27.1153 27.2798L26.7041 28.351C26.6663 28.4491 26.6096 28.5387 26.5372 28.6149C26.4648 28.6911 26.378 28.7522 26.282 28.7948C26.1859 28.8375 26.0824 28.8608 25.9774 28.8634C25.8723 28.8661 25.7678 28.848 25.6697 28.8102C25.5716 28.7724 25.4819 28.7157 25.4058 28.6433C25.3296 28.5709 25.2685 28.4842 25.2258 28.3881C25.1832 28.2921 25.1599 28.1885 25.1573 28.0835C25.1546 27.9784 25.1727 27.8739 25.2105 27.7758L25.9081 25.9614L25.9129 25.9542L26.2329 25.1302C25.7651 24.9943 25.2853 24.904 24.8001 24.8606V20.7998H23.2001V24.8606C22.7166 24.9049 22.2384 24.9951 21.7721 25.1302L22.0873 25.9526L22.0921 25.9598L22.7897 27.7742C22.8275 27.8723 22.8456 27.9768 22.843 28.0819C22.8404 28.187 22.8171 28.2905 22.7744 28.3866C22.7318 28.4826 22.6706 28.5693 22.5944 28.6417C22.5183 28.7142 22.4286 28.7709 22.3305 28.8086Z" fill="#007DC5"/>
<path d="M24.001 6.3999C23.2099 6.3999 22.4365 6.6345 21.7787 7.07402C21.1209 7.51355 20.6082 8.13826 20.3055 8.86917C20.0027 9.60007 19.9235 10.4043 20.0778 11.1803C20.2322 11.9562 20.6131 12.6689 21.1726 13.2283C21.732 13.7877 22.4447 14.1687 23.2206 14.323C23.9965 14.4774 24.8008 14.3982 25.5317 14.0954C26.2626 13.7927 26.8873 13.28 27.3269 12.6222C27.7664 11.9644 28.001 11.191 28.001 10.3999C28.001 9.33904 27.5796 8.32162 26.8294 7.57148C26.0793 6.82133 25.0618 6.3999 24.001 6.3999ZM24.001 12.7999C23.5263 12.7999 23.0623 12.6591 22.6676 12.3954C22.2729 12.1317 21.9653 11.7569 21.7837 11.3183C21.602 10.8798 21.5545 10.3972 21.6471 9.93169C21.7397 9.46613 21.9683 9.03849 22.3039 8.70285C22.6396 8.3672 23.0672 8.13862 23.5328 8.04602C23.9983 7.95341 24.4809 8.00094 24.9194 8.18259C25.358 8.36424 25.7328 8.67186 25.9965 9.06653C26.2602 9.46121 26.401 9.92523 26.401 10.3999C26.401 11.0364 26.1481 11.6469 25.698 12.097C25.2479 12.547 24.6375 12.7999 24.001 12.7999Z" fill="#007DC5"/>
</svg>
