<svg width="48" height="48" viewBox="0 0 48 48" fill="none" xmlns="http://www.w3.org/2000/svg">
<path d="M18 4.5C18 3.6709 17.3284 3 16.5 3H10.5C9.67163 3 9 3.6709 9 4.5V12H18V4.5Z" fill="#007DC5"/>
<path d="M39 4.5C39 3.6709 38.3284 3 37.5 3H31.5C30.6716 3 30 3.6709 30 4.5V12H39V4.5Z" fill="#007DC5"/>
<path d="M18 36.751C18 37.0542 17.8176 37.3282 17.5371 37.4439C17.2551 37.5581 16.9343 37.4951 16.7197 37.2813L10.7197 32.0303C10.4268 31.7373 10.4268 31.2627 10.7197 30.9697L16.7197 25.7197C16.9343 25.5059 17.2559 25.4429 17.5371 25.5571C17.8176 25.6729 18 25.9468 18 26.25V28.5H31.5V30.4395L35.6895 27L31.5 23.5595V25.5H24V13.5H4.5C3.67163 13.5 3 14.1709 3 15V43.5C3 44.3291 3.67163 45 4.5 45H22.5V34.5H18V36.751Z" fill="#007DC5"/>
<path d="M43.501 13.5H25.501V24H30.001V21.749C30.001 21.4458 30.1833 21.1718 30.4639 21.0561C30.7458 20.9419 31.0667 21.0049 31.2812 21.2187L37.2812 26.4697C37.5742 26.7627 37.5742 27.2373 37.2812 27.5303L31.2812 32.7803C31.0667 32.9941 30.7451 33.0571 30.4639 32.9429C30.1833 32.8271 30.001 32.5532 30.001 32.25V30H16.501V28.0605L12.3115 31.5L16.501 34.9405V33H24.001V45H43.501C44.3293 45 45.001 44.3291 45.001 43.5V15C45.001 14.1709 44.3293 13.5 43.501 13.5Z" fill="#007DC5"/>
</svg>
